<?xml version="1.0" encoding="UTF-8" standalone="no"?>
<svg
   xmlns:dc="http://purl.org/dc/elements/1.1/"
   xmlns:cc="http://creativecommons.org/ns#"
   xmlns:rdf="http://www.w3.org/1999/02/22-rdf-syntax-ns#"
   xmlns:svg="http://www.w3.org/2000/svg"
   xmlns="http://www.w3.org/2000/svg"
   xmlns:sodipodi="http://sodipodi.sourceforge.net/DTD/sodipodi-0.dtd"
   xmlns:inkscape="http://www.inkscape.org/namespaces/inkscape"
   version="1.1"
   viewBox="0 0 523.84375 230.96875"
   stroke-miterlimit="10"
   id="svg2"
   inkscape:version="0.48.4 r9939"
   width="100%"
   height="100%"
   sodipodi:docname="ara-camera-properties-layout.svg"
   style="fill:none;stroke:none">
  <metadata
     id="metadata137">
    <rdf:RDF>
      <cc:Work
         rdf:about="">
        <dc:format>image/svg+xml</dc:format>
        <dc:type
           rdf:resource="http://purl.org/dc/dcmitype/StillImage" />
      </cc:Work>
    </rdf:RDF>
  </metadata>
  <defs
     id="defs135" />
  <sodipodi:namedview
     pagecolor="#ffffff"
     bordercolor="#666666"
     borderopacity="1"
     objecttolerance="10"
     gridtolerance="10"
     guidetolerance="10"
     inkscape:pageopacity="0"
     inkscape:pageshadow="2"
     inkscape:window-width="1920"
     inkscape:window-height="1056"
     id="namedview133"
     showgrid="false"
     fit-margin-top="0"
     fit-margin-left="0"
     fit-margin-right="0"
     fit-margin-bottom="0"
     inkscape:zoom="1.7481481"
     inkscape:cx="280.79213"
     inkscape:cy="29.9101"
     inkscape:window-x="0"
     inkscape:window-y="24"
     inkscape:window-maximized="1"
     inkscape:current-layer="svg2" />
  <clipPath
     id="p.0">
    <path
       d="M 0,0 720,0 720,540 0,540 0,0 z"
       clip-rule="nonzero"
       id="path5"
       inkscape:connector-curvature="0" />
  </clipPath>
  <g
     clip-path="url(#p.0)"
     id="g7"
     transform="translate(-44.6875,-13.21875)">
    <path
       d="m 0,0 720,0 0,540 -720,0 z"
       id="path9"
       inkscape:connector-curvature="0"
       style="fill:#000000;fill-opacity:0;fill-rule:nonzero" />
    <path
       d="m 64,176 0,-97.826775 32,0 L 96,176 z"
       id="path11"
       inkscape:connector-curvature="0"
       style="fill:#000000;fill-opacity:0;fill-rule:nonzero" />
    <path
       d="m 64,176 0,-97.826775 32,0 L 96,176 z"
       id="path13"
       inkscape:connector-curvature="0"
       style="stroke:#000000;stroke-width:1;stroke-linecap:butt;stroke-linejoin:round" />
    <path
       d="m 81.76875,166.53125 -0.171875,-1.82813 q 0.921875,-0.17187 1.359375,-0.67187 0.421875,-0.5 0.421875,-1.35938 0,-0.90625 -0.375,-1.35937 -0.390625,-0.46875 -0.90625,-0.46875 -0.328125,0 -0.5625,0.20312 -0.234375,0.1875 -0.40625,0.67188 -0.109375,0.32812 -0.40625,1.5 -0.375,1.51562 -0.921875,2.125 -0.765625,0.84375 -1.875,0.84375 -0.703125,0 -1.3125,-0.39063 -0.625,-0.40625 -0.953125,-1.15625 -0.328125,-0.76562 -0.328125,-1.84375 0,-1.75 0.78125,-2.625 0.765625,-0.89062 2.046875,-0.9375 l 0.07813,1.875 q -0.71875,0.125 -1.03125,0.51563 -0.3125,0.39062 -0.3125,1.1875 0,0.82812 0.328125,1.28125 0.21875,0.29687 0.578125,0.29687 0.328125,0 0.5625,-0.26562 0.3125,-0.35938 0.640625,-1.73438 0.3125,-1.375 0.65625,-2.03125 0.34375,-0.65625 0.953125,-1.01562 0.59375,-0.375 1.484375,-0.375 0.796875,0 1.5,0.45312 0.6875,0.4375 1.03125,1.25 0.34375,0.8125 0.34375,2.01563 0,1.76562 -0.8125,2.71875 -0.828125,0.9375 -2.390625,1.125 z m 3.03125,-9.31163 -9.3125,0 0,-1.875 9.3125,0 0,1.875 z m 0,-2.95299 -1.6875,0 -6.046875,-4.89062 0,4.34375 -1.578125,0 0,-6.8125 1.46875,0 6.28125,5.09375 0,-5.29688 1.5625,0 0,7.5625 z m 0,-8.95385 -9.3125,0 0,-6.89063 1.578125,0 0,5.01563 2.0625,0 0,-4.67188 1.578125,0 0,4.67188 2.53125,0 0,-5.20313 1.5625,0 0,7.07813 z"
       id="path15"
       inkscape:connector-curvature="0"
       style="fill:#000000;fill-rule:nonzero" />
    <path
       d="m 96,176 0,-97.826775 32,0 L 128,176 z"
       id="path17"
       inkscape:connector-curvature="0"
       style="fill:#000000;fill-opacity:0;fill-rule:nonzero" />
    <path
       d="m 96,176 0,-97.826775 32,0 L 128,176 z"
       id="path19"
       inkscape:connector-curvature="0"
       style="stroke:#000000;stroke-width:1;stroke-linecap:butt;stroke-linejoin:round" />
    <path
       d="m 116.8,166.03125 -9.3125,0 0,-1.82813 6.21875,-3.8125 -6.21875,0 0,-1.73437 9.3125,0 0,1.875 -6.0625,3.76562 6.0625,0 0,1.73438 z m 0,-9.60953 -9.3125,0 0,-3.01562 q 0,-1.70313 0.14062,-2.23438 0.21875,-0.79687 0.92188,-1.32812 0.70312,-0.54688 1.8125,-0.54688 0.84375,0 1.4375,0.3125 0.57812,0.3125 0.92187,0.79688 0.32813,0.46875 0.4375,0.96875 0.125,0.67187 0.125,1.95312 l 0,1.21875 3.51563,0 0,1.875 z m -7.73438,-1.875 2.64063,0 0,-1.03125 q 0,-1.10937 -0.14063,-1.48437 -0.15625,-0.375 -0.45312,-0.57813 -0.3125,-0.21875 -0.73438,-0.21875 -0.5,0 -0.82812,0.29688 -0.32813,0.29687 -0.42188,0.76562 -0.0625,0.32813 -0.0625,1.34375 l 0,0.90625 z m 7.73438,-7.01475 -9.3125,0 0,-3.95313 q 0,-1.5 0.26562,-2.17187 0.25,-0.67188 0.89063,-1.07813 0.64062,-0.40625 1.45312,-0.40625 1.04688,0 1.73438,0.625 0.6875,0.60938 0.85937,1.82813 0.35938,-0.60938 0.78125,-1 0.42188,-0.40625 1.51563,-1.07813 l 1.8125,-1.125 0,2.23438 -2.03125,1.35937 q -1.07813,0.73438 -1.35938,1 -0.28125,0.26563 -0.39062,0.5625 -0.10938,0.29688 -0.10938,0.9375 l 0,0.39063 3.89063,0 0,1.875 z m -5.375,-1.875 0,-1.39063 q 0,-1.35937 -0.10938,-1.6875 -0.10937,-0.34375 -0.39062,-0.53125 -0.28125,-0.1875 -0.70313,-0.1875 -0.46875,0 -0.75,0.25 -0.29687,0.25 -0.375,0.70313 -0.0312,0.23437 -0.0312,1.375 l 0,1.46875 2.35938,0 z m 0.78125,-7.35953 q -1.42188,0 -2.39063,-0.42188 -0.70312,-0.32812 -1.26562,-0.875 -0.57813,-0.54687 -0.84375,-1.20312 -0.375,-0.85938 -0.375,-2 0,-2.0625 1.28125,-3.29688 1.28125,-1.23437 3.54687,-1.23437 2.25,0 3.53125,1.23437 1.26563,1.21875 1.26563,3.26563 0,2.07812 -1.26563,3.3125 -1.26562,1.21875 -3.48437,1.21875 z m -0.0625,-1.9375 q 1.57812,0 2.39062,-0.73438 0.8125,-0.73437 0.8125,-1.84375 0,-1.125 -0.79687,-1.84375 -0.8125,-0.73437 -2.4375,-0.73437 -1.59375,0 -2.375,0.70312 -0.79688,0.70313 -0.79688,1.875 0,1.15625 0.79688,1.875 0.79687,0.70313 2.40625,0.70313 z m 4.65625,-8.82018 -9.3125,0 0,-3.01562 q 0,-1.70313 0.14062,-2.23438 0.21875,-0.79687 0.92188,-1.32812 0.70312,-0.54688 1.8125,-0.54688 0.84375,0 1.4375,0.3125 0.57812,0.3125 0.92187,0.79688 0.32813,0.46875 0.4375,0.96875 0.125,0.67187 0.125,1.95312 l 0,1.21875 3.51563,0 0,1.875 z m -7.73438,-1.875 2.64063,0 0,-1.03125 q 0,-1.10937 -0.14063,-1.48437 -0.15625,-0.375 -0.45312,-0.57813 -0.3125,-0.21875 -0.73438,-0.21875 -0.5,0 -0.82812,0.29688 -0.32813,0.29687 -0.42188,0.76562 -0.0625,0.32813 -0.0625,1.34375 l 0,0.90625 z m 4.70313,-6.53038 -0.17188,-1.82812 q 0.92188,-0.17188 1.35938,-0.67188 0.42187,-0.5 0.42187,-1.35937 0,-0.90625 -0.375,-1.35938 -0.39062,-0.46875 -0.90625,-0.46875 -0.32812,0 -0.5625,0.20313 -0.23437,0.1875 -0.40625,0.67187 -0.10937,0.32813 -0.40625,1.5 -0.375,1.51563 -0.92187,2.125 -0.76563,0.84375 -1.875,0.84375 -0.70313,0 -1.3125,-0.39062 -0.625,-0.40625 -0.95313,-1.15625 -0.32812,-0.76563 -0.32812,-1.84375 0,-1.75 0.78125,-2.625 0.76562,-0.89063 2.04687,-0.9375 l 0.0781,1.875 q -0.71875,0.125 -1.03125,0.51562 -0.3125,0.39063 -0.3125,1.1875 0,0.82813 0.32812,1.28125 0.21875,0.29688 0.57813,0.29688 0.32812,0 0.5625,-0.26563 0.3125,-0.35937 0.64062,-1.73437 0.3125,-1.375 0.65625,-2.03125 0.34375,-0.65625 0.95313,-1.01563 0.59375,-0.375 1.48437,-0.375 0.79688,0 1.5,0.45313 0.6875,0.4375 1.03125,1.25 0.34375,0.8125 0.34375,2.01562 0,1.76563 -0.8125,2.71875 -0.82812,0.9375 -2.39062,1.125 z"
       id="path21"
       inkscape:connector-curvature="0"
       style="fill:#000000;fill-rule:nonzero" />
    <path
       d="m 128,176 0,-97.826775 32,0 L 160,176 z"
       id="path23"
       inkscape:connector-curvature="0"
       style="fill:#000000;fill-opacity:0;fill-rule:nonzero" />
    <path
       d="m 128,176 0,-97.826775 32,0 L 160,176 z"
       id="path25"
       inkscape:connector-curvature="0"
       style="stroke:#000000;stroke-width:1;stroke-linecap:butt;stroke-linejoin:round" />
    <path
       d="m 148.8,166.03125 -9.3125,0 0,-1.875 4.14062,0 -4.14062,-3.79688 0,-2.53125 3.625,3.5 5.6875,-3.6875 0,2.42188 -4.375,2.5625 1.5625,1.53125 2.8125,0 0,1.875 z m 0,-9.60953 -9.3125,0 0,-6.89062 1.57812,0 0,5.01562 2.0625,0 0,-4.67187 1.57813,0 0,4.67187 2.53125,0 0,-5.20312 1.5625,0 0,7.07812 z m 0,-11.32725 -3.92188,0 -5.39062,3.40625 0,-2.20313 3.6875,-2.1875 -3.6875,-2.14062 0,-2.17188 5.40625,3.42188 3.90625,0 0,1.875 z"
       id="path27"
       inkscape:connector-curvature="0"
       style="fill:#000000;fill-rule:nonzero" />
    <path
       d="m 160,176 0,-97.826775 32,0 L 192,176 z"
       id="path29"
       inkscape:connector-curvature="0"
       style="fill:#000000;fill-opacity:0;fill-rule:nonzero" />
    <path
       d="m 160,176 0,-97.826775 32,0 L 192,176 z"
       id="path31"
       inkscape:connector-curvature="0"
       style="stroke:#000000;stroke-width:1;stroke-linecap:butt;stroke-linejoin:round" />
    <path
       d="m 180.8,166 -9.23438,0 0,-1.875 7.67188,0 0,-4.67188 1.5625,0 0,6.54688 z m 0,-8.09448 -9.3125,0 0,-6.89063 1.57812,0 0,5.01563 2.0625,0 0,-4.67188 1.57813,0 0,4.67188 2.53125,0 0,-5.20313 1.5625,0 0,7.07813 z m 0,-8.90538 -9.3125,0 0,-1.82813 6.21875,-3.8125 -6.21875,0 0,-1.73437 9.3125,0 0,1.875 -6.0625,3.76562 6.0625,0 0,1.73438 z m -3.42188,-13.93766 -1.5625,0 0,-4.04687 3.70313,0 q 0.5625,0.59375 1,1.71875 0.4375,1.10937 0.4375,2.26562 0,1.45313 -0.60938,2.54688 -0.60937,1.07812 -1.75,1.625 -1.14062,0.54687 -2.48437,0.54687 -1.45313,0 -2.57813,-0.60937 -1.125,-0.60938 -1.73437,-1.78125 -0.46875,-0.89063 -0.46875,-2.23438 0,-1.71875 0.73437,-2.6875 0.71875,-0.98437 2,-1.26562 l 0.35938,1.85937 q -0.6875,0.20313 -1.07813,0.75 -0.40625,0.53125 -0.40625,1.34375 0,1.23438 0.78125,1.96875 0.78125,0.71875 2.3125,0.71875 1.65625,0 2.48438,-0.73437 0.82812,-0.73438 0.82812,-1.92188 0,-0.59375 -0.21875,-1.1875 -0.23437,-0.59375 -0.5625,-1.01562 l -1.1875,0 0,2.14062 z m 3.42188,-8.13267 -7.73438,0 0,2.76562 -1.57812,0 0,-7.39062 1.57812,0 0,2.75 7.73438,0 0,1.875 z m 0,-6.04761 -9.3125,0 0,-1.875 3.67187,0 0,-3.6875 -3.67187,0 0,-1.875 9.3125,0 0,1.875 -4.0625,0 0,3.6875 4.0625,0 0,1.875 z"
       id="path33"
       inkscape:connector-curvature="0"
       style="fill:#000000;fill-rule:nonzero" />
    <path
       d="m 192,176 0,-97.826775 32,0 L 224,176 z"
       id="path35"
       inkscape:connector-curvature="0"
       style="fill:#000000;fill-opacity:0;fill-rule:nonzero" />
    <path
       d="m 192,176 0,-97.826775 32,0 L 224,176 z"
       id="path37"
       inkscape:connector-curvature="0"
       style="stroke:#000000;stroke-width:1;stroke-linecap:butt;stroke-linejoin:round" />
    <path
       d="m 212.8,163.6875 -9.3125,3.3125 0,-2.03125 6.89062,-2.35938 -6.89062,-2.28125 0,-1.98437 9.3125,3.32812 0,2.01563 z m 0,-14.92101 0,2.04688 -2.10938,0.8125 0,3.71875 2.10938,0.76562 0,2 -9.3125,-3.625 0,-1.98437 9.3125,-3.73438 z m -3.6875,3.46875 -3.45313,1.28125 3.45313,1.25 0,-2.53125 z m 3.6875,-4.75015 -9.23438,0 0,-1.875 7.67188,0 0,-4.67187 1.5625,0 0,6.54687 z m -9.3125,-8.07885 0,-1.875 5.04687,0 q 1.20313,0 1.5625,-0.0625 0.5625,-0.125 0.90625,-0.57813 0.34375,-0.45312 0.34375,-1.25 0,-0.79687 -0.3125,-1.20312 -0.32812,-0.40625 -0.79687,-0.48438 -0.48438,-0.0781 -1.59375,-0.0781 l -5.15625,0 0,-1.89063 4.89062,0 q 1.67188,0 2.375,0.15625 0.6875,0.15625 1.17188,0.5625 0.46875,0.40625 0.75,1.09375 0.28125,0.6875 0.28125,1.79688 0,1.32812 -0.29688,2.01562 -0.3125,0.6875 -0.79687,1.09375 -0.5,0.39063 -1.04688,0.51563 -0.79687,0.1875 -2.35937,0.1875 l -4.96875,0 z m 9.3125,-9.64078 -9.3125,0 0,-6.89063 1.57812,0 0,5.01563 2.0625,0 0,-4.67188 1.57813,0 0,4.67188 2.53125,0 0,-5.20313 1.5625,0 0,7.07813 z"
       id="path39"
       inkscape:connector-curvature="0"
       style="fill:#000000;fill-rule:nonzero" />
    <path
       d="m 224,176 0,-97.826775 32,0 L 256,176 z"
       id="path41"
       inkscape:connector-curvature="0"
       style="fill:#000000;fill-opacity:0;fill-rule:nonzero" />
    <path
       d="m 224,176 0,-97.826775 32,0 L 256,176 z"
       id="path43"
       inkscape:connector-curvature="0"
       style="stroke:#000000;stroke-width:1;stroke-linecap:butt;stroke-linejoin:round" />
    <path
       d="m 244.8,166.03125 -9.3125,0 0,-1.875 4.14062,0 -4.14062,-3.79688 0,-2.53125 3.625,3.5 5.6875,-3.6875 0,2.42188 -4.375,2.5625 1.5625,1.53125 2.8125,0 0,1.875 z m 0,-9.60953 -9.3125,0 0,-6.89062 1.57812,0 0,5.01562 2.0625,0 0,-4.67187 1.57813,0 0,4.67187 2.53125,0 0,-5.20312 1.5625,0 0,7.07812 z m 0,-11.32725 -3.92188,0 -5.39062,3.40625 0,-2.20313 3.6875,-2.1875 -3.6875,-2.14062 0,-2.17188 5.40625,3.42188 3.90625,0 0,1.875 z"
       id="path45"
       inkscape:connector-curvature="0"
       style="fill:#000000;fill-rule:nonzero" />
    <path
       d="m 256,176 0,-97.826775 32,0 L 288,176 z"
       id="path47"
       inkscape:connector-curvature="0"
       style="fill:#000000;fill-opacity:0;fill-rule:nonzero" />
    <path
       d="m 256,176 0,-97.826775 32,0 L 288,176 z"
       id="path49"
       inkscape:connector-curvature="0"
       style="stroke:#000000;stroke-width:1;stroke-linecap:butt;stroke-linejoin:round" />
    <path
       d="m 276.8,166 -9.23438,0 0,-1.875 7.67188,0 0,-4.67188 1.5625,0 0,6.54688 z m 0,-8.09448 -9.3125,0 0,-6.89063 1.57812,0 0,5.01563 2.0625,0 0,-4.67188 1.57813,0 0,4.67188 2.53125,0 0,-5.20313 1.5625,0 0,7.07813 z m 0,-8.90538 -9.3125,0 0,-1.82813 6.21875,-3.8125 -6.21875,0 0,-1.73437 9.3125,0 0,1.875 -6.0625,3.76562 6.0625,0 0,1.73438 z m -3.42188,-13.93766 -1.5625,0 0,-4.04687 3.70313,0 q 0.5625,0.59375 1,1.71875 0.4375,1.10937 0.4375,2.26562 0,1.45313 -0.60938,2.54688 -0.60937,1.07812 -1.75,1.625 -1.14062,0.54687 -2.48437,0.54687 -1.45313,0 -2.57813,-0.60937 -1.125,-0.60938 -1.73437,-1.78125 -0.46875,-0.89063 -0.46875,-2.23438 0,-1.71875 0.73437,-2.6875 0.71875,-0.98437 2,-1.26562 l 0.35938,1.85937 q -0.6875,0.20313 -1.07813,0.75 -0.40625,0.53125 -0.40625,1.34375 0,1.23438 0.78125,1.96875 0.78125,0.71875 2.3125,0.71875 1.65625,0 2.48438,-0.73437 0.82812,-0.73438 0.82812,-1.92188 0,-0.59375 -0.21875,-1.1875 -0.23437,-0.59375 -0.5625,-1.01562 l -1.1875,0 0,2.14062 z m 3.42188,-8.13267 -7.73438,0 0,2.76562 -1.57812,0 0,-7.39062 1.57812,0 0,2.75 7.73438,0 0,1.875 z m 0,-6.04761 -9.3125,0 0,-1.875 3.67187,0 0,-3.6875 -3.67187,0 0,-1.875 9.3125,0 0,1.875 -4.0625,0 0,3.6875 4.0625,0 0,1.875 z"
       id="path51"
       inkscape:connector-curvature="0"
       style="fill:#000000;fill-rule:nonzero" />
    <path
       d="m 288,176 0,-97.826775 96,0 L 384,176 z"
       id="path53"
       inkscape:connector-curvature="0"
       style="fill:#000000;fill-opacity:0;fill-rule:nonzero" />
    <path
       d="m 288,176 0,-97.826775 96,0 L 384,176 z"
       id="path55"
       inkscape:connector-curvature="0"
       style="stroke:#000000;stroke-width:1;stroke-linecap:butt;stroke-linejoin:round" />
    <path
       d="m 340.8,163.6875 -9.3125,3.3125 0,-2.03125 6.89062,-2.35938 -6.89062,-2.28125 0,-1.98437 9.3125,3.32812 0,2.01563 z m 0,-14.92101 0,2.04688 -2.10938,0.8125 0,3.71875 2.10938,0.76562 0,2 -9.3125,-3.625 0,-1.98437 9.3125,-3.73438 z m -3.6875,3.46875 -3.45313,1.28125 3.45313,1.25 0,-2.53125 z m 3.6875,-4.75015 -9.23438,0 0,-1.875 7.67188,0 0,-4.67187 1.5625,0 0,6.54687 z m -9.3125,-8.07885 0,-1.875 5.04687,0 q 1.20313,0 1.5625,-0.0625 0.5625,-0.125 0.90625,-0.57813 0.34375,-0.45312 0.34375,-1.25 0,-0.79687 -0.3125,-1.20312 -0.32812,-0.40625 -0.79687,-0.48438 -0.48438,-0.0781 -1.59375,-0.0781 l -5.15625,0 0,-1.89063 4.89062,0 q 1.67188,0 2.375,0.15625 0.6875,0.15625 1.17188,0.5625 0.46875,0.40625 0.75,1.09375 0.28125,0.6875 0.28125,1.79688 0,1.32812 -0.29688,2.01562 -0.3125,0.6875 -0.79687,1.09375 -0.5,0.39063 -1.04688,0.51563 -0.79687,0.1875 -2.35937,0.1875 l -4.96875,0 z m 9.3125,-9.64078 -9.3125,0 0,-6.89063 1.57812,0 0,5.01563 2.0625,0 0,-4.67188 1.57813,0 0,4.67188 2.53125,0 0,-5.20313 1.5625,0 0,7.07813 z"
       id="path57"
       inkscape:connector-curvature="0"
       style="fill:#000000;fill-rule:nonzero" />
    <path
       d="m 448,176 0,-97.826775 32,0 L 480,176 z"
       id="path59"
       inkscape:connector-curvature="0"
       style="fill:#000000;fill-opacity:0;fill-rule:nonzero" />
    <path
       d="m 448,176 0,-97.826775 32,0 L 480,176 z"
       id="path61"
       inkscape:connector-curvature="0"
       style="stroke:#000000;stroke-width:1;stroke-linecap:butt;stroke-linejoin:round" />
    <path
       d="m 468.8,166.03125 -9.3125,0 0,-1.875 4.14062,0 -4.14062,-3.79688 0,-2.53125 3.625,3.5 5.6875,-3.6875 0,2.42188 -4.375,2.5625 1.5625,1.53125 2.8125,0 0,1.875 z m 0,-9.60953 -9.3125,0 0,-6.89062 1.57812,0 0,5.01562 2.0625,0 0,-4.67187 1.57813,0 0,4.67187 2.53125,0 0,-5.20312 1.5625,0 0,7.07812 z m 0,-11.32725 -3.92188,0 -5.39062,3.40625 0,-2.20313 3.6875,-2.1875 -3.6875,-2.14062 0,-2.17188 5.40625,3.42188 3.90625,0 0,1.875 z"
       id="path63"
       inkscape:connector-curvature="0"
       style="fill:#000000;fill-rule:nonzero" />
    <path
       d="m 480,176 0,-97.826775 32,0 L 512,176 z"
       id="path65"
       inkscape:connector-curvature="0"
       style="fill:#000000;fill-opacity:0;fill-rule:nonzero" />
    <path
       d="m 480,176 0,-97.826775 32,0 L 512,176 z"
       id="path67"
       inkscape:connector-curvature="0"
       style="stroke:#000000;stroke-width:1;stroke-linecap:butt;stroke-linejoin:round" />
    <path
       d="m 500.8,166 -9.23438,0 0,-1.875 7.67188,0 0,-4.67188 1.5625,0 0,6.54688 z m 0,-8.09448 -9.3125,0 0,-6.89063 1.57812,0 0,5.01563 2.0625,0 0,-4.67188 1.57813,0 0,4.67188 2.53125,0 0,-5.20313 1.5625,0 0,7.07813 z m 0,-8.90538 -9.3125,0 0,-1.82813 6.21875,-3.8125 -6.21875,0 0,-1.73437 9.3125,0 0,1.875 -6.0625,3.76562 6.0625,0 0,1.73438 z m -3.42188,-13.93766 -1.5625,0 0,-4.04687 3.70313,0 q 0.5625,0.59375 1,1.71875 0.4375,1.10937 0.4375,2.26562 0,1.45313 -0.60938,2.54688 -0.60937,1.07812 -1.75,1.625 -1.14062,0.54687 -2.48437,0.54687 -1.45313,0 -2.57813,-0.60937 -1.125,-0.60938 -1.73437,-1.78125 -0.46875,-0.89063 -0.46875,-2.23438 0,-1.71875 0.73437,-2.6875 0.71875,-0.98437 2,-1.26562 l 0.35938,1.85937 q -0.6875,0.20313 -1.07813,0.75 -0.40625,0.53125 -0.40625,1.34375 0,1.23438 0.78125,1.96875 0.78125,0.71875 2.3125,0.71875 1.65625,0 2.48438,-0.73437 0.82812,-0.73438 0.82812,-1.92188 0,-0.59375 -0.21875,-1.1875 -0.23437,-0.59375 -0.5625,-1.01562 l -1.1875,0 0,2.14062 z m 3.42188,-8.13267 -7.73438,0 0,2.76562 -1.57812,0 0,-7.39062 1.57812,0 0,2.75 7.73438,0 0,1.875 z m 0,-6.04761 -9.3125,0 0,-1.875 3.67187,0 0,-3.6875 -3.67187,0 0,-1.875 9.3125,0 0,1.875 -4.0625,0 0,3.6875 4.0625,0 0,1.875 z"
       id="path69"
       inkscape:connector-curvature="0"
       style="fill:#000000;fill-rule:nonzero" />
    <path
       d="m 512,176 0,-97.826775 32,0 L 544,176 z"
       id="path71"
       inkscape:connector-curvature="0"
       style="fill:#000000;fill-opacity:0;fill-rule:nonzero" />
    <path
       d="m 512,176 0,-97.826775 32,0 L 544,176 z"
       id="path73"
       inkscape:connector-curvature="0"
       style="stroke:#000000;stroke-width:1;stroke-linecap:butt;stroke-linejoin:round" />
    <path
       d="m 532.8,163.6875 -9.3125,3.3125 0,-2.03125 6.89062,-2.35938 -6.89062,-2.28125 0,-1.98437 9.3125,3.32812 0,2.01563 z m 0,-14.92101 0,2.04688 -2.10938,0.8125 0,3.71875 2.10938,0.76562 0,2 -9.3125,-3.625 0,-1.98437 9.3125,-3.73438 z m -3.6875,3.46875 -3.45313,1.28125 3.45313,1.25 0,-2.53125 z m 3.6875,-4.75015 -9.23438,0 0,-1.875 7.67188,0 0,-4.67187 1.5625,0 0,6.54687 z m -9.3125,-8.07885 0,-1.875 5.04687,0 q 1.20313,0 1.5625,-0.0625 0.5625,-0.125 0.90625,-0.57813 0.34375,-0.45312 0.34375,-1.25 0,-0.79687 -0.3125,-1.20312 -0.32812,-0.40625 -0.79687,-0.48438 -0.48438,-0.0781 -1.59375,-0.0781 l -5.15625,0 0,-1.89063 4.89062,0 q 1.67188,0 2.375,0.15625 0.6875,0.15625 1.17188,0.5625 0.46875,0.40625 0.75,1.09375 0.28125,0.6875 0.28125,1.79688 0,1.32812 -0.29688,2.01562 -0.3125,0.6875 -0.79687,1.09375 -0.5,0.39063 -1.04688,0.51563 -0.79687,0.1875 -2.35937,0.1875 l -4.96875,0 z m 9.3125,-9.64078 -9.3125,0 0,-6.89063 1.57812,0 0,5.01563 2.0625,0 0,-4.67188 1.57813,0 0,4.67188 2.53125,0 0,-5.20313 1.5625,0 0,7.07813 z"
       id="path75"
       inkscape:connector-curvature="0"
       style="fill:#000000;fill-rule:nonzero" />
    <path
       d="m 384,176 0,-97.826775 64,0 L 448,176 z"
       id="path77"
       inkscape:connector-curvature="0"
       style="fill:#000000;fill-opacity:0;fill-rule:nonzero" />
    <path
       d="m 384,176 0,-97.826775 64,0 L 448,176 z"
       id="path79"
       inkscape:connector-curvature="0"
       style="stroke:#000000;stroke-width:1;stroke-linecap:butt;stroke-linejoin:round" />
    <path
       d="m 420.8,166.0625 -1.78125,0 0,-1.78125 1.78125,0 0,1.78125 z m 0,-3.70299 -1.78125,0 0,-1.78125 1.78125,0 0,1.78125 z m 0,-3.70299 -1.78125,0 0,-1.78125 1.78125,0 0,1.78125 z"
       id="path81"
       inkscape:connector-curvature="0"
       style="fill:#000000;fill-rule:nonzero" />
    <path
       d="m 128,72 c 0,-4.418282 1.45476,-8 3.24928,-8 l 41.50144,0 C 174.54524,64 176,60.418278 176,56 l 0,0 c 0,4.418278 1.45476,8 3.24928,8 l 41.50144,0 0,0 C 222.54524,64 224,67.581718 224,72 z"
       id="path83"
       inkscape:connector-curvature="0"
       style="fill:#000000;fill-opacity:0;fill-rule:nonzero" />
    <path
       d="m 128,72 c 0,-4.418282 1.45476,-8 3.24928,-8 l 41.50144,0 C 174.54524,64 176,60.418278 176,56 l 0,0 c 0,4.418278 1.45476,8 3.24928,8 l 41.50144,0 0,0 C 222.54524,64 224,67.581718 224,72"
       id="path85"
       inkscape:connector-curvature="0"
       style="fill:#000000;fill-opacity:0;fill-rule:nonzero" />
    <path
       d="m 128,72 c 0,-4.418282 1.45476,-8 3.24928,-8 l 41.50144,0 C 174.54524,64 176,60.418278 176,56 l 0,0 c 0,4.418278 1.45476,8 3.24928,8 l 41.50144,0 0,0 C 222.54524,64 224,67.581718 224,72"
       id="path87"
       inkscape:connector-curvature="0"
       style="stroke:#000000;stroke-width:1;stroke-linecap:butt;stroke-linejoin:round" />
    <path
       d="m 224,72 c 0,-4.418282 1.45474,-8 3.24927,-8 l 73.50146,0 C 302.54526,64 304,60.418278 304,56 l 0,0 c 0,4.418278 1.45474,8 3.24927,8 l 73.50146,0 0,0 C 382.54526,64 384,67.581718 384,72 z"
       id="path89"
       inkscape:connector-curvature="0"
       style="fill:#000000;fill-opacity:0;fill-rule:nonzero" />
    <path
       d="m 224,72 c 0,-4.418282 1.45474,-8 3.24927,-8 l 73.50146,0 C 302.54526,64 304,60.418278 304,56 l 0,0 c 0,4.418278 1.45474,8 3.24927,8 l 73.50146,0 0,0 C 382.54526,64 384,67.581718 384,72"
       id="path91"
       inkscape:connector-curvature="0"
       style="fill:#000000;fill-opacity:0;fill-rule:nonzero" />
    <path
       d="m 224,72 c 0,-4.418282 1.45474,-8 3.24927,-8 l 73.50146,0 C 302.54526,64 304,60.418278 304,56 l 0,0 c 0,4.418278 1.45474,8 3.24927,8 l 73.50146,0 0,0 C 382.54526,64 384,67.581718 384,72"
       id="path93"
       inkscape:connector-curvature="0"
       style="stroke:#000000;stroke-width:1;stroke-linecap:butt;stroke-linejoin:round" />
    <path
       d="m 448,72 c 0,-4.418282 1.45474,-8 3.24927,-8 l 41.50146,0 C 494.54526,64 496,60.418278 496,56 l 0,0 c 0,4.418278 1.45474,8 3.24927,8 l 41.50146,0 0,0 C 542.54523,64 544,67.581718 544,72 z"
       id="path95"
       inkscape:connector-curvature="0"
       style="fill:#000000;fill-opacity:0;fill-rule:nonzero" />
    <path
       d="m 448,72 c 0,-4.418282 1.45474,-8 3.24927,-8 l 41.50146,0 C 494.54526,64 496,60.418278 496,56 l 0,0 c 0,4.418278 1.45474,8 3.24927,8 l 41.50146,0 0,0 C 542.54523,64 544,67.581718 544,72"
       id="path97"
       inkscape:connector-curvature="0"
       style="fill:#000000;fill-opacity:0;fill-rule:nonzero" />
    <path
       d="m 448,72 c 0,-4.418282 1.45474,-8 3.24927,-8 l 41.50146,0 C 494.54526,64 496,60.418278 496,56 l 0,0 c 0,4.418278 1.45474,8 3.24927,8 l 41.50146,0 0,0 C 542.54523,64 544,67.581718 544,72"
       id="path99"
       inkscape:connector-curvature="0"
       style="stroke:#000000;stroke-width:1;stroke-linecap:butt;stroke-linejoin:round" />
    <path
       d="m 128,24 96,0 0,32 -96,0 z"
       id="path101"
       inkscape:connector-curvature="0"
       style="fill:#000000;fill-opacity:0;fill-rule:nonzero" />
    <path
       d="m 138,45.8 0,-9.3125 3.51562,0 q 0.92188,0 1.40625,0.09375 0.6875,0.109375 1.15625,0.4375 0.46875,0.3125 0.75,0.890625 0.28125,0.578125 0.28125,1.28125 0,1.1875 -0.76562,2.015625 -0.75,0.8125 -2.71875,0.8125 l -2.39063,0 0,3.78125 -1.23437,0 z m 1.23437,-4.875 2.40625,0 q 1.1875,0 1.6875,-0.4375 0.51563,-0.453125 0.51563,-1.265625 0,-0.578125 -0.29688,-0.984375 -0.29687,-0.421875 -0.78125,-0.5625 -0.3125,-0.07813 -1.15625,-0.07813 l -2.375,0 0,3.328125 z m 7.49914,4.875 0,-6.734375 1.03125,0 0,1.015625 q 0.39062,-0.71875 0.71875,-0.9375 0.34375,-0.234375 0.73437,-0.234375 0.57813,0 1.17188,0.359375 l -0.39063,1.0625 q -0.42187,-0.25 -0.82812,-0.25 -0.375,0 -0.6875,0.234375 -0.29688,0.21875 -0.42188,0.625 -0.1875,0.609375 -0.1875,1.328125 l 0,3.53125 -1.14062,0 z m 4.03211,-3.375 q 0,-1.875 1.03125,-2.765625 0.875,-0.75 2.125,-0.75 1.39063,0 2.26563,0.90625 0.89062,0.90625 0.89062,2.515625 0,1.296875 -0.39062,2.046875 -0.39063,0.75 -1.14063,1.171875 -0.75,0.40625 -1.625,0.40625 -1.42187,0 -2.29687,-0.90625 -0.85938,-0.90625 -0.85938,-2.625 z m 1.17188,0 q 0,1.296875 0.5625,1.953125 0.5625,0.640625 1.42187,0.640625 0.84375,0 1.40625,-0.640625 0.57813,-0.65625 0.57813,-1.984375 0,-1.25 -0.57813,-1.890625 -0.5625,-0.65625 -1.40625,-0.65625 -0.85937,0 -1.42187,0.640625 -0.5625,0.640625 -0.5625,1.9375 z m 6.66248,5.953125 0,-9.3125 1.03125,0 0,0.875 q 0.375,-0.515625 0.82812,-0.765625 0.46875,-0.265625 1.14063,-0.265625 0.85937,0 1.51562,0.453125 0.65625,0.4375 0.98438,1.25 0.34375,0.796875 0.34375,1.765625 0,1.03125 -0.375,1.859375 -0.35938,0.828125 -1.07813,1.28125 -0.70312,0.4375 -1.48437,0.4375 -0.5625,0 -1.01563,-0.234375 -0.45312,-0.25 -0.75,-0.625 l 0,3.28125 -1.14062,0 z m 1.03125,-5.90625 q 0,1.296875 0.53125,1.921875 0.53125,0.625 1.26562,0.625 0.76563,0 1.3125,-0.640625 0.54688,-0.65625 0.54688,-2 0,-1.296875 -0.53125,-1.9375 Q 162.22498,39.8 161.4906,39.8 q -0.73437,0 -1.29687,0.6875 -0.5625,0.671875 -0.5625,1.984375 z m 10.9906,1.15625 1.1875,0.140625 q -0.28125,1.046875 -1.04688,1.625 -0.75,0.5625 -1.92187,0.5625 -1.48438,0 -2.35938,-0.90625 -0.85937,-0.921875 -0.85937,-2.5625 0,-1.703125 0.875,-2.640625 0.89062,-0.9375 2.28125,-0.9375 1.35937,0 2.20312,0.921875 0.85938,0.921875 0.85938,2.578125 0,0.109375 0,0.3125 l -5.03125,0 q 0.0625,1.109375 0.625,1.703125 0.5625,0.59375 1.40625,0.59375 0.64062,0 1.07812,-0.328125 0.45313,-0.34375 0.70313,-1.0625 z m -3.75,-1.84375 3.76562,0 q -0.0781,-0.859375 -0.4375,-1.28125 -0.54687,-0.65625 -1.40625,-0.65625 -0.79687,0 -1.32812,0.53125 -0.53125,0.515625 -0.59375,1.40625 z M 173.4093,45.8 l 0,-6.734375 1.03125,0 0,1.015625 q 0.39063,-0.71875 0.71875,-0.9375 0.34375,-0.234375 0.73438,-0.234375 0.57812,0 1.17187,0.359375 l -0.39062,1.0625 q -0.42188,-0.25 -0.82813,-0.25 -0.375,0 -0.6875,0.234375 -0.29687,0.21875 -0.42187,0.625 -0.1875,0.609375 -0.1875,1.328125 l 0,3.53125 -1.14063,0 z m 6.954,-1.015625 0.15625,1 q -0.48438,0.109375 -0.85938,0.109375 -0.625,0 -0.96875,-0.203125 -0.34375,-0.203125 -0.48437,-0.515625 -0.14063,-0.328125 -0.14063,-1.34375 l 0,-3.890625 -0.82812,0 0,-0.875 0.82812,0 0,-1.671875 1.14063,-0.6875 0,2.359375 1.15625,0 0,0.875 -1.15625,0 0,3.953125 q 0,0.484375 0.0625,0.625 0.0625,0.140625 0.1875,0.21875 0.14062,0.07813 0.39062,0.07813 0.20313,0 0.51563,-0.03125 z m 1.15611,3.609375 -0.14063,-1.0625 q 0.375,0.09375 0.65625,0.09375 0.39063,0 0.60938,-0.125 0.23437,-0.125 0.375,-0.359375 0.10937,-0.171875 0.35937,-0.84375 0.0312,-0.09375 0.0937,-0.28125 l -2.5625,-6.75 1.23438,0 1.40625,3.890625 q 0.26562,0.75 0.48437,1.5625 0.20313,-0.78125 0.46875,-1.53125 l 1.45313,-3.921875 1.14062,0 -2.5625,6.84375 q -0.42187,1.109375 -0.64062,1.53125 -0.3125,0.5625 -0.70313,0.828125 -0.39062,0.265625 -0.9375,0.265625 -0.32812,0 -0.73437,-0.140625 z m 14.3983,-2.59375 -1.14063,0 0,-7.28125 q -0.42187,0.390625 -1.09375,0.796875 -0.65625,0.390625 -1.1875,0.578125 l 0,-1.109375 q 0.95313,-0.4375 1.67188,-1.078125 0.71875,-0.640625 1.01562,-1.25 l 0.73438,0 0,9.34375 z"
       id="path103"
       inkscape:connector-curvature="0"
       style="fill:#000000;fill-rule:nonzero" />
    <path
       d="m 256,24 96,0 0,32 -96,0 z"
       id="path105"
       inkscape:connector-curvature="0"
       style="fill:#000000;fill-opacity:0;fill-rule:nonzero" />
    <path
       d="m 266,45.8 0,-9.3125 3.51562,0 q 0.92188,0 1.40625,0.09375 0.6875,0.109375 1.15625,0.4375 0.46875,0.3125 0.75,0.890625 0.28125,0.578125 0.28125,1.28125 0,1.1875 -0.76562,2.015625 -0.75,0.8125 -2.71875,0.8125 l -2.39063,0 0,3.78125 -1.23437,0 z m 1.23437,-4.875 2.40625,0 q 1.1875,0 1.6875,-0.4375 0.51563,-0.453125 0.51563,-1.265625 0,-0.578125 -0.29688,-0.984375 -0.29687,-0.421875 -0.78125,-0.5625 -0.3125,-0.07813 -1.15625,-0.07813 l -2.375,0 0,3.328125 z m 7.49915,4.875 0,-6.734375 1.03125,0 0,1.015625 q 0.39063,-0.71875 0.71875,-0.9375 0.34375,-0.234375 0.73438,-0.234375 0.57812,0 1.17187,0.359375 l -0.39062,1.0625 q -0.42188,-0.25 -0.82813,-0.25 -0.375,0 -0.6875,0.234375 -0.29687,0.21875 -0.42187,0.625 -0.1875,0.609375 -0.1875,1.328125 l 0,3.53125 -1.14063,0 z m 4.0321,-3.375 q 0,-1.875 1.03125,-2.765625 0.875,-0.75 2.125,-0.75 1.39063,0 2.26563,0.90625 0.89062,0.90625 0.89062,2.515625 0,1.296875 -0.39062,2.046875 -0.39063,0.75 -1.14063,1.171875 -0.75,0.40625 -1.625,0.40625 -1.42187,0 -2.29687,-0.90625 -0.85938,-0.90625 -0.85938,-2.625 z m 1.17188,0 q 0,1.296875 0.5625,1.953125 0.5625,0.640625 1.42187,0.640625 0.84375,0 1.40625,-0.640625 0.57813,-0.65625 0.57813,-1.984375 0,-1.25 -0.57813,-1.890625 -0.5625,-0.65625 -1.40625,-0.65625 -0.85937,0 -1.42187,0.640625 -0.5625,0.640625 -0.5625,1.9375 z m 6.66248,5.953125 0,-9.3125 1.03125,0 0,0.875 q 0.375,-0.515625 0.82812,-0.765625 0.46875,-0.265625 1.14063,-0.265625 0.85937,0 1.51562,0.453125 0.65625,0.4375 0.98438,1.25 0.34375,0.796875 0.34375,1.765625 0,1.03125 -0.375,1.859375 -0.35938,0.828125 -1.07813,1.28125 -0.70312,0.4375 -1.48437,0.4375 -0.5625,0 -1.01563,-0.234375 -0.45312,-0.25 -0.75,-0.625 l 0,3.28125 -1.14062,0 z m 1.03125,-5.90625 q 0,1.296875 0.53125,1.921875 0.53125,0.625 1.26562,0.625 0.76563,0 1.3125,-0.640625 0.54688,-0.65625 0.54688,-2 0,-1.296875 -0.53125,-1.9375 Q 290.22498,39.8 289.4906,39.8 q -0.73437,0 -1.29687,0.6875 -0.5625,0.671875 -0.5625,1.984375 z m 10.9906,1.15625 1.1875,0.140625 q -0.28125,1.046875 -1.04688,1.625 -0.75,0.5625 -1.92187,0.5625 -1.48438,0 -2.35938,-0.90625 -0.85937,-0.921875 -0.85937,-2.5625 0,-1.703125 0.875,-2.640625 0.89062,-0.9375 2.28125,-0.9375 1.35937,0 2.20312,0.921875 0.85938,0.921875 0.85938,2.578125 0,0.109375 0,0.3125 l -5.03125,0 q 0.0625,1.109375 0.625,1.703125 0.5625,0.59375 1.40625,0.59375 0.64062,0 1.07812,-0.328125 0.45313,-0.34375 0.70313,-1.0625 z m -3.75,-1.84375 3.76562,0 q -0.0781,-0.859375 -0.4375,-1.28125 -0.54687,-0.65625 -1.40625,-0.65625 -0.79687,0 -1.32812,0.53125 -0.53125,0.515625 -0.59375,1.40625 z M 301.4093,45.8 l 0,-6.734375 1.03125,0 0,1.015625 q 0.39063,-0.71875 0.71875,-0.9375 0.34375,-0.234375 0.73438,-0.234375 0.57812,0 1.17187,0.359375 l -0.39062,1.0625 q -0.42188,-0.25 -0.82813,-0.25 -0.375,0 -0.6875,0.234375 -0.29687,0.21875 -0.42187,0.625 -0.1875,0.609375 -0.1875,1.328125 l 0,3.53125 -1.14063,0 z m 6.95398,-1.015625 0.15625,1 q -0.48437,0.109375 -0.85937,0.109375 -0.625,0 -0.96875,-0.203125 -0.34375,-0.203125 -0.48438,-0.515625 -0.14062,-0.328125 -0.14062,-1.34375 l 0,-3.890625 -0.82813,0 0,-0.875 0.82813,0 0,-1.671875 1.14062,-0.6875 0,2.359375 1.15625,0 0,0.875 -1.15625,0 0,3.953125 q 0,0.484375 0.0625,0.625 0.0625,0.140625 0.1875,0.21875 0.14063,0.07813 0.39063,0.07813 0.20312,0 0.51562,-0.03125 z m 1.15613,3.609375 -0.14063,-1.0625 q 0.375,0.09375 0.65625,0.09375 0.39063,0 0.60938,-0.125 0.23437,-0.125 0.375,-0.359375 0.10937,-0.171875 0.35937,-0.84375 0.0312,-0.09375 0.0937,-0.28125 l -2.5625,-6.75 1.23438,0 1.40625,3.890625 q 0.26562,0.75 0.48437,1.5625 0.20313,-0.78125 0.46875,-1.53125 l 1.45313,-3.921875 1.14062,0 -2.5625,6.84375 q -0.42187,1.109375 -0.64062,1.53125 -0.3125,0.5625 -0.70313,0.828125 -0.39062,0.265625 -0.9375,0.265625 -0.32812,0 -0.73437,-0.140625 z m 16.10144,-3.6875 0,1.09375 -6.15625,0 q -0.0156,-0.40625 0.14062,-0.796875 0.23438,-0.625 0.75,-1.234375 0.51563,-0.609375 1.5,-1.40625 1.51563,-1.25 2.04688,-1.96875 0.53125,-0.734375 0.53125,-1.375 0,-0.6875 -0.48438,-1.140625 -0.48437,-0.46875 -1.26562,-0.46875 -0.82813,0 -1.32813,0.5 -0.48437,0.484375 -0.5,1.359375 l -1.17187,-0.125 q 0.125,-1.3125 0.90625,-2 0.78125,-0.6875 2.10937,-0.6875 1.34375,0 2.125,0.75 0.78125,0.734375 0.78125,1.828125 0,0.5625 -0.23437,1.109375 -0.21875,0.53125 -0.75,1.140625 -0.53125,0.59375 -1.76563,1.625 -1.03125,0.859375 -1.32812,1.171875 -0.28125,0.3125 -0.46875,0.625 l 4.5625,0 z"
       id="path107"
       inkscape:connector-curvature="0"
       style="fill:#000000;fill-rule:nonzero" />
    <path
       d="m 448,24 96,0 0,32 -96,0 z"
       id="path109"
       inkscape:connector-curvature="0"
       style="fill:#000000;fill-opacity:0;fill-rule:nonzero" />
    <path
       d="m 458,45.8 0,-9.3125 3.51562,0 q 0.92188,0 1.40625,0.09375 0.6875,0.109375 1.15625,0.4375 0.46875,0.3125 0.75,0.890625 0.28125,0.578125 0.28125,1.28125 0,1.1875 -0.76562,2.015625 -0.75,0.8125 -2.71875,0.8125 l -2.39063,0 0,3.78125 -1.23437,0 z m 1.23437,-4.875 2.40625,0 q 1.1875,0 1.6875,-0.4375 0.51563,-0.453125 0.51563,-1.265625 0,-0.578125 -0.29688,-0.984375 -0.29687,-0.421875 -0.78125,-0.5625 -0.3125,-0.07813 -1.15625,-0.07813 l -2.375,0 0,3.328125 z m 7.49915,4.875 0,-6.734375 1.03125,0 0,1.015625 q 0.39063,-0.71875 0.71875,-0.9375 0.34375,-0.234375 0.73438,-0.234375 0.57812,0 1.17187,0.359375 l -0.39062,1.0625 q -0.42188,-0.25 -0.82813,-0.25 -0.375,0 -0.6875,0.234375 -0.29687,0.21875 -0.42187,0.625 -0.1875,0.609375 -0.1875,1.328125 l 0,3.53125 -1.14063,0 z m 4.0321,-3.375 q 0,-1.875 1.03125,-2.765625 0.875,-0.75 2.125,-0.75 1.39063,0 2.26563,0.90625 0.89062,0.90625 0.89062,2.515625 0,1.296875 -0.39062,2.046875 -0.39063,0.75 -1.14063,1.171875 -0.75,0.40625 -1.625,0.40625 -1.42187,0 -2.29687,-0.90625 -0.85938,-0.90625 -0.85938,-2.625 z m 1.17188,0 q 0,1.296875 0.5625,1.953125 0.5625,0.640625 1.42187,0.640625 0.84375,0 1.40625,-0.640625 0.57813,-0.65625 0.57813,-1.984375 0,-1.25 -0.57813,-1.890625 -0.5625,-0.65625 -1.40625,-0.65625 -0.85937,0 -1.42187,0.640625 -0.5625,0.640625 -0.5625,1.9375 z m 6.66248,5.953125 0,-9.3125 1.03125,0 0,0.875 q 0.375,-0.515625 0.82812,-0.765625 0.46875,-0.265625 1.14063,-0.265625 0.85937,0 1.51562,0.453125 0.65625,0.4375 0.98438,1.25 0.34375,0.796875 0.34375,1.765625 0,1.03125 -0.375,1.859375 -0.35938,0.828125 -1.07813,1.28125 -0.70312,0.4375 -1.48437,0.4375 -0.5625,0 -1.01563,-0.234375 -0.45312,-0.25 -0.75,-0.625 l 0,3.28125 -1.14062,0 z m 1.03125,-5.90625 q 0,1.296875 0.53125,1.921875 0.53125,0.625 1.26562,0.625 0.76563,0 1.3125,-0.640625 0.54688,-0.65625 0.54688,-2 0,-1.296875 -0.53125,-1.9375 Q 482.22498,39.8 481.4906,39.8 q -0.73437,0 -1.29687,0.6875 -0.5625,0.671875 -0.5625,1.984375 z m 10.9906,1.15625 1.1875,0.140625 q -0.28125,1.046875 -1.04688,1.625 -0.75,0.5625 -1.92187,0.5625 -1.48438,0 -2.35938,-0.90625 -0.85937,-0.921875 -0.85937,-2.5625 0,-1.703125 0.875,-2.640625 0.89062,-0.9375 2.28125,-0.9375 1.35937,0 2.20312,0.921875 0.85938,0.921875 0.85938,2.578125 0,0.109375 0,0.3125 l -5.03125,0 q 0.0625,1.109375 0.625,1.703125 0.5625,0.59375 1.40625,0.59375 0.64062,0 1.07812,-0.328125 0.45313,-0.34375 0.70313,-1.0625 z m -3.75,-1.84375 3.76562,0 q -0.0781,-0.859375 -0.4375,-1.28125 -0.54687,-0.65625 -1.40625,-0.65625 -0.79687,0 -1.32812,0.53125 -0.53125,0.515625 -0.59375,1.40625 z M 493.4093,45.8 l 0,-6.734375 1.03125,0 0,1.015625 q 0.39063,-0.71875 0.71875,-0.9375 0.34375,-0.234375 0.73438,-0.234375 0.57812,0 1.17187,0.359375 l -0.39062,1.0625 q -0.42188,-0.25 -0.82813,-0.25 -0.375,0 -0.6875,0.234375 -0.29687,0.21875 -0.42187,0.625 -0.1875,0.609375 -0.1875,1.328125 l 0,3.53125 -1.14063,0 z m 6.95398,-1.015625 0.15625,1 q -0.48437,0.109375 -0.85937,0.109375 -0.625,0 -0.96875,-0.203125 -0.34375,-0.203125 -0.48438,-0.515625 -0.14062,-0.328125 -0.14062,-1.34375 l 0,-3.890625 -0.82813,0 0,-0.875 0.82813,0 0,-1.671875 1.14062,-0.6875 0,2.359375 1.15625,0 0,0.875 -1.15625,0 0,3.953125 q 0,0.484375 0.0625,0.625 0.0625,0.140625 0.1875,0.21875 0.14063,0.07813 0.39063,0.07813 0.20312,0 0.51562,-0.03125 z m 1.15613,3.609375 -0.14063,-1.0625 q 0.375,0.09375 0.65625,0.09375 0.39063,0 0.60938,-0.125 0.23437,-0.125 0.375,-0.359375 0.10937,-0.171875 0.35937,-0.84375 0.0312,-0.09375 0.0937,-0.28125 l -2.5625,-6.75 1.23438,0 1.40625,3.890625 q 0.26562,0.75 0.48437,1.5625 0.20313,-0.78125 0.46875,-1.53125 l 1.45313,-3.921875 1.14062,0 -2.5625,6.84375 q -0.42187,1.109375 -0.64062,1.53125 -0.3125,0.5625 -0.70313,0.828125 -0.39062,0.265625 -0.9375,0.265625 -0.32812,0 -0.73437,-0.140625 z M 511.93335,45.8 l 0,-6.734375 1.03125,0 0,0.953125 q 0.73437,-1.109375 2.14062,-1.109375 0.60938,0 1.10938,0.21875 0.51562,0.21875 0.76562,0.578125 0.26563,0.34375 0.35938,0.84375 0.0625,0.3125 0.0625,1.109375 l 0,4.140625 -1.14063,0 0,-4.09375 q 0,-0.703125 -0.14062,-1.046875 -0.125,-0.34375 -0.46875,-0.546875 -0.32813,-0.21875 -0.78125,-0.21875 -0.73438,0 -1.26563,0.46875 -0.53125,0.453125 -0.53125,1.75 l 0,3.6875 -1.14062,0 z"
       id="path111"
       inkscape:connector-curvature="0"
       style="fill:#000000;fill-rule:nonzero" />
    <path
       d="m 544,184 c 0,4.41827 -1.45477,8 -3.24927,8 l -201.50146,0 C 337.45475,192 336,195.58173 336,200 l 0,0 c 0,-4.41827 -1.45477,-8 -3.24929,-8 l -201.50142,0 0,0 C 129.45476,192 128,188.41827 128,184 z"
       id="path113"
       inkscape:connector-curvature="0"
       style="fill:#000000;fill-opacity:0;fill-rule:nonzero" />
    <path
       d="m 544,184 c 0,4.41827 -1.45477,8 -3.24927,8 l -201.50146,0 C 337.45475,192 336,195.58173 336,200 l 0,0 c 0,-4.41827 -1.45477,-8 -3.24929,-8 l -201.50142,0 0,0 C 129.45476,192 128,188.41827 128,184"
       id="path115"
       inkscape:connector-curvature="0"
       style="fill:#000000;fill-opacity:0;fill-rule:nonzero" />
    <path
       d="m 544,184 c 0,4.41827 -1.45477,8 -3.24927,8 l -201.50146,0 C 337.45475,192 336,195.58173 336,200 l 0,0 c 0,-4.41827 -1.45477,-8 -3.24929,-8 l -201.50142,0 0,0 C 129.45476,192 128,188.41827 128,184"
       id="path117"
       inkscape:connector-curvature="0"
       style="stroke:#000000;stroke-width:1;stroke-linecap:butt;stroke-linejoin:round" />
    <path
       d="m 248,192 174.99213,0 0,32 L 248,224 z"
       id="path119"
       inkscape:connector-curvature="0"
       style="fill:#000000;fill-opacity:0;fill-rule:nonzero" />
    <path
       d="m 273.53235,213.8 0,-9.3125 3.51562,0 q 0.92188,0 1.40625,0.0937 0.6875,0.10937 1.15625,0.4375 0.46875,0.3125 0.75,0.89062 0.28125,0.57813 0.28125,1.28125 0,1.1875 -0.76562,2.01563 -0.75,0.8125 -2.71875,0.8125 l -2.39063,0 0,3.78125 -1.23437,0 z m 1.23437,-4.875 2.40625,0 q 1.1875,0 1.6875,-0.4375 0.51563,-0.45313 0.51563,-1.26563 0,-0.57812 -0.29688,-0.98437 -0.29687,-0.42188 -0.78125,-0.5625 -0.3125,-0.0781 -1.15625,-0.0781 l -2.375,0 0,3.32813 z m 11.90537,4.04687 q -0.625,0.53125 -1.21875,0.76563 -0.57812,0.21875 -1.25,0.21875 -1.125,0 -1.71875,-0.54688 -0.59375,-0.54687 -0.59375,-1.39062 0,-0.48438 0.21875,-0.89063 0.23438,-0.42187 0.59375,-0.67187 0.375,-0.25 0.82813,-0.375 0.32812,-0.0781 1.01562,-0.17188 1.375,-0.15625 2.03125,-0.39062 0.0156,-0.23438 0.0156,-0.29688 0,-0.70312 -0.32813,-0.98437 -0.4375,-0.39063 -1.29687,-0.39063 -0.8125,0 -1.20313,0.28125 -0.375,0.28125 -0.5625,1 l -1.10937,-0.14062 q 0.14062,-0.71875 0.48437,-1.15625 0.35938,-0.45313 1.01563,-0.6875 0.67187,-0.23438 1.53125,-0.23438 0.875,0 1.40625,0.20313 0.54687,0.20312 0.79687,0.51562 0.25,0.29688 0.35938,0.76563 0.0469,0.29687 0.0469,1.0625 l 0,1.51562 q 0,1.59375 0.0781,2.01563 0.0781,0.42187 0.28125,0.8125 l -1.1875,0 q -0.17188,-0.35938 -0.23438,-0.82813 z m -0.0937,-2.5625 q -0.625,0.26563 -1.85937,0.4375 -0.70313,0.10938 -1,0.23438 -0.29688,0.125 -0.45313,0.375 -0.15625,0.23437 -0.15625,0.53125 0,0.45312 0.34375,0.76562 0.34375,0.29688 1.01563,0.29688 0.65625,0 1.17187,-0.28125 0.51563,-0.29688 0.76563,-0.79688 0.17187,-0.375 0.17187,-1.14062 l 0,-0.42188 z m 3.06873,5.98438 -0.14063,-1.0625 q 0.375,0.0937 0.65625,0.0937 0.39063,0 0.60938,-0.125 0.23437,-0.125 0.375,-0.35938 0.10937,-0.17187 0.35937,-0.84375 0.0312,-0.0937 0.0937,-0.28125 l -2.5625,-6.75 1.23438,0 1.40625,3.89063 q 0.26562,0.75 0.48437,1.5625 0.20313,-0.78125 0.46875,-1.53125 l 1.45313,-3.92188 1.14062,0 -2.5625,6.84375 q -0.42187,1.10938 -0.64062,1.53125 -0.3125,0.5625 -0.70313,0.82813 -0.39062,0.26562 -0.9375,0.26562 -0.32812,0 -0.73437,-0.14062 z m 6.67968,-2.59375 0,-9.3125 1.14063,0 0,9.3125 -1.14063,0 z m 2.57047,-3.375 q 0,-1.875 1.03125,-2.76563 0.875,-0.75 2.125,-0.75 1.39062,0 2.26562,0.90625 0.89063,0.90625 0.89063,2.51563 0,1.29687 -0.39063,2.04687 -0.39062,0.75 -1.14062,1.17188 -0.75,0.40625 -1.625,0.40625 -1.42188,0 -2.29688,-0.90625 -0.85937,-0.90625 -0.85937,-2.625 z m 1.17187,0 q 0,1.29687 0.5625,1.95312 0.5625,0.64063 1.42188,0.64063 0.84375,0 1.40625,-0.64063 0.57812,-0.65625 0.57812,-1.98437 0,-1.25 -0.57812,-1.89063 -0.5625,-0.65625 -1.40625,-0.65625 -0.85938,0 -1.42188,0.64063 -0.5625,0.64062 -0.5625,1.9375 z m 11.0531,2.54687 q -0.625,0.53125 -1.21875,0.76563 -0.57812,0.21875 -1.25,0.21875 -1.125,0 -1.71875,-0.54688 -0.59375,-0.54687 -0.59375,-1.39062 0,-0.48438 0.21875,-0.89063 0.23438,-0.42187 0.59375,-0.67187 0.375,-0.25 0.82813,-0.375 0.32812,-0.0781 1.01562,-0.17188 1.375,-0.15625 2.03125,-0.39062 0.0156,-0.23438 0.0156,-0.29688 0,-0.70312 -0.32813,-0.98437 -0.4375,-0.39063 -1.29687,-0.39063 -0.8125,0 -1.20313,0.28125 -0.375,0.28125 -0.5625,1 l -1.10937,-0.14062 q 0.14062,-0.71875 0.48437,-1.15625 0.35938,-0.45313 1.01563,-0.6875 0.67187,-0.23438 1.53125,-0.23438 0.875,0 1.40625,0.20313 0.54687,0.20312 0.79687,0.51562 0.25,0.29688 0.35938,0.76563 0.0469,0.29687 0.0469,1.0625 l 0,1.51562 q 0,1.59375 0.0781,2.01563 0.0781,0.42187 0.28125,0.8125 l -1.1875,0 q -0.17188,-0.35938 -0.23438,-0.82813 z m -0.0937,-2.5625 q -0.625,0.26563 -1.85937,0.4375 -0.70313,0.10938 -1,0.23438 -0.29688,0.125 -0.45313,0.375 -0.15625,0.23437 -0.15625,0.53125 0,0.45312 0.34375,0.76562 0.34375,0.29688 1.01563,0.29688 0.65625,0 1.17187,-0.28125 0.51563,-0.29688 0.76563,-0.79688 0.17187,-0.375 0.17187,-1.14062 l 0,-0.42188 z m 7.4906,3.39063 0,-0.84375 q -0.64062,1 -1.89062,1 -0.79688,0 -1.48438,-0.4375 -0.67187,-0.45313 -1.04687,-1.25 -0.375,-0.79688 -0.375,-1.82813 0,-1.01562 0.34375,-1.82812 0.34375,-0.82813 1.01562,-1.26563 0.67188,-0.4375 1.5,-0.4375 0.60938,0 1.07813,0.26563 0.48437,0.25 0.78125,0.65625 l 0,-3.34375 1.14062,0 0,9.3125 -1.0625,0 z m -3.60937,-3.35938 q 0,1.29688 0.53125,1.9375 0.54687,0.64063 1.29687,0.64063 0.75,0 1.26563,-0.60938 0.53125,-0.625 0.53125,-1.875 0,-1.39062 -0.53125,-2.03125 -0.53125,-0.65625 -1.3125,-0.65625 -0.76563,0 -1.28125,0.625 -0.5,0.625 -0.5,1.96875 z m 12.53735,6.09375 q -0.95312,-1.1875 -1.60937,-2.78125 -0.65625,-1.60937 -0.65625,-3.32812 0,-1.5 0.5,-2.89063 0.5625,-1.60937 1.76562,-3.20312 l 0.8125,0 q -0.76562,1.32812 -1.01562,1.89062 -0.39063,0.875 -0.60938,1.82813 -0.26562,1.1875 -0.26562,2.39062 0,3.04688 1.89062,6.09375 l -0.8125,0 z m 1.96961,-5.71875 1.17187,-0.10937 q 0.0781,0.70312 0.375,1.15625 0.3125,0.4375 0.9375,0.71875 0.64063,0.26562 1.4375,0.26562 0.70313,0 1.23438,-0.20312 0.54687,-0.20313 0.8125,-0.5625 0.26562,-0.375 0.26562,-0.8125 0,-0.4375 -0.26562,-0.76563 -0.25,-0.32812 -0.82813,-0.54687 -0.375,-0.14063 -1.65625,-0.45313 -1.28125,-0.3125 -1.79687,-0.57812 -0.67188,-0.34375 -1,-0.85938 -0.32813,-0.53125 -0.32813,-1.17187 0,-0.70313 0.39063,-1.3125 0.40625,-0.60938 1.17187,-0.92188 0.78125,-0.32812 1.71875,-0.32812 1.03125,0 1.8125,0.34375 0.79688,0.32812 1.21875,0.98437 0.4375,0.64063 0.46875,1.45313 l -1.1875,0.0937 q -0.0937,-0.89063 -0.64062,-1.32813 -0.54688,-0.45312 -1.625,-0.45312 -1.10938,0 -1.625,0.40625 -0.51563,0.40625 -0.51563,0.98437 0,0.5 0.35938,0.82813 0.35937,0.32812 1.85937,0.67187 1.5,0.32813 2.0625,0.57813 0.8125,0.375 1.1875,0.95312 0.39063,0.57813 0.39063,1.32813 0,0.73437 -0.42188,1.39062 -0.42187,0.65625 -1.21875,1.03125 -0.79687,0.35938 -1.79687,0.35938 -1.26563,0 -2.125,-0.35938 -0.84375,-0.375 -1.32813,-1.10937 -0.48437,-0.75 -0.51562,-1.67188 z m 9.53039,2.98438 0,-9.3125 1.21875,0 0,9.3125 -1.21875,0 z m 2.74985,0 0,-1.14063 4.76563,-5.96875 q 0.5,-0.625 0.96875,-1.09375 l -5.20313,0 0,-1.10937 6.67188,0 0,1.10937 -5.23438,6.45313 -0.5625,0.65625 5.95313,0 0,1.09375 -7.35938,0 z m 8.90698,0 0,-9.3125 6.71875,0 0,1.10937 -5.48437,0 0,2.84375 5.14062,0 0,1.09375 -5.14062,0 0,3.17188 5.70312,0 0,1.09375 -6.9375,0 z m 13.46775,0 -1.0625,0 0,-9.3125 1.15625,0 0,3.32812 q 0.71875,-0.90625 1.84375,-0.90625 0.625,0 1.17187,0.25 0.5625,0.25 0.92188,0.70313 0.35937,0.45312 0.5625,1.09375 0.20312,0.64062 0.20312,1.375 0,1.73437 -0.85937,2.6875 -0.85938,0.9375 -2.0625,0.9375 -1.1875,0 -1.875,-1 l 0,0.84375 z m -0.0156,-3.42188 q 0,1.21875 0.34375,1.75 0.53125,0.89063 1.45313,0.89063 0.75,0 1.29687,-0.65625 0.54688,-0.65625 0.54688,-1.9375 0,-1.32813 -0.53125,-1.95313 -0.51563,-0.625 -1.26563,-0.625 -0.75,0 -1.29687,0.65625 -0.54688,0.64063 -0.54688,1.875 z m 6.33435,6.01563 -0.14062,-1.0625 q 0.375,0.0937 0.65625,0.0937 0.39062,0 0.60937,-0.125 0.23438,-0.125 0.375,-0.35938 0.10938,-0.17187 0.35938,-0.84375 0.0312,-0.0937 0.0937,-0.28125 l -2.5625,-6.75 1.23437,0 1.40625,3.89063 q 0.26563,0.75 0.48438,1.5625 0.20312,-0.78125 0.46875,-1.53125 l 1.45312,-3.92188 1.14063,0 -2.5625,6.84375 q -0.42188,1.10938 -0.64063,1.53125 -0.3125,0.5625 -0.70312,0.82813 -0.39063,0.26562 -0.9375,0.26562 -0.32813,0 -0.73438,-0.14062 z m 9.21094,-3.60938 0.15625,1 q -0.48438,0.10938 -0.85938,0.10938 -0.625,0 -0.96875,-0.20313 -0.34375,-0.20312 -0.48437,-0.51562 -0.14063,-0.32813 -0.14063,-1.34375 l 0,-3.89063 -0.82812,0 0,-0.875 0.82812,0 0,-1.67187 1.14063,-0.6875 0,2.35937 1.15625,0 0,0.875 -1.15625,0 0,3.95313 q 0,0.48437 0.0625,0.625 0.0625,0.14062 0.1875,0.21875 0.14062,0.0781 0.39062,0.0781 0.20313,0 0.51563,-0.0312 z m 5.81238,-1.15625 1.1875,0.14063 q -0.28125,1.04687 -1.04688,1.625 -0.75,0.5625 -1.92187,0.5625 -1.48438,0 -2.35938,-0.90625 -0.85937,-0.92188 -0.85937,-2.5625 0,-1.70313 0.875,-2.64063 0.89062,-0.9375 2.28125,-0.9375 1.35937,0 2.20312,0.92188 0.85938,0.92187 0.85938,2.57812 0,0.10938 0,0.3125 l -5.03125,0 q 0.0625,1.10938 0.625,1.70313 0.5625,0.59375 1.40625,0.59375 0.64062,0 1.07812,-0.32813 0.45313,-0.34375 0.70313,-1.0625 z m -3.75,-1.84375 3.76562,0 q -0.0781,-0.85937 -0.4375,-1.28125 -0.54687,-0.65625 -1.40625,-0.65625 -0.79687,0 -1.32812,0.53125 -0.53125,0.51563 -0.59375,1.40625 z m 6.09997,2 1.125,-0.17187 q 0.0937,0.67187 0.53125,1.04687 0.4375,0.35938 1.21875,0.35938 0.78125,0 1.15625,-0.3125 0.39063,-0.32813 0.39063,-0.76563 0,-0.39062 -0.34375,-0.60937 -0.23438,-0.15625 -1.17188,-0.39063 -1.25,-0.3125 -1.73437,-0.54687 -0.48438,-0.23438 -0.73438,-0.64063 -0.25,-0.40625 -0.25,-0.90625 0,-0.45312 0.20313,-0.82812 0.20312,-0.39063 0.5625,-0.64063 0.26562,-0.20312 0.71875,-0.32812 0.46875,-0.14063 1,-0.14063 0.78125,0 1.375,0.23438 0.60937,0.21875 0.89062,0.60937 0.29688,0.39063 0.40625,1.04688 l -1.125,0.15625 q -0.0781,-0.53125 -0.4375,-0.8125 -0.35937,-0.29688 -1.03125,-0.29688 -0.78125,0 -1.125,0.26563 -0.34375,0.25 -0.34375,0.60937 0,0.21875 0.14063,0.39063 0.14062,0.1875 0.4375,0.3125 0.17187,0.0625 1.01562,0.28125 1.21875,0.32812 1.6875,0.53125 0.48438,0.20312 0.75,0.60937 0.28125,0.39063 0.28125,0.96875 0,0.57813 -0.34375,1.07813 -0.32812,0.5 -0.95312,0.78125 -0.625,0.28125 -1.42188,0.28125 -1.3125,0 -2,-0.54688 -0.6875,-0.54687 -0.875,-1.625 z m 7.86719,4.75 -0.82813,0 q 1.90625,-3.04687 1.90625,-6.09375 0,-1.20312 -0.28125,-2.375 -0.20312,-0.95312 -0.59375,-1.82812 -0.25,-0.5625 -1.03125,-1.90625 l 0.82813,0 q 1.1875,1.59375 1.76562,3.20312 0.48438,1.39063 0.48438,2.89063 0,1.71875 -0.65625,3.32812 -0.65625,1.59375 -1.59375,2.78125 z"
       id="path121"
       inkscape:connector-curvature="0"
       style="fill:#000000;fill-rule:nonzero" />
    <path
       d="m 128,184 c 0,4.41827 -1.45475,8 -3.24928,8 l -25.501437,0 C 97.45475,192 96,195.58173 96,200 l 0,0 c 0,-4.41827 -1.45475,-8 -3.249282,-8 l -25.501434,0 0,0 c -1.794533,0 -3.249283,-3.58173 -3.249283,-8 z"
       id="path123"
       inkscape:connector-curvature="0"
       style="fill:#000000;fill-opacity:0;fill-rule:nonzero" />
    <path
       d="m 128,184 c 0,4.41827 -1.45475,8 -3.24928,8 l -25.501437,0 C 97.45475,192 96,195.58173 96,200 l 0,0 c 0,-4.41827 -1.45475,-8 -3.249282,-8 l -25.501434,0 0,0 c -1.794533,0 -3.249283,-3.58173 -3.249283,-8"
       id="path125"
       inkscape:connector-curvature="0"
       style="fill:#000000;fill-opacity:0;fill-rule:nonzero" />
    <path
       d="m 128,184 c 0,4.41827 -1.45475,8 -3.24928,8 l -25.501437,0 C 97.45475,192 96,195.58173 96,200 l 0,0 c 0,-4.41827 -1.45475,-8 -3.249282,-8 l -25.501434,0 0,0 c -1.794533,0 -3.249283,-3.58173 -3.249283,-8"
       id="path127"
       inkscape:connector-curvature="0"
       style="stroke:#000000;stroke-width:1;stroke-linecap:butt;stroke-linejoin:round" />
    <path
       d="m 56,192 81.00787,0 0,32 L 56,224 z"
       id="path129"
       inkscape:connector-curvature="0"
       style="fill:#000000;fill-opacity:0;fill-rule:nonzero" />
    <path
       d="m 75.6941,213.8 0,-9.3125 1.21875,0 0,3.82812 4.84375,0 0,-3.82812 1.234375,0 0,9.3125 -1.234375,0 0,-4.39063 -4.84375,0 0,4.39063 -1.21875,0 z m 14.047028,-2.17188 1.1875,0.14063 q -0.28125,1.04687 -1.046875,1.625 -0.75,0.5625 -1.921875,0.5625 -1.484375,0 -2.359375,-0.90625 -0.859375,-0.92188 -0.859375,-2.5625 0,-1.70313 0.875,-2.64063 0.890625,-0.9375 2.28125,-0.9375 1.359375,0 2.203125,0.92188 0.859375,0.92187 0.859375,2.57812 0,0.10938 0,0.3125 l -5.03125,0 q 0.0625,1.10938 0.625,1.70313 0.5625,0.59375 1.40625,0.59375 0.640625,0 1.078125,-0.32813 0.453125,-0.34375 0.703125,-1.0625 z m -3.75,-1.84375 3.765625,0 q -0.07813,-0.85937 -0.4375,-1.28125 -0.546875,-0.65625 -1.40625,-0.65625 -0.796875,0 -1.328125,0.53125 -0.53125,0.51563 -0.59375,1.40625 z m 10.943726,3.1875 q -0.625,0.53125 -1.21875,0.76563 -0.578125,0.21875 -1.25,0.21875 -1.125,0 -1.71875,-0.54688 -0.59375,-0.54687 -0.59375,-1.39062 0,-0.48438 0.21875,-0.89063 0.234375,-0.42187 0.59375,-0.67187 0.375,-0.25 0.828125,-0.375 0.328125,-0.0781 1.015625,-0.17188 1.375,-0.15625 2.03125,-0.39062 0.01563,-0.23438 0.01563,-0.29688 0,-0.70312 -0.328125,-0.98437 -0.4375,-0.39063 -1.296875,-0.39063 -0.8125,0 -1.203125,0.28125 -0.375,0.28125 -0.5625,1 l -1.109375,-0.14062 q 0.140625,-0.71875 0.484375,-1.15625 0.359375,-0.45313 1.015625,-0.6875 0.671875,-0.23438 1.53125,-0.23438 0.875,0 1.40625,0.20313 0.546875,0.20312 0.796875,0.51562 0.25,0.29688 0.359375,0.76563 0.04687,0.29687 0.04687,1.0625 l 0,1.51562 q 0,1.59375 0.07813,2.01563 0.07813,0.42187 0.28125,0.8125 l -1.1875,0 q -0.171875,-0.35938 -0.234375,-0.82813 z m -0.09375,-2.5625 q -0.625,0.26563 -1.859375,0.4375 -0.703125,0.10938 -1,0.23438 -0.296875,0.125 -0.453125,0.375 -0.15625,0.23437 -0.15625,0.53125 0,0.45312 0.34375,0.76562 0.34375,0.29688 1.015625,0.29688 0.65625,0 1.171875,-0.28125 0.515625,-0.29688 0.765625,-0.79688 0.171875,-0.375 0.171875,-1.14062 l 0,-0.42188 z m 7.490596,3.39063 0,-0.84375 q -0.64062,1 -1.89062,1 -0.79688,0 -1.48438,-0.4375 -0.67187,-0.45313 -1.04687,-1.25 -0.375,-0.79688 -0.375,-1.82813 0,-1.01562 0.34375,-1.82812 0.34375,-0.82813 1.01562,-1.26563 0.67188,-0.4375 1.5,-0.4375 0.60938,0 1.07813,0.26563 0.48437,0.25 0.78125,0.65625 l 0,-3.34375 1.14062,0 0,9.3125 -1.0625,0 z m -3.60937,-3.35938 q 0,1.29688 0.53125,1.9375 0.54687,0.64063 1.29687,0.64063 0.75,0 1.26563,-0.60938 0.53125,-0.625 0.53125,-1.875 0,-1.39062 -0.53125,-2.03125 -0.53125,-0.65625 -1.3125,-0.65625 -0.76563,0 -1.28125,0.625 -0.5,0.625 -0.5,1.96875 z m 11.25623,1.1875 1.1875,0.14063 q -0.28125,1.04687 -1.04688,1.625 -0.75,0.5625 -1.92187,0.5625 -1.48438,0 -2.35938,-0.90625 -0.85937,-0.92188 -0.85937,-2.5625 0,-1.70313 0.875,-2.64063 0.89062,-0.9375 2.28125,-0.9375 1.35937,0 2.20312,0.92188 0.85938,0.92187 0.85938,2.57812 0,0.10938 0,0.3125 l -5.03125,0 q 0.0625,1.10938 0.625,1.70313 0.5625,0.59375 1.40625,0.59375 0.64062,0 1.07812,-0.32813 0.45313,-0.34375 0.70313,-1.0625 z m -3.75,-1.84375 3.76562,0 q -0.0781,-0.85937 -0.4375,-1.28125 -0.54687,-0.65625 -1.40625,-0.65625 -0.79687,0 -1.32812,0.53125 -0.53125,0.51563 -0.59375,1.40625 z m 6.53747,4.01563 0,-6.73438 1.03125,0 0,1.01563 q 0.39063,-0.71875 0.71875,-0.9375 0.34375,-0.23438 0.73438,-0.23438 0.57812,0 1.17187,0.35938 l -0.39062,1.0625 q -0.42188,-0.25 -0.82813,-0.25 -0.375,0 -0.6875,0.23437 -0.29687,0.21875 -0.42187,0.625 -0.1875,0.60938 -0.1875,1.32813 l 0,3.53125 -1.14063,0 z"
       id="path131"
       inkscape:connector-curvature="0"
       style="fill:#000000;fill-rule:nonzero" />
  </g>
</svg>
