<?xml version="1.0" encoding="UTF-8" standalone="no"?>
<svg
   xmlns:dc="http://purl.org/dc/elements/1.1/"
   xmlns:cc="http://creativecommons.org/ns#"
   xmlns:rdf="http://www.w3.org/1999/02/22-rdf-syntax-ns#"
   xmlns:svg="http://www.w3.org/2000/svg"
   xmlns="http://www.w3.org/2000/svg"
   xmlns:sodipodi="http://sodipodi.sourceforge.net/DTD/sodipodi-0.dtd"
   xmlns:inkscape="http://www.inkscape.org/namespaces/inkscape"
   version="1.1"
   viewBox="0 0 640.90625 307.59375"
   stroke-miterlimit="10"
   id="svg2"
   inkscape:version="0.48.4 r9939"
   width="100%"
   height="100%"
   sodipodi:docname="ara-camera-image-packed420.svg"
   style="fill:none;stroke:none">
  <metadata
     id="metadata293">
    <rdf:RDF>
      <cc:Work
         rdf:about="">
        <dc:format>image/svg+xml</dc:format>
        <dc:type
           rdf:resource="http://purl.org/dc/dcmitype/StillImage" />
      </cc:Work>
    </rdf:RDF>
  </metadata>
  <defs
     id="defs291" />
  <sodipodi:namedview
     pagecolor="#ffffff"
     bordercolor="#666666"
     borderopacity="1"
     objecttolerance="10"
     gridtolerance="10"
     guidetolerance="10"
     inkscape:pageopacity="0"
     inkscape:pageshadow="2"
     inkscape:window-width="1920"
     inkscape:window-height="1056"
     id="namedview289"
     showgrid="false"
     fit-margin-top="0"
     fit-margin-left="0"
     fit-margin-right="0"
     fit-margin-bottom="0"
     inkscape:zoom="1.2361274"
     inkscape:cx="448.9362"
     inkscape:cy="84.2376"
     inkscape:window-x="0"
     inkscape:window-y="24"
     inkscape:window-maximized="1"
     inkscape:current-layer="svg2" />
  <clipPath
     id="p.0">
    <path
       d="M 0,0 720,0 720,540 0,540 0,0 z"
       clip-rule="nonzero"
       id="path5"
       inkscape:connector-curvature="0" />
  </clipPath>
  <g
     clip-path="url(#p.0)"
     id="g7"
     transform="translate(-36.71875,3.3125)">
    <path
       d="m 0,0 720,0 0,540 -720,0 z"
       id="path9"
       inkscape:connector-curvature="0"
       style="fill:#000000;fill-opacity:0;fill-rule:nonzero" />
    <path
       d="m 176,16 40,0 0,40 -40,0 z"
       id="path11"
       inkscape:connector-curvature="0"
       style="fill:#b7b7b7;fill-rule:nonzero" />
    <path
       d="m 176,16 40,0 0,40 -40,0 z"
       id="path13"
       inkscape:connector-curvature="0"
       style="stroke:#000000;stroke-width:1;stroke-linecap:butt;stroke-linejoin:round" />
    <path
       d="m 191.78613,40.52 0,-3.609375 -3.14062,-4.984375 2.03125,0 2.01562,3.40625 1.98438,-3.40625 2,0 -3.15625,4.984375 0,3.609375 -1.73438,0 z m 9.59766,0 -1.64063,0 0,-6.203125 q -0.90625,0.84375 -2.125,1.25 l 0,-1.5 q 0.64063,-0.203125 1.39063,-0.796875 0.76562,-0.59375 1.04687,-1.375 l 1.32813,0 0,8.625 z"
       id="path15"
       inkscape:connector-curvature="0"
       style="fill:#000000;fill-rule:nonzero" />
    <path
       d="m 216,16 40,0 0,40 -40,0 z"
       id="path17"
       inkscape:connector-curvature="0"
       style="fill:#b7b7b7;fill-rule:nonzero" />
    <path
       d="m 216,16 40,0 0,40 -40,0 z"
       id="path19"
       inkscape:connector-curvature="0"
       style="stroke:#000000;stroke-width:1;stroke-linecap:butt;stroke-linejoin:round" />
    <path
       d="m 231.78613,40.52 0,-3.609375 -3.14062,-4.984375 2.03125,0 2.01562,3.40625 1.98438,-3.40625 2,0 -3.15625,4.984375 0,3.609375 -1.73438,0 z m 10.95703,-1.53125 0,1.53125 -5.78125,0 q 0.0937,-0.875 0.5625,-1.640625 0.46875,-0.78125 1.85938,-2.0625 1.10937,-1.03125 1.35937,-1.40625 0.34375,-0.515625 0.34375,-1.015625 0,-0.546875 -0.29687,-0.84375 -0.29688,-0.296875 -0.8125,-0.296875 -0.51563,0 -0.82813,0.3125 -0.29687,0.3125 -0.34375,1.03125 l -1.64062,-0.15625 q 0.14062,-1.359375 0.90625,-1.953125 0.78125,-0.59375 1.9375,-0.59375 1.28125,0 2,0.6875 0.73437,0.6875 0.73437,1.703125 0,0.578125 -0.21875,1.109375 -0.20312,0.515625 -0.65625,1.09375 -0.29687,0.375 -1.07812,1.09375 -0.78125,0.71875 -0.98438,0.953125 -0.20312,0.234375 -0.34375,0.453125 l 3.28125,0 z"
       id="path21"
       inkscape:connector-curvature="0"
       style="fill:#000000;fill-rule:nonzero" />
    <path
       d="m 296,16 40,0 0,40 -40,0 z"
       id="path23"
       inkscape:connector-curvature="0"
       style="fill:#b7b7b7;fill-rule:nonzero" />
    <path
       d="m 296,16 40,0 0,40 -40,0 z"
       id="path25"
       inkscape:connector-curvature="0"
       style="stroke:#000000;stroke-width:1;stroke-linecap:butt;stroke-linejoin:round" />
    <path
       d="m 311.78613,40.52 0,-3.609375 -3.14062,-4.984375 2.03125,0 2.01562,3.40625 1.98438,-3.40625 2,0 -3.15625,4.984375 0,3.609375 -1.73438,0 z m 8.61328,0 0,-1.734375 -3.51562,0 0,-1.4375 3.73437,-5.453125 1.375,0 0,5.453125 1.07813,0 0,1.4375 -1.07813,0 0,1.734375 -1.59375,0 z m 0,-3.171875 0,-2.9375 -1.96875,2.9375 1.96875,0 z"
       id="path27"
       inkscape:connector-curvature="0"
       style="fill:#000000;fill-rule:nonzero" />
    <path
       d="m 336,16 40,0 0,40 -40,0 z"
       id="path29"
       inkscape:connector-curvature="0"
       style="fill:#000000;fill-opacity:0;fill-rule:nonzero" />
    <path
       d="m 351.8584,36.52 0,-1.640625 1.65625,0 0,1.640625 -1.65625,0 z m 3.33398,0 0,-1.640625 1.65625,0 0,1.640625 -1.65625,0 z m 3.33399,0 0,-1.640625 1.65625,0 0,1.640625 -1.65625,0 z"
       id="path31"
       inkscape:connector-curvature="0"
       style="fill:#000000;fill-rule:nonzero" />
    <path
       d="m 136,239.84251 480,-1.00787"
       id="path33"
       inkscape:connector-curvature="0"
       style="fill:#000000;fill-opacity:0;fill-rule:nonzero" />
    <path
       d="m 136,239.84251 474,-0.99529"
       id="path35"
       inkscape:connector-curvature="0"
       style="stroke:#000000;stroke-width:1;stroke-linecap:butt;stroke-linejoin:round" />
    <path
       d="m 610.0035,240.49898 4.53461,-1.66125 -4.54157,-1.64222 z"
       id="path37"
       inkscape:connector-curvature="0"
       style="fill:#000000;fill-rule:evenodd;stroke:#000000;stroke-width:1;stroke-linecap:butt" />
    <path
       d="m 136,238.83464 426.99213,0 0,25.16536 L 136,264 z"
       id="path39"
       inkscape:connector-curvature="0"
       style="fill:#000000;fill-opacity:0;fill-rule:nonzero" />
    <path
       d="m 420.1718,259.35464 0,-8.59375 2.78125,0 q 1.57813,0 2.0625,0.125 0.73438,0.20313 1.23438,0.85938 0.5,0.64062 0.5,1.65625 0,0.79687 -0.29688,1.34375 -0.28125,0.53125 -0.71875,0.84375 -0.4375,0.29687 -0.90625,0.40625 -0.60937,0.125 -1.79687,0.125 l -1.125,0 0,3.23437 -1.73438,0 z m 1.73438,-7.14062 0,2.4375 0.95312,0 q 1.01563,0 1.35938,-0.125 0.35937,-0.14063 0.54687,-0.42188 0.20313,-0.29687 0.20313,-0.67187 0,-0.46875 -0.28125,-0.76563 -0.28125,-0.3125 -0.70313,-0.39062 -0.29687,-0.0625 -1.23437,-0.0625 l -0.84375,0 z m 5.8789,3.9375 q 0,-0.8125 0.40625,-1.57813 0.40625,-0.78125 1.14063,-1.17187 0.73437,-0.40625 1.65625,-0.40625 1.40625,0 2.3125,0.92187 0.90625,0.90625 0.90625,2.3125 0,1.40625 -0.92188,2.34375 -0.90625,0.92188 -2.28125,0.92188 -0.85937,0 -1.64062,-0.39063 -0.76563,-0.39062 -1.17188,-1.125 -0.40625,-0.75 -0.40625,-1.82812 z m 1.6875,0.0937 q 0,0.92187 0.4375,1.42187 0.4375,0.48438 1.07813,0.48438 0.65625,0 1.07812,-0.48438 0.4375,-0.5 0.4375,-1.4375 0,-0.90625 -0.4375,-1.39062 -0.42187,-0.5 -1.07812,-0.5 -0.64063,0 -1.07813,0.5 -0.4375,0.48437 -0.4375,1.40625 z m 5.43945,1.32812 1.65625,-0.25 q 0.10938,0.48438 0.42188,0.73438 0.32812,0.25 0.90625,0.25 0.64062,0 0.95312,-0.23438 0.21875,-0.17187 0.21875,-0.4375 0,-0.1875 -0.10937,-0.3125 -0.125,-0.125 -0.54688,-0.21875 -2,-0.4375 -2.53125,-0.79687 -0.73437,-0.51563 -0.73437,-1.40625 0,-0.8125 0.625,-1.35938 0.64062,-0.54687 1.98437,-0.54687 1.28125,0 1.90625,0.42187 0.625,0.40625 0.85938,1.21875 l -1.5625,0.28125 q -0.0937,-0.35937 -0.375,-0.54687 -0.28125,-0.20313 -0.79688,-0.20313 -0.64062,0 -0.92187,0.1875 -0.1875,0.125 -0.1875,0.32813 0,0.1875 0.15625,0.3125 0.21875,0.15625 1.53125,0.45312 1.32812,0.29688 1.84375,0.73438 0.51562,0.4375 0.51562,1.21875 0,0.85937 -0.71875,1.48437 -0.70312,0.60938 -2.10937,0.60938 -1.26563,0 -2.01563,-0.51563 -0.73437,-0.51562 -0.96875,-1.40625 z m 7.25196,-5.28125 0,-1.53125 1.65625,0 0,1.53125 -1.65625,0 z m 0,7.0625 0,-6.21875 1.65625,0 0,6.21875 -1.65625,0 z m 6.19336,-6.21875 0,1.3125 -1.125,0 0,2.5 q 0,0.76563 0.0312,0.89063 0.0312,0.125 0.14062,0.21875 0.125,0.0781 0.28125,0.0781 0.23438,0 0.65625,-0.17187 l 0.14063,1.28125 q -0.5625,0.25 -1.29688,0.25 -0.4375,0 -0.79687,-0.14063 -0.35938,-0.15625 -0.53125,-0.39062 -0.15625,-0.25 -0.23438,-0.64063 -0.0469,-0.29687 -0.0469,-1.17187 l 0,-2.70313 -0.75,0 0,-1.3125 0.75,0 0,-1.23437 1.65625,-0.96875 0,2.20312 1.125,0 z m 1.13672,-0.84375 0,-1.53125 1.65625,0 0,1.53125 -1.65625,0 z m 0,7.0625 0,-6.21875 1.65625,0 0,6.21875 -1.65625,0 z m 2.95898,-3.20312 q 0,-0.8125 0.40625,-1.57813 0.40625,-0.78125 1.14062,-1.17187 0.73438,-0.40625 1.65625,-0.40625 1.40625,0 2.3125,0.92187 0.90625,0.90625 0.90625,2.3125 0,1.40625 -0.92187,2.34375 -0.90625,0.92188 -2.28125,0.92188 -0.85938,0 -1.64063,-0.39063 -0.76562,-0.39062 -1.17187,-1.125 -0.40625,-0.75 -0.40625,-1.82812 z m 1.6875,0.0937 q 0,0.92187 0.4375,1.42187 0.4375,0.48438 1.07812,0.48438 0.65625,0 1.07813,-0.48438 0.4375,-0.5 0.4375,-1.4375 0,-0.90625 -0.4375,-1.39062 -0.42188,-0.5 -1.07813,-0.5 -0.64062,0 -1.07812,0.5 -0.4375,0.48437 -0.4375,1.40625 z m 11.67383,3.10937 -1.64063,0 0,-3.17187 q 0,-1.01563 -0.10937,-1.3125 -0.0937,-0.29688 -0.34375,-0.45313 -0.23438,-0.17187 -0.5625,-0.17187 -0.4375,0 -0.78125,0.23437 -0.32813,0.23438 -0.45313,0.625 -0.125,0.39063 -0.125,1.4375 l 0,2.8125 -1.65625,0 0,-6.21875 1.53125,0 0,0.90625 q 0.8125,-1.04687 2.0625,-1.04687 0.53125,0 0.98438,0.20312 0.45312,0.1875 0.6875,0.5 0.23437,0.29688 0.3125,0.6875 0.0937,0.375 0.0937,1.09375 l 0,3.875 z m 5.00781,-7.0625 0,-1.53125 1.65625,0 0,1.53125 -1.65625,0 z m 0,7.0625 0,-6.21875 1.65625,0 0,6.21875 -1.65625,0 z m 8.99023,0 -1.64062,0 0,-3.17187 q 0,-1.01563 -0.10938,-1.3125 -0.0937,-0.29688 -0.34375,-0.45313 -0.23437,-0.17187 -0.5625,-0.17187 -0.4375,0 -0.78125,0.23437 -0.32812,0.23438 -0.45312,0.625 -0.125,0.39063 -0.125,1.4375 l 0,2.8125 -1.65625,0 0,-6.21875 1.53125,0 0,0.90625 q 0.8125,-1.04687 2.0625,-1.04687 0.53125,0 0.98437,0.20312 0.45313,0.1875 0.6875,0.5 0.23438,0.29688 0.3125,0.6875 0.0937,0.375 0.0937,1.09375 l 0,3.875 z m 5.02344,-8.59375 3.15625,0 q 1.07813,0 1.64063,0.17188 0.75,0.21875 1.28125,0.79687 0.54687,0.5625 0.82812,1.39063 0.28125,0.8125 0.28125,2.01562 0,1.0625 -0.25,1.82813 -0.32812,0.9375 -0.92187,1.51562 -0.45313,0.45313 -1.21875,0.6875 -0.57813,0.1875 -1.54688,0.1875 l -3.25,0 0,-8.59375 z m 1.73438,1.45313 0,5.6875 1.28125,0 q 0.73437,0 1.0625,-0.0781 0.42187,-0.10937 0.6875,-0.35937 0.28125,-0.25 0.45312,-0.82813 0.1875,-0.57812 0.1875,-1.57812 0,-0.98438 -0.1875,-1.51563 -0.17187,-0.54687 -0.48437,-0.84375 -0.3125,-0.29687 -0.79688,-0.40625 -0.375,-0.0781 -1.4375,-0.0781 l -0.76562,0 z m 8.15039,2.8125 -1.5,-0.26563 q 0.25,-0.90625 0.85937,-1.32812 0.625,-0.4375 1.84375,-0.4375 1.09375,0 1.625,0.26562 0.54688,0.25 0.76563,0.65625 0.21875,0.39063 0.21875,1.46875 l -0.0156,1.92188 q 0,0.82812 0.0781,1.21875 0.0781,0.375 0.29687,0.82812 l -1.625,0 q -0.0625,-0.17187 -0.15625,-0.48437 -0.0469,-0.15625 -0.0625,-0.20313 -0.42187,0.42188 -0.90625,0.625 -0.46875,0.20313 -1.01562,0.20313 -0.96875,0 -1.53125,-0.51563 -0.54688,-0.53125 -0.54688,-1.32812 0,-0.53125 0.25,-0.9375 0.26563,-0.40625 0.71875,-0.625 0.45313,-0.23438 1.3125,-0.39063 1.14063,-0.21875 1.59375,-0.40625 l 0,-0.15625 q 0,-0.48437 -0.23437,-0.6875 -0.23438,-0.20312 -0.89063,-0.20312 -0.4375,0 -0.6875,0.17187 -0.23437,0.17188 -0.39062,0.60938 z m 2.20312,1.34375 q -0.3125,0.0937 -1,0.25 -0.6875,0.14062 -0.90625,0.28125 -0.3125,0.23437 -0.3125,0.57812 0,0.34375 0.25,0.60938 0.26563,0.25 0.65625,0.25 0.45313,0 0.85938,-0.29688 0.29687,-0.21875 0.39062,-0.54687 0.0625,-0.20313 0.0625,-0.79688 l 0,-0.32812 z m 6.09571,-3.23438 0,1.3125 -1.125,0 0,2.5 q 0,0.76563 0.0312,0.89063 0.0312,0.125 0.14062,0.21875 0.125,0.0781 0.28125,0.0781 0.23438,0 0.65625,-0.17187 l 0.14063,1.28125 q -0.5625,0.25 -1.29688,0.25 -0.4375,0 -0.79687,-0.14063 -0.35938,-0.15625 -0.53125,-0.39062 -0.15625,-0.25 -0.23438,-0.64063 -0.0469,-0.29687 -0.0469,-1.17187 l 0,-2.70313 -0.75,0 0,-1.3125 0.75,0 0,-1.23437 1.65625,-0.96875 0,2.20312 1.125,0 z m 2.37109,1.89063 -1.5,-0.26563 q 0.25,-0.90625 0.85937,-1.32812 0.625,-0.4375 1.84375,-0.4375 1.09375,0 1.625,0.26562 0.54688,0.25 0.76563,0.65625 0.21875,0.39063 0.21875,1.46875 l -0.0156,1.92188 q 0,0.82812 0.0781,1.21875 0.0781,0.375 0.29687,0.82812 l -1.625,0 q -0.0625,-0.17187 -0.15625,-0.48437 -0.0469,-0.15625 -0.0625,-0.20313 -0.42187,0.42188 -0.90625,0.625 -0.46875,0.20313 -1.01562,0.20313 -0.96875,0 -1.53125,-0.51563 -0.54688,-0.53125 -0.54688,-1.32812 0,-0.53125 0.25,-0.9375 0.26563,-0.40625 0.71875,-0.625 0.45313,-0.23438 1.3125,-0.39063 1.14063,-0.21875 1.59375,-0.40625 l 0,-0.15625 q 0,-0.48437 -0.23437,-0.6875 -0.23438,-0.20312 -0.89063,-0.20312 -0.4375,0 -0.6875,0.17187 -0.23437,0.17188 -0.39062,0.60938 z m 2.20312,1.34375 q -0.3125,0.0937 -1,0.25 -0.6875,0.14062 -0.90625,0.28125 -0.3125,0.23437 -0.3125,0.57812 0,0.34375 0.25,0.60938 0.26563,0.25 0.65625,0.25 0.45313,0 0.85938,-0.29688 0.29687,-0.21875 0.39062,-0.54687 0.0625,-0.20313 0.0625,-0.79688 l 0,-0.32812 z m 6.14844,0.1875 1.6875,-0.15625 q 0.15625,0.84375 0.60938,1.25 0.46875,0.39062 1.26562,0.39062 0.82813,0 1.25,-0.34375 0.4375,-0.35937 0.4375,-0.84375 0,-0.29687 -0.1875,-0.51562 -0.17187,-0.21875 -0.625,-0.375 -0.29687,-0.10938 -1.375,-0.375 -1.40625,-0.34375 -1.96875,-0.84375 -0.78125,-0.71875 -0.78125,-1.73438 0,-0.65625 0.35938,-1.21875 0.375,-0.57812 1.07812,-0.875 0.70313,-0.29687 1.6875,-0.29687 1.625,0 2.4375,0.71875 0.8125,0.70312 0.85938,1.875 l -1.73438,0.0781 q -0.10937,-0.65625 -0.48437,-0.9375 -0.35938,-0.29687 -1.09375,-0.29687 -0.75,0 -1.1875,0.3125 -0.26563,0.1875 -0.26563,0.53125 0,0.29687 0.25,0.51562 0.32813,0.28125 1.59375,0.57813 1.26563,0.29687 1.875,0.625 0.60938,0.3125 0.95313,0.875 0.34375,0.54687 0.34375,1.35937 0,0.73438 -0.42188,1.39063 -0.40625,0.64062 -1.15625,0.95312 -0.75,0.3125 -1.85937,0.3125 -1.64063,0 -2.51563,-0.75 -0.85937,-0.76562 -1.03125,-2.20312 z m 11.28516,-3.42188 0,1.3125 -1.125,0 0,2.5 q 0,0.76563 0.0312,0.89063 0.0312,0.125 0.14062,0.21875 0.125,0.0781 0.28125,0.0781 0.23438,0 0.65625,-0.17187 l 0.14063,1.28125 q -0.5625,0.25 -1.29688,0.25 -0.4375,0 -0.79687,-0.14063 -0.35938,-0.15625 -0.53125,-0.39062 -0.15625,-0.25 -0.23438,-0.64063 -0.0469,-0.29687 -0.0469,-1.17187 l 0,-2.70313 -0.75,0 0,-1.3125 0.75,0 0,-1.23437 1.65625,-0.96875 0,2.20312 1.125,0 z m 2.71484,6.21875 -1.64062,0 0,-6.21875 1.53125,0 0,0.875 q 0.39062,-0.625 0.70312,-0.8125 0.3125,-0.20312 0.70313,-0.20312 0.5625,0 1.09375,0.3125 l -0.51563,1.42187 q -0.42187,-0.26562 -0.76562,-0.26562 -0.35938,0 -0.59375,0.20312 -0.23438,0.1875 -0.375,0.6875 -0.14063,0.48438 -0.14063,2.07813 l 0,1.92187 z m 6.70117,-1.98437 1.64063,0.28125 q -0.3125,0.90625 -1,1.375 -0.6875,0.46875 -1.70313,0.46875 -1.625,0 -2.40625,-1.0625 -0.625,-0.84375 -0.625,-2.14063 0,-1.54687 0.8125,-2.42187 0.8125,-0.875 2.04688,-0.875 1.39062,0 2.1875,0.92187 0.8125,0.90625 0.76562,2.79688 l -4.125,0 q 0.0312,0.73437 0.40625,1.14062 0.375,0.40625 0.95313,0.40625 0.375,0 0.64062,-0.20312 0.26563,-0.21875 0.40625,-0.6875 z m 0.0937,-1.65625 q -0.0156,-0.71875 -0.375,-1.09375 -0.34375,-0.375 -0.85937,-0.375 -0.53125,0 -0.89063,0.39062 -0.34375,0.40625 -0.34375,1.07813 l 2.46875,0 z m 4.20508,-0.6875 -1.5,-0.26563 q 0.25,-0.90625 0.85938,-1.32812 0.625,-0.4375 1.84375,-0.4375 1.09375,0 1.625,0.26562 0.54687,0.25 0.76562,0.65625 0.21875,0.39063 0.21875,1.46875 l -0.0156,1.92188 q 0,0.82812 0.0781,1.21875 0.0781,0.375 0.29688,0.82812 l -1.625,0 q -0.0625,-0.17187 -0.15625,-0.48437 -0.0469,-0.15625 -0.0625,-0.20313 -0.42188,0.42188 -0.90625,0.625 -0.46875,0.20313 -1.01563,0.20313 -0.96875,0 -1.53125,-0.51563 -0.54687,-0.53125 -0.54687,-1.32812 0,-0.53125 0.25,-0.9375 0.26562,-0.40625 0.71875,-0.625 0.45312,-0.23438 1.3125,-0.39063 1.14062,-0.21875 1.59375,-0.40625 l 0,-0.15625 q 0,-0.48437 -0.23438,-0.6875 -0.23437,-0.20312 -0.89062,-0.20312 -0.4375,0 -0.6875,0.17187 -0.23438,0.17188 -0.39063,0.60938 z m 2.20313,1.34375 q -0.3125,0.0937 -1,0.25 -0.6875,0.14062 -0.90625,0.28125 -0.3125,0.23437 -0.3125,0.57812 0,0.34375 0.25,0.60938 0.26562,0.25 0.65625,0.25 0.45312,0 0.85937,-0.29688 0.29688,-0.21875 0.39063,-0.54687 0.0625,-0.20313 0.0625,-0.79688 l 0,-0.32812 z m 3.11133,-3.23438 1.51562,0 0,0.84375 q 0.82813,-0.98437 1.95313,-0.98437 0.59375,0 1.03125,0.25 0.4375,0.23437 0.71875,0.73437 0.40625,-0.5 0.875,-0.73437 0.48437,-0.25 1.03125,-0.25 0.67187,0 1.14062,0.28125 0.48438,0.26562 0.71875,0.8125 0.17188,0.39062 0.17188,1.28125 l 0,3.98437 -1.64063,0 0,-3.5625 q 0,-0.92187 -0.17187,-1.1875 -0.23438,-0.35937 -0.70313,-0.35937 -0.34375,0 -0.65625,0.21875 -0.29687,0.20312 -0.4375,0.60937 -0.14062,0.40625 -0.14062,1.29688 l 0,2.98437 -1.64063,0 0,-3.40625 q 0,-0.90625 -0.0937,-1.17187 -0.0781,-0.26563 -0.26562,-0.39063 -0.1875,-0.14062 -0.5,-0.14062 -0.375,0 -0.6875,0.21875 -0.29688,0.20312 -0.4375,0.59375 -0.125,0.375 -0.125,1.26562 l 0,3.03125 -1.65625,0 0,-6.21875 z"
       id="path41"
       inkscape:connector-curvature="0"
       style="fill:#000000;fill-rule:nonzero" />
    <path
       d="m 136,16 40,0 0,40 -40,0 z"
       id="path43"
       inkscape:connector-curvature="0"
       style="fill:#000000;fill-opacity:0;fill-rule:nonzero" />
    <path
       d="m 136,16 40,0 0,40 -40,0 z"
       id="path45"
       inkscape:connector-curvature="0"
       style="stroke:#000000;stroke-width:1;stroke-linecap:butt;stroke-linejoin:round" />
    <path
       d="m 148.54004,40.52 0,-8.59375 2.78125,0 q 1.57812,0 2.0625,0.125 0.73437,0.203125 1.23437,0.859375 0.5,0.640625 0.5,1.65625 0,0.796875 -0.29687,1.34375 -0.28125,0.53125 -0.71875,0.84375 -0.4375,0.296875 -0.90625,0.40625 -0.60938,0.125 -1.79688,0.125 l -1.125,0 0,3.234375 -1.73437,0 z m 1.73437,-7.140625 0,2.4375 0.95313,0 q 1.01562,0 1.35937,-0.125 0.35938,-0.140625 0.54688,-0.421875 0.20312,-0.296875 0.20312,-0.671875 0,-0.46875 -0.28125,-0.765625 -0.28125,-0.3125 -0.70312,-0.390625 -0.29688,-0.0625 -1.23438,-0.0625 l -0.84375,0 z m 6.26954,7.140625 0,-8.59375 1.73437,0 0,3.390625 3.40625,0 0,-3.390625 1.73438,0 0,8.59375 -1.73438,0 0,-3.75 -3.40625,0 0,3.75 -1.73437,0 z"
       id="path47"
       inkscape:connector-curvature="0"
       style="fill:#000000;fill-rule:nonzero" />
    <path
       d="m 256,16 40,0 0,40 -40,0 z"
       id="path49"
       inkscape:connector-curvature="0"
       style="fill:#b7b7b7;fill-rule:nonzero" />
    <path
       d="m 256,16 40,0 0,40 -40,0 z"
       id="path51"
       inkscape:connector-curvature="0"
       style="stroke:#000000;stroke-width:1;stroke-linecap:butt;stroke-linejoin:round" />
    <path
       d="m 271.78613,40.52 0,-3.609375 -3.14062,-4.984375 2.03125,0 2.01562,3.40625 1.98438,-3.40625 2,0 -3.15625,4.984375 0,3.609375 -1.73438,0 z m 5.33203,-2.28125 1.59375,-0.1875 q 0.0781,0.609375 0.40625,0.9375 0.34375,0.3125 0.8125,0.3125 0.51563,0 0.85938,-0.390625 0.34375,-0.390625 0.34375,-1.046875 0,-0.609375 -0.34375,-0.96875 -0.32813,-0.375 -0.79688,-0.375 -0.32812,0 -0.76562,0.125 l 0.1875,-1.34375 q 0.67187,0.01563 1.01562,-0.28125 0.35938,-0.3125 0.35938,-0.828125 0,-0.421875 -0.26563,-0.671875 -0.25,-0.265625 -0.6875,-0.265625 -0.42187,0 -0.71875,0.296875 -0.29687,0.28125 -0.35937,0.84375 l -1.51563,-0.25 q 0.15625,-0.78125 0.46875,-1.25 0.32813,-0.46875 0.89063,-0.734375 0.57812,-0.265625 1.28125,-0.265625 1.21875,0 1.95312,0.765625 0.59375,0.640625 0.59375,1.4375 0,1.125 -1.23437,1.796875 0.75,0.171875 1.1875,0.71875 0.4375,0.546875 0.4375,1.328125 0,1.125 -0.82813,1.921875 -0.82812,0.796875 -2.04687,0.796875 -1.17188,0 -1.9375,-0.671875 -0.76563,-0.671875 -0.89063,-1.75 z"
       id="path53"
       inkscape:connector-curvature="0"
       style="fill:#000000;fill-rule:nonzero" />
    <path
       d="m 336,16 80,0"
       id="path55"
       inkscape:connector-curvature="0"
       style="fill:#000000;fill-opacity:0;fill-rule:nonzero" />
    <path
       d="m 336,16 80,0"
       id="path57"
       inkscape:connector-curvature="0"
       style="stroke:#000000;stroke-width:1;stroke-linecap:butt;stroke-linejoin:round" />
    <path
       d="m 356,16 0,0"
       id="path59"
       inkscape:connector-curvature="0"
       style="fill:#000000;fill-opacity:0;fill-rule:nonzero" />
    <path
       d="m 356,16 0,0"
       id="path61"
       inkscape:connector-curvature="0"
       style="stroke:#000000;stroke-width:1;stroke-linecap:butt;stroke-linejoin:round" />
    <path
       d="m 336,56 80,0"
       id="path63"
       inkscape:connector-curvature="0"
       style="fill:#000000;fill-opacity:0;fill-rule:nonzero" />
    <path
       d="m 336,56 80,0"
       id="path65"
       inkscape:connector-curvature="0"
       style="stroke:#000000;stroke-width:1;stroke-linecap:butt;stroke-linejoin:round" />
    <path
       d="m 416,72 40,0 0,40 -40,0 z"
       id="path67"
       inkscape:connector-curvature="0"
       style="fill:#b7b7b7;fill-rule:nonzero" />
    <path
       d="m 416,72 40,0 0,40 -40,0 z"
       id="path69"
       inkscape:connector-curvature="0"
       style="stroke:#000000;stroke-width:1;stroke-linecap:butt;stroke-linejoin:round" />
    <path
       d="m 435.12305,89.520004 0,-3.609375 -3.14063,-4.984375 2.03125,0 2.01563,3.40625 1.98437,-3.40625 2,0 -3.15625,4.984375 0,3.609375 -1.73437,0 z"
       id="path71"
       inkscape:connector-curvature="0"
       style="fill:#000000;fill-rule:nonzero" />
    <path
       d="m 433.51562,103.52 -1.64062,0 0,-3.17187 q 0,-1.015626 -0.10938,-1.312501 -0.0937,-0.296875 -0.34375,-0.453125 -0.23437,-0.171875 -0.5625,-0.171875 -0.4375,0 -0.78125,0.234375 -0.32812,0.234375 -0.45312,0.625 -0.125,0.390625 -0.125,1.437496 l 0,2.8125 -1.65625,0 0,-6.218746 1.53125,0 0,0.90625 q 0.8125,-1.046875 2.0625,-1.046875 0.53125,0 0.98437,0.203125 0.45313,0.1875 0.6875,0.5 0.23438,0.296875 0.3125,0.6875 0.0937,0.375 0.0937,1.09375 l 0,3.874996 z m 1.48633,-2.29687 0,-1.640626 3.23437,0 0,1.640626 -3.23437,0 z m 3.77734,0.0156 1.59375,-0.1875 q 0.0781,0.60938 0.40625,0.9375 0.34375,0.3125 0.8125,0.3125 0.51563,0 0.85938,-0.39062 0.34375,-0.39063 0.34375,-1.04688 0,-0.60937 -0.34375,-0.968746 -0.32813,-0.375 -0.79688,-0.375 -0.32812,0 -0.76562,0.125 l 0.1875,-1.34375 q 0.67187,0.01563 1.01562,-0.28125 0.35938,-0.3125 0.35938,-0.828125 0,-0.421875 -0.26563,-0.671875 -0.25,-0.265625 -0.6875,-0.265625 -0.42187,0 -0.71875,0.296875 -0.29687,0.28125 -0.35937,0.84375 l -1.51563,-0.25 q 0.15625,-0.78125 0.46875,-1.25 0.32813,-0.46875 0.89063,-0.734375 0.57812,-0.265625 1.28125,-0.265625 1.21875,0 1.95312,0.765625 0.59375,0.640625 0.59375,1.4375 0,1.125 -1.23437,1.796875 0.75,0.171875 1.1875,0.71875 0.4375,0.546876 0.4375,1.328126 0,1.125 -0.82813,1.92187 -0.82812,0.79688 -2.04687,0.79688 -1.17188,0 -1.9375,-0.67188 -0.76563,-0.67187 -0.89063,-1.75 z"
       id="path73"
       inkscape:connector-curvature="0"
       style="fill:#000000;fill-rule:nonzero" />
    <path
       d="m 456,72 40,0 0,40 -40,0 z"
       id="path75"
       inkscape:connector-curvature="0"
       style="fill:#b7b7b7;fill-rule:nonzero" />
    <path
       d="m 456,72 40,0 0,40 -40,0 z"
       id="path77"
       inkscape:connector-curvature="0"
       style="stroke:#000000;stroke-width:1;stroke-linecap:butt;stroke-linejoin:round" />
    <path
       d="m 475.12305,89.520004 0,-3.609375 -3.14063,-4.984375 2.03125,0 2.01563,3.40625 1.98437,-3.40625 2,0 -3.15625,4.984375 0,3.609375 -1.73437,0 z"
       id="path79"
       inkscape:connector-curvature="0"
       style="fill:#000000;fill-rule:nonzero" />
    <path
       d="m 473.51562,103.52 -1.64062,0 0,-3.17187 q 0,-1.015626 -0.10938,-1.312501 -0.0937,-0.296875 -0.34375,-0.453125 -0.23437,-0.171875 -0.5625,-0.171875 -0.4375,0 -0.78125,0.234375 -0.32812,0.234375 -0.45312,0.625 -0.125,0.390625 -0.125,1.437496 l 0,2.8125 -1.65625,0 0,-6.218746 1.53125,0 0,0.90625 q 0.8125,-1.046875 2.0625,-1.046875 0.53125,0 0.98437,0.203125 0.45313,0.1875 0.6875,0.5 0.23438,0.296875 0.3125,0.6875 0.0937,0.375 0.0937,1.09375 l 0,3.874996 z m 1.48633,-2.29687 0,-1.640626 3.23437,0 0,1.640626 -3.23437,0 z m 9.40234,0.76562 0,1.53125 -5.78125,0 q 0.0937,-0.875 0.5625,-1.64062 0.46875,-0.78125 1.85938,-2.062501 1.10937,-1.03125 1.35937,-1.40625 0.34375,-0.515625 0.34375,-1.015625 0,-0.546875 -0.29687,-0.84375 -0.29688,-0.296875 -0.8125,-0.296875 -0.51563,0 -0.82813,0.3125 -0.29687,0.3125 -0.34375,1.03125 l -1.64062,-0.15625 q 0.14062,-1.359375 0.90625,-1.953125 0.78125,-0.59375 1.9375,-0.59375 1.28125,0 2,0.6875 0.73437,0.6875 0.73437,1.703125 0,0.578125 -0.21875,1.109375 -0.20312,0.515625 -0.65625,1.09375 -0.29687,0.375 -1.07812,1.093746 -0.78125,0.71875 -0.98438,0.95313 -0.20312,0.23437 -0.34375,0.45312 l 3.28125,0 z"
       id="path81"
       inkscape:connector-curvature="0"
       style="fill:#000000;fill-rule:nonzero" />
    <path
       d="m 536,72 40,0 0,40 -40,0 z"
       id="path83"
       inkscape:connector-curvature="0"
       style="fill:#b7b7b7;fill-rule:nonzero" />
    <path
       d="m 536,72 40,0 0,40 -40,0 z"
       id="path85"
       inkscape:connector-curvature="0"
       style="stroke:#000000;stroke-width:1;stroke-linecap:butt;stroke-linejoin:round" />
    <path
       d="m 555.12305,89.520004 0,-3.609375 -3.14062,-4.984375 2.03125,0 2.01562,3.40625 1.98438,-3.40625 2,0 -3.15625,4.984375 0,3.609375 -1.73438,0 z"
       id="path87"
       inkscape:connector-curvature="0"
       style="fill:#000000;fill-rule:nonzero" />
    <path
       d="m 558.8506,103.52 -1.64063,0 0,-3.17188 q 0,-1.01562 -0.10937,-1.312495 -0.0937,-0.296875 -0.34375,-0.453117 -0.23438,-0.171875 -0.5625,-0.171875 -0.4375,0 -0.78125,0.234375 -0.32813,0.234367 -0.45313,0.624992 -0.125,0.390625 -0.125,1.4375 l 0,2.8125 -1.65625,0 0,-6.218742 1.53125,0 0,0.90625 q 0.8125,-1.046875 2.0625,-1.046875 0.53125,0 0.98438,0.203125 0.45312,0.1875 0.6875,0.5 0.23437,0.296875 0.3125,0.6875 0.0937,0.374992 0.0937,1.093742 l 0,3.875 z"
       id="path89"
       inkscape:connector-curvature="0"
       style="fill:#000000;fill-rule:nonzero" />
    <path
       d="m 376,72 40,0 0,40 -40,0 z"
       id="path91"
       inkscape:connector-curvature="0"
       style="fill:#000000;fill-opacity:0;fill-rule:nonzero" />
    <path
       d="m 391.8584,92.520004 0,-1.640625 1.65625,0 0,1.640625 -1.65625,0 z m 3.33398,0 0,-1.640625 1.65625,0 0,1.640625 -1.65625,0 z m 3.33399,0 0,-1.640625 1.65625,0 0,1.640625 -1.65625,0 z"
       id="path93"
       inkscape:connector-curvature="0"
       style="fill:#000000;fill-rule:nonzero" />
    <path
       d="m 576,72 40,0 0,40 -40,0 z"
       id="path95"
       inkscape:connector-curvature="0"
       style="fill:#000000;fill-opacity:0;fill-rule:nonzero" />
    <path
       d="m 576,72 40,0 0,40 -40,0 z"
       id="path97"
       inkscape:connector-curvature="0"
       style="stroke:#000000;stroke-width:1;stroke-linecap:butt;stroke-linejoin:round" />
    <path
       d="m 589.208,96.520004 0,-8.59375 2.78125,0 q 1.57812,0 2.0625,0.125 0.73437,0.203125 1.23437,0.859375 0.5,0.640625 0.5,1.65625 0,0.796875 -0.29687,1.34375 -0.28125,0.53125 -0.71875,0.84375 -0.4375,0.296875 -0.90625,0.40625 -0.60938,0.125 -1.79688,0.125 l -1.125,0 0,3.234375 -1.73437,0 z m 1.73437,-7.140625 0,2.4375 0.95313,0 q 1.01562,0 1.35937,-0.125 0.35938,-0.140625 0.54688,-0.421875 0.20312,-0.296875 0.20312,-0.671875 0,-0.46875 -0.28125,-0.765625 -0.28125,-0.3125 -0.70312,-0.390625 -0.29688,-0.0625 -1.23438,-0.0625 l -0.84375,0 z m 6.28516,7.140625 0,-8.59375 5.89063,0 0,1.453125 -4.15625,0 0,2.03125 3.57812,0 0,1.453125 -3.57812,0 0,3.65625 -1.73438,0 z"
       id="path99"
       inkscape:connector-curvature="0"
       style="fill:#000000;fill-rule:nonzero" />
    <path
       d="m 496,72 40,0 0,40 -40,0 z"
       id="path101"
       inkscape:connector-curvature="0"
       style="fill:#b7b7b7;fill-rule:nonzero" />
    <path
       d="m 496,72 40,0 0,40 -40,0 z"
       id="path103"
       inkscape:connector-curvature="0"
       style="stroke:#000000;stroke-width:1;stroke-linecap:butt;stroke-linejoin:round" />
    <path
       d="m 515.12305,89.520004 0,-3.609375 -3.14062,-4.984375 2.03125,0 2.01562,3.40625 1.98438,-3.40625 2,0 -3.15625,4.984375 0,3.609375 -1.73438,0 z"
       id="path105"
       inkscape:connector-curvature="0"
       style="fill:#000000;fill-rule:nonzero" />
    <path
       d="m 513.5156,103.52 -1.64063,0 0,-3.17188 q 0,-1.01562 -0.10937,-1.312495 -0.0937,-0.296875 -0.34375,-0.453117 -0.23438,-0.171875 -0.5625,-0.171875 -0.4375,0 -0.78125,0.234375 -0.32813,0.234367 -0.45313,0.624992 -0.125,0.390625 -0.125,1.4375 l 0,2.8125 -1.65625,0 0,-6.218742 1.53125,0 0,0.90625 q 0.8125,-1.046875 2.0625,-1.046875 0.53125,0 0.98438,0.203125 0.45312,0.1875 0.6875,0.5 0.23437,0.296875 0.3125,0.6875 0.0937,0.374992 0.0937,1.093742 l 0,3.875 z m 1.48633,-2.29688 0,-1.64062 3.23437,0 0,1.64062 -3.23437,0 z m 8.04297,2.29688 -1.64063,0 0,-6.203117 q -0.90625,0.84375 -2.125,1.25 l 0,-1.5 q 0.64063,-0.203125 1.39063,-0.796875 0.76562,-0.59375 1.04687,-1.375 l 1.32813,0 0,8.624992 z"
       id="path107"
       inkscape:connector-curvature="0"
       style="fill:#000000;fill-rule:nonzero" />
    <path
       d="m 336,72 80,0"
       id="path109"
       inkscape:connector-curvature="0"
       style="fill:#000000;fill-opacity:0;fill-rule:nonzero" />
    <path
       d="m 336,72 80,0"
       id="path111"
       inkscape:connector-curvature="0"
       style="stroke:#000000;stroke-width:1;stroke-linecap:butt;stroke-linejoin:round" />
    <path
       d="m 396,72 0,0"
       id="path113"
       inkscape:connector-curvature="0"
       style="fill:#000000;fill-opacity:0;fill-rule:nonzero" />
    <path
       d="m 396,72 0,0"
       id="path115"
       inkscape:connector-curvature="0"
       style="stroke:#000000;stroke-width:1;stroke-linecap:butt;stroke-linejoin:round" />
    <path
       d="m 336,112 80,0"
       id="path117"
       inkscape:connector-curvature="0"
       style="fill:#000000;fill-opacity:0;fill-rule:nonzero" />
    <path
       d="m 336,112 80,0"
       id="path119"
       inkscape:connector-curvature="0"
       style="stroke:#000000;stroke-width:1;stroke-linecap:butt;stroke-linejoin:round" />
    <path
       d="m 256,128 40,0 0,40 -40,0 z"
       id="path121"
       inkscape:connector-curvature="0"
       style="fill:#ff0000;fill-rule:nonzero" />
    <path
       d="m 256,128 40,0 0,40 -40,0 z"
       id="path123"
       inkscape:connector-curvature="0"
       style="stroke:#000000;stroke-width:1;stroke-linecap:butt;stroke-linejoin:round" />
    <path
       d="m 271.72363,152.52 -3.0625,-8.59375 1.875,0 2.17188,6.35937 2.10937,-6.35937 1.84375,0 -3.07812,8.59375 -1.85938,0 z m 9.66016,0 -1.64063,0 0,-6.20313 q -0.90625,0.84375 -2.125,1.25 l 0,-1.5 q 0.64063,-0.20312 1.39063,-0.79687 0.76562,-0.59375 1.04687,-1.375 l 1.32813,0 0,8.625 z"
       id="path125"
       inkscape:connector-curvature="0"
       style="fill:#000000;fill-rule:nonzero" />
    <path
       d="m 216,128 40,0 0,40 -40,0 z"
       id="path127"
       inkscape:connector-curvature="0"
       style="fill:#b7b7b7;fill-rule:nonzero" />
    <path
       d="m 216,128 40,0 0,40 -40,0 z"
       id="path129"
       inkscape:connector-curvature="0"
       style="stroke:#000000;stroke-width:1;stroke-linecap:butt;stroke-linejoin:round" />
    <path
       d="m 231.78613,152.52 0,-3.60938 -3.14062,-4.98437 2.03125,0 2.01562,3.40625 1.98438,-3.40625 2,0 -3.15625,4.98437 0,3.60938 -1.73438,0 z m 9.59766,0 -1.64063,0 0,-6.20313 q -0.90625,0.84375 -2.125,1.25 l 0,-1.5 q 0.64063,-0.20312 1.39063,-0.79687 0.76562,-0.59375 1.04687,-1.375 l 1.32813,0 0,8.625 z"
       id="path131"
       inkscape:connector-curvature="0"
       style="fill:#000000;fill-rule:nonzero" />
    <path
       d="m 176,128 40,0 0,40 -40,0 z"
       id="path133"
       inkscape:connector-curvature="0"
       style="fill:#0000ff;fill-rule:nonzero" />
    <path
       d="m 176,128 40,0 0,40 -40,0 z"
       id="path135"
       inkscape:connector-curvature="0"
       style="stroke:#000000;stroke-width:1;stroke-linecap:butt;stroke-linejoin:round" />
    <path
       d="m 189.18945,143.92625 1.73437,0 0,4.65625 q 0,1.10937 0.0625,1.4375 0.10938,0.53125 0.53125,0.84375 0.42188,0.3125 1.15625,0.3125 0.73438,0 1.10938,-0.29688 0.375,-0.29687 0.45312,-0.73437 0.0781,-0.4375 0.0781,-1.46875 l 0,-4.75 1.73437,0 0,4.51562 q 0,1.54688 -0.14062,2.1875 -0.14063,0.64063 -0.53125,1.07813 -0.375,0.4375 -1.01563,0.70312 -0.625,0.25 -1.64062,0.25 -1.23438,0 -1.875,-0.28125 -0.625,-0.28125 -1,-0.73437 -0.35938,-0.45313 -0.48438,-0.95313 -0.17187,-0.73437 -0.17187,-2.1875 l 0,-4.57812 z m 12.52539,8.59375 -1.64062,0 0,-6.20313 q -0.90625,0.84375 -2.125,1.25 l 0,-1.5 q 0.64062,-0.20312 1.39062,-0.79687 0.76563,-0.59375 1.04688,-1.375 l 1.32812,0 0,8.625 z"
       id="path137"
       inkscape:connector-curvature="0"
       style="fill:#000000;fill-rule:nonzero" />
    <path
       d="m 296,128 40,0 0,40 -40,0 z"
       id="path139"
       inkscape:connector-curvature="0"
       style="fill:#b7b7b7;fill-rule:nonzero" />
    <path
       d="m 296,128 40,0 0,40 -40,0 z"
       id="path141"
       inkscape:connector-curvature="0"
       style="stroke:#000000;stroke-width:1;stroke-linecap:butt;stroke-linejoin:round" />
    <path
       d="m 311.78613,152.52 0,-3.60938 -3.14062,-4.98437 2.03125,0 2.01562,3.40625 1.98438,-3.40625 2,0 -3.15625,4.98437 0,3.60938 -1.73438,0 z m 10.95703,-1.53125 0,1.53125 -5.78125,0 q 0.0937,-0.875 0.5625,-1.64063 0.46875,-0.78125 1.85938,-2.0625 1.10937,-1.03125 1.35937,-1.40625 0.34375,-0.51562 0.34375,-1.01562 0,-0.54688 -0.29687,-0.84375 -0.29688,-0.29688 -0.8125,-0.29688 -0.51563,0 -0.82813,0.3125 -0.29687,0.3125 -0.34375,1.03125 l -1.64062,-0.15625 q 0.14062,-1.35937 0.90625,-1.95312 0.78125,-0.59375 1.9375,-0.59375 1.28125,0 2,0.6875 0.73437,0.6875 0.73437,1.70312 0,0.57813 -0.21875,1.10938 -0.20312,0.51562 -0.65625,1.09375 -0.29687,0.375 -1.07812,1.09375 -0.78125,0.71875 -0.98438,0.95312 -0.20312,0.23438 -0.34375,0.45313 l 3.28125,0 z"
       id="path143"
       inkscape:connector-curvature="0"
       style="fill:#000000;fill-rule:nonzero" />
    <path
       d="m 336,128 40,0 0,40 -40,0 z"
       id="path145"
       inkscape:connector-curvature="0"
       style="fill:#0000ff;fill-rule:nonzero" />
    <path
       d="m 336,128 40,0 0,40 -40,0 z"
       id="path147"
       inkscape:connector-curvature="0"
       style="stroke:#000000;stroke-width:1;stroke-linecap:butt;stroke-linejoin:round" />
    <path
       d="m 349.18945,143.92625 1.73438,0 0,4.65625 q 0,1.10937 0.0625,1.4375 0.10937,0.53125 0.53125,0.84375 0.42187,0.3125 1.15625,0.3125 0.73437,0 1.10937,-0.29688 0.375,-0.29687 0.45313,-0.73437 0.0781,-0.4375 0.0781,-1.46875 l 0,-4.75 1.73438,0 0,4.51562 q 0,1.54688 -0.14063,2.1875 -0.14062,0.64063 -0.53125,1.07813 -0.375,0.4375 -1.01562,0.70312 -0.625,0.25 -1.64063,0.25 -1.23437,0 -1.875,-0.28125 -0.625,-0.28125 -1,-0.73437 -0.35937,-0.45313 -0.48437,-0.95313 -0.17188,-0.73437 -0.17188,-2.1875 l 0,-4.57812 z m 8.25977,6.3125 1.59375,-0.1875 q 0.0781,0.60937 0.40625,0.9375 0.34375,0.3125 0.8125,0.3125 0.51562,0 0.85937,-0.39063 0.34375,-0.39062 0.34375,-1.04687 0,-0.60938 -0.34375,-0.96875 -0.32812,-0.375 -0.79687,-0.375 -0.32813,0 -0.76563,0.125 l 0.1875,-1.34375 q 0.67188,0.0156 1.01563,-0.28125 0.35937,-0.3125 0.35937,-0.82813 0,-0.42187 -0.26562,-0.67187 -0.25,-0.26563 -0.6875,-0.26563 -0.42188,0 -0.71875,0.29688 -0.29688,0.28125 -0.35938,0.84375 l -1.51562,-0.25 q 0.15625,-0.78125 0.46875,-1.25 0.32812,-0.46875 0.89062,-0.73438 0.57813,-0.26562 1.28125,-0.26562 1.21875,0 1.95313,0.76562 0.59375,0.64063 0.59375,1.4375 0,1.125 -1.23438,1.79688 0.75,0.17187 1.1875,0.71875 0.4375,0.54687 0.4375,1.32812 0,1.125 -0.82812,1.92188 -0.82813,0.79687 -2.04688,0.79687 -1.17187,0 -1.9375,-0.67187 -0.76562,-0.67188 -0.89062,-1.75 z"
       id="path149"
       inkscape:connector-curvature="0"
       style="fill:#000000;fill-rule:nonzero" />
    <path
       d="m 416,128 40,0 0,40 -40,0 z"
       id="path151"
       inkscape:connector-curvature="0"
       style="fill:#ff0000;fill-rule:nonzero" />
    <path
       d="m 416,128 40,0 0,40 -40,0 z"
       id="path153"
       inkscape:connector-curvature="0"
       style="stroke:#000000;stroke-width:1;stroke-linecap:butt;stroke-linejoin:round" />
    <path
       d="m 431.72363,152.52 -3.0625,-8.59375 1.875,0 2.17188,6.35937 2.10937,-6.35937 1.84375,0 -3.07812,8.59375 -1.85938,0 z m 5.39453,-2.28125 1.59375,-0.1875 q 0.0781,0.60937 0.40625,0.9375 0.34375,0.3125 0.8125,0.3125 0.51563,0 0.85938,-0.39063 0.34375,-0.39062 0.34375,-1.04687 0,-0.60938 -0.34375,-0.96875 -0.32813,-0.375 -0.79688,-0.375 -0.32812,0 -0.76562,0.125 l 0.1875,-1.34375 q 0.67187,0.0156 1.01562,-0.28125 0.35938,-0.3125 0.35938,-0.82813 0,-0.42187 -0.26563,-0.67187 -0.25,-0.26563 -0.6875,-0.26563 -0.42187,0 -0.71875,0.29688 -0.29687,0.28125 -0.35937,0.84375 l -1.51563,-0.25 q 0.15625,-0.78125 0.46875,-1.25 0.32813,-0.46875 0.89063,-0.73438 0.57812,-0.26562 1.28125,-0.26562 1.21875,0 1.95312,0.76562 0.59375,0.64063 0.59375,1.4375 0,1.125 -1.23437,1.79688 0.75,0.17187 1.1875,0.71875 0.4375,0.54687 0.4375,1.32812 0,1.125 -0.82813,1.92188 -0.82812,0.79687 -2.04687,0.79687 -1.17188,0 -1.9375,-0.67187 -0.76563,-0.67188 -0.89063,-1.75 z"
       id="path155"
       inkscape:connector-curvature="0"
       style="fill:#000000;fill-rule:nonzero" />
    <path
       d="m 456,128 40,0 0,40 -40,0 z"
       id="path157"
       inkscape:connector-curvature="0"
       style="fill:#b7b7b7;fill-rule:nonzero" />
    <path
       d="m 456,128 40,0 0,40 -40,0 z"
       id="path159"
       inkscape:connector-curvature="0"
       style="stroke:#000000;stroke-width:1;stroke-linecap:butt;stroke-linejoin:round" />
    <path
       d="m 471.78613,152.52 0,-3.60938 -3.14062,-4.98437 2.03125,0 2.01562,3.40625 1.98438,-3.40625 2,0 -3.15625,4.98437 0,3.60938 -1.73438,0 z m 8.61328,0 0,-1.73438 -3.51562,0 0,-1.4375 3.73437,-5.45312 1.375,0 0,5.45312 1.07813,0 0,1.4375 -1.07813,0 0,1.73438 -1.59375,0 z m 0,-3.17188 0,-2.9375 -1.96875,2.9375 1.96875,0 z"
       id="path161"
       inkscape:connector-curvature="0"
       style="fill:#000000;fill-rule:nonzero" />
    <path
       d="m 496,128 40,0 0,40 -40,0 z"
       id="path163"
       inkscape:connector-curvature="0"
       style="fill:#000000;fill-opacity:0;fill-rule:nonzero" />
    <path
       d="m 511.8584,148.52 0,-1.64063 1.65625,0 0,1.64063 -1.65625,0 z m 3.33398,0 0,-1.64063 1.65625,0 0,1.64063 -1.65625,0 z m 3.33399,0 0,-1.64063 1.65625,0 0,1.64063 -1.65625,0 z"
       id="path165"
       inkscape:connector-curvature="0"
       style="fill:#000000;fill-rule:nonzero" />
    <path
       d="m 136,128 40,0 0,40 -40,0 z"
       id="path167"
       inkscape:connector-curvature="0"
       style="fill:#000000;fill-opacity:0;fill-rule:nonzero" />
    <path
       d="m 136,128 40,0 0,40 -40,0 z"
       id="path169"
       inkscape:connector-curvature="0"
       style="stroke:#000000;stroke-width:1;stroke-linecap:butt;stroke-linejoin:round" />
    <path
       d="m 148.54004,152.52 0,-8.59375 2.78125,0 q 1.57812,0 2.0625,0.125 0.73437,0.20312 1.23437,0.85937 0.5,0.64063 0.5,1.65625 0,0.79688 -0.29687,1.34375 -0.28125,0.53125 -0.71875,0.84375 -0.4375,0.29688 -0.90625,0.40625 -0.60938,0.125 -1.79688,0.125 l -1.125,0 0,3.23438 -1.73437,0 z m 1.73437,-7.14063 0,2.4375 0.95313,0 q 1.01562,0 1.35937,-0.125 0.35938,-0.14062 0.54688,-0.42187 0.20312,-0.29688 0.20312,-0.67188 0,-0.46875 -0.28125,-0.76562 -0.28125,-0.3125 -0.70312,-0.39063 -0.29688,-0.0625 -1.23438,-0.0625 l -0.84375,0 z m 6.26954,7.14063 0,-8.59375 1.73437,0 0,3.39062 3.40625,0 0,-3.39062 1.73438,0 0,8.59375 -1.73438,0 0,-3.75 -3.40625,0 0,3.75 -1.73437,0 z"
       id="path171"
       inkscape:connector-curvature="0"
       style="fill:#000000;fill-rule:nonzero" />
    <path
       d="m 376,128 40,0 0,40 -40,0 z"
       id="path173"
       inkscape:connector-curvature="0"
       style="fill:#b7b7b7;fill-rule:nonzero" />
    <path
       d="m 376,128 40,0 0,40 -40,0 z"
       id="path175"
       inkscape:connector-curvature="0"
       style="stroke:#000000;stroke-width:1;stroke-linecap:butt;stroke-linejoin:round" />
    <path
       d="m 391.78613,152.52 0,-3.60938 -3.14062,-4.98437 2.03125,0 2.01562,3.40625 1.98438,-3.40625 2,0 -3.15625,4.98437 0,3.60938 -1.73438,0 z m 5.33203,-2.28125 1.59375,-0.1875 q 0.0781,0.60937 0.40625,0.9375 0.34375,0.3125 0.8125,0.3125 0.51563,0 0.85938,-0.39063 0.34375,-0.39062 0.34375,-1.04687 0,-0.60938 -0.34375,-0.96875 -0.32813,-0.375 -0.79688,-0.375 -0.32812,0 -0.76562,0.125 l 0.1875,-1.34375 q 0.67187,0.0156 1.01562,-0.28125 0.35938,-0.3125 0.35938,-0.82813 0,-0.42187 -0.26563,-0.67187 -0.25,-0.26563 -0.6875,-0.26563 -0.42187,0 -0.71875,0.29688 -0.29687,0.28125 -0.35937,0.84375 l -1.51563,-0.25 q 0.15625,-0.78125 0.46875,-1.25 0.32813,-0.46875 0.89063,-0.73438 0.57812,-0.26562 1.28125,-0.26562 1.21875,0 1.95312,0.76562 0.59375,0.64063 0.59375,1.4375 0,1.125 -1.23437,1.79688 0.75,0.17187 1.1875,0.71875 0.4375,0.54687 0.4375,1.32812 0,1.125 -0.82813,1.92188 -0.82812,0.79687 -2.04687,0.79687 -1.17188,0 -1.9375,-0.67187 -0.76563,-0.67188 -0.89063,-1.75 z"
       id="path177"
       inkscape:connector-curvature="0"
       style="fill:#000000;fill-rule:nonzero" />
    <path
       d="m 496,128 80,0"
       id="path179"
       inkscape:connector-curvature="0"
       style="fill:#000000;fill-opacity:0;fill-rule:nonzero" />
    <path
       d="m 496,128 80,0"
       id="path181"
       inkscape:connector-curvature="0"
       style="stroke:#000000;stroke-width:1;stroke-linecap:butt;stroke-linejoin:round" />
    <path
       d="m 516,128 0,0"
       id="path183"
       inkscape:connector-curvature="0"
       style="fill:#000000;fill-opacity:0;fill-rule:nonzero" />
    <path
       d="m 516,128 0,0"
       id="path185"
       inkscape:connector-curvature="0"
       style="stroke:#000000;stroke-width:1;stroke-linecap:butt;stroke-linejoin:round" />
    <path
       d="m 496,168 80,0"
       id="path187"
       inkscape:connector-curvature="0"
       style="fill:#000000;fill-opacity:0;fill-rule:nonzero" />
    <path
       d="m 496,168 80,0"
       id="path189"
       inkscape:connector-curvature="0"
       style="stroke:#000000;stroke-width:1;stroke-linecap:butt;stroke-linejoin:round" />
    <path
       d="m 336,184 40,0 0,40 -40,0 z"
       id="path191"
       inkscape:connector-curvature="0"
       style="fill:#ff0000;fill-rule:nonzero" />
    <path
       d="m 336,184 40,0 0,40 -40,0 z"
       id="path193"
       inkscape:connector-curvature="0"
       style="stroke:#000000;stroke-width:1;stroke-linecap:butt;stroke-linejoin:round" />
    <path
       d="m 355.06055,201.52 -3.0625,-8.59375 1.875,0 2.17187,6.35937 2.10938,-6.35937 1.84375,0 -3.07813,8.59375 -1.85937,0 z"
       id="path195"
       inkscape:connector-curvature="0"
       style="fill:#000000;fill-rule:nonzero" />
    <path
       d="m 353.51562,215.52 -1.64062,0 0,-3.17188 q 0,-1.01562 -0.10938,-1.3125 -0.0937,-0.29687 -0.34375,-0.45312 -0.23437,-0.17188 -0.5625,-0.17188 -0.4375,0 -0.78125,0.23438 -0.32812,0.23437 -0.45312,0.625 -0.125,0.39062 -0.125,1.4375 l 0,2.8125 -1.65625,0 0,-6.21875 1.53125,0 0,0.90625 q 0.8125,-1.04688 2.0625,-1.04688 0.53125,0 0.98437,0.20313 0.45313,0.1875 0.6875,0.5 0.23438,0.29687 0.3125,0.6875 0.0937,0.375 0.0937,1.09375 l 0,3.875 z m 1.48633,-2.29688 0,-1.64062 3.23437,0 0,1.64062 -3.23437,0 z m 3.77734,0.0156 1.59375,-0.1875 q 0.0781,0.60937 0.40625,0.9375 0.34375,0.3125 0.8125,0.3125 0.51563,0 0.85938,-0.39063 0.34375,-0.39062 0.34375,-1.04687 0,-0.60938 -0.34375,-0.96875 -0.32813,-0.375 -0.79688,-0.375 -0.32812,0 -0.76562,0.125 l 0.1875,-1.34375 q 0.67187,0.0156 1.01562,-0.28125 0.35938,-0.3125 0.35938,-0.82813 0,-0.42187 -0.26563,-0.67187 -0.25,-0.26563 -0.6875,-0.26563 -0.42187,0 -0.71875,0.29688 -0.29687,0.28125 -0.35937,0.84375 l -1.51563,-0.25 q 0.15625,-0.78125 0.46875,-1.25 0.32813,-0.46875 0.89063,-0.73438 0.57812,-0.26562 1.28125,-0.26562 1.21875,0 1.95312,0.76562 0.59375,0.64063 0.59375,1.4375 0,1.125 -1.23437,1.79688 0.75,0.17187 1.1875,0.71875 0.4375,0.54687 0.4375,1.32812 0,1.125 -0.82813,1.92188 -0.82812,0.79687 -2.04687,0.79687 -1.17188,0 -1.9375,-0.67187 -0.76563,-0.67188 -0.89063,-1.75 z"
       id="path197"
       inkscape:connector-curvature="0"
       style="fill:#000000;fill-rule:nonzero" />
    <path
       d="m 296,184 40,0 0,40 -40,0 z"
       id="path199"
       inkscape:connector-curvature="0"
       style="fill:#b7b7b7;fill-rule:nonzero" />
    <path
       d="m 296,184 40,0 0,40 -40,0 z"
       id="path201"
       inkscape:connector-curvature="0"
       style="stroke:#000000;stroke-width:1;stroke-linecap:butt;stroke-linejoin:round" />
    <path
       d="m 315.12305,201.52 0,-3.60938 -3.14063,-4.98437 2.03125,0 2.01563,3.40625 1.98437,-3.40625 2,0 -3.15625,4.98437 0,3.60938 -1.73437,0 z"
       id="path203"
       inkscape:connector-curvature="0"
       style="fill:#000000;fill-rule:nonzero" />
    <path
       d="m 313.51562,215.52 -1.64062,0 0,-3.17188 q 0,-1.01562 -0.10938,-1.3125 -0.0937,-0.29687 -0.34375,-0.45312 -0.23437,-0.17188 -0.5625,-0.17188 -0.4375,0 -0.78125,0.23438 -0.32812,0.23437 -0.45312,0.625 -0.125,0.39062 -0.125,1.4375 l 0,2.8125 -1.65625,0 0,-6.21875 1.53125,0 0,0.90625 q 0.8125,-1.04688 2.0625,-1.04688 0.53125,0 0.98437,0.20313 0.45313,0.1875 0.6875,0.5 0.23438,0.29687 0.3125,0.6875 0.0937,0.375 0.0937,1.09375 l 0,3.875 z m 1.48633,-2.29688 0,-1.64062 3.23437,0 0,1.64062 -3.23437,0 z m 3.77734,0.0156 1.59375,-0.1875 q 0.0781,0.60937 0.40625,0.9375 0.34375,0.3125 0.8125,0.3125 0.51563,0 0.85938,-0.39063 0.34375,-0.39062 0.34375,-1.04687 0,-0.60938 -0.34375,-0.96875 -0.32813,-0.375 -0.79688,-0.375 -0.32812,0 -0.76562,0.125 l 0.1875,-1.34375 q 0.67187,0.0156 1.01562,-0.28125 0.35938,-0.3125 0.35938,-0.82813 0,-0.42187 -0.26563,-0.67187 -0.25,-0.26563 -0.6875,-0.26563 -0.42187,0 -0.71875,0.29688 -0.29687,0.28125 -0.35937,0.84375 l -1.51563,-0.25 q 0.15625,-0.78125 0.46875,-1.25 0.32813,-0.46875 0.89063,-0.73438 0.57812,-0.26562 1.28125,-0.26562 1.21875,0 1.95312,0.76562 0.59375,0.64063 0.59375,1.4375 0,1.125 -1.23437,1.79688 0.75,0.17187 1.1875,0.71875 0.4375,0.54687 0.4375,1.32812 0,1.125 -0.82813,1.92188 -0.82812,0.79687 -2.04687,0.79687 -1.17188,0 -1.9375,-0.67187 -0.76563,-0.67188 -0.89063,-1.75 z"
       id="path205"
       inkscape:connector-curvature="0"
       style="fill:#000000;fill-rule:nonzero" />
    <path
       d="m 256,184 40,0 0,40 -40,0 z"
       id="path207"
       inkscape:connector-curvature="0"
       style="fill:#0000ff;fill-rule:nonzero" />
    <path
       d="m 256,184 40,0 0,40 -40,0 z"
       id="path209"
       inkscape:connector-curvature="0"
       style="stroke:#000000;stroke-width:1;stroke-linecap:butt;stroke-linejoin:round" />
    <path
       d="m 272.52637,192.92625 1.73437,0 0,4.65625 q 0,1.10937 0.0625,1.4375 0.10938,0.53125 0.53125,0.84375 0.42188,0.3125 1.15625,0.3125 0.73438,0 1.10938,-0.29688 0.375,-0.29687 0.45312,-0.73437 0.0781,-0.4375 0.0781,-1.46875 l 0,-4.75 1.73437,0 0,4.51562 q 0,1.54688 -0.14062,2.1875 -0.14063,0.64063 -0.53125,1.07813 -0.375,0.4375 -1.01563,0.70312 -0.625,0.25 -1.64062,0.25 -1.23438,0 -1.875,-0.28125 -0.625,-0.28125 -1,-0.73437 -0.35938,-0.45313 -0.48438,-0.95313 -0.17187,-0.73437 -0.17187,-2.1875 l 0,-4.57812 z"
       id="path211"
       inkscape:connector-curvature="0"
       style="fill:#000000;fill-rule:nonzero" />
    <path
       d="m 273.51562,215.52 -1.64062,0 0,-3.17188 q 0,-1.01562 -0.10938,-1.3125 -0.0937,-0.29687 -0.34375,-0.45312 -0.23437,-0.17188 -0.5625,-0.17188 -0.4375,0 -0.78125,0.23438 -0.32812,0.23437 -0.45312,0.625 -0.125,0.39062 -0.125,1.4375 l 0,2.8125 -1.65625,0 0,-6.21875 1.53125,0 0,0.90625 q 0.8125,-1.04688 2.0625,-1.04688 0.53125,0 0.98437,0.20313 0.45313,0.1875 0.6875,0.5 0.23438,0.29687 0.3125,0.6875 0.0937,0.375 0.0937,1.09375 l 0,3.875 z m 1.48633,-2.29688 0,-1.64062 3.23437,0 0,1.64062 -3.23437,0 z m 3.77734,0.0156 1.59375,-0.1875 q 0.0781,0.60937 0.40625,0.9375 0.34375,0.3125 0.8125,0.3125 0.51563,0 0.85938,-0.39063 0.34375,-0.39062 0.34375,-1.04687 0,-0.60938 -0.34375,-0.96875 -0.32813,-0.375 -0.79688,-0.375 -0.32812,0 -0.76562,0.125 l 0.1875,-1.34375 q 0.67187,0.0156 1.01562,-0.28125 0.35938,-0.3125 0.35938,-0.82813 0,-0.42187 -0.26563,-0.67187 -0.25,-0.26563 -0.6875,-0.26563 -0.42187,0 -0.71875,0.29688 -0.29687,0.28125 -0.35937,0.84375 l -1.51563,-0.25 q 0.15625,-0.78125 0.46875,-1.25 0.32813,-0.46875 0.89063,-0.73438 0.57812,-0.26562 1.28125,-0.26562 1.21875,0 1.95312,0.76562 0.59375,0.64063 0.59375,1.4375 0,1.125 -1.23437,1.79688 0.75,0.17187 1.1875,0.71875 0.4375,0.54687 0.4375,1.32812 0,1.125 -0.82813,1.92188 -0.82812,0.79687 -2.04687,0.79687 -1.17188,0 -1.9375,-0.67187 -0.76563,-0.67188 -0.89063,-1.75 z"
       id="path213"
       inkscape:connector-curvature="0"
       style="fill:#000000;fill-rule:nonzero" />
    <path
       d="m 376,184 40,0 0,40 -40,0 z"
       id="path215"
       inkscape:connector-curvature="0"
       style="fill:#b7b7b7;fill-rule:nonzero" />
    <path
       d="m 376,184 40,0 0,40 -40,0 z"
       id="path217"
       inkscape:connector-curvature="0"
       style="stroke:#000000;stroke-width:1;stroke-linecap:butt;stroke-linejoin:round" />
    <path
       d="m 395.12305,201.52 0,-3.60938 -3.14063,-4.98437 2.03125,0 2.01563,3.40625 1.98437,-3.40625 2,0 -3.15625,4.98437 0,3.60938 -1.73437,0 z"
       id="path219"
       inkscape:connector-curvature="0"
       style="fill:#000000;fill-rule:nonzero" />
    <path
       d="m 393.51562,215.52 -1.64062,0 0,-3.17188 q 0,-1.01562 -0.10938,-1.3125 -0.0937,-0.29687 -0.34375,-0.45312 -0.23437,-0.17188 -0.5625,-0.17188 -0.4375,0 -0.78125,0.23438 -0.32812,0.23437 -0.45312,0.625 -0.125,0.39062 -0.125,1.4375 l 0,2.8125 -1.65625,0 0,-6.21875 1.53125,0 0,0.90625 q 0.8125,-1.04688 2.0625,-1.04688 0.53125,0 0.98437,0.20313 0.45313,0.1875 0.6875,0.5 0.23438,0.29687 0.3125,0.6875 0.0937,0.375 0.0937,1.09375 l 0,3.875 z m 1.48633,-2.29688 0,-1.64062 3.23437,0 0,1.64062 -3.23437,0 z m 9.40234,0.76563 0,1.53125 -5.78125,0 q 0.0937,-0.875 0.5625,-1.64063 0.46875,-0.78125 1.85938,-2.0625 1.10937,-1.03125 1.35937,-1.40625 0.34375,-0.51562 0.34375,-1.01562 0,-0.54688 -0.29687,-0.84375 -0.29688,-0.29688 -0.8125,-0.29688 -0.51563,0 -0.82813,0.3125 -0.29687,0.3125 -0.34375,1.03125 l -1.64062,-0.15625 q 0.14062,-1.35937 0.90625,-1.95312 0.78125,-0.59375 1.9375,-0.59375 1.28125,0 2,0.6875 0.73437,0.6875 0.73437,1.70312 0,0.57813 -0.21875,1.10938 -0.20312,0.51562 -0.65625,1.09375 -0.29687,0.375 -1.07812,1.09375 -0.78125,0.71875 -0.98438,0.95312 -0.20312,0.23438 -0.34375,0.45313 l 3.28125,0 z"
       id="path221"
       inkscape:connector-curvature="0"
       style="fill:#000000;fill-rule:nonzero" />
    <path
       d="m 416,184 40,0 0,40 -40,0 z"
       id="path223"
       inkscape:connector-curvature="0"
       style="fill:#0000ff;fill-rule:nonzero" />
    <path
       d="m 416,184 40,0 0,40 -40,0 z"
       id="path225"
       inkscape:connector-curvature="0"
       style="stroke:#000000;stroke-width:1;stroke-linecap:butt;stroke-linejoin:round" />
    <path
       d="m 432.52637,192.92625 1.73437,0 0,4.65625 q 0,1.10937 0.0625,1.4375 0.10938,0.53125 0.53125,0.84375 0.42188,0.3125 1.15625,0.3125 0.73438,0 1.10938,-0.29688 0.375,-0.29687 0.45312,-0.73437 0.0781,-0.4375 0.0781,-1.46875 l 0,-4.75 1.73437,0 0,4.51562 q 0,1.54688 -0.14062,2.1875 -0.14063,0.64063 -0.53125,1.07813 -0.375,0.4375 -1.01563,0.70312 -0.625,0.25 -1.64062,0.25 -1.23438,0 -1.875,-0.28125 -0.625,-0.28125 -1,-0.73437 -0.35938,-0.45313 -0.48438,-0.95313 -0.17187,-0.73437 -0.17187,-2.1875 l 0,-4.57812 z"
       id="path227"
       inkscape:connector-curvature="0"
       style="fill:#000000;fill-rule:nonzero" />
    <path
       d="m 433.51562,215.52 -1.64062,0 0,-3.17188 q 0,-1.01562 -0.10938,-1.3125 -0.0937,-0.29687 -0.34375,-0.45312 -0.23437,-0.17188 -0.5625,-0.17188 -0.4375,0 -0.78125,0.23438 -0.32812,0.23437 -0.45312,0.625 -0.125,0.39062 -0.125,1.4375 l 0,2.8125 -1.65625,0 0,-6.21875 1.53125,0 0,0.90625 q 0.8125,-1.04688 2.0625,-1.04688 0.53125,0 0.98437,0.20313 0.45313,0.1875 0.6875,0.5 0.23438,0.29687 0.3125,0.6875 0.0937,0.375 0.0937,1.09375 l 0,3.875 z m 1.48633,-2.29688 0,-1.64062 3.23437,0 0,1.64062 -3.23437,0 z m 8.04297,2.29688 -1.64063,0 0,-6.20313 q -0.90625,0.84375 -2.125,1.25 l 0,-1.5 q 0.64063,-0.20312 1.39063,-0.79687 0.76562,-0.59375 1.04687,-1.375 l 1.32813,0 0,8.625 z"
       id="path229"
       inkscape:connector-curvature="0"
       style="fill:#000000;fill-rule:nonzero" />
    <path
       d="m 496,184 40,0 0,40 -40,0 z"
       id="path231"
       inkscape:connector-curvature="0"
       style="fill:#ff0000;fill-rule:nonzero" />
    <path
       d="m 496,184 40,0 0,40 -40,0 z"
       id="path233"
       inkscape:connector-curvature="0"
       style="stroke:#000000;stroke-width:1;stroke-linecap:butt;stroke-linejoin:round" />
    <path
       d="m 515.06055,201.52 -3.0625,-8.59375 1.875,0 2.17188,6.35937 2.10937,-6.35937 1.84375,0 -3.07812,8.59375 -1.85938,0 z"
       id="path235"
       inkscape:connector-curvature="0"
       style="fill:#000000;fill-rule:nonzero" />
    <path
       d="m 513.5156,215.52 -1.64063,0 0,-3.17188 q 0,-1.01562 -0.10937,-1.3125 -0.0937,-0.29687 -0.34375,-0.45312 -0.23438,-0.17188 -0.5625,-0.17188 -0.4375,0 -0.78125,0.23438 -0.32813,0.23437 -0.45313,0.625 -0.125,0.39062 -0.125,1.4375 l 0,2.8125 -1.65625,0 0,-6.21875 1.53125,0 0,0.90625 q 0.8125,-1.04688 2.0625,-1.04688 0.53125,0 0.98438,0.20313 0.45312,0.1875 0.6875,0.5 0.23437,0.29687 0.3125,0.6875 0.0937,0.375 0.0937,1.09375 l 0,3.875 z m 1.48633,-2.29688 0,-1.64062 3.23437,0 0,1.64062 -3.23437,0 z m 8.04297,2.29688 -1.64063,0 0,-6.20313 q -0.90625,0.84375 -2.125,1.25 l 0,-1.5 q 0.64063,-0.20312 1.39063,-0.79687 0.76562,-0.59375 1.04687,-1.375 l 1.32813,0 0,8.625 z"
       id="path237"
       inkscape:connector-curvature="0"
       style="fill:#000000;fill-rule:nonzero" />
    <path
       d="m 536,184 40,0 0,40 -40,0 z"
       id="path239"
       inkscape:connector-curvature="0"
       style="fill:#b7b7b7;fill-rule:nonzero" />
    <path
       d="m 536,184 40,0 0,40 -40,0 z"
       id="path241"
       inkscape:connector-curvature="0"
       style="stroke:#000000;stroke-width:1;stroke-linecap:butt;stroke-linejoin:round" />
    <path
       d="m 555.12305,201.52 0,-3.60938 -3.14062,-4.98437 2.03125,0 2.01562,3.40625 1.98438,-3.40625 2,0 -3.15625,4.98437 0,3.60938 -1.73438,0 z"
       id="path243"
       inkscape:connector-curvature="0"
       style="fill:#000000;fill-rule:nonzero" />
    <path
       d="m 558.8506,215.52 -1.64063,0 0,-3.17188 q 0,-1.01562 -0.10937,-1.3125 -0.0937,-0.29687 -0.34375,-0.45312 -0.23438,-0.17188 -0.5625,-0.17188 -0.4375,0 -0.78125,0.23438 -0.32813,0.23437 -0.45313,0.625 -0.125,0.39062 -0.125,1.4375 l 0,2.8125 -1.65625,0 0,-6.21875 1.53125,0 0,0.90625 q 0.8125,-1.04688 2.0625,-1.04688 0.53125,0 0.98438,0.20313 0.45312,0.1875 0.6875,0.5 0.23437,0.29687 0.3125,0.6875 0.0937,0.375 0.0937,1.09375 l 0,3.875 z"
       id="path245"
       inkscape:connector-curvature="0"
       style="fill:#000000;fill-rule:nonzero" />
    <path
       d="m 216,184 40,0 0,40 -40,0 z"
       id="path247"
       inkscape:connector-curvature="0"
       style="fill:#000000;fill-opacity:0;fill-rule:nonzero" />
    <path
       d="m 231.8584,204.52 0,-1.64063 1.65625,0 0,1.64063 -1.65625,0 z m 3.33398,0 0,-1.64063 1.65625,0 0,1.64063 -1.65625,0 z m 3.33399,0 0,-1.64063 1.65625,0 0,1.64063 -1.65625,0 z"
       id="path249"
       inkscape:connector-curvature="0"
       style="fill:#000000;fill-rule:nonzero" />
    <path
       d="m 576,184 40,0 0,40 -40,0 z"
       id="path251"
       inkscape:connector-curvature="0"
       style="fill:#000000;fill-opacity:0;fill-rule:nonzero" />
    <path
       d="m 576,184 40,0 0,40 -40,0 z"
       id="path253"
       inkscape:connector-curvature="0"
       style="stroke:#000000;stroke-width:1;stroke-linecap:butt;stroke-linejoin:round" />
    <path
       d="m 589.208,208.52 0,-8.59375 2.78125,0 q 1.57812,0 2.0625,0.125 0.73437,0.20312 1.23437,0.85937 0.5,0.64063 0.5,1.65625 0,0.79688 -0.29687,1.34375 -0.28125,0.53125 -0.71875,0.84375 -0.4375,0.29688 -0.90625,0.40625 -0.60938,0.125 -1.79688,0.125 l -1.125,0 0,3.23438 -1.73437,0 z m 1.73437,-7.14063 0,2.4375 0.95313,0 q 1.01562,0 1.35937,-0.125 0.35938,-0.14062 0.54688,-0.42187 0.20312,-0.29688 0.20312,-0.67188 0,-0.46875 -0.28125,-0.76562 -0.28125,-0.3125 -0.70312,-0.39063 -0.29688,-0.0625 -1.23438,-0.0625 l -0.84375,0 z m 6.28516,7.14063 0,-8.59375 5.89063,0 0,1.45312 -4.15625,0 0,2.03125 3.57812,0 0,1.45313 -3.57812,0 0,3.65625 -1.73438,0 z"
       id="path255"
       inkscape:connector-curvature="0"
       style="fill:#000000;fill-rule:nonzero" />
    <path
       d="m 456,184 40,0 0,40 -40,0 z"
       id="path257"
       inkscape:connector-curvature="0"
       style="fill:#b7b7b7;fill-rule:nonzero" />
    <path
       d="m 456,184 40,0 0,40 -40,0 z"
       id="path259"
       inkscape:connector-curvature="0"
       style="stroke:#000000;stroke-width:1;stroke-linecap:butt;stroke-linejoin:round" />
    <path
       d="m 475.12305,201.52 0,-3.60938 -3.14063,-4.98437 2.03125,0 2.01563,3.40625 1.98437,-3.40625 2,0 -3.15625,4.98437 0,3.60938 -1.73437,0 z"
       id="path261"
       inkscape:connector-curvature="0"
       style="fill:#000000;fill-rule:nonzero" />
    <path
       d="m 473.51562,215.52 -1.64062,0 0,-3.17188 q 0,-1.01562 -0.10938,-1.3125 -0.0937,-0.29687 -0.34375,-0.45312 -0.23437,-0.17188 -0.5625,-0.17188 -0.4375,0 -0.78125,0.23438 -0.32812,0.23437 -0.45312,0.625 -0.125,0.39062 -0.125,1.4375 l 0,2.8125 -1.65625,0 0,-6.21875 1.53125,0 0,0.90625 q 0.8125,-1.04688 2.0625,-1.04688 0.53125,0 0.98437,0.20313 0.45313,0.1875 0.6875,0.5 0.23438,0.29687 0.3125,0.6875 0.0937,0.375 0.0937,1.09375 l 0,3.875 z m 1.48633,-2.29688 0,-1.64062 3.23437,0 0,1.64062 -3.23437,0 z m 8.04297,2.29688 -1.64063,0 0,-6.20313 q -0.90625,0.84375 -2.125,1.25 l 0,-1.5 q 0.64063,-0.20312 1.39063,-0.79687 0.76562,-0.59375 1.04687,-1.375 l 1.32813,0 0,8.625 z"
       id="path263"
       inkscape:connector-curvature="0"
       style="fill:#000000;fill-rule:nonzero" />
    <path
       d="m 176,184 80,0"
       id="path265"
       inkscape:connector-curvature="0"
       style="fill:#000000;fill-opacity:0;fill-rule:nonzero" />
    <path
       d="m 176,184 80,0"
       id="path267"
       inkscape:connector-curvature="0"
       style="stroke:#000000;stroke-width:1;stroke-linecap:butt;stroke-linejoin:round" />
    <path
       d="m 236,184 0,0"
       id="path269"
       inkscape:connector-curvature="0"
       style="fill:#000000;fill-opacity:0;fill-rule:nonzero" />
    <path
       d="m 236,184 0,0"
       id="path271"
       inkscape:connector-curvature="0"
       style="stroke:#000000;stroke-width:1;stroke-linecap:butt;stroke-linejoin:round" />
    <path
       d="m 176,224 80,0"
       id="path273"
       inkscape:connector-curvature="0"
       style="fill:#000000;fill-opacity:0;fill-rule:nonzero" />
    <path
       d="m 176,224 80,0"
       id="path275"
       inkscape:connector-curvature="0"
       style="stroke:#000000;stroke-width:1;stroke-linecap:butt;stroke-linejoin:round" />
    <path
       d="m 32,14.834645 90.99212,0 0,40.000004 -90.99212,0 z"
       id="path277"
       inkscape:connector-curvature="0"
       style="fill:#000000;fill-opacity:0;fill-rule:nonzero" />
    <path
       d="m 62.51165,31.104647 q 0,-1.3125 0.40625,-2.203125 0.28125,-0.65625 0.78125,-1.171875 0.515625,-0.515625 1.125,-0.765625 0.796875,-0.34375 1.84375,-0.34375 1.90625,0 3.046875,1.1875 1.140625,1.171875 1.140625,3.265625 0,2.078123 -1.140625,3.249998 -1.125,1.171875 -3.015625,1.171875 -1.921875,0 -3.0625,-1.15625 -1.125,-1.171875 -1.125,-3.234373 z m 1.796875,-0.04687 q 0,1.453123 0.671875,2.203123 0.671875,0.75 1.703125,0.75 1.046875,0 1.703125,-0.734375 0.671875,-0.75 0.671875,-2.249998 0,-1.46875 -0.65625,-2.1875 -0.640625,-0.734375 -1.71875,-0.734375 -1.0625,0 -1.71875,0.734375 -0.65625,0.734375 -0.65625,2.21875 z m 13.583984,4.296873 -1.515625,0 0,-0.921875 q -0.390625,0.546875 -0.90625,0.8125 -0.515625,0.25 -1.046875,0.25 -1.078125,0 -1.84375,-0.859375 -0.75,-0.875 -0.75,-2.421875 0,-1.578123 0.734375,-2.390623 0.75,-0.828125 1.890625,-0.828125 1.03125,0 1.796875,0.859375 l 0,-3.09375 1.640625,0 0,8.593748 z m -4.390625,-3.25 q 0,1 0.28125,1.4375 0.390625,0.65625 1.109375,0.65625 0.5625,0 0.953125,-0.484375 0.40625,-0.484375 0.40625,-1.453125 0,-1.062498 -0.390625,-1.531248 -0.375,-0.484375 -0.984375,-0.484375 -0.578125,0 -0.984375,0.46875 -0.390625,0.46875 -0.390625,1.390623 z m 11.720703,3.25 -1.515625,0 0,-0.921875 q -0.390625,0.546875 -0.90625,0.8125 -0.515625,0.25 -1.046875,0.25 -1.078125,0 -1.84375,-0.859375 -0.75,-0.875 -0.75,-2.421875 0,-1.578123 0.734375,-2.390623 0.75,-0.828125 1.890625,-0.828125 1.03125,0 1.796875,0.859375 l 0,-3.09375 1.640625,0 0,8.593748 z m -4.390625,-3.25 q 0,1 0.28125,1.4375 0.390625,0.65625 1.109375,0.65625 0.5625,0 0.953125,-0.484375 0.40625,-0.484375 0.40625,-1.453125 0,-1.062498 -0.390625,-1.531248 -0.375,-0.484375 -0.984375,-0.484375 -0.578125,0 -0.984375,0.46875 -0.390625,0.46875 -0.390625,1.390623 z m 9.414063,3.25 0,-8.515623 1.734375,0 0,7.062498 4.3125,0 0,1.453125 -6.046875,0 z m 7.267578,-7.062498 0,-1.53125 1.65625,0 0,1.53125 -1.65625,0 z m 0,7.062498 0,-6.218748 1.65625,0 0,6.218748 -1.65625,0 z m 8.990237,0 -1.64063,0 0,-3.171875 q 0,-1.015623 -0.10937,-1.312498 -0.0937,-0.296875 -0.34375,-0.453125 -0.23438,-0.171875 -0.5625,-0.171875 -0.4375,0 -0.78125,0.234375 -0.32813,0.234375 -0.45313,0.625 -0.125,0.390625 -0.125,1.437498 l 0,2.8125 -1.65625,0 0,-6.218748 1.53125,0 0,0.90625 q 0.8125,-1.046875 2.0625,-1.046875 0.53125,0 0.98438,0.203125 0.45312,0.1875 0.6875,0.5 0.23437,0.296875 0.3125,0.6875 0.0937,0.375 0.0937,1.09375 l 0,3.874998 z m 5.2832,-1.984375 1.64062,0.28125 q -0.3125,0.90625 -1,1.375 -0.6875,0.46875 -1.70312,0.46875 -1.625,0 -2.40625,-1.0625 -0.625,-0.84375 -0.625,-2.140625 0,-1.546873 0.8125,-2.421873 0.8125,-0.875 2.04687,-0.875 1.39063,0 2.1875,0.921875 0.8125,0.90625 0.76563,2.796873 l -4.125,0 q 0.0312,0.734375 0.40625,1.140625 0.375,0.40625 0.95312,0.40625 0.375,0 0.64063,-0.203125 0.26562,-0.21875 0.40625,-0.6875 z m 0.0937,-1.656248 q -0.0156,-0.71875 -0.375,-1.09375 -0.34375,-0.375 -0.85938,-0.375 -0.53125,0 -0.89062,0.390625 -0.34375,0.40625 -0.34375,1.078125 l 2.46875,0 z"
       id="path279"
       inkscape:connector-curvature="0"
       style="fill:#000000;fill-rule:nonzero" />
    <path
       d="m 32,126.83465 90.99212,0 0,39.99999 -90.99212,0 z"
       id="path281"
       inkscape:connector-curvature="0"
       style="fill:#000000;fill-opacity:0;fill-rule:nonzero" />
    <path
       d="m 58.183525,147.35464 0,-8.59375 6.375,0 0,1.45312 -4.640625,0 0,1.90625 4.3125,0 0,1.45313 -4.3125,0 0,2.32812 4.796875,0 0,1.45313 -6.53125,0 z m 9.707031,0 -2.515625,-6.21875 1.734375,0 1.171875,3.17187 0.34375,1.0625 q 0.125,-0.40625 0.15625,-0.53125 0.09375,-0.26562 0.1875,-0.53125 l 1.171875,-3.17187 1.703125,0 -2.46875,6.21875 -1.484375,0 z m 8.564453,-1.98438 1.640625,0.28125 q -0.3125,0.90625 -1,1.375 -0.6875,0.46875 -1.703125,0.46875 -1.625,0 -2.40625,-1.0625 -0.625,-0.84375 -0.625,-2.14062 0,-1.54688 0.8125,-2.42188 0.8125,-0.875 2.046875,-0.875 1.390625,0 2.1875,0.92188 0.8125,0.90625 0.765625,2.79687 l -4.125,0 q 0.03125,0.73438 0.40625,1.14063 0.375,0.40625 0.953125,0.40625 0.375,0 0.640625,-0.20313 0.265625,-0.21875 0.40625,-0.6875 z m 0.09375,-1.65625 q -0.01563,-0.71875 -0.375,-1.09375 -0.34375,-0.375 -0.859375,-0.375 -0.53125,0 -0.890625,0.39063 -0.34375,0.40625 -0.34375,1.07812 l 2.46875,0 z m 8.626953,3.64063 -1.640625,0 0,-3.17188 q 0,-1.01562 -0.109375,-1.3125 -0.09375,-0.29687 -0.34375,-0.45312 -0.234375,-0.17188 -0.5625,-0.17188 -0.4375,0 -0.78125,0.23438 -0.328125,0.23437 -0.453125,0.625 -0.125,0.39062 -0.125,1.4375 l 0,2.8125 -1.65625,0 0,-6.21875 1.53125,0 0,0.90625 q 0.8125,-1.04688 2.0625,-1.04688 0.53125,0 0.984375,0.20313 0.453125,0.1875 0.6875,0.5 0.234375,0.29687 0.3125,0.6875 0.09375,0.375 0.09375,1.09375 l 0,3.875 z m 5.070313,0 0,-8.51563 1.734375,0 0,7.0625 4.3125,0 0,1.45313 -6.046875,0 z m 7.267578,-7.0625 0,-1.53125 1.65625,0 0,1.53125 -1.65625,0 z m 0,7.0625 0,-6.21875 1.65625,0 0,6.21875 -1.65625,0 z m 8.990237,0 -1.64063,0 0,-3.17188 q 0,-1.01562 -0.10937,-1.3125 -0.0937,-0.29687 -0.34375,-0.45312 -0.23438,-0.17188 -0.5625,-0.17188 -0.4375,0 -0.78125,0.23438 -0.32813,0.23437 -0.45313,0.625 -0.125,0.39062 -0.125,1.4375 l 0,2.8125 -1.65625,0 0,-6.21875 1.53125,0 0,0.90625 q 0.8125,-1.04688 2.0625,-1.04688 0.53125,0 0.98438,0.20313 0.45312,0.1875 0.6875,0.5 0.23437,0.29687 0.3125,0.6875 0.0937,0.375 0.0937,1.09375 l 0,3.875 z m 5.2832,-1.98438 1.64062,0.28125 q -0.3125,0.90625 -1,1.375 -0.6875,0.46875 -1.70312,0.46875 -1.625,0 -2.40625,-1.0625 -0.625,-0.84375 -0.625,-2.14062 0,-1.54688 0.8125,-2.42188 0.8125,-0.875 2.04687,-0.875 1.39063,0 2.1875,0.92188 0.8125,0.90625 0.76563,2.79687 l -4.125,0 q 0.0312,0.73438 0.40625,1.14063 0.375,0.40625 0.95312,0.40625 0.375,0 0.64063,-0.20313 0.26562,-0.21875 0.40625,-0.6875 z m 0.0937,-1.65625 q -0.0156,-0.71875 -0.375,-1.09375 -0.34375,-0.375 -0.85938,-0.375 -0.53125,0 -0.89062,0.39063 -0.34375,0.40625 -0.34375,1.07812 l 2.46875,0 z"
       id="path283"
       inkscape:connector-curvature="0"
       style="fill:#000000;fill-rule:nonzero" />
    <path
       d="m 49,270.83466 566.9921,0 0,25.16534 L 49,296 z"
       id="path285"
       inkscape:connector-curvature="0"
       style="fill:#000000;fill-opacity:0;fill-rule:nonzero" />
    <path
       d="m 271.60446,291.35464 0,-3.60937 -3.14062,-4.98438 2.03125,0 2.01562,3.40625 1.98438,-3.40625 2,0 -3.15625,4.98438 0,3.60937 -1.73438,0 z m 5.73828,-8.59375 1.73438,0 0,4.65625 q 0,1.10938 0.0625,1.4375 0.10937,0.53125 0.53125,0.84375 0.42187,0.3125 1.15625,0.3125 0.73437,0 1.10937,-0.29687 0.375,-0.29688 0.45313,-0.73438 0.0781,-0.4375 0.0781,-1.46875 l 0,-4.75 1.73438,0 0,4.51563 q 0,1.54687 -0.14063,2.1875 -0.14062,0.64062 -0.53125,1.07812 -0.375,0.4375 -1.01562,0.70313 -0.625,0.25 -1.64063,0.25 -1.23437,0 -1.875,-0.28125 -0.625,-0.28125 -1,-0.73438 -0.35937,-0.45312 -0.48437,-0.95312 -0.17188,-0.73438 -0.17188,-2.1875 l 0,-4.57813 z m 10.86914,8.59375 -3.0625,-8.59375 1.875,0 2.17188,6.35938 2.10937,-6.35938 1.84375,0 -3.07812,8.59375 -1.85938,0 z m 12.00977,0 0,-1.73437 -3.51563,0 0,-1.4375 3.73438,-5.45313 1.375,0 0,5.45313 1.07812,0 0,1.4375 -1.07812,0 0,1.73437 -1.59375,0 z m 0,-3.17187 0,-2.9375 -1.96875,2.9375 1.96875,0 z m 4.11133,-1.40625 0,-1.64063 1.65625,0 0,1.64063 -1.65625,0 z m 0,4.57812 0,-1.64062 1.65625,0 0,1.64062 -1.65625,0 z m 8.90234,-1.53125 0,1.53125 -5.78125,0 q 0.0937,-0.875 0.5625,-1.64062 0.46875,-0.78125 1.85938,-2.0625 1.10937,-1.03125 1.35937,-1.40625 0.34375,-0.51563 0.34375,-1.01563 0,-0.54687 -0.29687,-0.84375 -0.29688,-0.29687 -0.8125,-0.29687 -0.51563,0 -0.82813,0.3125 -0.29687,0.3125 -0.34375,1.03125 l -1.64062,-0.15625 q 0.14062,-1.35938 0.90625,-1.95313 0.78125,-0.59375 1.9375,-0.59375 1.28125,0 2,0.6875 0.73437,0.6875 0.73437,1.70313 0,0.57812 -0.21875,1.10937 -0.20312,0.51563 -0.65625,1.09375 -0.29687,0.375 -1.07812,1.09375 -0.78125,0.71875 -0.98438,0.95313 -0.20312,0.23437 -0.34375,0.45312 l 3.28125,0 z m 1.76758,-3.04687 0,-1.64063 1.65625,0 0,1.64063 -1.65625,0 z m 0,4.57812 0,-1.64062 1.65625,0 0,1.64062 -1.65625,0 z m 6.12109,-8.625 q 1.25,0 1.95313,0.89063 0.82812,1.04687 0.82812,3.5 0,2.4375 -0.84375,3.5 -0.6875,0.875 -1.9375,0.875 -1.25,0 -2.03125,-0.95313 -0.76562,-0.96875 -0.76562,-3.4375 0,-2.4375 0.84375,-3.5 0.70312,-0.875 1.95312,-0.875 z m 0,1.35938 q -0.29687,0 -0.53125,0.20312 -0.23437,0.1875 -0.375,0.67188 -0.15625,0.64062 -0.15625,2.15625 0,1.51562 0.14063,2.07812 0.15625,0.5625 0.39062,0.75 0.23438,0.1875 0.53125,0.1875 0.29688,0 0.53125,-0.1875 0.23438,-0.1875 0.35938,-0.6875 0.17187,-0.625 0.17187,-2.14062 0,-1.51563 -0.15625,-2.07813 -0.14062,-0.5625 -0.375,-0.75 -0.23437,-0.20312 -0.53125,-0.20312 z m 7.60156,7.26562 0,-8.59375 1.6875,0 3.51563,5.73438 0,-5.73438 1.60937,0 0,8.59375 -1.73437,0 -3.46875,-5.60937 0,5.60937 -1.60938,0 z m 8.25977,-3.20312 q 0,-0.8125 0.40625,-1.57813 0.40625,-0.78125 1.14063,-1.17187 0.73437,-0.40625 1.65625,-0.40625 1.40625,0 2.3125,0.92187 0.90625,0.90625 0.90625,2.3125 0,1.40625 -0.92188,2.34375 -0.90625,0.92188 -2.28125,0.92188 -0.85937,0 -1.64062,-0.39063 -0.76563,-0.39062 -1.17188,-1.125 -0.40625,-0.75 -0.40625,-1.82812 z m 1.6875,0.0937 q 0,0.92187 0.4375,1.42187 0.4375,0.48438 1.07813,0.48438 0.65625,0 1.07812,-0.48438 0.4375,-0.5 0.4375,-1.4375 0,-0.90625 -0.4375,-1.39062 -0.42187,-0.5 -1.07812,-0.5 -0.64063,0 -1.07813,0.5 -0.4375,0.48437 -0.4375,1.40625 z m 11.67383,3.10937 -1.64063,0 0,-3.17187 q 0,-1.01563 -0.10937,-1.3125 -0.0937,-0.29688 -0.34375,-0.45313 -0.23438,-0.17187 -0.5625,-0.17187 -0.4375,0 -0.78125,0.23437 -0.32813,0.23438 -0.45313,0.625 -0.125,0.39063 -0.125,1.4375 l 0,2.8125 -1.65625,0 0,-6.21875 1.53125,0 0,0.90625 q 0.8125,-1.04687 2.0625,-1.04687 0.53125,0 0.98438,0.20312 0.45312,0.1875 0.6875,0.5 0.23437,0.29688 0.3125,0.6875 0.0937,0.375 0.0937,1.09375 l 0,3.875 z m 1.48633,-2.29687 0,-1.64063 3.23437,0 0,1.64063 -3.23437,0 z m 4.24609,2.29687 0,-8.51562 1.73438,0 0,7.0625 4.3125,0 0,1.45312 -6.04688,0 z m 10.87695,-1.98437 1.64063,0.28125 q -0.3125,0.90625 -1,1.375 -0.6875,0.46875 -1.70313,0.46875 -1.625,0 -2.40625,-1.0625 -0.625,-0.84375 -0.625,-2.14063 0,-1.54687 0.8125,-2.42187 0.8125,-0.875 2.04688,-0.875 1.39062,0 2.1875,0.92187 0.8125,0.90625 0.76562,2.79688 l -4.125,0 q 0.0312,0.73437 0.40625,1.14062 0.375,0.40625 0.95313,0.40625 0.375,0 0.64062,-0.20312 0.26563,-0.21875 0.40625,-0.6875 z m 0.0937,-1.65625 q -0.0156,-0.71875 -0.375,-1.09375 -0.34375,-0.375 -0.85937,-0.375 -0.53125,0 -0.89063,0.39062 -0.34375,0.40625 -0.34375,1.07813 l 2.46875,0 z m 2.81446,4.04687 1.89062,0.23438 q 0.0469,0.32812 0.21875,0.45312 0.23438,0.17188 0.73438,0.17188 0.64062,0 0.96875,-0.1875 0.21875,-0.14063 0.32812,-0.42188 0.0781,-0.20312 0.0781,-0.75 l 0,-0.92187 q -0.75,1.01562 -1.875,1.01562 -1.25,0 -1.98438,-1.0625 -0.5625,-0.84375 -0.5625,-2.07812 0,-1.57813 0.75,-2.39063 0.75,-0.82812 1.875,-0.82812 1.14063,0 1.89063,1.01562 l 0,-0.875 1.54687,0 0,5.57813 q 0,1.10937 -0.1875,1.64062 -0.17187,0.54688 -0.5,0.85938 -0.32812,0.3125 -0.875,0.48437 -0.54687,0.1875 -1.39062,0.1875 -1.57813,0 -2.25,-0.54687 -0.65625,-0.54688 -0.65625,-1.375 0,-0.0781 0,-0.20313 z m 1.48437,-3.64062 q 0,0.98437 0.375,1.45312 0.39063,0.45313 0.95313,0.45313 0.59375,0 1.01562,-0.46875 0.42188,-0.48438 0.42188,-1.40625 0,-0.96875 -0.40625,-1.4375 -0.39063,-0.46875 -1,-0.46875 -0.59375,0 -0.98438,0.46875 -0.375,0.45312 -0.375,1.40625 z m 7.23633,-1.09375 -1.5,-0.26563 q 0.25,-0.90625 0.85937,-1.32812 0.625,-0.4375 1.84375,-0.4375 1.09375,0 1.625,0.26562 0.54688,0.25 0.76563,0.65625 0.21875,0.39063 0.21875,1.46875 l -0.0156,1.92188 q 0,0.82812 0.0781,1.21875 0.0781,0.375 0.29687,0.82812 l -1.625,0 q -0.0625,-0.17187 -0.15625,-0.48437 -0.0469,-0.15625 -0.0625,-0.20313 -0.42187,0.42188 -0.90625,0.625 -0.46875,0.20313 -1.01562,0.20313 -0.96875,0 -1.53125,-0.51563 -0.54688,-0.53125 -0.54688,-1.32812 0,-0.53125 0.25,-0.9375 0.26563,-0.40625 0.71875,-0.625 0.45313,-0.23438 1.3125,-0.39063 1.14063,-0.21875 1.59375,-0.40625 l 0,-0.15625 q 0,-0.48437 -0.23437,-0.6875 -0.23438,-0.20312 -0.89063,-0.20312 -0.4375,0 -0.6875,0.17187 -0.23437,0.17188 -0.39062,0.60938 z m 2.20312,1.34375 q -0.3125,0.0937 -1,0.25 -0.6875,0.14062 -0.90625,0.28125 -0.3125,0.23437 -0.3125,0.57812 0,0.34375 0.25,0.60938 0.26563,0.25 0.65625,0.25 0.45313,0 0.85938,-0.29688 0.29687,-0.21875 0.39062,-0.54687 0.0625,-0.20313 0.0625,-0.79688 l 0,-0.32812 z m 8.65821,-1.40625 -1.60938,0.29687 q -0.0937,-0.48437 -0.39062,-0.71875 -0.28125,-0.25 -0.73438,-0.25 -0.625,0 -1,0.42188 -0.35937,0.42187 -0.35937,1.42187 0,1.10938 0.375,1.5625 0.375,0.45313 1,0.45313 0.46875,0 0.76562,-0.26563 0.29688,-0.26562 0.42188,-0.92187 l 1.625,0.28125 q -0.25,1.10937 -0.96875,1.6875 -0.71875,0.5625 -1.92188,0.5625 -1.35937,0 -2.17187,-0.85938 -0.8125,-0.85937 -0.8125,-2.39062 0,-1.53125 0.8125,-2.39063 0.8125,-0.85937 2.20312,-0.85937 1.14063,0 1.8125,0.48437 0.67188,0.48438 0.95313,1.48438 z m 0.4707,-1.82813 1.75,0 1.5,4.40625 1.45313,-4.40625 1.70312,0 -2.20312,5.98438 -0.39063,1.07812 q -0.21875,0.54688 -0.42187,0.82813 -0.1875,0.29687 -0.45313,0.46875 -0.25,0.1875 -0.625,0.28125 -0.35937,0.10937 -0.82812,0.10937 -0.48438,0 -0.9375,-0.10937 l -0.14063,-1.28125 q 0.39063,0.0781 0.6875,0.0781 0.57813,0 0.84375,-0.34375 0.28125,-0.32812 0.4375,-0.85937 l -2.375,-6.23438 z"
       id="path287"
       inkscape:connector-curvature="0"
       style="fill:#000000;fill-rule:nonzero" />
  </g>
</svg>
