<?xml version="1.0" encoding="UTF-8" standalone="no"?>
<svg
   xmlns:dc="http://purl.org/dc/elements/1.1/"
   xmlns:cc="http://creativecommons.org/ns#"
   xmlns:rdf="http://www.w3.org/1999/02/22-rdf-syntax-ns#"
   xmlns:svg="http://www.w3.org/2000/svg"
   xmlns="http://www.w3.org/2000/svg"
   xmlns:sodipodi="http://sodipodi.sourceforge.net/DTD/sodipodi-0.dtd"
   xmlns:inkscape="http://www.inkscape.org/namespaces/inkscape"
   version="1.1"
   viewBox="0 0 507.84375 395.71875"
   stroke-miterlimit="10"
   id="svg2"
   inkscape:version="0.48.4 r9939"
   width="100%"
   height="100%"
   sodipodi:docname="ara-camera-image-plane-interleaving.svg"
   style="fill:none;stroke:none">
  <metadata
     id="metadata539">
    <rdf:RDF>
      <cc:Work
         rdf:about="">
        <dc:format>image/svg+xml</dc:format>
        <dc:type
           rdf:resource="http://purl.org/dc/dcmitype/StillImage" />
      </cc:Work>
    </rdf:RDF>
  </metadata>
  <defs
     id="defs537" />
  <sodipodi:namedview
     pagecolor="#ffffff"
     bordercolor="#666666"
     borderopacity="1"
     objecttolerance="10"
     gridtolerance="10"
     guidetolerance="10"
     inkscape:pageopacity="0"
     inkscape:pageshadow="2"
     inkscape:window-width="1920"
     inkscape:window-height="1056"
     id="namedview535"
     showgrid="false"
     fit-margin-top="0"
     fit-margin-left="0"
     fit-margin-right="0"
     fit-margin-bottom="0"
     inkscape:zoom="1.7481481"
     inkscape:cx="375.37934"
     inkscape:cy="194.31486"
     inkscape:window-x="0"
     inkscape:window-y="24"
     inkscape:window-maximized="1"
     inkscape:current-layer="svg2" />
  <clipPath
     id="p.0">
    <path
       d="M 0,0 720,0 720,540 0,540 0,0 z"
       clip-rule="nonzero"
       id="path5"
       inkscape:connector-curvature="0" />
  </clipPath>
  <g
     clip-path="url(#p.0)"
     id="g7"
     transform="translate(-61.84375,-58.40625)">
    <path
       d="m 0,0 720,0 0,540 -720,0 z"
       id="path9"
       inkscape:connector-curvature="0"
       style="fill:#000000;fill-opacity:0;fill-rule:nonzero" />
    <path
       d="m 184,256 40,0 0,40 -40,0 z"
       id="path11"
       inkscape:connector-curvature="0"
       style="fill:#ff0000;fill-rule:nonzero" />
    <path
       d="m 184,256 40,0 0,40 -40,0 z"
       id="path13"
       inkscape:connector-curvature="0"
       style="stroke:#000000;stroke-width:1;stroke-linecap:butt;stroke-linejoin:round" />
    <path
       d="m 203.06055,280.52 -3.0625,-8.59375 1.875,0 2.17187,6.35937 2.10938,-6.35937 1.84375,0 -3.07813,8.59375 -1.85937,0 z"
       id="path15"
       inkscape:connector-curvature="0"
       style="fill:#000000;fill-rule:nonzero" />
    <path
       d="m 144,96 40,0 0,40 -40,0 z"
       id="path17"
       inkscape:connector-curvature="0"
       style="fill:#b7b7b7;fill-rule:nonzero" />
    <path
       d="m 144,96 40,0 0,40 -40,0 z"
       id="path19"
       inkscape:connector-curvature="0"
       style="stroke:#000000;stroke-width:1;stroke-linecap:butt;stroke-linejoin:round" />
    <path
       d="m 163.12305,120.52 0,-3.60937 -3.14063,-4.98438 2.03125,0 2.01563,3.40625 1.98437,-3.40625 2,0 -3.15625,4.98438 0,3.60937 -1.73437,0 z"
       id="path21"
       inkscape:connector-curvature="0"
       style="fill:#000000;fill-rule:nonzero" />
    <path
       d="m 144,256 40,0 0,40 -40,0 z"
       id="path23"
       inkscape:connector-curvature="0"
       style="fill:#0000ff;fill-rule:nonzero" />
    <path
       d="m 144,256 40,0 0,40 -40,0 z"
       id="path25"
       inkscape:connector-curvature="0"
       style="stroke:#000000;stroke-width:1;stroke-linecap:butt;stroke-linejoin:round" />
    <path
       d="m 160.52637,271.92624 1.73437,0 0,4.65625 q 0,1.10937 0.0625,1.4375 0.10938,0.53125 0.53125,0.84375 0.42188,0.3125 1.15625,0.3125 0.73438,0 1.10938,-0.29688 0.375,-0.29687 0.45312,-0.73437 0.0781,-0.4375 0.0781,-1.46875 l 0,-4.75 1.73437,0 0,4.51562 q 0,1.54688 -0.14062,2.1875 -0.14063,0.64063 -0.53125,1.07813 -0.375,0.4375 -1.01563,0.70312 -0.625,0.25 -1.64062,0.25 -1.23438,0 -1.875,-0.28125 -0.625,-0.28125 -1,-0.73437 -0.35938,-0.45313 -0.48438,-0.95313 -0.17187,-0.73437 -0.17187,-2.1875 l 0,-4.57812 z"
       id="path27"
       inkscape:connector-curvature="0"
       style="fill:#000000;fill-rule:nonzero" />
    <path
       d="m 80,71.84252 424,0.157478"
       id="path29"
       inkscape:connector-curvature="0"
       style="fill:#000000;fill-opacity:0;fill-rule:nonzero" />
    <path
       d="m 80,71.84252 418,0.155251"
       id="path31"
       inkscape:connector-curvature="0"
       style="stroke:#000000;stroke-width:1;stroke-linecap:butt;stroke-linejoin:round" />
    <path
       d="m 497.9994,73.649506 4.5387,-1.650047 -4.53748,-1.65342 z"
       id="path33"
       inkscape:connector-curvature="0"
       style="fill:#000000;fill-rule:evenodd;stroke:#000000;stroke-width:1;stroke-linecap:butt" />
    <path
       d="m 80,64 426.99213,0 0,25.165352 -426.99213,0 z"
       id="path35"
       inkscape:connector-curvature="0"
       style="fill:#000000;fill-opacity:0;fill-rule:nonzero" />
    <path
       d="m 89.875,84.520004 0,-8.59375 2.78125,0 q 1.578125,0 2.0625,0.125 0.734375,0.203125 1.234375,0.859375 0.5,0.640625 0.5,1.65625 0,0.796875 -0.296875,1.34375 -0.28125,0.53125 -0.71875,0.84375 -0.4375,0.296875 -0.90625,0.40625 -0.609375,0.125 -1.796875,0.125 l -1.125,0 0,3.234375 -1.734375,0 z m 1.734375,-7.140625 0,2.4375 0.953125,0 q 1.015625,0 1.359375,-0.125 0.359375,-0.140625 0.546875,-0.421875 0.203125,-0.296875 0.203125,-0.671875 0,-0.46875 -0.28125,-0.765625 -0.28125,-0.3125 -0.703125,-0.390625 -0.296875,-0.0625 -1.234375,-0.0625 l -0.84375,0 z m 5.878906,3.9375 q 0,-0.8125 0.40625,-1.578125 0.40625,-0.78125 1.140625,-1.171875 0.734375,-0.40625 1.656254,-0.40625 1.40625,0 2.3125,0.921875 0.90625,0.90625 0.90625,2.3125 0,1.40625 -0.92188,2.34375 -0.90625,0.921875 -2.28125,0.921875 -0.859374,0 -1.640624,-0.390625 -0.765625,-0.390625 -1.171875,-1.125 -0.40625,-0.75 -0.40625,-1.828125 z m 1.6875,0.09375 q 0,0.921875 0.4375,1.421875 0.437499,0.484375 1.078129,0.484375 0.65625,0 1.07812,-0.484375 0.4375,-0.5 0.4375,-1.4375 0,-0.90625 -0.4375,-1.390625 -0.42187,-0.5 -1.07812,-0.5 -0.64063,0 -1.078129,0.5 -0.4375,0.484375 -0.4375,1.40625 z m 5.439449,1.328125 1.65625,-0.25 q 0.10938,0.484375 0.42188,0.734375 0.32812,0.25 0.90625,0.25 0.64062,0 0.95312,-0.234375 0.21875,-0.171875 0.21875,-0.4375 0,-0.1875 -0.10937,-0.3125 -0.125,-0.125 -0.54688,-0.21875 -2,-0.4375 -2.53125,-0.796875 -0.73437,-0.515625 -0.73437,-1.40625 0,-0.8125 0.625,-1.359375 0.64062,-0.546875 1.98437,-0.546875 1.28125,0 1.90625,0.421875 0.625,0.40625 0.85938,1.21875 l -1.5625,0.28125 q -0.0937,-0.359375 -0.375,-0.546875 -0.28125,-0.203125 -0.79688,-0.203125 -0.64062,0 -0.92187,0.1875 -0.1875,0.125 -0.1875,0.328125 0,0.1875 0.15625,0.3125 0.21875,0.15625 1.53125,0.453125 1.32812,0.296875 1.84375,0.734375 0.51562,0.4375 0.51562,1.21875 0,0.859375 -0.71875,1.484375 -0.70312,0.609375 -2.10937,0.609375 -1.26563,0 -2.01563,-0.515625 -0.73437,-0.515625 -0.96875,-1.40625 z m 7.25196,-5.28125 0,-1.53125 1.65625,0 0,1.53125 -1.65625,0 z m 0,7.0625 0,-6.21875 1.65625,0 0,6.21875 -1.65625,0 z m 6.19336,-6.21875 0,1.3125 -1.125,0 0,2.5 q 0,0.765625 0.0312,0.890625 0.0312,0.125 0.14062,0.21875 0.125,0.07813 0.28125,0.07813 0.23438,0 0.65625,-0.171875 l 0.14063,1.28125 q -0.5625,0.25 -1.29688,0.25 -0.4375,0 -0.79687,-0.140625 -0.35938,-0.15625 -0.53125,-0.390625 -0.15625,-0.25 -0.23438,-0.640625 -0.0469,-0.296875 -0.0469,-1.171875 l 0,-2.703125 -0.75,0 0,-1.3125 0.75,0 0,-1.234375 1.65625,-0.96875 0,2.203125 1.125,0 z m 1.13672,-0.84375 0,-1.53125 1.65625,0 0,1.53125 -1.65625,0 z m 0,7.0625 0,-6.21875 1.65625,0 0,6.21875 -1.65625,0 z m 2.95898,-3.203125 q 0,-0.8125 0.40625,-1.578125 0.40625,-0.78125 1.14062,-1.171875 0.73438,-0.40625 1.65625,-0.40625 1.40625,0 2.3125,0.921875 0.90625,0.90625 0.90625,2.3125 0,1.40625 -0.92187,2.34375 -0.90625,0.921875 -2.28125,0.921875 -0.85938,0 -1.64063,-0.390625 -0.76562,-0.390625 -1.17187,-1.125 -0.40625,-0.75 -0.40625,-1.828125 z m 1.6875,0.09375 q 0,0.921875 0.4375,1.421875 0.4375,0.484375 1.07812,0.484375 0.65625,0 1.07813,-0.484375 0.4375,-0.5 0.4375,-1.4375 0,-0.90625 -0.4375,-1.390625 -0.42188,-0.5 -1.07813,-0.5 -0.64062,0 -1.07812,0.5 -0.4375,0.484375 -0.4375,1.40625 z m 11.67383,3.109375 -1.64063,0 0,-3.171875 q 0,-1.015625 -0.10937,-1.3125 -0.0937,-0.296875 -0.34375,-0.453125 -0.23438,-0.171875 -0.5625,-0.171875 -0.4375,0 -0.78125,0.234375 -0.32813,0.234375 -0.45313,0.625 -0.125,0.390625 -0.125,1.4375 l 0,2.8125 -1.65625,0 0,-6.21875 1.53125,0 0,0.90625 q 0.8125,-1.046875 2.0625,-1.046875 0.53125,0 0.98438,0.203125 0.45312,0.1875 0.6875,0.5 0.23437,0.296875 0.3125,0.6875 0.0937,0.375 0.0937,1.09375 l 0,3.875 z m 5.00781,-7.0625 0,-1.53125 1.65625,0 0,1.53125 -1.65625,0 z m 0,7.0625 0,-6.21875 1.65625,0 0,6.21875 -1.65625,0 z m 8.99023,0 -1.64062,0 0,-3.171875 q 0,-1.015625 -0.10938,-1.3125 -0.0937,-0.296875 -0.34375,-0.453125 -0.23437,-0.171875 -0.5625,-0.171875 -0.4375,0 -0.78125,0.234375 -0.32812,0.234375 -0.45312,0.625 -0.125,0.390625 -0.125,1.4375 l 0,2.8125 -1.65625,0 0,-6.21875 1.53125,0 0,0.90625 q 0.8125,-1.046875 2.0625,-1.046875 0.53125,0 0.98437,0.203125 0.45313,0.1875 0.6875,0.5 0.23438,0.296875 0.3125,0.6875 0.0937,0.375 0.0937,1.09375 l 0,3.875 z m 5.02344,-8.59375 3.15625,0 q 1.07813,0 1.64063,0.171875 0.75,0.21875 1.28125,0.796875 0.54687,0.5625 0.82812,1.390625 0.28125,0.8125 0.28125,2.015625 0,1.0625 -0.25,1.828125 -0.32812,0.9375 -0.92187,1.515625 -0.45313,0.453125 -1.21875,0.6875 -0.57813,0.1875 -1.54688,0.1875 l -3.25,0 0,-8.59375 z m 1.73438,1.453125 0,5.6875 1.28125,0 q 0.73437,0 1.0625,-0.07813 0.42187,-0.109375 0.6875,-0.359375 0.28125,-0.25 0.45312,-0.828125 0.1875,-0.578125 0.1875,-1.578125 0,-0.984375 -0.1875,-1.515625 -0.17187,-0.546875 -0.48437,-0.84375 -0.3125,-0.296875 -0.79688,-0.40625 -0.375,-0.07813 -1.4375,-0.07813 l -0.76562,0 z m 8.15039,2.8125 -1.5,-0.265625 q 0.25,-0.90625 0.85937,-1.328125 0.625,-0.4375 1.84375,-0.4375 1.09375,0 1.625,0.265625 0.54688,0.25 0.76563,0.65625 0.21875,0.390625 0.21875,1.46875 l -0.0156,1.921875 q 0,0.828125 0.0781,1.21875 0.0781,0.375 0.29687,0.828125 l -1.625,0 q -0.0625,-0.171875 -0.15625,-0.484375 -0.0469,-0.15625 -0.0625,-0.203125 -0.42187,0.421875 -0.90625,0.625 -0.46875,0.203125 -1.01562,0.203125 -0.96875,0 -1.53125,-0.515625 -0.54688,-0.53125 -0.54688,-1.328125 0,-0.53125 0.25,-0.9375 0.26563,-0.40625 0.71875,-0.625 0.45313,-0.234375 1.3125,-0.390625 1.14063,-0.21875 1.59375,-0.40625 l 0,-0.15625 q 0,-0.484375 -0.23437,-0.6875 -0.23438,-0.203125 -0.89063,-0.203125 -0.4375,0 -0.6875,0.171875 -0.23437,0.171875 -0.39062,0.609375 z m 2.20312,1.34375 q -0.3125,0.09375 -1,0.25 -0.6875,0.140625 -0.90625,0.28125 -0.3125,0.234375 -0.3125,0.578125 0,0.34375 0.25,0.609375 0.26563,0.25 0.65625,0.25 0.45313,0 0.85938,-0.296875 0.29687,-0.21875 0.39062,-0.546875 0.0625,-0.203125 0.0625,-0.796875 l 0,-0.328125 z m 6.09571,-3.234375 0,1.3125 -1.125,0 0,2.5 q 0,0.765625 0.0312,0.890625 0.0312,0.125 0.14062,0.21875 0.125,0.07813 0.28125,0.07813 0.23438,0 0.65625,-0.171875 l 0.14063,1.28125 q -0.5625,0.25 -1.29688,0.25 -0.4375,0 -0.79687,-0.140625 -0.35938,-0.15625 -0.53125,-0.390625 -0.15625,-0.25 -0.23438,-0.640625 -0.0469,-0.296875 -0.0469,-1.171875 l 0,-2.703125 -0.75,0 0,-1.3125 0.75,0 0,-1.234375 1.65625,-0.96875 0,2.203125 1.125,0 z m 2.37109,1.890625 -1.5,-0.265625 q 0.25,-0.90625 0.85937,-1.328125 0.625,-0.4375 1.84375,-0.4375 1.09375,0 1.625,0.265625 0.54688,0.25 0.76563,0.65625 0.21875,0.390625 0.21875,1.46875 l -0.0156,1.921875 q 0,0.828125 0.0781,1.21875 0.0781,0.375 0.29687,0.828125 l -1.625,0 q -0.0625,-0.171875 -0.15625,-0.484375 -0.0469,-0.15625 -0.0625,-0.203125 -0.42187,0.421875 -0.90625,0.625 -0.46875,0.203125 -1.01562,0.203125 -0.96875,0 -1.53125,-0.515625 -0.54688,-0.53125 -0.54688,-1.328125 0,-0.53125 0.25,-0.9375 0.26563,-0.40625 0.71875,-0.625 0.45313,-0.234375 1.3125,-0.390625 1.14063,-0.21875 1.59375,-0.40625 l 0,-0.15625 q 0,-0.484375 -0.23437,-0.6875 -0.23438,-0.203125 -0.89063,-0.203125 -0.4375,0 -0.6875,0.171875 -0.23437,0.171875 -0.39062,0.609375 z m 2.20312,1.34375 q -0.3125,0.09375 -1,0.25 -0.6875,0.140625 -0.90625,0.28125 -0.3125,0.234375 -0.3125,0.578125 0,0.34375 0.25,0.609375 0.26563,0.25 0.65625,0.25 0.45313,0 0.85938,-0.296875 0.29687,-0.21875 0.39062,-0.546875 0.0625,-0.203125 0.0625,-0.796875 l 0,-0.328125 z m 6.14844,0.1875 1.6875,-0.15625 q 0.15625,0.84375 0.60938,1.25 0.46875,0.390625 1.26562,0.390625 0.82813,0 1.25,-0.34375 0.4375,-0.359375 0.4375,-0.84375 0,-0.296875 -0.1875,-0.515625 -0.17187,-0.21875 -0.625,-0.375 -0.29687,-0.109375 -1.375,-0.375 -1.40625,-0.34375 -1.96875,-0.84375 -0.78125,-0.71875 -0.78125,-1.734375 0,-0.65625 0.35938,-1.21875 0.375,-0.578125 1.07812,-0.875 0.70313,-0.296875 1.6875,-0.296875 1.625,0 2.4375,0.71875 0.8125,0.703125 0.85938,1.875 l -1.73438,0.07813 q -0.10937,-0.65625 -0.48437,-0.9375 -0.35938,-0.296875 -1.09375,-0.296875 -0.75,0 -1.1875,0.3125 -0.26563,0.1875 -0.26563,0.53125 0,0.296875 0.25,0.515625 0.32813,0.28125 1.59375,0.578125 1.26563,0.296875 1.875,0.625 0.60938,0.3125 0.95313,0.875 0.34375,0.546875 0.34375,1.359375 0,0.734375 -0.42188,1.390625 -0.40625,0.640625 -1.15625,0.953125 -0.75,0.3125 -1.85937,0.3125 -1.64063,0 -2.51563,-0.75 -0.85937,-0.765625 -1.03125,-2.203125 z m 11.28516,-3.421875 0,1.3125 -1.125,0 0,2.5 q 0,0.765625 0.0312,0.890625 0.0312,0.125 0.14062,0.21875 0.125,0.07813 0.28125,0.07813 0.23438,0 0.65625,-0.171875 l 0.14063,1.28125 q -0.5625,0.25 -1.29688,0.25 -0.4375,0 -0.79687,-0.140625 -0.35938,-0.15625 -0.53125,-0.390625 -0.15625,-0.25 -0.23438,-0.640625 -0.0469,-0.296875 -0.0469,-1.171875 l 0,-2.703125 -0.75,0 0,-1.3125 0.75,0 0,-1.234375 1.65625,-0.96875 0,2.203125 1.125,0 z m 2.71484,6.21875 -1.64062,0 0,-6.21875 1.53125,0 0,0.875 q 0.39062,-0.625 0.70312,-0.8125 0.3125,-0.203125 0.70313,-0.203125 0.5625,0 1.09375,0.3125 l -0.51563,1.421875 q -0.42187,-0.265625 -0.76562,-0.265625 -0.35938,0 -0.59375,0.203125 -0.23438,0.1875 -0.375,0.6875 -0.14063,0.484375 -0.14063,2.078125 l 0,1.921875 z m 6.70117,-1.984375 1.64063,0.28125 q -0.3125,0.90625 -1,1.375 -0.6875,0.46875 -1.70313,0.46875 -1.625,0 -2.40625,-1.0625 -0.625,-0.84375 -0.625,-2.140625 0,-1.546875 0.8125,-2.421875 0.8125,-0.875 2.04688,-0.875 1.39062,0 2.1875,0.921875 0.8125,0.90625 0.76562,2.796875 l -4.125,0 q 0.0312,0.734375 0.40625,1.140625 0.375,0.40625 0.95313,0.40625 0.375,0 0.64062,-0.203125 0.26563,-0.21875 0.40625,-0.6875 z m 0.0937,-1.65625 q -0.0156,-0.71875 -0.375,-1.09375 -0.34375,-0.375 -0.85937,-0.375 -0.53125,0 -0.89063,0.390625 -0.34375,0.40625 -0.34375,1.078125 l 2.46875,0 z m 4.20508,-0.6875 -1.5,-0.265625 q 0.25,-0.90625 0.85938,-1.328125 0.625,-0.4375 1.84375,-0.4375 1.09375,0 1.625,0.265625 0.54687,0.25 0.76562,0.65625 0.21875,0.390625 0.21875,1.46875 l -0.0156,1.921875 q 0,0.828125 0.0781,1.21875 0.0781,0.375 0.29688,0.828125 l -1.625,0 q -0.0625,-0.171875 -0.15625,-0.484375 -0.0469,-0.15625 -0.0625,-0.203125 -0.42188,0.421875 -0.90625,0.625 -0.46875,0.203125 -1.01563,0.203125 -0.96875,0 -1.53125,-0.515625 -0.54687,-0.53125 -0.54687,-1.328125 0,-0.53125 0.25,-0.9375 0.26562,-0.40625 0.71875,-0.625 0.45312,-0.234375 1.3125,-0.390625 1.14062,-0.21875 1.59375,-0.40625 l 0,-0.15625 q 0,-0.484375 -0.23438,-0.6875 -0.23437,-0.203125 -0.89062,-0.203125 -0.4375,0 -0.6875,0.171875 -0.23438,0.171875 -0.39063,0.609375 z m 2.20313,1.34375 q -0.3125,0.09375 -1,0.25 -0.6875,0.140625 -0.90625,0.28125 -0.3125,0.234375 -0.3125,0.578125 0,0.34375 0.25,0.609375 0.26562,0.25 0.65625,0.25 0.45312,0 0.85937,-0.296875 0.29688,-0.21875 0.39063,-0.546875 0.0625,-0.203125 0.0625,-0.796875 l 0,-0.328125 z m 3.11133,-3.234375 1.51562,0 0,0.84375 q 0.82813,-0.984375 1.95313,-0.984375 0.59375,0 1.03125,0.25 0.4375,0.234375 0.71875,0.734375 0.40625,-0.5 0.875,-0.734375 0.48437,-0.25 1.03125,-0.25 0.67187,0 1.14062,0.28125 0.48438,0.265625 0.71875,0.8125 0.17188,0.390625 0.17188,1.28125 l 0,3.984375 -1.64063,0 0,-3.5625 q 0,-0.921875 -0.17187,-1.1875 -0.23438,-0.359375 -0.70313,-0.359375 -0.34375,0 -0.65625,0.21875 -0.29687,0.203125 -0.4375,0.609375 -0.14062,0.40625 -0.14062,1.296875 l 0,2.984375 -1.64063,0 0,-3.40625 q 0,-0.90625 -0.0937,-1.171875 -0.0781,-0.265625 -0.26562,-0.390625 -0.1875,-0.140625 -0.5,-0.140625 -0.375,0 -0.6875,0.21875 -0.29688,0.203125 -0.4375,0.59375 -0.125,0.375 -0.125,1.265625 l 0,3.03125 -1.65625,0 0,-6.21875 z"
       id="path37"
       inkscape:connector-curvature="0"
       style="fill:#000000;fill-rule:nonzero" />
    <path
       d="m 104,96 40,0 0,40 -40,0 z"
       id="path39"
       inkscape:connector-curvature="0"
       style="fill:#000000;fill-opacity:0;fill-rule:nonzero" />
    <path
       d="m 104,96 40,0 0,40 -40,0 z"
       id="path41"
       inkscape:connector-curvature="0"
       style="stroke:#000000;stroke-width:1;stroke-linecap:butt;stroke-linejoin:round" />
    <path
       d="m 116.54004,120.52 0,-8.59375 2.78125,0 q 1.57813,0 2.0625,0.125 0.73438,0.20313 1.23438,0.85938 0.5,0.64062 0.5,1.65625 0,0.79687 -0.29688,1.34375 -0.28125,0.53125 -0.71875,0.84375 -0.4375,0.29687 -0.90625,0.40625 -0.60937,0.125 -1.79687,0.125 l -1.125,0 0,3.23437 -1.73438,0 z m 1.73438,-7.14062 0,2.4375 0.95312,0 q 1.01563,0 1.35938,-0.125 0.35937,-0.14063 0.54687,-0.42188 0.20313,-0.29687 0.20313,-0.67187 0,-0.46875 -0.28125,-0.76563 -0.28125,-0.3125 -0.70313,-0.39062 -0.29687,-0.0625 -1.23437,-0.0625 l -0.84375,0 z m 6.26953,7.14062 0,-8.59375 1.73437,0 0,3.39063 3.40625,0 0,-3.39063 1.73438,0 0,8.59375 -1.73438,0 0,-3.75 -3.40625,0 0,3.75 -1.73437,0 z"
       id="path43"
       inkscape:connector-curvature="0"
       style="fill:#000000;fill-rule:nonzero" />
    <path
       d="m 464,96 40,0 0,40 -40,0 z"
       id="path45"
       inkscape:connector-curvature="0"
       style="fill:#000000;fill-opacity:0;fill-rule:nonzero" />
    <path
       d="m 464,96 40,0 0,40 -40,0 z"
       id="path47"
       inkscape:connector-curvature="0"
       style="stroke:#000000;stroke-width:1;stroke-linecap:butt;stroke-linejoin:round" />
    <path
       d="m 477.208,120.52 0,-8.59375 2.78125,0 q 1.57813,0 2.0625,0.125 0.73438,0.20313 1.23438,0.85938 0.5,0.64062 0.5,1.65625 0,0.79687 -0.29688,1.34375 -0.28125,0.53125 -0.71875,0.84375 -0.4375,0.29687 -0.90625,0.40625 -0.60937,0.125 -1.79687,0.125 l -1.125,0 0,3.23437 -1.73438,0 z m 1.73438,-7.14062 0,2.4375 0.95312,0 q 1.01563,0 1.35938,-0.125 0.35937,-0.14063 0.54687,-0.42188 0.20313,-0.29687 0.20313,-0.67187 0,-0.46875 -0.28125,-0.76563 -0.28125,-0.3125 -0.70313,-0.39062 -0.29687,-0.0625 -1.23437,-0.0625 l -0.84375,0 z m 6.28515,7.14062 0,-8.59375 5.89063,0 0,1.45313 -4.15625,0 0,2.03125 3.57812,0 0,1.45312 -3.57812,0 0,3.65625 -1.73438,0 z"
       id="path49"
       inkscape:connector-curvature="0"
       style="fill:#000000;fill-rule:nonzero" />
    <path
       d="m 184,96 40,0 0,40 -40,0 z"
       id="path51"
       inkscape:connector-curvature="0"
       style="fill:#b7b7b7;fill-rule:nonzero" />
    <path
       d="m 184,96 40,0 0,40 -40,0 z"
       id="path53"
       inkscape:connector-curvature="0"
       style="stroke:#000000;stroke-width:1;stroke-linecap:butt;stroke-linejoin:round" />
    <path
       d="m 203.12305,120.52 0,-3.60937 -3.14063,-4.98438 2.03125,0 2.01563,3.40625 1.98437,-3.40625 2,0 -3.15625,4.98438 0,3.60937 -1.73437,0 z"
       id="path55"
       inkscape:connector-curvature="0"
       style="fill:#000000;fill-rule:nonzero" />
    <path
       d="m 224,96 40,0 0,40 -40,0 z"
       id="path57"
       inkscape:connector-curvature="0"
       style="fill:#b7b7b7;fill-rule:nonzero" />
    <path
       d="m 224,96 40,0 0,40 -40,0 z"
       id="path59"
       inkscape:connector-curvature="0"
       style="stroke:#000000;stroke-width:1;stroke-linecap:butt;stroke-linejoin:round" />
    <path
       d="m 243.12305,120.52 0,-3.60937 -3.14063,-4.98438 2.03125,0 2.01563,3.40625 1.98437,-3.40625 2,0 -3.15625,4.98438 0,3.60937 -1.73437,0 z"
       id="path61"
       inkscape:connector-curvature="0"
       style="fill:#000000;fill-rule:nonzero" />
    <path
       d="m 264,96 40,0 0,40 -40,0 z"
       id="path63"
       inkscape:connector-curvature="0"
       style="fill:#b7b7b7;fill-rule:nonzero" />
    <path
       d="m 264,96 40,0 0,40 -40,0 z"
       id="path65"
       inkscape:connector-curvature="0"
       style="stroke:#000000;stroke-width:1;stroke-linecap:butt;stroke-linejoin:round" />
    <path
       d="m 283.12305,120.52 0,-3.60937 -3.14063,-4.98438 2.03125,0 2.01563,3.40625 1.98437,-3.40625 2,0 -3.15625,4.98438 0,3.60937 -1.73437,0 z"
       id="path67"
       inkscape:connector-curvature="0"
       style="fill:#000000;fill-rule:nonzero" />
    <path
       d="m 304,96 40,0 0,40 -40,0 z"
       id="path69"
       inkscape:connector-curvature="0"
       style="fill:#b7b7b7;fill-rule:nonzero" />
    <path
       d="m 304,96 40,0 0,40 -40,0 z"
       id="path71"
       inkscape:connector-curvature="0"
       style="stroke:#000000;stroke-width:1;stroke-linecap:butt;stroke-linejoin:round" />
    <path
       d="m 319.8584,120.52 0,-1.64062 1.65625,0 0,1.64062 -1.65625,0 z m 3.33398,0 0,-1.64062 1.65625,0 0,1.64062 -1.65625,0 z m 3.33399,0 0,-1.64062 1.65625,0 0,1.64062 -1.65625,0 z"
       id="path73"
       inkscape:connector-curvature="0"
       style="fill:#000000;fill-rule:nonzero" />
    <path
       d="m 424,96 40,0 0,40 -40,0 z"
       id="path75"
       inkscape:connector-curvature="0"
       style="fill:#b7b7b7;fill-rule:nonzero" />
    <path
       d="m 424,96 40,0 0,40 -40,0 z"
       id="path77"
       inkscape:connector-curvature="0"
       style="stroke:#000000;stroke-width:1;stroke-linecap:butt;stroke-linejoin:round" />
    <path
       d="m 443.12305,120.52 0,-3.60937 -3.14063,-4.98438 2.03125,0 2.01563,3.40625 1.98437,-3.40625 2,0 -3.15625,4.98438 0,3.60937 -1.73437,0 z"
       id="path79"
       inkscape:connector-curvature="0"
       style="fill:#000000;fill-rule:nonzero" />
    <path
       d="m 144,136 40,0 0,40 -40,0 z"
       id="path81"
       inkscape:connector-curvature="0"
       style="fill:#b7b7b7;fill-rule:nonzero" />
    <path
       d="m 144,136 40,0 0,40 -40,0 z"
       id="path83"
       inkscape:connector-curvature="0"
       style="stroke:#000000;stroke-width:1;stroke-linecap:butt;stroke-linejoin:round" />
    <path
       d="m 163.12305,160.52 0,-3.60938 -3.14063,-4.98437 2.03125,0 2.01563,3.40625 1.98437,-3.40625 2,0 -3.15625,4.98437 0,3.60938 -1.73437,0 z"
       id="path85"
       inkscape:connector-curvature="0"
       style="fill:#000000;fill-rule:nonzero" />
    <path
       d="m 104,136 40,0 0,40 -40,0 z"
       id="path87"
       inkscape:connector-curvature="0"
       style="fill:#000000;fill-opacity:0;fill-rule:nonzero" />
    <path
       d="m 104,136 40,0 0,40 -40,0 z"
       id="path89"
       inkscape:connector-curvature="0"
       style="stroke:#000000;stroke-width:1;stroke-linecap:butt;stroke-linejoin:round" />
    <path
       d="m 116.54004,160.52 0,-8.59375 2.78125,0 q 1.57813,0 2.0625,0.125 0.73438,0.20312 1.23438,0.85937 0.5,0.64063 0.5,1.65625 0,0.79688 -0.29688,1.34375 -0.28125,0.53125 -0.71875,0.84375 -0.4375,0.29688 -0.90625,0.40625 -0.60937,0.125 -1.79687,0.125 l -1.125,0 0,3.23438 -1.73438,0 z m 1.73438,-7.14063 0,2.4375 0.95312,0 q 1.01563,0 1.35938,-0.125 0.35937,-0.14062 0.54687,-0.42187 0.20313,-0.29688 0.20313,-0.67188 0,-0.46875 -0.28125,-0.76562 -0.28125,-0.3125 -0.70313,-0.39063 -0.29687,-0.0625 -1.23437,-0.0625 l -0.84375,0 z m 6.26953,7.14063 0,-8.59375 1.73437,0 0,3.39062 3.40625,0 0,-3.39062 1.73438,0 0,8.59375 -1.73438,0 0,-3.75 -3.40625,0 0,3.75 -1.73437,0 z"
       id="path91"
       inkscape:connector-curvature="0"
       style="fill:#000000;fill-rule:nonzero" />
    <path
       d="m 464,136 40,0 0,40 -40,0 z"
       id="path93"
       inkscape:connector-curvature="0"
       style="fill:#000000;fill-opacity:0;fill-rule:nonzero" />
    <path
       d="m 464,136 40,0 0,40 -40,0 z"
       id="path95"
       inkscape:connector-curvature="0"
       style="stroke:#000000;stroke-width:1;stroke-linecap:butt;stroke-linejoin:round" />
    <path
       d="m 477.208,160.52 0,-8.59375 2.78125,0 q 1.57813,0 2.0625,0.125 0.73438,0.20312 1.23438,0.85937 0.5,0.64063 0.5,1.65625 0,0.79688 -0.29688,1.34375 -0.28125,0.53125 -0.71875,0.84375 -0.4375,0.29688 -0.90625,0.40625 -0.60937,0.125 -1.79687,0.125 l -1.125,0 0,3.23438 -1.73438,0 z m 1.73438,-7.14063 0,2.4375 0.95312,0 q 1.01563,0 1.35938,-0.125 0.35937,-0.14062 0.54687,-0.42187 0.20313,-0.29688 0.20313,-0.67188 0,-0.46875 -0.28125,-0.76562 -0.28125,-0.3125 -0.70313,-0.39063 -0.29687,-0.0625 -1.23437,-0.0625 l -0.84375,0 z m 6.28515,7.14063 0,-8.59375 5.89063,0 0,1.45312 -4.15625,0 0,2.03125 3.57812,0 0,1.45313 -3.57812,0 0,3.65625 -1.73438,0 z"
       id="path97"
       inkscape:connector-curvature="0"
       style="fill:#000000;fill-rule:nonzero" />
    <path
       d="m 184,136 40,0 0,40 -40,0 z"
       id="path99"
       inkscape:connector-curvature="0"
       style="fill:#b7b7b7;fill-rule:nonzero" />
    <path
       d="m 184,136 40,0 0,40 -40,0 z"
       id="path101"
       inkscape:connector-curvature="0"
       style="stroke:#000000;stroke-width:1;stroke-linecap:butt;stroke-linejoin:round" />
    <path
       d="m 203.12305,160.52 0,-3.60938 -3.14063,-4.98437 2.03125,0 2.01563,3.40625 1.98437,-3.40625 2,0 -3.15625,4.98437 0,3.60938 -1.73437,0 z"
       id="path103"
       inkscape:connector-curvature="0"
       style="fill:#000000;fill-rule:nonzero" />
    <path
       d="m 224,136 40,0 0,40 -40,0 z"
       id="path105"
       inkscape:connector-curvature="0"
       style="fill:#b7b7b7;fill-rule:nonzero" />
    <path
       d="m 224,136 40,0 0,40 -40,0 z"
       id="path107"
       inkscape:connector-curvature="0"
       style="stroke:#000000;stroke-width:1;stroke-linecap:butt;stroke-linejoin:round" />
    <path
       d="m 243.12305,160.52 0,-3.60938 -3.14063,-4.98437 2.03125,0 2.01563,3.40625 1.98437,-3.40625 2,0 -3.15625,4.98437 0,3.60938 -1.73437,0 z"
       id="path109"
       inkscape:connector-curvature="0"
       style="fill:#000000;fill-rule:nonzero" />
    <path
       d="m 264,136 40,0 0,40 -40,0 z"
       id="path111"
       inkscape:connector-curvature="0"
       style="fill:#b7b7b7;fill-rule:nonzero" />
    <path
       d="m 264,136 40,0 0,40 -40,0 z"
       id="path113"
       inkscape:connector-curvature="0"
       style="stroke:#000000;stroke-width:1;stroke-linecap:butt;stroke-linejoin:round" />
    <path
       d="m 283.12305,160.52 0,-3.60938 -3.14063,-4.98437 2.03125,0 2.01563,3.40625 1.98437,-3.40625 2,0 -3.15625,4.98437 0,3.60938 -1.73437,0 z"
       id="path115"
       inkscape:connector-curvature="0"
       style="fill:#000000;fill-rule:nonzero" />
    <path
       d="m 304,136 40,0 0,40 -40,0 z"
       id="path117"
       inkscape:connector-curvature="0"
       style="fill:#b7b7b7;fill-rule:nonzero" />
    <path
       d="m 304,136 40,0 0,40 -40,0 z"
       id="path119"
       inkscape:connector-curvature="0"
       style="stroke:#000000;stroke-width:1;stroke-linecap:butt;stroke-linejoin:round" />
    <path
       d="m 319.8584,160.52 0,-1.64063 1.65625,0 0,1.64063 -1.65625,0 z m 3.33398,0 0,-1.64063 1.65625,0 0,1.64063 -1.65625,0 z m 3.33399,0 0,-1.64063 1.65625,0 0,1.64063 -1.65625,0 z"
       id="path121"
       inkscape:connector-curvature="0"
       style="fill:#000000;fill-rule:nonzero" />
    <path
       d="m 424,136 40,0 0,40 -40,0 z"
       id="path123"
       inkscape:connector-curvature="0"
       style="fill:#b7b7b7;fill-rule:nonzero" />
    <path
       d="m 424,136 40,0 0,40 -40,0 z"
       id="path125"
       inkscape:connector-curvature="0"
       style="stroke:#000000;stroke-width:1;stroke-linecap:butt;stroke-linejoin:round" />
    <path
       d="m 443.12305,160.52 0,-3.60938 -3.14063,-4.98437 2.03125,0 2.01563,3.40625 1.98437,-3.40625 2,0 -3.15625,4.98437 0,3.60938 -1.73437,0 z"
       id="path127"
       inkscape:connector-curvature="0"
       style="fill:#000000;fill-rule:nonzero" />
    <path
       d="m 144,176 40,0 0,40 -40,0 z"
       id="path129"
       inkscape:connector-curvature="0"
       style="fill:#b7b7b7;fill-rule:nonzero" />
    <path
       d="m 144,176 40,0 0,40 -40,0 z"
       id="path131"
       inkscape:connector-curvature="0"
       style="stroke:#000000;stroke-width:1;stroke-linecap:butt;stroke-linejoin:round" />
    <path
       d="m 159.8584,200.52 0,-1.64063 1.65625,0 0,1.64063 -1.65625,0 z m 3.33398,0 0,-1.64063 1.65625,0 0,1.64063 -1.65625,0 z m 3.33399,0 0,-1.64063 1.65625,0 0,1.64063 -1.65625,0 z"
       id="path133"
       inkscape:connector-curvature="0"
       style="fill:#000000;fill-rule:nonzero" />
    <path
       d="m 104,176 40,0 0,40 -40,0 z"
       id="path135"
       inkscape:connector-curvature="0"
       style="fill:#000000;fill-opacity:0;fill-rule:nonzero" />
    <path
       d="m 104,176 40,0 0,40 -40,0 z"
       id="path137"
       inkscape:connector-curvature="0"
       style="stroke:#000000;stroke-width:1;stroke-linecap:butt;stroke-linejoin:round" />
    <path
       d="m 116.54004,200.52 0,-8.59375 2.78125,0 q 1.57813,0 2.0625,0.125 0.73438,0.20312 1.23438,0.85937 0.5,0.64063 0.5,1.65625 0,0.79688 -0.29688,1.34375 -0.28125,0.53125 -0.71875,0.84375 -0.4375,0.29688 -0.90625,0.40625 -0.60937,0.125 -1.79687,0.125 l -1.125,0 0,3.23438 -1.73438,0 z m 1.73438,-7.14063 0,2.4375 0.95312,0 q 1.01563,0 1.35938,-0.125 0.35937,-0.14062 0.54687,-0.42187 0.20313,-0.29688 0.20313,-0.67188 0,-0.46875 -0.28125,-0.76562 -0.28125,-0.3125 -0.70313,-0.39063 -0.29687,-0.0625 -1.23437,-0.0625 l -0.84375,0 z m 6.26953,7.14063 0,-8.59375 1.73437,0 0,3.39062 3.40625,0 0,-3.39062 1.73438,0 0,8.59375 -1.73438,0 0,-3.75 -3.40625,0 0,3.75 -1.73437,0 z"
       id="path139"
       inkscape:connector-curvature="0"
       style="fill:#000000;fill-rule:nonzero" />
    <path
       d="m 464,176 40,0 0,40 -40,0 z"
       id="path141"
       inkscape:connector-curvature="0"
       style="fill:#000000;fill-opacity:0;fill-rule:nonzero" />
    <path
       d="m 464,176 40,0 0,40 -40,0 z"
       id="path143"
       inkscape:connector-curvature="0"
       style="stroke:#000000;stroke-width:1;stroke-linecap:butt;stroke-linejoin:round" />
    <path
       d="m 477.208,200.52 0,-8.59375 2.78125,0 q 1.57813,0 2.0625,0.125 0.73438,0.20312 1.23438,0.85937 0.5,0.64063 0.5,1.65625 0,0.79688 -0.29688,1.34375 -0.28125,0.53125 -0.71875,0.84375 -0.4375,0.29688 -0.90625,0.40625 -0.60937,0.125 -1.79687,0.125 l -1.125,0 0,3.23438 -1.73438,0 z m 1.73438,-7.14063 0,2.4375 0.95312,0 q 1.01563,0 1.35938,-0.125 0.35937,-0.14062 0.54687,-0.42187 0.20313,-0.29688 0.20313,-0.67188 0,-0.46875 -0.28125,-0.76562 -0.28125,-0.3125 -0.70313,-0.39063 -0.29687,-0.0625 -1.23437,-0.0625 l -0.84375,0 z m 6.28515,7.14063 0,-8.59375 5.89063,0 0,1.45312 -4.15625,0 0,2.03125 3.57812,0 0,1.45313 -3.57812,0 0,3.65625 -1.73438,0 z"
       id="path145"
       inkscape:connector-curvature="0"
       style="fill:#000000;fill-rule:nonzero" />
    <path
       d="m 184,176 40,0 0,40 -40,0 z"
       id="path147"
       inkscape:connector-curvature="0"
       style="fill:#b7b7b7;fill-rule:nonzero" />
    <path
       d="m 184,176 40,0 0,40 -40,0 z"
       id="path149"
       inkscape:connector-curvature="0"
       style="stroke:#000000;stroke-width:1;stroke-linecap:butt;stroke-linejoin:round" />
    <path
       d="m 199.8584,200.52 0,-1.64063 1.65625,0 0,1.64063 -1.65625,0 z m 3.33398,0 0,-1.64063 1.65625,0 0,1.64063 -1.65625,0 z m 3.33399,0 0,-1.64063 1.65625,0 0,1.64063 -1.65625,0 z"
       id="path151"
       inkscape:connector-curvature="0"
       style="fill:#000000;fill-rule:nonzero" />
    <path
       d="m 224,176 40,0 0,40 -40,0 z"
       id="path153"
       inkscape:connector-curvature="0"
       style="fill:#b7b7b7;fill-rule:nonzero" />
    <path
       d="m 224,176 40,0 0,40 -40,0 z"
       id="path155"
       inkscape:connector-curvature="0"
       style="stroke:#000000;stroke-width:1;stroke-linecap:butt;stroke-linejoin:round" />
    <path
       d="m 239.8584,200.52 0,-1.64063 1.65625,0 0,1.64063 -1.65625,0 z m 3.33398,0 0,-1.64063 1.65625,0 0,1.64063 -1.65625,0 z m 3.33399,0 0,-1.64063 1.65625,0 0,1.64063 -1.65625,0 z"
       id="path157"
       inkscape:connector-curvature="0"
       style="fill:#000000;fill-rule:nonzero" />
    <path
       d="m 264,176 40,0 0,40 -40,0 z"
       id="path159"
       inkscape:connector-curvature="0"
       style="fill:#b7b7b7;fill-rule:nonzero" />
    <path
       d="m 264,176 40,0 0,40 -40,0 z"
       id="path161"
       inkscape:connector-curvature="0"
       style="stroke:#000000;stroke-width:1;stroke-linecap:butt;stroke-linejoin:round" />
    <path
       d="m 279.8584,200.52 0,-1.64063 1.65625,0 0,1.64063 -1.65625,0 z m 3.33398,0 0,-1.64063 1.65625,0 0,1.64063 -1.65625,0 z m 3.33399,0 0,-1.64063 1.65625,0 0,1.64063 -1.65625,0 z"
       id="path163"
       inkscape:connector-curvature="0"
       style="fill:#000000;fill-rule:nonzero" />
    <path
       d="m 304,176 40,0 0,40 -40,0 z"
       id="path165"
       inkscape:connector-curvature="0"
       style="fill:#b7b7b7;fill-rule:nonzero" />
    <path
       d="m 304,176 40,0 0,40 -40,0 z"
       id="path167"
       inkscape:connector-curvature="0"
       style="stroke:#000000;stroke-width:1;stroke-linecap:butt;stroke-linejoin:round" />
    <path
       d="m 319.8584,200.52 0,-1.64063 1.65625,0 0,1.64063 -1.65625,0 z m 3.33398,0 0,-1.64063 1.65625,0 0,1.64063 -1.65625,0 z m 3.33399,0 0,-1.64063 1.65625,0 0,1.64063 -1.65625,0 z"
       id="path169"
       inkscape:connector-curvature="0"
       style="fill:#000000;fill-rule:nonzero" />
    <path
       d="m 424,176 40,0 0,40 -40,0 z"
       id="path171"
       inkscape:connector-curvature="0"
       style="fill:#b7b7b7;fill-rule:nonzero" />
    <path
       d="m 424,176 40,0 0,40 -40,0 z"
       id="path173"
       inkscape:connector-curvature="0"
       style="stroke:#000000;stroke-width:1;stroke-linecap:butt;stroke-linejoin:round" />
    <path
       d="m 439.8584,200.52 0,-1.64063 1.65625,0 0,1.64063 -1.65625,0 z m 3.33398,0 0,-1.64063 1.65625,0 0,1.64063 -1.65625,0 z m 3.33399,0 0,-1.64063 1.65625,0 0,1.64063 -1.65625,0 z"
       id="path175"
       inkscape:connector-curvature="0"
       style="fill:#000000;fill-rule:nonzero" />
    <path
       d="m 144,216 40,0 0,40 -40,0 z"
       id="path177"
       inkscape:connector-curvature="0"
       style="fill:#b7b7b7;fill-rule:nonzero" />
    <path
       d="m 144,216 40,0 0,40 -40,0 z"
       id="path179"
       inkscape:connector-curvature="0"
       style="stroke:#000000;stroke-width:1;stroke-linecap:butt;stroke-linejoin:round" />
    <path
       d="m 163.12305,240.52 0,-3.60938 -3.14063,-4.98437 2.03125,0 2.01563,3.40625 1.98437,-3.40625 2,0 -3.15625,4.98437 0,3.60938 -1.73437,0 z"
       id="path181"
       inkscape:connector-curvature="0"
       style="fill:#000000;fill-rule:nonzero" />
    <path
       d="m 104,216 40,0 0,40 -40,0 z"
       id="path183"
       inkscape:connector-curvature="0"
       style="fill:#000000;fill-opacity:0;fill-rule:nonzero" />
    <path
       d="m 104,216 40,0 0,40 -40,0 z"
       id="path185"
       inkscape:connector-curvature="0"
       style="stroke:#000000;stroke-width:1;stroke-linecap:butt;stroke-linejoin:round" />
    <path
       d="m 116.54004,240.52 0,-8.59375 2.78125,0 q 1.57813,0 2.0625,0.125 0.73438,0.20312 1.23438,0.85937 0.5,0.64063 0.5,1.65625 0,0.79688 -0.29688,1.34375 -0.28125,0.53125 -0.71875,0.84375 -0.4375,0.29688 -0.90625,0.40625 -0.60937,0.125 -1.79687,0.125 l -1.125,0 0,3.23438 -1.73438,0 z m 1.73438,-7.14063 0,2.4375 0.95312,0 q 1.01563,0 1.35938,-0.125 0.35937,-0.14062 0.54687,-0.42187 0.20313,-0.29688 0.20313,-0.67188 0,-0.46875 -0.28125,-0.76562 -0.28125,-0.3125 -0.70313,-0.39063 -0.29687,-0.0625 -1.23437,-0.0625 l -0.84375,0 z m 6.26953,7.14063 0,-8.59375 1.73437,0 0,3.39062 3.40625,0 0,-3.39062 1.73438,0 0,8.59375 -1.73438,0 0,-3.75 -3.40625,0 0,3.75 -1.73437,0 z"
       id="path187"
       inkscape:connector-curvature="0"
       style="fill:#000000;fill-rule:nonzero" />
    <path
       d="m 464,216 40,0 0,40 -40,0 z"
       id="path189"
       inkscape:connector-curvature="0"
       style="fill:#000000;fill-opacity:0;fill-rule:nonzero" />
    <path
       d="m 464,216 40,0 0,40 -40,0 z"
       id="path191"
       inkscape:connector-curvature="0"
       style="stroke:#000000;stroke-width:1;stroke-linecap:butt;stroke-linejoin:round" />
    <path
       d="m 477.208,240.52 0,-8.59375 2.78125,0 q 1.57813,0 2.0625,0.125 0.73438,0.20312 1.23438,0.85937 0.5,0.64063 0.5,1.65625 0,0.79688 -0.29688,1.34375 -0.28125,0.53125 -0.71875,0.84375 -0.4375,0.29688 -0.90625,0.40625 -0.60937,0.125 -1.79687,0.125 l -1.125,0 0,3.23438 -1.73438,0 z m 1.73438,-7.14063 0,2.4375 0.95312,0 q 1.01563,0 1.35938,-0.125 0.35937,-0.14062 0.54687,-0.42187 0.20313,-0.29688 0.20313,-0.67188 0,-0.46875 -0.28125,-0.76562 -0.28125,-0.3125 -0.70313,-0.39063 -0.29687,-0.0625 -1.23437,-0.0625 l -0.84375,0 z m 6.28515,7.14063 0,-8.59375 5.89063,0 0,1.45312 -4.15625,0 0,2.03125 3.57812,0 0,1.45313 -3.57812,0 0,3.65625 -1.73438,0 z"
       id="path193"
       inkscape:connector-curvature="0"
       style="fill:#000000;fill-rule:nonzero" />
    <path
       d="m 184,216 40,0 0,40 -40,0 z"
       id="path195"
       inkscape:connector-curvature="0"
       style="fill:#b7b7b7;fill-rule:nonzero" />
    <path
       d="m 184,216 40,0 0,40 -40,0 z"
       id="path197"
       inkscape:connector-curvature="0"
       style="stroke:#000000;stroke-width:1;stroke-linecap:butt;stroke-linejoin:round" />
    <path
       d="m 203.12305,240.52 0,-3.60938 -3.14063,-4.98437 2.03125,0 2.01563,3.40625 1.98437,-3.40625 2,0 -3.15625,4.98437 0,3.60938 -1.73437,0 z"
       id="path199"
       inkscape:connector-curvature="0"
       style="fill:#000000;fill-rule:nonzero" />
    <path
       d="m 224,216 40,0 0,40 -40,0 z"
       id="path201"
       inkscape:connector-curvature="0"
       style="fill:#b7b7b7;fill-rule:nonzero" />
    <path
       d="m 224,216 40,0 0,40 -40,0 z"
       id="path203"
       inkscape:connector-curvature="0"
       style="stroke:#000000;stroke-width:1;stroke-linecap:butt;stroke-linejoin:round" />
    <path
       d="m 243.12305,240.52 0,-3.60938 -3.14063,-4.98437 2.03125,0 2.01563,3.40625 1.98437,-3.40625 2,0 -3.15625,4.98437 0,3.60938 -1.73437,0 z"
       id="path205"
       inkscape:connector-curvature="0"
       style="fill:#000000;fill-rule:nonzero" />
    <path
       d="m 264,216 40,0 0,40 -40,0 z"
       id="path207"
       inkscape:connector-curvature="0"
       style="fill:#b7b7b7;fill-rule:nonzero" />
    <path
       d="m 264,216 40,0 0,40 -40,0 z"
       id="path209"
       inkscape:connector-curvature="0"
       style="stroke:#000000;stroke-width:1;stroke-linecap:butt;stroke-linejoin:round" />
    <path
       d="m 283.12305,240.52 0,-3.60938 -3.14063,-4.98437 2.03125,0 2.01563,3.40625 1.98437,-3.40625 2,0 -3.15625,4.98437 0,3.60938 -1.73437,0 z"
       id="path211"
       inkscape:connector-curvature="0"
       style="fill:#000000;fill-rule:nonzero" />
    <path
       d="m 304,216 40,0 0,40 -40,0 z"
       id="path213"
       inkscape:connector-curvature="0"
       style="fill:#b7b7b7;fill-rule:nonzero" />
    <path
       d="m 304,216 40,0 0,40 -40,0 z"
       id="path215"
       inkscape:connector-curvature="0"
       style="stroke:#000000;stroke-width:1;stroke-linecap:butt;stroke-linejoin:round" />
    <path
       d="m 319.8584,240.52 0,-1.64063 1.65625,0 0,1.64063 -1.65625,0 z m 3.33398,0 0,-1.64063 1.65625,0 0,1.64063 -1.65625,0 z m 3.33399,0 0,-1.64063 1.65625,0 0,1.64063 -1.65625,0 z"
       id="path217"
       inkscape:connector-curvature="0"
       style="fill:#000000;fill-rule:nonzero" />
    <path
       d="m 424,216 40,0 0,40 -40,0 z"
       id="path219"
       inkscape:connector-curvature="0"
       style="fill:#b7b7b7;fill-rule:nonzero" />
    <path
       d="m 424,216 40,0 0,40 -40,0 z"
       id="path221"
       inkscape:connector-curvature="0"
       style="stroke:#000000;stroke-width:1;stroke-linecap:butt;stroke-linejoin:round" />
    <path
       d="m 443.12305,240.52 0,-3.60938 -3.14063,-4.98437 2.03125,0 2.01563,3.40625 1.98437,-3.40625 2,0 -3.15625,4.98437 0,3.60938 -1.73437,0 z"
       id="path223"
       inkscape:connector-curvature="0"
       style="fill:#000000;fill-rule:nonzero" />
    <path
       d="m 264,256 40,0 0,40 -40,0 z"
       id="path225"
       inkscape:connector-curvature="0"
       style="fill:#ff0000;fill-rule:nonzero" />
    <path
       d="m 264,256 40,0 0,40 -40,0 z"
       id="path227"
       inkscape:connector-curvature="0"
       style="stroke:#000000;stroke-width:1;stroke-linecap:butt;stroke-linejoin:round" />
    <path
       d="m 283.06055,280.52 -3.0625,-8.59375 1.875,0 2.17187,6.35937 2.10938,-6.35937 1.84375,0 -3.07813,8.59375 -1.85937,0 z"
       id="path229"
       inkscape:connector-curvature="0"
       style="fill:#000000;fill-rule:nonzero" />
    <path
       d="m 224,256 40,0 0,40 -40,0 z"
       id="path231"
       inkscape:connector-curvature="0"
       style="fill:#0000ff;fill-rule:nonzero" />
    <path
       d="m 224,256 40,0 0,40 -40,0 z"
       id="path233"
       inkscape:connector-curvature="0"
       style="stroke:#000000;stroke-width:1;stroke-linecap:butt;stroke-linejoin:round" />
    <path
       d="m 240.52637,271.92624 1.73437,0 0,4.65625 q 0,1.10937 0.0625,1.4375 0.10938,0.53125 0.53125,0.84375 0.42188,0.3125 1.15625,0.3125 0.73438,0 1.10938,-0.29688 0.375,-0.29687 0.45312,-0.73437 0.0781,-0.4375 0.0781,-1.46875 l 0,-4.75 1.73437,0 0,4.51562 q 0,1.54688 -0.14062,2.1875 -0.14063,0.64063 -0.53125,1.07813 -0.375,0.4375 -1.01563,0.70312 -0.625,0.25 -1.64062,0.25 -1.23438,0 -1.875,-0.28125 -0.625,-0.28125 -1,-0.73437 -0.35938,-0.45313 -0.48438,-0.95313 -0.17187,-0.73437 -0.17187,-2.1875 l 0,-4.57812 z"
       id="path235"
       inkscape:connector-curvature="0"
       style="fill:#000000;fill-rule:nonzero" />
    <path
       d="m 344,256 40,0 0,40 -40,0 z"
       id="path237"
       inkscape:connector-curvature="0"
       style="fill:#ff0000;fill-rule:nonzero" />
    <path
       d="m 344,256 40,0 0,40 -40,0 z"
       id="path239"
       inkscape:connector-curvature="0"
       style="stroke:#000000;stroke-width:1;stroke-linecap:butt;stroke-linejoin:round" />
    <path
       d="m 359.8584,280.52 0,-1.64063 1.65625,0 0,1.64063 -1.65625,0 z m 3.33398,0 0,-1.64063 1.65625,0 0,1.64063 -1.65625,0 z m 3.33399,0 0,-1.64063 1.65625,0 0,1.64063 -1.65625,0 z"
       id="path241"
       inkscape:connector-curvature="0"
       style="fill:#000000;fill-rule:nonzero" />
    <path
       d="m 304,256 40,0 0,40 -40,0 z"
       id="path243"
       inkscape:connector-curvature="0"
       style="fill:#0000ff;fill-rule:nonzero" />
    <path
       d="m 304,256 40,0 0,40 -40,0 z"
       id="path245"
       inkscape:connector-curvature="0"
       style="stroke:#000000;stroke-width:1;stroke-linecap:butt;stroke-linejoin:round" />
    <path
       d="m 319.8584,280.52 0,-1.64063 1.65625,0 0,1.64063 -1.65625,0 z m 3.33398,0 0,-1.64063 1.65625,0 0,1.64063 -1.65625,0 z m 3.33399,0 0,-1.64063 1.65625,0 0,1.64063 -1.65625,0 z"
       id="path247"
       inkscape:connector-curvature="0"
       style="fill:#000000;fill-rule:nonzero" />
    <path
       d="m 344,96 40,0 0,40 -40,0 z"
       id="path249"
       inkscape:connector-curvature="0"
       style="fill:#b7b7b7;fill-rule:nonzero" />
    <path
       d="m 344,96 40,0 0,40 -40,0 z"
       id="path251"
       inkscape:connector-curvature="0"
       style="stroke:#000000;stroke-width:1;stroke-linecap:butt;stroke-linejoin:round" />
    <path
       d="m 359.8584,120.52 0,-1.64062 1.65625,0 0,1.64062 -1.65625,0 z m 3.33398,0 0,-1.64062 1.65625,0 0,1.64062 -1.65625,0 z m 3.33399,0 0,-1.64062 1.65625,0 0,1.64062 -1.65625,0 z"
       id="path253"
       inkscape:connector-curvature="0"
       style="fill:#000000;fill-rule:nonzero" />
    <path
       d="m 344,136 40,0 0,40 -40,0 z"
       id="path255"
       inkscape:connector-curvature="0"
       style="fill:#b7b7b7;fill-rule:nonzero" />
    <path
       d="m 344,136 40,0 0,40 -40,0 z"
       id="path257"
       inkscape:connector-curvature="0"
       style="stroke:#000000;stroke-width:1;stroke-linecap:butt;stroke-linejoin:round" />
    <path
       d="m 359.8584,160.52 0,-1.64063 1.65625,0 0,1.64063 -1.65625,0 z m 3.33398,0 0,-1.64063 1.65625,0 0,1.64063 -1.65625,0 z m 3.33399,0 0,-1.64063 1.65625,0 0,1.64063 -1.65625,0 z"
       id="path259"
       inkscape:connector-curvature="0"
       style="fill:#000000;fill-rule:nonzero" />
    <path
       d="m 344,176 40,0 0,40 -40,0 z"
       id="path261"
       inkscape:connector-curvature="0"
       style="fill:#b7b7b7;fill-rule:nonzero" />
    <path
       d="m 344,176 40,0 0,40 -40,0 z"
       id="path263"
       inkscape:connector-curvature="0"
       style="stroke:#000000;stroke-width:1;stroke-linecap:butt;stroke-linejoin:round" />
    <path
       d="m 359.8584,200.52 0,-1.64063 1.65625,0 0,1.64063 -1.65625,0 z m 3.33398,0 0,-1.64063 1.65625,0 0,1.64063 -1.65625,0 z m 3.33399,0 0,-1.64063 1.65625,0 0,1.64063 -1.65625,0 z"
       id="path265"
       inkscape:connector-curvature="0"
       style="fill:#000000;fill-rule:nonzero" />
    <path
       d="m 344,216 40,0 0,40 -40,0 z"
       id="path267"
       inkscape:connector-curvature="0"
       style="fill:#b7b7b7;fill-rule:nonzero" />
    <path
       d="m 344,216 40,0 0,40 -40,0 z"
       id="path269"
       inkscape:connector-curvature="0"
       style="stroke:#000000;stroke-width:1;stroke-linecap:butt;stroke-linejoin:round" />
    <path
       d="m 359.8584,240.52 0,-1.64063 1.65625,0 0,1.64063 -1.65625,0 z m 3.33398,0 0,-1.64063 1.65625,0 0,1.64063 -1.65625,0 z m 3.33399,0 0,-1.64063 1.65625,0 0,1.64063 -1.65625,0 z"
       id="path271"
       inkscape:connector-curvature="0"
       style="fill:#000000;fill-rule:nonzero" />
    <path
       d="m 384,96 40,0 0,40 -40,0 z"
       id="path273"
       inkscape:connector-curvature="0"
       style="fill:#b7b7b7;fill-rule:nonzero" />
    <path
       d="m 384,96 40,0 0,40 -40,0 z"
       id="path275"
       inkscape:connector-curvature="0"
       style="stroke:#000000;stroke-width:1;stroke-linecap:butt;stroke-linejoin:round" />
    <path
       d="m 403.12305,120.52 0,-3.60937 -3.14063,-4.98438 2.03125,0 2.01563,3.40625 1.98437,-3.40625 2,0 -3.15625,4.98438 0,3.60937 -1.73437,0 z"
       id="path277"
       inkscape:connector-curvature="0"
       style="fill:#000000;fill-rule:nonzero" />
    <path
       d="m 384,136 40,0 0,40 -40,0 z"
       id="path279"
       inkscape:connector-curvature="0"
       style="fill:#b7b7b7;fill-rule:nonzero" />
    <path
       d="m 384,136 40,0 0,40 -40,0 z"
       id="path281"
       inkscape:connector-curvature="0"
       style="stroke:#000000;stroke-width:1;stroke-linecap:butt;stroke-linejoin:round" />
    <path
       d="m 403.12305,160.52 0,-3.60938 -3.14063,-4.98437 2.03125,0 2.01563,3.40625 1.98437,-3.40625 2,0 -3.15625,4.98437 0,3.60938 -1.73437,0 z"
       id="path283"
       inkscape:connector-curvature="0"
       style="fill:#000000;fill-rule:nonzero" />
    <path
       d="m 384,176 40,0 0,40 -40,0 z"
       id="path285"
       inkscape:connector-curvature="0"
       style="fill:#b7b7b7;fill-rule:nonzero" />
    <path
       d="m 384,176 40,0 0,40 -40,0 z"
       id="path287"
       inkscape:connector-curvature="0"
       style="stroke:#000000;stroke-width:1;stroke-linecap:butt;stroke-linejoin:round" />
    <path
       d="m 399.8584,200.52 0,-1.64063 1.65625,0 0,1.64063 -1.65625,0 z m 3.33398,0 0,-1.64063 1.65625,0 0,1.64063 -1.65625,0 z m 3.33399,0 0,-1.64063 1.65625,0 0,1.64063 -1.65625,0 z"
       id="path289"
       inkscape:connector-curvature="0"
       style="fill:#000000;fill-rule:nonzero" />
    <path
       d="m 384,216 40,0 0,40 -40,0 z"
       id="path291"
       inkscape:connector-curvature="0"
       style="fill:#b7b7b7;fill-rule:nonzero" />
    <path
       d="m 384,216 40,0 0,40 -40,0 z"
       id="path293"
       inkscape:connector-curvature="0"
       style="stroke:#000000;stroke-width:1;stroke-linecap:butt;stroke-linejoin:round" />
    <path
       d="m 403.12305,240.52 0,-3.60938 -3.14063,-4.98437 2.03125,0 2.01563,3.40625 1.98437,-3.40625 2,0 -3.15625,4.98437 0,3.60938 -1.73437,0 z"
       id="path295"
       inkscape:connector-curvature="0"
       style="fill:#000000;fill-rule:nonzero" />
    <path
       d="m 424,256 40,0 0,40 -40,0 z"
       id="path297"
       inkscape:connector-curvature="0"
       style="fill:#ff0000;fill-rule:nonzero" />
    <path
       d="m 424,256 40,0 0,40 -40,0 z"
       id="path299"
       inkscape:connector-curvature="0"
       style="stroke:#000000;stroke-width:1;stroke-linecap:butt;stroke-linejoin:round" />
    <path
       d="m 443.06055,280.52 -3.0625,-8.59375 1.875,0 2.17187,6.35937 2.10938,-6.35937 1.84375,0 -3.07813,8.59375 -1.85937,0 z"
       id="path301"
       inkscape:connector-curvature="0"
       style="fill:#000000;fill-rule:nonzero" />
    <path
       d="m 384,256 40,0 0,40 -40,0 z"
       id="path303"
       inkscape:connector-curvature="0"
       style="fill:#0000ff;fill-rule:nonzero" />
    <path
       d="m 384,256 40,0 0,40 -40,0 z"
       id="path305"
       inkscape:connector-curvature="0"
       style="stroke:#000000;stroke-width:1;stroke-linecap:butt;stroke-linejoin:round" />
    <path
       d="m 400.52637,271.92624 1.73437,0 0,4.65625 q 0,1.10937 0.0625,1.4375 0.10938,0.53125 0.53125,0.84375 0.42188,0.3125 1.15625,0.3125 0.73438,0 1.10938,-0.29688 0.375,-0.29687 0.45312,-0.73437 0.0781,-0.4375 0.0781,-1.46875 l 0,-4.75 1.73437,0 0,4.51562 q 0,1.54688 -0.14062,2.1875 -0.14063,0.64063 -0.53125,1.07813 -0.375,0.4375 -1.01563,0.70312 -0.625,0.25 -1.64062,0.25 -1.23438,0 -1.875,-0.28125 -0.625,-0.28125 -1,-0.73437 -0.35938,-0.45313 -0.48438,-0.95313 -0.17187,-0.73437 -0.17187,-2.1875 l 0,-4.57812 z"
       id="path307"
       inkscape:connector-curvature="0"
       style="fill:#000000;fill-rule:nonzero" />
    <path
       d="m 104,256 40,0 0,40 -40,0 z"
       id="path309"
       inkscape:connector-curvature="0"
       style="fill:#000000;fill-opacity:0;fill-rule:nonzero" />
    <path
       d="m 104,256 40,0 0,40 -40,0 z"
       id="path311"
       inkscape:connector-curvature="0"
       style="stroke:#000000;stroke-width:1;stroke-linecap:butt;stroke-linejoin:round" />
    <path
       d="m 116.54004,280.52 0,-8.59375 2.78125,0 q 1.57813,0 2.0625,0.125 0.73438,0.20312 1.23438,0.85937 0.5,0.64063 0.5,1.65625 0,0.79688 -0.29688,1.34375 -0.28125,0.53125 -0.71875,0.84375 -0.4375,0.29688 -0.90625,0.40625 -0.60937,0.125 -1.79687,0.125 l -1.125,0 0,3.23438 -1.73438,0 z m 1.73438,-7.14063 0,2.4375 0.95312,0 q 1.01563,0 1.35938,-0.125 0.35937,-0.14062 0.54687,-0.42187 0.20313,-0.29688 0.20313,-0.67188 0,-0.46875 -0.28125,-0.76562 -0.28125,-0.3125 -0.70313,-0.39063 -0.29687,-0.0625 -1.23437,-0.0625 l -0.84375,0 z m 6.26953,7.14063 0,-8.59375 1.73437,0 0,3.39062 3.40625,0 0,-3.39062 1.73438,0 0,8.59375 -1.73438,0 0,-3.75 -3.40625,0 0,3.75 -1.73437,0 z"
       id="path313"
       inkscape:connector-curvature="0"
       style="fill:#000000;fill-rule:nonzero" />
    <path
       d="m 464,256 40,0 0,40 -40,0 z"
       id="path315"
       inkscape:connector-curvature="0"
       style="fill:#000000;fill-opacity:0;fill-rule:nonzero" />
    <path
       d="m 464,256 40,0 0,40 -40,0 z"
       id="path317"
       inkscape:connector-curvature="0"
       style="stroke:#000000;stroke-width:1;stroke-linecap:butt;stroke-linejoin:round" />
    <path
       d="m 477.208,280.52 0,-8.59375 2.78125,0 q 1.57813,0 2.0625,0.125 0.73438,0.20312 1.23438,0.85937 0.5,0.64063 0.5,1.65625 0,0.79688 -0.29688,1.34375 -0.28125,0.53125 -0.71875,0.84375 -0.4375,0.29688 -0.90625,0.40625 -0.60937,0.125 -1.79687,0.125 l -1.125,0 0,3.23438 -1.73438,0 z m 1.73438,-7.14063 0,2.4375 0.95312,0 q 1.01563,0 1.35938,-0.125 0.35937,-0.14062 0.54687,-0.42187 0.20313,-0.29688 0.20313,-0.67188 0,-0.46875 -0.28125,-0.76562 -0.28125,-0.3125 -0.70313,-0.39063 -0.29687,-0.0625 -1.23437,-0.0625 l -0.84375,0 z m 6.28515,7.14063 0,-8.59375 5.89063,0 0,1.45312 -4.15625,0 0,2.03125 3.57812,0 0,1.45313 -3.57812,0 0,3.65625 -1.73438,0 z"
       id="path319"
       inkscape:connector-curvature="0"
       style="fill:#000000;fill-rule:nonzero" />
    <path
       d="m 184,296 40,0 0,40 -40,0 z"
       id="path321"
       inkscape:connector-curvature="0"
       style="fill:#ff0000;fill-rule:nonzero" />
    <path
       d="m 184,296 40,0 0,40 -40,0 z"
       id="path323"
       inkscape:connector-curvature="0"
       style="stroke:#000000;stroke-width:1;stroke-linecap:butt;stroke-linejoin:round" />
    <path
       d="m 203.06055,320.52 -3.0625,-8.59375 1.875,0 2.17187,6.35937 2.10938,-6.35937 1.84375,0 -3.07813,8.59375 -1.85937,0 z"
       id="path325"
       inkscape:connector-curvature="0"
       style="fill:#000000;fill-rule:nonzero" />
    <path
       d="m 144,296 40,0 0,40 -40,0 z"
       id="path327"
       inkscape:connector-curvature="0"
       style="fill:#0000ff;fill-rule:nonzero" />
    <path
       d="m 144,296 40,0 0,40 -40,0 z"
       id="path329"
       inkscape:connector-curvature="0"
       style="stroke:#000000;stroke-width:1;stroke-linecap:butt;stroke-linejoin:round" />
    <path
       d="m 160.52637,311.92624 1.73437,0 0,4.65625 q 0,1.10937 0.0625,1.4375 0.10938,0.53125 0.53125,0.84375 0.42188,0.3125 1.15625,0.3125 0.73438,0 1.10938,-0.29688 0.375,-0.29687 0.45312,-0.73437 0.0781,-0.4375 0.0781,-1.46875 l 0,-4.75 1.73437,0 0,4.51562 q 0,1.54688 -0.14062,2.1875 -0.14063,0.64063 -0.53125,1.07813 -0.375,0.4375 -1.01563,0.70312 -0.625,0.25 -1.64062,0.25 -1.23438,0 -1.875,-0.28125 -0.625,-0.28125 -1,-0.73437 -0.35938,-0.45313 -0.48438,-0.95313 -0.17187,-0.73437 -0.17187,-2.1875 l 0,-4.57812 z"
       id="path331"
       inkscape:connector-curvature="0"
       style="fill:#000000;fill-rule:nonzero" />
    <path
       d="m 264,296 40,0 0,40 -40,0 z"
       id="path333"
       inkscape:connector-curvature="0"
       style="fill:#ff0000;fill-rule:nonzero" />
    <path
       d="m 264,296 40,0 0,40 -40,0 z"
       id="path335"
       inkscape:connector-curvature="0"
       style="stroke:#000000;stroke-width:1;stroke-linecap:butt;stroke-linejoin:round" />
    <path
       d="m 283.06055,320.52 -3.0625,-8.59375 1.875,0 2.17187,6.35937 2.10938,-6.35937 1.84375,0 -3.07813,8.59375 -1.85937,0 z"
       id="path337"
       inkscape:connector-curvature="0"
       style="fill:#000000;fill-rule:nonzero" />
    <path
       d="m 224,296 40,0 0,40 -40,0 z"
       id="path339"
       inkscape:connector-curvature="0"
       style="fill:#0000ff;fill-rule:nonzero" />
    <path
       d="m 224,296 40,0 0,40 -40,0 z"
       id="path341"
       inkscape:connector-curvature="0"
       style="stroke:#000000;stroke-width:1;stroke-linecap:butt;stroke-linejoin:round" />
    <path
       d="m 240.52637,311.92624 1.73437,0 0,4.65625 q 0,1.10937 0.0625,1.4375 0.10938,0.53125 0.53125,0.84375 0.42188,0.3125 1.15625,0.3125 0.73438,0 1.10938,-0.29688 0.375,-0.29687 0.45312,-0.73437 0.0781,-0.4375 0.0781,-1.46875 l 0,-4.75 1.73437,0 0,4.51562 q 0,1.54688 -0.14062,2.1875 -0.14063,0.64063 -0.53125,1.07813 -0.375,0.4375 -1.01563,0.70312 -0.625,0.25 -1.64062,0.25 -1.23438,0 -1.875,-0.28125 -0.625,-0.28125 -1,-0.73437 -0.35938,-0.45313 -0.48438,-0.95313 -0.17187,-0.73437 -0.17187,-2.1875 l 0,-4.57812 z"
       id="path343"
       inkscape:connector-curvature="0"
       style="fill:#000000;fill-rule:nonzero" />
    <path
       d="m 344,296 40,0 0,40 -40,0 z"
       id="path345"
       inkscape:connector-curvature="0"
       style="fill:#ff0000;fill-rule:nonzero" />
    <path
       d="m 344,296 40,0 0,40 -40,0 z"
       id="path347"
       inkscape:connector-curvature="0"
       style="stroke:#000000;stroke-width:1;stroke-linecap:butt;stroke-linejoin:round" />
    <path
       d="m 359.8584,320.52 0,-1.64063 1.65625,0 0,1.64063 -1.65625,0 z m 3.33398,0 0,-1.64063 1.65625,0 0,1.64063 -1.65625,0 z m 3.33399,0 0,-1.64063 1.65625,0 0,1.64063 -1.65625,0 z"
       id="path349"
       inkscape:connector-curvature="0"
       style="fill:#000000;fill-rule:nonzero" />
    <path
       d="m 304,296 40,0 0,40 -40,0 z"
       id="path351"
       inkscape:connector-curvature="0"
       style="fill:#0000ff;fill-rule:nonzero" />
    <path
       d="m 304,296 40,0 0,40 -40,0 z"
       id="path353"
       inkscape:connector-curvature="0"
       style="stroke:#000000;stroke-width:1;stroke-linecap:butt;stroke-linejoin:round" />
    <path
       d="m 319.8584,320.52 0,-1.64063 1.65625,0 0,1.64063 -1.65625,0 z m 3.33398,0 0,-1.64063 1.65625,0 0,1.64063 -1.65625,0 z m 3.33399,0 0,-1.64063 1.65625,0 0,1.64063 -1.65625,0 z"
       id="path355"
       inkscape:connector-curvature="0"
       style="fill:#000000;fill-rule:nonzero" />
    <path
       d="m 424,296 40,0 0,40 -40,0 z"
       id="path357"
       inkscape:connector-curvature="0"
       style="fill:#ff0000;fill-rule:nonzero" />
    <path
       d="m 424,296 40,0 0,40 -40,0 z"
       id="path359"
       inkscape:connector-curvature="0"
       style="stroke:#000000;stroke-width:1;stroke-linecap:butt;stroke-linejoin:round" />
    <path
       d="m 443.06055,320.52 -3.0625,-8.59375 1.875,0 2.17187,6.35937 2.10938,-6.35937 1.84375,0 -3.07813,8.59375 -1.85937,0 z"
       id="path361"
       inkscape:connector-curvature="0"
       style="fill:#000000;fill-rule:nonzero" />
    <path
       d="m 384,296 40,0 0,40 -40,0 z"
       id="path363"
       inkscape:connector-curvature="0"
       style="fill:#0000ff;fill-rule:nonzero" />
    <path
       d="m 384,296 40,0 0,40 -40,0 z"
       id="path365"
       inkscape:connector-curvature="0"
       style="stroke:#000000;stroke-width:1;stroke-linecap:butt;stroke-linejoin:round" />
    <path
       d="m 400.52637,311.92624 1.73437,0 0,4.65625 q 0,1.10937 0.0625,1.4375 0.10938,0.53125 0.53125,0.84375 0.42188,0.3125 1.15625,0.3125 0.73438,0 1.10938,-0.29688 0.375,-0.29687 0.45312,-0.73437 0.0781,-0.4375 0.0781,-1.46875 l 0,-4.75 1.73437,0 0,4.51562 q 0,1.54688 -0.14062,2.1875 -0.14063,0.64063 -0.53125,1.07813 -0.375,0.4375 -1.01563,0.70312 -0.625,0.25 -1.64062,0.25 -1.23438,0 -1.875,-0.28125 -0.625,-0.28125 -1,-0.73437 -0.35938,-0.45313 -0.48438,-0.95313 -0.17187,-0.73437 -0.17187,-2.1875 l 0,-4.57812 z"
       id="path367"
       inkscape:connector-curvature="0"
       style="fill:#000000;fill-rule:nonzero" />
    <path
       d="m 104,296 40,0 0,40 -40,0 z"
       id="path369"
       inkscape:connector-curvature="0"
       style="fill:#000000;fill-opacity:0;fill-rule:nonzero" />
    <path
       d="m 104,296 40,0 0,40 -40,0 z"
       id="path371"
       inkscape:connector-curvature="0"
       style="stroke:#000000;stroke-width:1;stroke-linecap:butt;stroke-linejoin:round" />
    <path
       d="m 116.54004,320.52 0,-8.59375 2.78125,0 q 1.57813,0 2.0625,0.125 0.73438,0.20312 1.23438,0.85937 0.5,0.64063 0.5,1.65625 0,0.79688 -0.29688,1.34375 -0.28125,0.53125 -0.71875,0.84375 -0.4375,0.29688 -0.90625,0.40625 -0.60937,0.125 -1.79687,0.125 l -1.125,0 0,3.23438 -1.73438,0 z m 1.73438,-7.14063 0,2.4375 0.95312,0 q 1.01563,0 1.35938,-0.125 0.35937,-0.14062 0.54687,-0.42187 0.20313,-0.29688 0.20313,-0.67188 0,-0.46875 -0.28125,-0.76562 -0.28125,-0.3125 -0.70313,-0.39063 -0.29687,-0.0625 -1.23437,-0.0625 l -0.84375,0 z m 6.26953,7.14063 0,-8.59375 1.73437,0 0,3.39062 3.40625,0 0,-3.39062 1.73438,0 0,8.59375 -1.73438,0 0,-3.75 -3.40625,0 0,3.75 -1.73437,0 z"
       id="path373"
       inkscape:connector-curvature="0"
       style="fill:#000000;fill-rule:nonzero" />
    <path
       d="m 464,296 40,0 0,40 -40,0 z"
       id="path375"
       inkscape:connector-curvature="0"
       style="fill:#000000;fill-opacity:0;fill-rule:nonzero" />
    <path
       d="m 464,296 40,0 0,40 -40,0 z"
       id="path377"
       inkscape:connector-curvature="0"
       style="stroke:#000000;stroke-width:1;stroke-linecap:butt;stroke-linejoin:round" />
    <path
       d="m 477.208,320.52 0,-8.59375 2.78125,0 q 1.57813,0 2.0625,0.125 0.73438,0.20312 1.23438,0.85937 0.5,0.64063 0.5,1.65625 0,0.79688 -0.29688,1.34375 -0.28125,0.53125 -0.71875,0.84375 -0.4375,0.29688 -0.90625,0.40625 -0.60937,0.125 -1.79687,0.125 l -1.125,0 0,3.23438 -1.73438,0 z m 1.73438,-7.14063 0,2.4375 0.95312,0 q 1.01563,0 1.35938,-0.125 0.35937,-0.14062 0.54687,-0.42187 0.20313,-0.29688 0.20313,-0.67188 0,-0.46875 -0.28125,-0.76562 -0.28125,-0.3125 -0.70313,-0.39063 -0.29687,-0.0625 -1.23437,-0.0625 l -0.84375,0 z m 6.28515,7.14063 0,-8.59375 5.89063,0 0,1.45312 -4.15625,0 0,2.03125 3.57812,0 0,1.45313 -3.57812,0 0,3.65625 -1.73438,0 z"
       id="path379"
       inkscape:connector-curvature="0"
       style="fill:#000000;fill-rule:nonzero" />
    <path
       d="m 80,71.84252 0,344.15747"
       id="path381"
       inkscape:connector-curvature="0"
       style="fill:#000000;fill-opacity:0;fill-rule:nonzero" />
    <path
       d="m 80,71.84252 0,338.15747"
       id="path383"
       inkscape:connector-curvature="0"
       style="stroke:#000000;stroke-width:1;stroke-linecap:butt;stroke-linejoin:round" />
    <path
       d="m 78.34827,410 1.651733,4.53809 L 81.651737,410 z"
       id="path385"
       inkscape:connector-curvature="0"
       style="fill:#000000;fill-rule:evenodd;stroke:#000000;stroke-width:1;stroke-linecap:butt" />
    <path
       d="m 184,336 40,0 0,40 -40,0 z"
       id="path387"
       inkscape:connector-curvature="0"
       style="fill:#ff0000;fill-rule:nonzero" />
    <path
       d="m 184,336 40,0 0,40 -40,0 z"
       id="path389"
       inkscape:connector-curvature="0"
       style="stroke:#000000;stroke-width:1;stroke-linecap:butt;stroke-linejoin:round" />
    <path
       d="m 199.8584,360.52 0,-1.64063 1.65625,0 0,1.64063 -1.65625,0 z m 3.33398,0 0,-1.64063 1.65625,0 0,1.64063 -1.65625,0 z m 3.33399,0 0,-1.64063 1.65625,0 0,1.64063 -1.65625,0 z"
       id="path391"
       inkscape:connector-curvature="0"
       style="fill:#000000;fill-rule:nonzero" />
    <path
       d="m 144,336 40,0 0,40 -40,0 z"
       id="path393"
       inkscape:connector-curvature="0"
       style="fill:#0000ff;fill-rule:nonzero" />
    <path
       d="m 144,336 40,0 0,40 -40,0 z"
       id="path395"
       inkscape:connector-curvature="0"
       style="stroke:#000000;stroke-width:1;stroke-linecap:butt;stroke-linejoin:round" />
    <path
       d="m 159.8584,360.52 0,-1.64063 1.65625,0 0,1.64063 -1.65625,0 z m 3.33398,0 0,-1.64063 1.65625,0 0,1.64063 -1.65625,0 z m 3.33399,0 0,-1.64063 1.65625,0 0,1.64063 -1.65625,0 z"
       id="path397"
       inkscape:connector-curvature="0"
       style="fill:#000000;fill-rule:nonzero" />
    <path
       d="m 264,336 40,0 0,40 -40,0 z"
       id="path399"
       inkscape:connector-curvature="0"
       style="fill:#ff0000;fill-rule:nonzero" />
    <path
       d="m 264,336 40,0 0,40 -40,0 z"
       id="path401"
       inkscape:connector-curvature="0"
       style="stroke:#000000;stroke-width:1;stroke-linecap:butt;stroke-linejoin:round" />
    <path
       d="m 279.8584,360.52 0,-1.64063 1.65625,0 0,1.64063 -1.65625,0 z m 3.33398,0 0,-1.64063 1.65625,0 0,1.64063 -1.65625,0 z m 3.33399,0 0,-1.64063 1.65625,0 0,1.64063 -1.65625,0 z"
       id="path403"
       inkscape:connector-curvature="0"
       style="fill:#000000;fill-rule:nonzero" />
    <path
       d="m 224,336 40,0 0,40 -40,0 z"
       id="path405"
       inkscape:connector-curvature="0"
       style="fill:#0000ff;fill-rule:nonzero" />
    <path
       d="m 224,336 40,0 0,40 -40,0 z"
       id="path407"
       inkscape:connector-curvature="0"
       style="stroke:#000000;stroke-width:1;stroke-linecap:butt;stroke-linejoin:round" />
    <path
       d="m 239.8584,360.52 0,-1.64063 1.65625,0 0,1.64063 -1.65625,0 z m 3.33398,0 0,-1.64063 1.65625,0 0,1.64063 -1.65625,0 z m 3.33399,0 0,-1.64063 1.65625,0 0,1.64063 -1.65625,0 z"
       id="path409"
       inkscape:connector-curvature="0"
       style="fill:#000000;fill-rule:nonzero" />
    <path
       d="m 344,336 40,0 0,40 -40,0 z"
       id="path411"
       inkscape:connector-curvature="0"
       style="fill:#ff0000;fill-rule:nonzero" />
    <path
       d="m 344,336 40,0 0,40 -40,0 z"
       id="path413"
       inkscape:connector-curvature="0"
       style="stroke:#000000;stroke-width:1;stroke-linecap:butt;stroke-linejoin:round" />
    <path
       d="m 359.8584,360.52 0,-1.64063 1.65625,0 0,1.64063 -1.65625,0 z m 3.33398,0 0,-1.64063 1.65625,0 0,1.64063 -1.65625,0 z m 3.33399,0 0,-1.64063 1.65625,0 0,1.64063 -1.65625,0 z"
       id="path415"
       inkscape:connector-curvature="0"
       style="fill:#000000;fill-rule:nonzero" />
    <path
       d="m 304,336 40,0 0,40 -40,0 z"
       id="path417"
       inkscape:connector-curvature="0"
       style="fill:#0000ff;fill-rule:nonzero" />
    <path
       d="m 304,336 40,0 0,40 -40,0 z"
       id="path419"
       inkscape:connector-curvature="0"
       style="stroke:#000000;stroke-width:1;stroke-linecap:butt;stroke-linejoin:round" />
    <path
       d="m 319.8584,360.52 0,-1.64063 1.65625,0 0,1.64063 -1.65625,0 z m 3.33398,0 0,-1.64063 1.65625,0 0,1.64063 -1.65625,0 z m 3.33399,0 0,-1.64063 1.65625,0 0,1.64063 -1.65625,0 z"
       id="path421"
       inkscape:connector-curvature="0"
       style="fill:#000000;fill-rule:nonzero" />
    <path
       d="m 424,336 40,0 0,40 -40,0 z"
       id="path423"
       inkscape:connector-curvature="0"
       style="fill:#ff0000;fill-rule:nonzero" />
    <path
       d="m 424,336 40,0 0,40 -40,0 z"
       id="path425"
       inkscape:connector-curvature="0"
       style="stroke:#000000;stroke-width:1;stroke-linecap:butt;stroke-linejoin:round" />
    <path
       d="m 439.8584,360.52 0,-1.64063 1.65625,0 0,1.64063 -1.65625,0 z m 3.33398,0 0,-1.64063 1.65625,0 0,1.64063 -1.65625,0 z m 3.33399,0 0,-1.64063 1.65625,0 0,1.64063 -1.65625,0 z"
       id="path427"
       inkscape:connector-curvature="0"
       style="fill:#000000;fill-rule:nonzero" />
    <path
       d="m 384,336 40,0 0,40 -40,0 z"
       id="path429"
       inkscape:connector-curvature="0"
       style="fill:#0000ff;fill-rule:nonzero" />
    <path
       d="m 384,336 40,0 0,40 -40,0 z"
       id="path431"
       inkscape:connector-curvature="0"
       style="stroke:#000000;stroke-width:1;stroke-linecap:butt;stroke-linejoin:round" />
    <path
       d="m 399.8584,360.52 0,-1.64063 1.65625,0 0,1.64063 -1.65625,0 z m 3.33398,0 0,-1.64063 1.65625,0 0,1.64063 -1.65625,0 z m 3.33399,0 0,-1.64063 1.65625,0 0,1.64063 -1.65625,0 z"
       id="path433"
       inkscape:connector-curvature="0"
       style="fill:#000000;fill-rule:nonzero" />
    <path
       d="m 104,336 40,0 0,40 -40,0 z"
       id="path435"
       inkscape:connector-curvature="0"
       style="fill:#000000;fill-opacity:0;fill-rule:nonzero" />
    <path
       d="m 104,336 40,0 0,40 -40,0 z"
       id="path437"
       inkscape:connector-curvature="0"
       style="stroke:#000000;stroke-width:1;stroke-linecap:butt;stroke-linejoin:round" />
    <path
       d="m 116.54004,360.52 0,-8.59375 2.78125,0 q 1.57813,0 2.0625,0.125 0.73438,0.20312 1.23438,0.85937 0.5,0.64063 0.5,1.65625 0,0.79688 -0.29688,1.34375 -0.28125,0.53125 -0.71875,0.84375 -0.4375,0.29688 -0.90625,0.40625 -0.60937,0.125 -1.79687,0.125 l -1.125,0 0,3.23438 -1.73438,0 z m 1.73438,-7.14063 0,2.4375 0.95312,0 q 1.01563,0 1.35938,-0.125 0.35937,-0.14062 0.54687,-0.42187 0.20313,-0.29688 0.20313,-0.67188 0,-0.46875 -0.28125,-0.76562 -0.28125,-0.3125 -0.70313,-0.39063 -0.29687,-0.0625 -1.23437,-0.0625 l -0.84375,0 z m 6.26953,7.14063 0,-8.59375 1.73437,0 0,3.39062 3.40625,0 0,-3.39062 1.73438,0 0,8.59375 -1.73438,0 0,-3.75 -3.40625,0 0,3.75 -1.73437,0 z"
       id="path439"
       inkscape:connector-curvature="0"
       style="fill:#000000;fill-rule:nonzero" />
    <path
       d="m 464,336 40,0 0,40 -40,0 z"
       id="path441"
       inkscape:connector-curvature="0"
       style="fill:#000000;fill-opacity:0;fill-rule:nonzero" />
    <path
       d="m 464,336 40,0 0,40 -40,0 z"
       id="path443"
       inkscape:connector-curvature="0"
       style="stroke:#000000;stroke-width:1;stroke-linecap:butt;stroke-linejoin:round" />
    <path
       d="m 477.208,360.52 0,-8.59375 2.78125,0 q 1.57813,0 2.0625,0.125 0.73438,0.20312 1.23438,0.85937 0.5,0.64063 0.5,1.65625 0,0.79688 -0.29688,1.34375 -0.28125,0.53125 -0.71875,0.84375 -0.4375,0.29688 -0.90625,0.40625 -0.60937,0.125 -1.79687,0.125 l -1.125,0 0,3.23438 -1.73438,0 z m 1.73438,-7.14063 0,2.4375 0.95312,0 q 1.01563,0 1.35938,-0.125 0.35937,-0.14062 0.54687,-0.42187 0.20313,-0.29688 0.20313,-0.67188 0,-0.46875 -0.28125,-0.76562 -0.28125,-0.3125 -0.70313,-0.39063 -0.29687,-0.0625 -1.23437,-0.0625 l -0.84375,0 z m 6.28515,7.14063 0,-8.59375 5.89063,0 0,1.45312 -4.15625,0 0,2.03125 3.57812,0 0,1.45313 -3.57812,0 0,3.65625 -1.73438,0 z"
       id="path445"
       inkscape:connector-curvature="0"
       style="fill:#000000;fill-rule:nonzero" />
    <path
       d="m 184,376 40,0 0,40 -40,0 z"
       id="path447"
       inkscape:connector-curvature="0"
       style="fill:#ff0000;fill-rule:nonzero" />
    <path
       d="m 184,376 40,0 0,40 -40,0 z"
       id="path449"
       inkscape:connector-curvature="0"
       style="stroke:#000000;stroke-width:1;stroke-linecap:butt;stroke-linejoin:round" />
    <path
       d="m 203.06055,400.52 -3.0625,-8.59375 1.875,0 2.17187,6.35937 2.10938,-6.35937 1.84375,0 -3.07813,8.59375 -1.85937,0 z"
       id="path451"
       inkscape:connector-curvature="0"
       style="fill:#000000;fill-rule:nonzero" />
    <path
       d="m 144,376 40,0 0,40 -40,0 z"
       id="path453"
       inkscape:connector-curvature="0"
       style="fill:#0000ff;fill-rule:nonzero" />
    <path
       d="m 144,376 40,0 0,40 -40,0 z"
       id="path455"
       inkscape:connector-curvature="0"
       style="stroke:#000000;stroke-width:1;stroke-linecap:butt;stroke-linejoin:round" />
    <path
       d="m 160.52637,391.92624 1.73437,0 0,4.65625 q 0,1.10937 0.0625,1.4375 0.10938,0.53125 0.53125,0.84375 0.42188,0.3125 1.15625,0.3125 0.73438,0 1.10938,-0.29688 0.375,-0.29687 0.45312,-0.73437 0.0781,-0.4375 0.0781,-1.46875 l 0,-4.75 1.73437,0 0,4.51562 q 0,1.54688 -0.14062,2.1875 -0.14063,0.64063 -0.53125,1.07813 -0.375,0.4375 -1.01563,0.70312 -0.625,0.25 -1.64062,0.25 -1.23438,0 -1.875,-0.28125 -0.625,-0.28125 -1,-0.73437 -0.35938,-0.45313 -0.48438,-0.95313 -0.17187,-0.73437 -0.17187,-2.1875 l 0,-4.57812 z"
       id="path457"
       inkscape:connector-curvature="0"
       style="fill:#000000;fill-rule:nonzero" />
    <path
       d="m 264,376 40,0 0,40 -40,0 z"
       id="path459"
       inkscape:connector-curvature="0"
       style="fill:#ff0000;fill-rule:nonzero" />
    <path
       d="m 264,376 40,0 0,40 -40,0 z"
       id="path461"
       inkscape:connector-curvature="0"
       style="stroke:#000000;stroke-width:1;stroke-linecap:butt;stroke-linejoin:round" />
    <path
       d="m 283.06055,400.52 -3.0625,-8.59375 1.875,0 2.17187,6.35937 2.10938,-6.35937 1.84375,0 -3.07813,8.59375 -1.85937,0 z"
       id="path463"
       inkscape:connector-curvature="0"
       style="fill:#000000;fill-rule:nonzero" />
    <path
       d="m 224,376 40,0 0,40 -40,0 z"
       id="path465"
       inkscape:connector-curvature="0"
       style="fill:#0000ff;fill-rule:nonzero" />
    <path
       d="m 224,376 40,0 0,40 -40,0 z"
       id="path467"
       inkscape:connector-curvature="0"
       style="stroke:#000000;stroke-width:1;stroke-linecap:butt;stroke-linejoin:round" />
    <path
       d="m 240.52637,391.92624 1.73437,0 0,4.65625 q 0,1.10937 0.0625,1.4375 0.10938,0.53125 0.53125,0.84375 0.42188,0.3125 1.15625,0.3125 0.73438,0 1.10938,-0.29688 0.375,-0.29687 0.45312,-0.73437 0.0781,-0.4375 0.0781,-1.46875 l 0,-4.75 1.73437,0 0,4.51562 q 0,1.54688 -0.14062,2.1875 -0.14063,0.64063 -0.53125,1.07813 -0.375,0.4375 -1.01563,0.70312 -0.625,0.25 -1.64062,0.25 -1.23438,0 -1.875,-0.28125 -0.625,-0.28125 -1,-0.73437 -0.35938,-0.45313 -0.48438,-0.95313 -0.17187,-0.73437 -0.17187,-2.1875 l 0,-4.57812 z"
       id="path469"
       inkscape:connector-curvature="0"
       style="fill:#000000;fill-rule:nonzero" />
    <path
       d="m 344,376 40,0 0,40 -40,0 z"
       id="path471"
       inkscape:connector-curvature="0"
       style="fill:#ff0000;fill-rule:nonzero" />
    <path
       d="m 344,376 40,0 0,40 -40,0 z"
       id="path473"
       inkscape:connector-curvature="0"
       style="stroke:#000000;stroke-width:1;stroke-linecap:butt;stroke-linejoin:round" />
    <path
       d="m 359.8584,400.52 0,-1.64063 1.65625,0 0,1.64063 -1.65625,0 z m 3.33398,0 0,-1.64063 1.65625,0 0,1.64063 -1.65625,0 z m 3.33399,0 0,-1.64063 1.65625,0 0,1.64063 -1.65625,0 z"
       id="path475"
       inkscape:connector-curvature="0"
       style="fill:#000000;fill-rule:nonzero" />
    <path
       d="m 304,376 40,0 0,40 -40,0 z"
       id="path477"
       inkscape:connector-curvature="0"
       style="fill:#0000ff;fill-rule:nonzero" />
    <path
       d="m 304,376 40,0 0,40 -40,0 z"
       id="path479"
       inkscape:connector-curvature="0"
       style="stroke:#000000;stroke-width:1;stroke-linecap:butt;stroke-linejoin:round" />
    <path
       d="m 319.8584,400.52 0,-1.64063 1.65625,0 0,1.64063 -1.65625,0 z m 3.33398,0 0,-1.64063 1.65625,0 0,1.64063 -1.65625,0 z m 3.33399,0 0,-1.64063 1.65625,0 0,1.64063 -1.65625,0 z"
       id="path481"
       inkscape:connector-curvature="0"
       style="fill:#000000;fill-rule:nonzero" />
    <path
       d="m 424,376 40,0 0,40 -40,0 z"
       id="path483"
       inkscape:connector-curvature="0"
       style="fill:#ff0000;fill-rule:nonzero" />
    <path
       d="m 424,376 40,0 0,40 -40,0 z"
       id="path485"
       inkscape:connector-curvature="0"
       style="stroke:#000000;stroke-width:1;stroke-linecap:butt;stroke-linejoin:round" />
    <path
       d="m 443.06055,400.52 -3.0625,-8.59375 1.875,0 2.17187,6.35937 2.10938,-6.35937 1.84375,0 -3.07813,8.59375 -1.85937,0 z"
       id="path487"
       inkscape:connector-curvature="0"
       style="fill:#000000;fill-rule:nonzero" />
    <path
       d="m 384,376 40,0 0,40 -40,0 z"
       id="path489"
       inkscape:connector-curvature="0"
       style="fill:#0000ff;fill-rule:nonzero" />
    <path
       d="m 384,376 40,0 0,40 -40,0 z"
       id="path491"
       inkscape:connector-curvature="0"
       style="stroke:#000000;stroke-width:1;stroke-linecap:butt;stroke-linejoin:round" />
    <path
       d="m 400.52637,391.92624 1.73437,0 0,4.65625 q 0,1.10937 0.0625,1.4375 0.10938,0.53125 0.53125,0.84375 0.42188,0.3125 1.15625,0.3125 0.73438,0 1.10938,-0.29688 0.375,-0.29687 0.45312,-0.73437 0.0781,-0.4375 0.0781,-1.46875 l 0,-4.75 1.73437,0 0,4.51562 q 0,1.54688 -0.14062,2.1875 -0.14063,0.64063 -0.53125,1.07813 -0.375,0.4375 -1.01563,0.70312 -0.625,0.25 -1.64062,0.25 -1.23438,0 -1.875,-0.28125 -0.625,-0.28125 -1,-0.73437 -0.35938,-0.45313 -0.48438,-0.95313 -0.17187,-0.73437 -0.17187,-2.1875 l 0,-4.57812 z"
       id="path493"
       inkscape:connector-curvature="0"
       style="fill:#000000;fill-rule:nonzero" />
    <path
       d="m 104,376 40,0 0,40 -40,0 z"
       id="path495"
       inkscape:connector-curvature="0"
       style="fill:#000000;fill-opacity:0;fill-rule:nonzero" />
    <path
       d="m 104,376 40,0 0,40 -40,0 z"
       id="path497"
       inkscape:connector-curvature="0"
       style="stroke:#000000;stroke-width:1;stroke-linecap:butt;stroke-linejoin:round" />
    <path
       d="m 116.54004,400.52 0,-8.59375 2.78125,0 q 1.57813,0 2.0625,0.125 0.73438,0.20312 1.23438,0.85937 0.5,0.64063 0.5,1.65625 0,0.79688 -0.29688,1.34375 -0.28125,0.53125 -0.71875,0.84375 -0.4375,0.29688 -0.90625,0.40625 -0.60937,0.125 -1.79687,0.125 l -1.125,0 0,3.23438 -1.73438,0 z m 1.73438,-7.14063 0,2.4375 0.95312,0 q 1.01563,0 1.35938,-0.125 0.35937,-0.14062 0.54687,-0.42187 0.20313,-0.29688 0.20313,-0.67188 0,-0.46875 -0.28125,-0.76562 -0.28125,-0.3125 -0.70313,-0.39063 -0.29687,-0.0625 -1.23437,-0.0625 l -0.84375,0 z m 6.26953,7.14063 0,-8.59375 1.73437,0 0,3.39062 3.40625,0 0,-3.39062 1.73438,0 0,8.59375 -1.73438,0 0,-3.75 -3.40625,0 0,3.75 -1.73437,0 z"
       id="path499"
       inkscape:connector-curvature="0"
       style="fill:#000000;fill-rule:nonzero" />
    <path
       d="m 464,376 40,0 0,40 -40,0 z"
       id="path501"
       inkscape:connector-curvature="0"
       style="fill:#000000;fill-opacity:0;fill-rule:nonzero" />
    <path
       d="m 464,376 40,0 0,40 -40,0 z"
       id="path503"
       inkscape:connector-curvature="0"
       style="stroke:#000000;stroke-width:1;stroke-linecap:butt;stroke-linejoin:round" />
    <path
       d="m 477.208,400.52 0,-8.59375 2.78125,0 q 1.57813,0 2.0625,0.125 0.73438,0.20312 1.23438,0.85937 0.5,0.64063 0.5,1.65625 0,0.79688 -0.29688,1.34375 -0.28125,0.53125 -0.71875,0.84375 -0.4375,0.29688 -0.90625,0.40625 -0.60937,0.125 -1.79687,0.125 l -1.125,0 0,3.23438 -1.73438,0 z m 1.73438,-7.14063 0,2.4375 0.95312,0 q 1.01563,0 1.35938,-0.125 0.35937,-0.14062 0.54687,-0.42187 0.20313,-0.29688 0.20313,-0.67188 0,-0.46875 -0.28125,-0.76562 -0.28125,-0.3125 -0.70313,-0.39063 -0.29687,-0.0625 -1.23437,-0.0625 l -0.84375,0 z m 6.28515,7.14063 0,-8.59375 5.89063,0 0,1.45312 -4.15625,0 0,2.03125 3.57812,0 0,1.45313 -3.57812,0 0,3.65625 -1.73438,0 z"
       id="path505"
       inkscape:connector-curvature="0"
       style="fill:#000000;fill-rule:nonzero" />
    <path
       d="m 80,424 426.99213,0 0,25.16534 -426.99213,0 z"
       id="path507"
       inkscape:connector-curvature="0"
       style="fill:#000000;fill-opacity:0;fill-rule:nonzero" />
    <path
       d="m 228.69333,444.52 0,-8.59375 2.78125,0 q 1.57812,0 2.0625,0.125 0.73437,0.20312 1.23437,0.85937 0.5,0.64063 0.5,1.65625 0,0.79688 -0.29687,1.34375 -0.28125,0.53125 -0.71875,0.84375 -0.4375,0.29688 -0.90625,0.40625 -0.60938,0.125 -1.79688,0.125 l -1.125,0 0,3.23438 -1.73437,0 z m 1.73437,-7.14063 0,2.4375 0.95313,0 q 1.01562,0 1.35937,-0.125 0.35938,-0.14062 0.54688,-0.42187 0.20312,-0.29688 0.20312,-0.67188 0,-0.46875 -0.28125,-0.76562 -0.28125,-0.3125 -0.70312,-0.39063 -0.29688,-0.0625 -1.23438,-0.0625 l -0.84375,0 z m 6.25391,7.14063 0,-8.59375 1.65625,0 0,8.59375 -1.65625,0 z m 4.56836,-4.32813 -1.5,-0.26562 q 0.25,-0.90625 0.85938,-1.32813 0.625,-0.4375 1.84375,-0.4375 1.09375,0 1.625,0.26563 0.54687,0.25 0.76562,0.65625 0.21875,0.39062 0.21875,1.46875 l -0.0156,1.92187 q 0,0.82813 0.0781,1.21875 0.0781,0.375 0.29688,0.82813 l -1.625,0 q -0.0625,-0.17188 -0.15625,-0.48438 -0.0469,-0.15625 -0.0625,-0.20312 -0.42188,0.42187 -0.90625,0.625 -0.46875,0.20312 -1.01563,0.20312 -0.96875,0 -1.53125,-0.51562 -0.54687,-0.53125 -0.54687,-1.32813 0,-0.53125 0.25,-0.9375 0.26562,-0.40625 0.71875,-0.625 0.45312,-0.23437 1.3125,-0.39062 1.14062,-0.21875 1.59375,-0.40625 l 0,-0.15625 q 0,-0.48438 -0.23438,-0.6875 -0.23437,-0.20313 -0.89062,-0.20313 -0.4375,0 -0.6875,0.17188 -0.23438,0.17187 -0.39063,0.60937 z m 2.20313,1.34375 q -0.3125,0.0937 -1,0.25 -0.6875,0.14063 -0.90625,0.28125 -0.3125,0.23438 -0.3125,0.57813 0,0.34375 0.25,0.60937 0.26562,0.25 0.65625,0.25 0.45312,0 0.85937,-0.29687 0.29688,-0.21875 0.39063,-0.54688 0.0625,-0.20312 0.0625,-0.79687 l 0,-0.32813 z m 8.89257,2.98438 -1.64062,0 0,-3.17188 q 0,-1.01562 -0.10938,-1.3125 -0.0937,-0.29687 -0.34375,-0.45312 -0.23437,-0.17188 -0.5625,-0.17188 -0.4375,0 -0.78125,0.23438 -0.32812,0.23437 -0.45312,0.625 -0.125,0.39062 -0.125,1.4375 l 0,2.8125 -1.65625,0 0,-6.21875 1.53125,0 0,0.90625 q 0.8125,-1.04688 2.0625,-1.04688 0.53125,0 0.98437,0.20313 0.45313,0.1875 0.6875,0.5 0.23438,0.29687 0.3125,0.6875 0.0937,0.375 0.0937,1.09375 l 0,3.875 z m 5.28321,-1.98438 1.64062,0.28125 q -0.3125,0.90625 -1,1.375 -0.6875,0.46875 -1.70312,0.46875 -1.625,0 -2.40625,-1.0625 -0.625,-0.84375 -0.625,-2.14062 0,-1.54688 0.8125,-2.42188 0.8125,-0.875 2.04687,-0.875 1.39063,0 2.1875,0.92188 0.8125,0.90625 0.76563,2.79687 l -4.125,0 q 0.0312,0.73438 0.40625,1.14063 0.375,0.40625 0.95312,0.40625 0.375,0 0.64063,-0.20313 0.26562,-0.21875 0.40625,-0.6875 z m 0.0937,-1.65625 q -0.0156,-0.71875 -0.375,-1.09375 -0.34375,-0.375 -0.85938,-0.375 -0.53125,0 -0.89062,0.39063 -0.34375,0.40625 -0.34375,1.07812 l 2.46875,0 z m 2.7832,1.34375 0,-1.64062 3.23437,0 0,1.64062 -3.23437,0 z m 3.76172,-0.5 1.6875,-0.15625 q 0.15625,0.84375 0.60937,1.25 0.46875,0.39063 1.26563,0.39063 0.82812,0 1.25,-0.34375 0.4375,-0.35938 0.4375,-0.84375 0,-0.29688 -0.1875,-0.51563 -0.17188,-0.21875 -0.625,-0.375 -0.29688,-0.10937 -1.375,-0.375 -1.40625,-0.34375 -1.96875,-0.84375 -0.78125,-0.71875 -0.78125,-1.73437 0,-0.65625 0.35937,-1.21875 0.375,-0.57813 1.07813,-0.875 0.70312,-0.29688 1.6875,-0.29688 1.625,0 2.4375,0.71875 0.8125,0.70313 0.85937,1.875 l -1.73437,0.0781 q -0.10938,-0.65625 -0.48438,-0.9375 -0.35937,-0.29688 -1.09375,-0.29688 -0.75,0 -1.1875,0.3125 -0.26562,0.1875 -0.26562,0.53125 0,0.29688 0.25,0.51563 0.32812,0.28125 1.59375,0.57812 1.26562,0.29688 1.875,0.625 0.60937,0.3125 0.95312,0.875 0.34375,0.54688 0.34375,1.35938 0,0.73437 -0.42187,1.39062 -0.40625,0.64063 -1.15625,0.95313 -0.75,0.3125 -1.85938,0.3125 -1.64062,0 -2.51562,-0.75 -0.85938,-0.76563 -1.03125,-2.20313 z m 12.03515,0.8125 1.64063,0.28125 q -0.3125,0.90625 -1,1.375 -0.6875,0.46875 -1.70313,0.46875 -1.625,0 -2.40625,-1.0625 -0.625,-0.84375 -0.625,-2.14062 0,-1.54688 0.8125,-2.42188 0.8125,-0.875 2.04688,-0.875 1.39062,0 2.1875,0.92188 0.8125,0.90625 0.76562,2.79687 l -4.125,0 q 0.0312,0.73438 0.40625,1.14063 0.375,0.40625 0.95313,0.40625 0.375,0 0.64062,-0.20313 0.26563,-0.21875 0.40625,-0.6875 z m 0.0937,-1.65625 q -0.0156,-0.71875 -0.375,-1.09375 -0.34375,-0.375 -0.85937,-0.375 -0.53125,0 -0.89063,0.39063 -0.34375,0.40625 -0.34375,1.07812 l 2.46875,0 z m 7.03321,6.01563 0,-3.14063 q -0.3125,0.42188 -0.79688,0.67188 -0.48437,0.23437 -1.03125,0.23437 -1.0625,0 -1.75,-0.79687 -0.8125,-0.9375 -0.8125,-2.53125 0,-1.5 0.75,-2.32813 0.76563,-0.84375 1.89063,-0.84375 0.625,0 1.07812,0.26563 0.45313,0.25 0.8125,0.79687 l 0,-0.92187 1.51563,0 0,8.59375 -1.65625,0 z m 0.0625,-5.5625 q 0,-0.95313 -0.39063,-1.42188 -0.39062,-0.46875 -0.98437,-0.46875 -0.59375,0 -1,0.48438 -0.39063,0.46875 -0.39063,1.5 0,1.03125 0.375,1.48437 0.39063,0.45313 0.96875,0.45313 0.5625,0 0.98438,-0.51563 0.4375,-0.51562 0.4375,-1.51562 z m 7.29883,3.1875 0,-0.9375 q -0.32813,0.5 -0.89063,0.79687 -0.54687,0.28125 -1.17187,0.28125 -0.625,0 -1.125,-0.26562 -0.5,-0.28125 -0.71875,-0.78125 -0.21875,-0.5 -0.21875,-1.375 l 0,-3.9375 1.64062,0 0,2.85937 q 0,1.3125 0.0937,1.60938 0.0937,0.29687 0.32813,0.46875 0.25,0.17187 0.60937,0.17187 0.42188,0 0.75,-0.23437 0.34375,-0.23438 0.46875,-0.57813 0.125,-0.34375 0.125,-1.67187 l 0,-2.625 1.64063,0 0,6.21875 -1.53125,0 z m 6.8457,-1.98438 1.64062,0.28125 q -0.3125,0.90625 -1,1.375 -0.6875,0.46875 -1.70312,0.46875 -1.625,0 -2.40625,-1.0625 -0.625,-0.84375 -0.625,-2.14062 0,-1.54688 0.8125,-2.42188 0.8125,-0.875 2.04687,-0.875 1.39063,0 2.1875,0.92188 0.8125,0.90625 0.76563,2.79687 l -4.125,0 q 0.0312,0.73438 0.40625,1.14063 0.375,0.40625 0.95312,0.40625 0.375,0 0.64063,-0.20313 0.26562,-0.21875 0.40625,-0.6875 z m 0.0937,-1.65625 q -0.0156,-0.71875 -0.375,-1.09375 -0.34375,-0.375 -0.85938,-0.375 -0.53125,0 -0.89062,0.39063 -0.34375,0.40625 -0.34375,1.07812 l 2.46875,0 z m 8.62695,3.64063 -1.64062,0 0,-3.17188 q 0,-1.01562 -0.10938,-1.3125 -0.0937,-0.29687 -0.34375,-0.45312 -0.23437,-0.17188 -0.5625,-0.17188 -0.4375,0 -0.78125,0.23438 -0.32812,0.23437 -0.45312,0.625 -0.125,0.39062 -0.125,1.4375 l 0,2.8125 -1.65625,0 0,-6.21875 1.53125,0 0,0.90625 q 0.8125,-1.04688 2.0625,-1.04688 0.53125,0 0.98437,0.20313 0.45313,0.1875 0.6875,0.5 0.23438,0.29687 0.3125,0.6875 0.0937,0.375 0.0937,1.09375 l 0,3.875 z m 4.5332,-6.21875 0,1.3125 -1.125,0 0,2.5 q 0,0.76562 0.0312,0.89062 0.0312,0.125 0.14063,0.21875 0.125,0.0781 0.28125,0.0781 0.23437,0 0.65625,-0.17188 l 0.14062,1.28125 q -0.5625,0.25 -1.29687,0.25 -0.4375,0 -0.79688,-0.14062 -0.35937,-0.15625 -0.53125,-0.39063 -0.15625,-0.25 -0.23437,-0.64062 -0.0469,-0.29688 -0.0469,-1.17188 l 0,-2.70312 -0.75,0 0,-1.3125 0.75,0 0,-1.23438 1.65625,-0.96875 0,2.20313 1.125,0 z m 1.13672,-0.84375 0,-1.53125 1.65625,0 0,1.53125 -1.65625,0 z m 0,7.0625 0,-6.21875 1.65625,0 0,6.21875 -1.65625,0 z m 4.56836,-4.32813 -1.5,-0.26562 q 0.25,-0.90625 0.85938,-1.32813 0.625,-0.4375 1.84375,-0.4375 1.09375,0 1.625,0.26563 0.54687,0.25 0.76562,0.65625 0.21875,0.39062 0.21875,1.46875 l -0.0156,1.92187 q 0,0.82813 0.0781,1.21875 0.0781,0.375 0.29688,0.82813 l -1.625,0 q -0.0625,-0.17188 -0.15625,-0.48438 -0.0469,-0.15625 -0.0625,-0.20312 -0.42188,0.42187 -0.90625,0.625 -0.46875,0.20312 -1.01563,0.20312 -0.96875,0 -1.53125,-0.51562 -0.54687,-0.53125 -0.54687,-1.32813 0,-0.53125 0.25,-0.9375 0.26562,-0.40625 0.71875,-0.625 0.45312,-0.23437 1.3125,-0.39062 1.14062,-0.21875 1.59375,-0.40625 l 0,-0.15625 q 0,-0.48438 -0.23438,-0.6875 -0.23437,-0.20313 -0.89062,-0.20313 -0.4375,0 -0.6875,0.17188 -0.23438,0.17187 -0.39063,0.60937 z m 2.20313,1.34375 q -0.3125,0.0937 -1,0.25 -0.6875,0.14063 -0.90625,0.28125 -0.3125,0.23438 -0.3125,0.57813 0,0.34375 0.25,0.60937 0.26562,0.25 0.65625,0.25 0.45312,0 0.85937,-0.29687 0.29688,-0.21875 0.39063,-0.54688 0.0625,-0.20312 0.0625,-0.79687 l 0,-0.32813 z m 3.23633,2.98438 0,-8.59375 1.65625,0 0,8.59375 -1.65625,0 z m 6.65234,0 0,-8.59375 2.60937,0 1.54688,5.85937 1.54687,-5.85937 2.59375,0 0,8.59375 -1.60937,0 0,-6.76563 -1.70313,6.76563 -1.67187,0 -1.6875,-6.76563 0,6.76563 -1.625,0 z m 9.63672,-3.20313 q 0,-0.8125 0.40625,-1.57812 0.40625,-0.78125 1.14062,-1.17188 0.73438,-0.40625 1.65625,-0.40625 1.40625,0 2.3125,0.92188 0.90625,0.90625 0.90625,2.3125 0,1.40625 -0.92187,2.34375 -0.90625,0.92187 -2.28125,0.92187 -0.85938,0 -1.64063,-0.39062 -0.76562,-0.39063 -1.17187,-1.125 -0.40625,-0.75 -0.40625,-1.82813 z m 1.6875,0.0937 q 0,0.92188 0.4375,1.42188 0.4375,0.48437 1.07812,0.48437 0.65625,0 1.07813,-0.48437 0.4375,-0.5 0.4375,-1.4375 0,-0.90625 -0.4375,-1.39063 -0.42188,-0.5 -1.07813,-0.5 -0.64062,0 -1.07812,0.5 -0.4375,0.48438 -0.4375,1.40625 z m 11.7207,3.10938 -1.51562,0 0,-0.92188 q -0.39063,0.54688 -0.90625,0.8125 -0.51563,0.25 -1.04688,0.25 -1.07812,0 -1.84375,-0.85937 -0.75,-0.875 -0.75,-2.42188 0,-1.57812 0.73438,-2.39062 0.75,-0.82813 1.89062,-0.82813 1.03125,0 1.79688,0.85938 l 0,-3.09375 1.64062,0 0,8.59375 z m -4.39062,-3.25 q 0,1 0.28125,1.4375 0.39062,0.65625 1.10937,0.65625 0.5625,0 0.95313,-0.48438 0.40625,-0.48437 0.40625,-1.45312 0,-1.0625 -0.39063,-1.53125 -0.375,-0.48438 -0.98437,-0.48438 -0.57813,0 -0.98438,0.46875 -0.39062,0.46875 -0.39062,1.39063 z m 9.62695,1.26562 1.64062,0.28125 q -0.3125,0.90625 -1,1.375 -0.6875,0.46875 -1.70312,0.46875 -1.625,0 -2.40625,-1.0625 -0.625,-0.84375 -0.625,-2.14062 0,-1.54688 0.8125,-2.42188 0.8125,-0.875 2.04687,-0.875 1.39063,0 2.1875,0.92188 0.8125,0.90625 0.76563,2.79687 l -4.125,0 q 0.0312,0.73438 0.40625,1.14063 0.375,0.40625 0.95312,0.40625 0.375,0 0.64063,-0.20313 0.26562,-0.21875 0.40625,-0.6875 z m 0.0937,-1.65625 q -0.0156,-0.71875 -0.375,-1.09375 -0.34375,-0.375 -0.85938,-0.375 -0.53125,0 -0.89062,0.39063 -0.34375,0.40625 -0.34375,1.07812 l 2.46875,0 z"
       id="path509"
       inkscape:connector-curvature="0"
       style="fill:#000000;fill-rule:nonzero" />
    <path
       d="m 504,95.98425 86.99213,0 0,40 -86.99213,0 z"
       id="path511"
       inkscape:connector-curvature="0"
       style="fill:#000000;fill-opacity:0;fill-rule:nonzero" />
    <path
       d="m 513.9219,120.50425 0,-8.51562 1.73438,0 0,7.0625 4.3125,0 0,1.45312 -6.04688,0 z m 7.26758,-7.0625 0,-1.53125 1.65625,0 0,1.53125 -1.65625,0 z m 0,7.0625 0,-6.21875 1.65625,0 0,6.21875 -1.65625,0 z m 8.99023,0 -1.64062,0 0,-3.17187 q 0,-1.01563 -0.10938,-1.3125 -0.0937,-0.29688 -0.34375,-0.45313 -0.23437,-0.17187 -0.5625,-0.17187 -0.4375,0 -0.78125,0.23437 -0.32812,0.23438 -0.45312,0.625 -0.125,0.39063 -0.125,1.4375 l 0,2.8125 -1.65625,0 0,-6.21875 1.53125,0 0,0.90625 q 0.8125,-1.04687 2.0625,-1.04687 0.53125,0 0.98437,0.20312 0.45313,0.1875 0.6875,0.5 0.23438,0.29688 0.3125,0.6875 0.0937,0.375 0.0937,1.09375 l 0,3.875 z m 5.2832,-1.98437 1.64063,0.28125 q -0.3125,0.90625 -1,1.375 -0.6875,0.46875 -1.70313,0.46875 -1.625,0 -2.40625,-1.0625 -0.625,-0.84375 -0.625,-2.14063 0,-1.54687 0.8125,-2.42187 0.8125,-0.875 2.04688,-0.875 1.39062,0 2.1875,0.92187 0.8125,0.90625 0.76562,2.79688 l -4.125,0 q 0.0312,0.73437 0.40625,1.14062 0.375,0.40625 0.95313,0.40625 0.375,0 0.64062,-0.20312 0.26563,-0.21875 0.40625,-0.6875 z m 0.0937,-1.65625 q -0.0156,-0.71875 -0.375,-1.09375 -0.34375,-0.375 -0.85937,-0.375 -0.53125,0 -0.89063,0.39062 -0.34375,0.40625 -0.34375,1.07813 l 2.46875,0 z m 10.16407,3.64062 -1.64063,0 0,-6.20312 q -0.90625,0.84375 -2.125,1.25 l 0,-1.5 q 0.64063,-0.20313 1.39063,-0.79688 0.76562,-0.59375 1.04687,-1.375 l 1.32813,0 0,8.625 z"
       id="path513"
       inkscape:connector-curvature="0"
       style="fill:#000000;fill-rule:nonzero" />
    <path
       d="m 504,135.98425 86.99213,0 0,40 -86.99213,0 z"
       id="path515"
       inkscape:connector-curvature="0"
       style="fill:#000000;fill-opacity:0;fill-rule:nonzero" />
    <path
       d="m 513.9219,160.50426 0,-8.51563 1.73438,0 0,7.0625 4.3125,0 0,1.45313 -6.04688,0 z m 7.26758,-7.0625 0,-1.53125 1.65625,0 0,1.53125 -1.65625,0 z m 0,7.0625 0,-6.21875 1.65625,0 0,6.21875 -1.65625,0 z m 8.99023,0 -1.64062,0 0,-3.17188 q 0,-1.01562 -0.10938,-1.3125 -0.0937,-0.29687 -0.34375,-0.45312 -0.23437,-0.17188 -0.5625,-0.17188 -0.4375,0 -0.78125,0.23438 -0.32812,0.23437 -0.45312,0.625 -0.125,0.39062 -0.125,1.4375 l 0,2.8125 -1.65625,0 0,-6.21875 1.53125,0 0,0.90625 q 0.8125,-1.04688 2.0625,-1.04688 0.53125,0 0.98437,0.20313 0.45313,0.1875 0.6875,0.5 0.23438,0.29687 0.3125,0.6875 0.0937,0.375 0.0937,1.09375 l 0,3.875 z m 5.2832,-1.98438 1.64063,0.28125 q -0.3125,0.90625 -1,1.375 -0.6875,0.46875 -1.70313,0.46875 -1.625,0 -2.40625,-1.0625 -0.625,-0.84375 -0.625,-2.14062 0,-1.54688 0.8125,-2.42188 0.8125,-0.875 2.04688,-0.875 1.39062,0 2.1875,0.92188 0.8125,0.90625 0.76562,2.79687 l -4.125,0 q 0.0312,0.73438 0.40625,1.14063 0.375,0.40625 0.95313,0.40625 0.375,0 0.64062,-0.20313 0.26563,-0.21875 0.40625,-0.6875 z m 0.0937,-1.65625 q -0.0156,-0.71875 -0.375,-1.09375 -0.34375,-0.375 -0.85937,-0.375 -0.53125,0 -0.89063,0.39063 -0.34375,0.40625 -0.34375,1.07812 l 2.46875,0 z m 11.52344,2.10938 0,1.53125 -5.78125,0 q 0.0937,-0.875 0.5625,-1.64063 0.46875,-0.78125 1.85938,-2.0625 1.10937,-1.03125 1.35937,-1.40625 0.34375,-0.51562 0.34375,-1.01562 0,-0.54688 -0.29687,-0.84375 -0.29688,-0.29688 -0.8125,-0.29688 -0.51563,0 -0.82813,0.3125 -0.29687,0.3125 -0.34375,1.03125 l -1.64062,-0.15625 q 0.14062,-1.35937 0.90625,-1.95312 0.78125,-0.59375 1.9375,-0.59375 1.28125,0 2,0.6875 0.73437,0.6875 0.73437,1.70312 0,0.57813 -0.21875,1.10938 -0.20312,0.51562 -0.65625,1.09375 -0.29687,0.375 -1.07812,1.09375 -0.78125,0.71875 -0.98438,0.95312 -0.20312,0.23438 -0.34375,0.45313 l 3.28125,0 z"
       id="path517"
       inkscape:connector-curvature="0"
       style="fill:#000000;fill-rule:nonzero" />
    <path
       d="m 504,215.98425 86.99213,0 0,40 -86.99213,0 z"
       id="path519"
       inkscape:connector-curvature="0"
       style="fill:#000000;fill-opacity:0;fill-rule:nonzero" />
    <path
       d="m 513.9219,240.50426 0,-8.51563 1.73438,0 0,7.0625 4.3125,0 0,1.45313 -6.04688,0 z m 7.26758,-7.0625 0,-1.53125 1.65625,0 0,1.53125 -1.65625,0 z m 0,7.0625 0,-6.21875 1.65625,0 0,6.21875 -1.65625,0 z m 8.99023,0 -1.64062,0 0,-3.17188 q 0,-1.01562 -0.10938,-1.3125 -0.0937,-0.29687 -0.34375,-0.45312 -0.23437,-0.17188 -0.5625,-0.17188 -0.4375,0 -0.78125,0.23438 -0.32812,0.23437 -0.45312,0.625 -0.125,0.39062 -0.125,1.4375 l 0,2.8125 -1.65625,0 0,-6.21875 1.53125,0 0,0.90625 q 0.8125,-1.04688 2.0625,-1.04688 0.53125,0 0.98437,0.20313 0.45313,0.1875 0.6875,0.5 0.23438,0.29687 0.3125,0.6875 0.0937,0.375 0.0937,1.09375 l 0,3.875 z m 5.2832,-1.98438 1.64063,0.28125 q -0.3125,0.90625 -1,1.375 -0.6875,0.46875 -1.70313,0.46875 -1.625,0 -2.40625,-1.0625 -0.625,-0.84375 -0.625,-2.14062 0,-1.54688 0.8125,-2.42188 0.8125,-0.875 2.04688,-0.875 1.39062,0 2.1875,0.92188 0.8125,0.90625 0.76562,2.79687 l -4.125,0 q 0.0312,0.73438 0.40625,1.14063 0.375,0.40625 0.95313,0.40625 0.375,0 0.64062,-0.20313 0.26563,-0.21875 0.40625,-0.6875 z m 0.0937,-1.65625 q -0.0156,-0.71875 -0.375,-1.09375 -0.34375,-0.375 -0.85937,-0.375 -0.53125,0 -0.89063,0.39063 -0.34375,0.40625 -0.34375,1.07812 l 2.46875,0 z m 11.96094,3.64063 -1.64062,0 0,-3.17188 q 0,-1.01562 -0.10938,-1.3125 -0.0937,-0.29687 -0.34375,-0.45312 -0.23437,-0.17188 -0.5625,-0.17188 -0.4375,0 -0.78125,0.23438 -0.32812,0.23437 -0.45312,0.625 -0.125,0.39062 -0.125,1.4375 l 0,2.8125 -1.65625,0 0,-6.21875 1.53125,0 0,0.90625 q 0.8125,-1.04688 2.0625,-1.04688 0.53125,0 0.98437,0.20313 0.45313,0.1875 0.6875,0.5 0.23438,0.29687 0.3125,0.6875 0.0937,0.375 0.0937,1.09375 l 0,3.875 z"
       id="path521"
       inkscape:connector-curvature="0"
       style="fill:#000000;fill-rule:nonzero" />
    <path
       d="m 504,255.98425 86.99213,0 0,40 -86.99213,0 z"
       id="path523"
       inkscape:connector-curvature="0"
       style="fill:#000000;fill-opacity:0;fill-rule:nonzero" />
    <path
       d="m 513.9219,280.50424 0,-8.51563 1.73438,0 0,7.0625 4.3125,0 0,1.45313 -6.04688,0 z m 7.26758,-7.0625 0,-1.53125 1.65625,0 0,1.53125 -1.65625,0 z m 0,7.0625 0,-6.21875 1.65625,0 0,6.21875 -1.65625,0 z m 8.99023,0 -1.64062,0 0,-3.17188 q 0,-1.01562 -0.10938,-1.3125 -0.0937,-0.29687 -0.34375,-0.45312 -0.23437,-0.17188 -0.5625,-0.17188 -0.4375,0 -0.78125,0.23438 -0.32812,0.23437 -0.45312,0.625 -0.125,0.39062 -0.125,1.4375 l 0,2.8125 -1.65625,0 0,-6.21875 1.53125,0 0,0.90625 q 0.8125,-1.04688 2.0625,-1.04688 0.53125,0 0.98437,0.20313 0.45313,0.1875 0.6875,0.5 0.23438,0.29687 0.3125,0.6875 0.0937,0.375 0.0937,1.09375 l 0,3.875 z m 5.2832,-1.98438 1.64063,0.28125 q -0.3125,0.90625 -1,1.375 -0.6875,0.46875 -1.70313,0.46875 -1.625,0 -2.40625,-1.0625 -0.625,-0.84375 -0.625,-2.14062 0,-1.54688 0.8125,-2.42188 0.8125,-0.875 2.04688,-0.875 1.39062,0 2.1875,0.92188 0.8125,0.90625 0.76562,2.79687 l -4.125,0 q 0.0312,0.73438 0.40625,1.14063 0.375,0.40625 0.95313,0.40625 0.375,0 0.64062,-0.20313 0.26563,-0.21875 0.40625,-0.6875 z m 0.0937,-1.65625 q -0.0156,-0.71875 -0.375,-1.09375 -0.34375,-0.375 -0.85937,-0.375 -0.53125,0 -0.89063,0.39063 -0.34375,0.40625 -0.34375,1.07812 l 2.46875,0 z m 10.16407,3.64063 -1.64063,0 0,-6.20313 q -0.90625,0.84375 -2.125,1.25 l 0,-1.5 q 0.64063,-0.20312 1.39063,-0.79687 0.76562,-0.59375 1.04687,-1.375 l 1.32813,0 0,8.625 z"
       id="path525"
       inkscape:connector-curvature="0"
       style="fill:#000000;fill-rule:nonzero" />
    <path
       d="m 504,295.98425 86.99213,0 0,40 -86.99213,0 z"
       id="path527"
       inkscape:connector-curvature="0"
       style="fill:#000000;fill-opacity:0;fill-rule:nonzero" />
    <path
       d="m 513.9219,320.50424 0,-8.51563 1.73438,0 0,7.0625 4.3125,0 0,1.45313 -6.04688,0 z m 7.26758,-7.0625 0,-1.53125 1.65625,0 0,1.53125 -1.65625,0 z m 0,7.0625 0,-6.21875 1.65625,0 0,6.21875 -1.65625,0 z m 8.99023,0 -1.64062,0 0,-3.17188 q 0,-1.01562 -0.10938,-1.3125 -0.0937,-0.29687 -0.34375,-0.45312 -0.23437,-0.17188 -0.5625,-0.17188 -0.4375,0 -0.78125,0.23438 -0.32812,0.23437 -0.45312,0.625 -0.125,0.39062 -0.125,1.4375 l 0,2.8125 -1.65625,0 0,-6.21875 1.53125,0 0,0.90625 q 0.8125,-1.04688 2.0625,-1.04688 0.53125,0 0.98437,0.20313 0.45313,0.1875 0.6875,0.5 0.23438,0.29687 0.3125,0.6875 0.0937,0.375 0.0937,1.09375 l 0,3.875 z m 5.2832,-1.98438 1.64063,0.28125 q -0.3125,0.90625 -1,1.375 -0.6875,0.46875 -1.70313,0.46875 -1.625,0 -2.40625,-1.0625 -0.625,-0.84375 -0.625,-2.14062 0,-1.54688 0.8125,-2.42188 0.8125,-0.875 2.04688,-0.875 1.39062,0 2.1875,0.92188 0.8125,0.90625 0.76562,2.79687 l -4.125,0 q 0.0312,0.73438 0.40625,1.14063 0.375,0.40625 0.95313,0.40625 0.375,0 0.64062,-0.20313 0.26563,-0.21875 0.40625,-0.6875 z m 0.0937,-1.65625 q -0.0156,-0.71875 -0.375,-1.09375 -0.34375,-0.375 -0.85937,-0.375 -0.53125,0 -0.89063,0.39063 -0.34375,0.40625 -0.34375,1.07812 l 2.46875,0 z m 11.52344,2.10938 0,1.53125 -5.78125,0 q 0.0937,-0.875 0.5625,-1.64063 0.46875,-0.78125 1.85938,-2.0625 1.10937,-1.03125 1.35937,-1.40625 0.34375,-0.51562 0.34375,-1.01562 0,-0.54688 -0.29687,-0.84375 -0.29688,-0.29688 -0.8125,-0.29688 -0.51563,0 -0.82813,0.3125 -0.29687,0.3125 -0.34375,1.03125 l -1.64062,-0.15625 q 0.14062,-1.35937 0.90625,-1.95312 0.78125,-0.59375 1.9375,-0.59375 1.28125,0 2,0.6875 0.73437,0.6875 0.73437,1.70312 0,0.57813 -0.21875,1.10938 -0.20312,0.51562 -0.65625,1.09375 -0.29687,0.375 -1.07812,1.09375 -0.78125,0.71875 -0.98438,0.95312 -0.20312,0.23438 -0.34375,0.45313 l 3.28125,0 z"
       id="path529"
       inkscape:connector-curvature="0"
       style="fill:#000000;fill-rule:nonzero" />
    <path
       d="m 504,375.98425 86.99213,0 0,40 -86.99213,0 z"
       id="path531"
       inkscape:connector-curvature="0"
       style="fill:#000000;fill-opacity:0;fill-rule:nonzero" />
    <path
       d="m 513.9219,400.50424 0,-8.51563 1.73438,0 0,7.0625 4.3125,0 0,1.45313 -6.04688,0 z m 7.26758,-7.0625 0,-1.53125 1.65625,0 0,1.53125 -1.65625,0 z m 0,7.0625 0,-6.21875 1.65625,0 0,6.21875 -1.65625,0 z m 8.99023,0 -1.64062,0 0,-3.17188 q 0,-1.01562 -0.10938,-1.3125 -0.0937,-0.29687 -0.34375,-0.45312 -0.23437,-0.17188 -0.5625,-0.17188 -0.4375,0 -0.78125,0.23438 -0.32812,0.23437 -0.45312,0.625 -0.125,0.39062 -0.125,1.4375 l 0,2.8125 -1.65625,0 0,-6.21875 1.53125,0 0,0.90625 q 0.8125,-1.04688 2.0625,-1.04688 0.53125,0 0.98437,0.20313 0.45313,0.1875 0.6875,0.5 0.23438,0.29687 0.3125,0.6875 0.0937,0.375 0.0937,1.09375 l 0,3.875 z m 5.2832,-1.98438 1.64063,0.28125 q -0.3125,0.90625 -1,1.375 -0.6875,0.46875 -1.70313,0.46875 -1.625,0 -2.40625,-1.0625 -0.625,-0.84375 -0.625,-2.14062 0,-1.54688 0.8125,-2.42188 0.8125,-0.875 2.04688,-0.875 1.39062,0 2.1875,0.92188 0.8125,0.90625 0.76562,2.79687 l -4.125,0 q 0.0312,0.73438 0.40625,1.14063 0.375,0.40625 0.95313,0.40625 0.375,0 0.64062,-0.20313 0.26563,-0.21875 0.40625,-0.6875 z m 0.0937,-1.65625 q -0.0156,-0.71875 -0.375,-1.09375 -0.34375,-0.375 -0.85937,-0.375 -0.53125,0 -0.89063,0.39063 -0.34375,0.40625 -0.34375,1.07812 l 2.46875,0 z m 11.96094,3.64063 -1.64062,0 0,-3.17188 q 0,-1.01562 -0.10938,-1.3125 -0.0937,-0.29687 -0.34375,-0.45312 -0.23437,-0.17188 -0.5625,-0.17188 -0.4375,0 -0.78125,0.23438 -0.32812,0.23437 -0.45312,0.625 -0.125,0.39062 -0.125,1.4375 l 0,2.8125 -1.65625,0 0,-6.21875 1.53125,0 0,0.90625 q 0.8125,-1.04688 2.0625,-1.04688 0.53125,0 0.98437,0.20313 0.45313,0.1875 0.6875,0.5 0.23438,0.29687 0.3125,0.6875 0.0937,0.375 0.0937,1.09375 l 0,3.875 z"
       id="path533"
       inkscape:connector-curvature="0"
       style="fill:#000000;fill-rule:nonzero" />
  </g>
</svg>
