<?xml version="1.0" encoding="UTF-8" standalone="no"?>
<svg
   xmlns:dc="http://purl.org/dc/elements/1.1/"
   xmlns:cc="http://creativecommons.org/ns#"
   xmlns:rdf="http://www.w3.org/1999/02/22-rdf-syntax-ns#"
   xmlns:svg="http://www.w3.org/2000/svg"
   xmlns="http://www.w3.org/2000/svg"
   xmlns:sodipodi="http://sodipodi.sourceforge.net/DTD/sodipodi-0.dtd"
   xmlns:inkscape="http://www.inkscape.org/namespaces/inkscape"
   version="1.1"
   viewBox="0 0 626.34375 186.25"
   stroke-miterlimit="10"
   id="svg2"
   inkscape:version="0.48.4 r9939"
   width="100%"
   height="100%"
   sodipodi:docname="ara-camera-image-packed422.svg"
   style="fill:none;stroke:none">
  <metadata
     id="metadata181">
    <rdf:RDF>
      <cc:Work
         rdf:about="">
        <dc:format>image/svg+xml</dc:format>
        <dc:type
           rdf:resource="http://purl.org/dc/dcmitype/StillImage" />
      </cc:Work>
    </rdf:RDF>
  </metadata>
  <defs
     id="defs179" />
  <sodipodi:namedview
     pagecolor="#ffffff"
     bordercolor="#666666"
     borderopacity="1"
     objecttolerance="10"
     gridtolerance="10"
     guidetolerance="10"
     inkscape:pageopacity="0"
     inkscape:pageshadow="2"
     inkscape:window-width="1920"
     inkscape:window-height="1056"
     id="namedview177"
     showgrid="false"
     fit-margin-top="0"
     fit-margin-left="0"
     fit-margin-right="0"
     fit-margin-bottom="0"
     inkscape:zoom="1.2361274"
     inkscape:cx="396.46184"
     inkscape:cy="113.41893"
     inkscape:window-x="0"
     inkscape:window-y="24"
     inkscape:window-maximized="1"
     inkscape:current-layer="svg2" />
  <clipPath
     id="p.0">
    <path
       d="M 0,0 720,0 720,540 0,540 0,0 z"
       clip-rule="nonzero"
       id="path5"
       inkscape:connector-curvature="0" />
  </clipPath>
  <g
     clip-path="url(#p.0)"
     id="g7"
     transform="translate(-43.1875,-61.40625)">
    <path
       d="m 0,0 720,0 0,540 -720,0 z"
       id="path9"
       inkscape:connector-curvature="0"
       style="fill:#000000;fill-opacity:0;fill-rule:nonzero" />
    <path
       d="m 200,96 40,0 0,40 -40,0 z"
       id="path11"
       inkscape:connector-curvature="0"
       style="fill:#ff0000;fill-rule:nonzero" />
    <path
       d="m 200,96 40,0 0,40 -40,0 z"
       id="path13"
       inkscape:connector-curvature="0"
       style="stroke:#000000;stroke-width:1;stroke-linecap:butt;stroke-linejoin:round" />
    <path
       d="m 215.72363,120.52 -3.0625,-8.59375 1.875,0 2.17188,6.35938 2.10937,-6.35938 1.84375,0 -3.07812,8.59375 -1.85938,0 z m 9.66016,0 -1.64063,0 0,-6.20312 q -0.90625,0.84375 -2.125,1.25 l 0,-1.5 q 0.64063,-0.20313 1.39063,-0.79688 0.76562,-0.59375 1.04687,-1.375 l 1.32813,0 0,8.625 z"
       id="path15"
       inkscape:connector-curvature="0"
       style="fill:#000000;fill-rule:nonzero" />
    <path
       d="m 160,96 40,0 0,40 -40,0 z"
       id="path17"
       inkscape:connector-curvature="0"
       style="fill:#b7b7b7;fill-rule:nonzero" />
    <path
       d="m 160,96 40,0 0,40 -40,0 z"
       id="path19"
       inkscape:connector-curvature="0"
       style="stroke:#000000;stroke-width:1;stroke-linecap:butt;stroke-linejoin:round" />
    <path
       d="m 175.78613,120.52 0,-3.60937 -3.14062,-4.98438 2.03125,0 2.01562,3.40625 1.98438,-3.40625 2,0 -3.15625,4.98438 0,3.60937 -1.73438,0 z m 9.59766,0 -1.64063,0 0,-6.20312 q -0.90625,0.84375 -2.125,1.25 l 0,-1.5 q 0.64063,-0.20313 1.39063,-0.79688 0.76562,-0.59375 1.04687,-1.375 l 1.32813,0 0,8.625 z"
       id="path21"
       inkscape:connector-curvature="0"
       style="fill:#000000;fill-rule:nonzero" />
    <path
       d="m 120,96 40,0 0,40 -40,0 z"
       id="path23"
       inkscape:connector-curvature="0"
       style="fill:#0000ff;fill-rule:nonzero" />
    <path
       d="m 120,96 40,0 0,40 -40,0 z"
       id="path25"
       inkscape:connector-curvature="0"
       style="stroke:#000000;stroke-width:1;stroke-linecap:butt;stroke-linejoin:round" />
    <path
       d="m 133.18945,111.92625 1.73437,0 0,4.65625 q 0,1.10938 0.0625,1.4375 0.10938,0.53125 0.53125,0.84375 0.42188,0.3125 1.15625,0.3125 0.73438,0 1.10938,-0.29687 0.375,-0.29688 0.45312,-0.73438 0.0781,-0.4375 0.0781,-1.46875 l 0,-4.75 1.73437,0 0,4.51563 q 0,1.54687 -0.14062,2.1875 -0.14063,0.64062 -0.53125,1.07812 -0.375,0.4375 -1.01563,0.70313 -0.625,0.25 -1.64062,0.25 -1.23438,0 -1.875,-0.28125 -0.625,-0.28125 -1,-0.73438 -0.35938,-0.45312 -0.48438,-0.95312 -0.17187,-0.73438 -0.17187,-2.1875 l 0,-4.57813 z m 12.52539,8.59375 -1.64062,0 0,-6.20312 q -0.90625,0.84375 -2.125,1.25 l 0,-1.5 q 0.64062,-0.20313 1.39062,-0.79688 0.76563,-0.59375 1.04688,-1.375 l 1.32812,0 0,8.625 z"
       id="path27"
       inkscape:connector-curvature="0"
       style="fill:#000000;fill-rule:nonzero" />
    <path
       d="m 240,96 40,0 0,40 -40,0 z"
       id="path29"
       inkscape:connector-curvature="0"
       style="fill:#b7b7b7;fill-rule:nonzero" />
    <path
       d="m 240,96 40,0 0,40 -40,0 z"
       id="path31"
       inkscape:connector-curvature="0"
       style="stroke:#000000;stroke-width:1;stroke-linecap:butt;stroke-linejoin:round" />
    <path
       d="m 255.78613,120.52 0,-3.60937 -3.14062,-4.98438 2.03125,0 2.01562,3.40625 1.98438,-3.40625 2,0 -3.15625,4.98438 0,3.60937 -1.73438,0 z m 10.95703,-1.53125 0,1.53125 -5.78125,0 q 0.0937,-0.875 0.5625,-1.64062 0.46875,-0.78125 1.85938,-2.0625 1.10937,-1.03125 1.35937,-1.40625 0.34375,-0.51563 0.34375,-1.01563 0,-0.54687 -0.29687,-0.84375 -0.29688,-0.29687 -0.8125,-0.29687 -0.51563,0 -0.82813,0.3125 -0.29687,0.3125 -0.34375,1.03125 l -1.64062,-0.15625 q 0.14062,-1.35938 0.90625,-1.95313 0.78125,-0.59375 1.9375,-0.59375 1.28125,0 2,0.6875 0.73437,0.6875 0.73437,1.70313 0,0.57812 -0.21875,1.10937 -0.20312,0.51563 -0.65625,1.09375 -0.29687,0.375 -1.07812,1.09375 -0.78125,0.71875 -0.98438,0.95313 -0.20312,0.23437 -0.34375,0.45312 l 3.28125,0 z"
       id="path33"
       inkscape:connector-curvature="0"
       style="fill:#000000;fill-rule:nonzero" />
    <path
       d="m 280,96 40,0 0,40 -40,0 z"
       id="path35"
       inkscape:connector-curvature="0"
       style="fill:#0000ff;fill-rule:nonzero" />
    <path
       d="m 280,96 40,0 0,40 -40,0 z"
       id="path37"
       inkscape:connector-curvature="0"
       style="stroke:#000000;stroke-width:1;stroke-linecap:butt;stroke-linejoin:round" />
    <path
       d="m 293.18945,111.92625 1.73438,0 0,4.65625 q 0,1.10938 0.0625,1.4375 0.10937,0.53125 0.53125,0.84375 0.42187,0.3125 1.15625,0.3125 0.73437,0 1.10937,-0.29687 0.375,-0.29688 0.45313,-0.73438 0.0781,-0.4375 0.0781,-1.46875 l 0,-4.75 1.73438,0 0,4.51563 q 0,1.54687 -0.14063,2.1875 -0.14062,0.64062 -0.53125,1.07812 -0.375,0.4375 -1.01562,0.70313 -0.625,0.25 -1.64063,0.25 -1.23437,0 -1.875,-0.28125 -0.625,-0.28125 -1,-0.73438 -0.35937,-0.45312 -0.48437,-0.95312 -0.17188,-0.73438 -0.17188,-2.1875 l 0,-4.57813 z m 8.25977,6.3125 1.59375,-0.1875 q 0.0781,0.60938 0.40625,0.9375 0.34375,0.3125 0.8125,0.3125 0.51562,0 0.85937,-0.39062 0.34375,-0.39063 0.34375,-1.04688 0,-0.60937 -0.34375,-0.96875 -0.32812,-0.375 -0.79687,-0.375 -0.32813,0 -0.76563,0.125 l 0.1875,-1.34375 q 0.67188,0.0156 1.01563,-0.28125 0.35937,-0.3125 0.35937,-0.82812 0,-0.42188 -0.26562,-0.67188 -0.25,-0.26562 -0.6875,-0.26562 -0.42188,0 -0.71875,0.29687 -0.29688,0.28125 -0.35938,0.84375 l -1.51562,-0.25 q 0.15625,-0.78125 0.46875,-1.25 0.32812,-0.46875 0.89062,-0.73437 0.57813,-0.26563 1.28125,-0.26563 1.21875,0 1.95313,0.76563 0.59375,0.64062 0.59375,1.4375 0,1.125 -1.23438,1.79687 0.75,0.17188 1.1875,0.71875 0.4375,0.54688 0.4375,1.32813 0,1.125 -0.82812,1.92187 -0.82813,0.79688 -2.04688,0.79688 -1.17187,0 -1.9375,-0.67188 -0.76562,-0.67187 -0.89062,-1.75 z"
       id="path39"
       inkscape:connector-curvature="0"
       style="fill:#000000;fill-rule:nonzero" />
    <path
       d="m 360,96 40,0 0,40 -40,0 z"
       id="path41"
       inkscape:connector-curvature="0"
       style="fill:#ff0000;fill-rule:nonzero" />
    <path
       d="m 360,96 40,0 0,40 -40,0 z"
       id="path43"
       inkscape:connector-curvature="0"
       style="stroke:#000000;stroke-width:1;stroke-linecap:butt;stroke-linejoin:round" />
    <path
       d="m 375.72363,120.52 -3.0625,-8.59375 1.875,0 2.17188,6.35938 2.10937,-6.35938 1.84375,0 -3.07812,8.59375 -1.85938,0 z m 5.39453,-2.28125 1.59375,-0.1875 q 0.0781,0.60938 0.40625,0.9375 0.34375,0.3125 0.8125,0.3125 0.51563,0 0.85938,-0.39062 0.34375,-0.39063 0.34375,-1.04688 0,-0.60937 -0.34375,-0.96875 -0.32813,-0.375 -0.79688,-0.375 -0.32812,0 -0.76562,0.125 l 0.1875,-1.34375 q 0.67187,0.0156 1.01562,-0.28125 0.35938,-0.3125 0.35938,-0.82812 0,-0.42188 -0.26563,-0.67188 -0.25,-0.26562 -0.6875,-0.26562 -0.42187,0 -0.71875,0.29687 -0.29687,0.28125 -0.35937,0.84375 l -1.51563,-0.25 q 0.15625,-0.78125 0.46875,-1.25 0.32813,-0.46875 0.89063,-0.73437 0.57812,-0.26563 1.28125,-0.26563 1.21875,0 1.95312,0.76563 0.59375,0.64062 0.59375,1.4375 0,1.125 -1.23437,1.79687 0.75,0.17188 1.1875,0.71875 0.4375,0.54688 0.4375,1.32813 0,1.125 -0.82813,1.92187 -0.82812,0.79688 -2.04687,0.79688 -1.17188,0 -1.9375,-0.67188 -0.76563,-0.67187 -0.89063,-1.75 z"
       id="path45"
       inkscape:connector-curvature="0"
       style="fill:#000000;fill-rule:nonzero" />
    <path
       d="m 400,96 40,0 0,40 -40,0 z"
       id="path47"
       inkscape:connector-curvature="0"
       style="fill:#b7b7b7;fill-rule:nonzero" />
    <path
       d="m 400,96 40,0 0,40 -40,0 z"
       id="path49"
       inkscape:connector-curvature="0"
       style="stroke:#000000;stroke-width:1;stroke-linecap:butt;stroke-linejoin:round" />
    <path
       d="m 415.78613,120.52 0,-3.60937 -3.14062,-4.98438 2.03125,0 2.01562,3.40625 1.98438,-3.40625 2,0 -3.15625,4.98438 0,3.60937 -1.73438,0 z m 8.61328,0 0,-1.73437 -3.51562,0 0,-1.4375 3.73437,-5.45313 1.375,0 0,5.45313 1.07813,0 0,1.4375 -1.07813,0 0,1.73437 -1.59375,0 z m 0,-3.17187 0,-2.9375 -1.96875,2.9375 1.96875,0 z"
       id="path51"
       inkscape:connector-curvature="0"
       style="fill:#000000;fill-rule:nonzero" />
    <path
       d="m 440,96 40,0 0,40 -40,0 z"
       id="path53"
       inkscape:connector-curvature="0"
       style="fill:#000000;fill-opacity:0;fill-rule:nonzero" />
    <path
       d="m 455.8584,116.52 0,-1.64062 1.65625,0 0,1.64062 -1.65625,0 z m 3.33398,0 0,-1.64062 1.65625,0 0,1.64062 -1.65625,0 z m 3.33399,0 0,-1.64062 1.65625,0 0,1.64062 -1.65625,0 z"
       id="path55"
       inkscape:connector-curvature="0"
       style="fill:#000000;fill-rule:nonzero" />
    <path
       d="m 80,207.84251 480,-1.00787"
       id="path57"
       inkscape:connector-curvature="0"
       style="fill:#000000;fill-opacity:0;fill-rule:nonzero" />
    <path
       d="m 80,207.84251 474,-0.99529"
       id="path59"
       inkscape:connector-curvature="0"
       style="stroke:#000000;stroke-width:1;stroke-linecap:butt;stroke-linejoin:round" />
    <path
       d="m 554.0035,208.49898 4.53461,-1.66125 -4.54157,-1.64222 z"
       id="path61"
       inkscape:connector-curvature="0"
       style="fill:#000000;fill-rule:evenodd;stroke:#000000;stroke-width:1;stroke-linecap:butt" />
    <path
       d="m 80,206.83464 426.99213,0 0,25.16536 L 80,232 z"
       id="path63"
       inkscape:connector-curvature="0"
       style="fill:#000000;fill-opacity:0;fill-rule:nonzero" />
    <path
       d="m 364.1718,227.35464 0,-8.59375 2.78125,0 q 1.57813,0 2.0625,0.125 0.73438,0.20312 1.23438,0.85937 0.5,0.64063 0.5,1.65625 0,0.79688 -0.29688,1.34375 -0.28125,0.53125 -0.71875,0.84375 -0.4375,0.29688 -0.90625,0.40625 -0.60937,0.125 -1.79687,0.125 l -1.125,0 0,3.23438 -1.73438,0 z m 1.73438,-7.14063 0,2.4375 0.95312,0 q 1.01563,0 1.35938,-0.125 0.35937,-0.14062 0.54687,-0.42187 0.20313,-0.29688 0.20313,-0.67188 0,-0.46875 -0.28125,-0.76562 -0.28125,-0.3125 -0.70313,-0.39063 -0.29687,-0.0625 -1.23437,-0.0625 l -0.84375,0 z m 5.8789,3.9375 q 0,-0.8125 0.40625,-1.57812 0.40625,-0.78125 1.14063,-1.17188 0.73437,-0.40625 1.65625,-0.40625 1.40625,0 2.3125,0.92188 0.90625,0.90625 0.90625,2.3125 0,1.40625 -0.92188,2.34375 -0.90625,0.92187 -2.28125,0.92187 -0.85937,0 -1.64062,-0.39062 -0.76563,-0.39063 -1.17188,-1.125 -0.40625,-0.75 -0.40625,-1.82813 z m 1.6875,0.0937 q 0,0.92188 0.4375,1.42188 0.4375,0.48437 1.07813,0.48437 0.65625,0 1.07812,-0.48437 0.4375,-0.5 0.4375,-1.4375 0,-0.90625 -0.4375,-1.39063 -0.42187,-0.5 -1.07812,-0.5 -0.64063,0 -1.07813,0.5 -0.4375,0.48438 -0.4375,1.40625 z m 5.43945,1.32813 1.65625,-0.25 q 0.10938,0.48437 0.42188,0.73437 0.32812,0.25 0.90625,0.25 0.64062,0 0.95312,-0.23437 0.21875,-0.17188 0.21875,-0.4375 0,-0.1875 -0.10937,-0.3125 -0.125,-0.125 -0.54688,-0.21875 -2,-0.4375 -2.53125,-0.79688 -0.73437,-0.51562 -0.73437,-1.40625 0,-0.8125 0.625,-1.35937 0.64062,-0.54688 1.98437,-0.54688 1.28125,0 1.90625,0.42188 0.625,0.40625 0.85938,1.21875 l -1.5625,0.28125 q -0.0937,-0.35938 -0.375,-0.54688 -0.28125,-0.20312 -0.79688,-0.20312 -0.64062,0 -0.92187,0.1875 -0.1875,0.125 -0.1875,0.32812 0,0.1875 0.15625,0.3125 0.21875,0.15625 1.53125,0.45313 1.32812,0.29687 1.84375,0.73437 0.51562,0.4375 0.51562,1.21875 0,0.85938 -0.71875,1.48438 -0.70312,0.60937 -2.10937,0.60937 -1.26563,0 -2.01563,-0.51562 -0.73437,-0.51563 -0.96875,-1.40625 z m 7.25196,-5.28125 0,-1.53125 1.65625,0 0,1.53125 -1.65625,0 z m 0,7.0625 0,-6.21875 1.65625,0 0,6.21875 -1.65625,0 z m 6.19336,-6.21875 0,1.3125 -1.125,0 0,2.5 q 0,0.76562 0.0312,0.89062 0.0312,0.125 0.14062,0.21875 0.125,0.0781 0.28125,0.0781 0.23438,0 0.65625,-0.17188 l 0.14063,1.28125 q -0.5625,0.25 -1.29688,0.25 -0.4375,0 -0.79687,-0.14062 -0.35938,-0.15625 -0.53125,-0.39063 -0.15625,-0.25 -0.23438,-0.64062 -0.0469,-0.29688 -0.0469,-1.17188 l 0,-2.70312 -0.75,0 0,-1.3125 0.75,0 0,-1.23438 1.65625,-0.96875 0,2.20313 1.125,0 z m 1.13672,-0.84375 0,-1.53125 1.65625,0 0,1.53125 -1.65625,0 z m 0,7.0625 0,-6.21875 1.65625,0 0,6.21875 -1.65625,0 z m 2.95898,-3.20313 q 0,-0.8125 0.40625,-1.57812 0.40625,-0.78125 1.14062,-1.17188 0.73438,-0.40625 1.65625,-0.40625 1.40625,0 2.3125,0.92188 0.90625,0.90625 0.90625,2.3125 0,1.40625 -0.92187,2.34375 -0.90625,0.92187 -2.28125,0.92187 -0.85938,0 -1.64063,-0.39062 -0.76562,-0.39063 -1.17187,-1.125 -0.40625,-0.75 -0.40625,-1.82813 z m 1.6875,0.0937 q 0,0.92188 0.4375,1.42188 0.4375,0.48437 1.07812,0.48437 0.65625,0 1.07813,-0.48437 0.4375,-0.5 0.4375,-1.4375 0,-0.90625 -0.4375,-1.39063 -0.42188,-0.5 -1.07813,-0.5 -0.64062,0 -1.07812,0.5 -0.4375,0.48438 -0.4375,1.40625 z m 11.67383,3.10938 -1.64063,0 0,-3.17188 q 0,-1.01562 -0.10937,-1.3125 -0.0937,-0.29687 -0.34375,-0.45312 -0.23438,-0.17188 -0.5625,-0.17188 -0.4375,0 -0.78125,0.23438 -0.32813,0.23437 -0.45313,0.625 -0.125,0.39062 -0.125,1.4375 l 0,2.8125 -1.65625,0 0,-6.21875 1.53125,0 0,0.90625 q 0.8125,-1.04688 2.0625,-1.04688 0.53125,0 0.98438,0.20313 0.45312,0.1875 0.6875,0.5 0.23437,0.29687 0.3125,0.6875 0.0937,0.375 0.0937,1.09375 l 0,3.875 z m 5.00781,-7.0625 0,-1.53125 1.65625,0 0,1.53125 -1.65625,0 z m 0,7.0625 0,-6.21875 1.65625,0 0,6.21875 -1.65625,0 z m 8.99023,0 -1.64062,0 0,-3.17188 q 0,-1.01562 -0.10938,-1.3125 -0.0937,-0.29687 -0.34375,-0.45312 -0.23437,-0.17188 -0.5625,-0.17188 -0.4375,0 -0.78125,0.23438 -0.32812,0.23437 -0.45312,0.625 -0.125,0.39062 -0.125,1.4375 l 0,2.8125 -1.65625,0 0,-6.21875 1.53125,0 0,0.90625 q 0.8125,-1.04688 2.0625,-1.04688 0.53125,0 0.98437,0.20313 0.45313,0.1875 0.6875,0.5 0.23438,0.29687 0.3125,0.6875 0.0937,0.375 0.0937,1.09375 l 0,3.875 z m 5.02344,-8.59375 3.15625,0 q 1.07813,0 1.64063,0.17187 0.75,0.21875 1.28125,0.79688 0.54687,0.5625 0.82812,1.39062 0.28125,0.8125 0.28125,2.01563 0,1.0625 -0.25,1.82812 -0.32812,0.9375 -0.92187,1.51563 -0.45313,0.45312 -1.21875,0.6875 -0.57813,0.1875 -1.54688,0.1875 l -3.25,0 0,-8.59375 z m 1.73438,1.45312 0,5.6875 1.28125,0 q 0.73437,0 1.0625,-0.0781 0.42187,-0.10938 0.6875,-0.35938 0.28125,-0.25 0.45312,-0.82812 0.1875,-0.57813 0.1875,-1.57813 0,-0.98437 -0.1875,-1.51562 -0.17187,-0.54688 -0.48437,-0.84375 -0.3125,-0.29688 -0.79688,-0.40625 -0.375,-0.0781 -1.4375,-0.0781 l -0.76562,0 z m 8.15039,2.8125 -1.5,-0.26562 q 0.25,-0.90625 0.85937,-1.32813 0.625,-0.4375 1.84375,-0.4375 1.09375,0 1.625,0.26563 0.54688,0.25 0.76563,0.65625 0.21875,0.39062 0.21875,1.46875 l -0.0156,1.92187 q 0,0.82813 0.0781,1.21875 0.0781,0.375 0.29687,0.82813 l -1.625,0 q -0.0625,-0.17188 -0.15625,-0.48438 -0.0469,-0.15625 -0.0625,-0.20312 -0.42187,0.42187 -0.90625,0.625 -0.46875,0.20312 -1.01562,0.20312 -0.96875,0 -1.53125,-0.51562 -0.54688,-0.53125 -0.54688,-1.32813 0,-0.53125 0.25,-0.9375 0.26563,-0.40625 0.71875,-0.625 0.45313,-0.23437 1.3125,-0.39062 1.14063,-0.21875 1.59375,-0.40625 l 0,-0.15625 q 0,-0.48438 -0.23437,-0.6875 -0.23438,-0.20313 -0.89063,-0.20313 -0.4375,0 -0.6875,0.17188 -0.23437,0.17187 -0.39062,0.60937 z m 2.20312,1.34375 q -0.3125,0.0937 -1,0.25 -0.6875,0.14063 -0.90625,0.28125 -0.3125,0.23438 -0.3125,0.57813 0,0.34375 0.25,0.60937 0.26563,0.25 0.65625,0.25 0.45313,0 0.85938,-0.29687 0.29687,-0.21875 0.39062,-0.54688 0.0625,-0.20312 0.0625,-0.79687 l 0,-0.32813 z m 6.09571,-3.23437 0,1.3125 -1.125,0 0,2.5 q 0,0.76562 0.0312,0.89062 0.0312,0.125 0.14062,0.21875 0.125,0.0781 0.28125,0.0781 0.23438,0 0.65625,-0.17188 l 0.14063,1.28125 q -0.5625,0.25 -1.29688,0.25 -0.4375,0 -0.79687,-0.14062 -0.35938,-0.15625 -0.53125,-0.39063 -0.15625,-0.25 -0.23438,-0.64062 -0.0469,-0.29688 -0.0469,-1.17188 l 0,-2.70312 -0.75,0 0,-1.3125 0.75,0 0,-1.23438 1.65625,-0.96875 0,2.20313 1.125,0 z m 2.37109,1.89062 -1.5,-0.26562 q 0.25,-0.90625 0.85937,-1.32813 0.625,-0.4375 1.84375,-0.4375 1.09375,0 1.625,0.26563 0.54688,0.25 0.76563,0.65625 0.21875,0.39062 0.21875,1.46875 l -0.0156,1.92187 q 0,0.82813 0.0781,1.21875 0.0781,0.375 0.29687,0.82813 l -1.625,0 q -0.0625,-0.17188 -0.15625,-0.48438 -0.0469,-0.15625 -0.0625,-0.20312 -0.42187,0.42187 -0.90625,0.625 -0.46875,0.20312 -1.01562,0.20312 -0.96875,0 -1.53125,-0.51562 -0.54688,-0.53125 -0.54688,-1.32813 0,-0.53125 0.25,-0.9375 0.26563,-0.40625 0.71875,-0.625 0.45313,-0.23437 1.3125,-0.39062 1.14063,-0.21875 1.59375,-0.40625 l 0,-0.15625 q 0,-0.48438 -0.23437,-0.6875 -0.23438,-0.20313 -0.89063,-0.20313 -0.4375,0 -0.6875,0.17188 -0.23437,0.17187 -0.39062,0.60937 z m 2.20312,1.34375 q -0.3125,0.0937 -1,0.25 -0.6875,0.14063 -0.90625,0.28125 -0.3125,0.23438 -0.3125,0.57813 0,0.34375 0.25,0.60937 0.26563,0.25 0.65625,0.25 0.45313,0 0.85938,-0.29687 0.29687,-0.21875 0.39062,-0.54688 0.0625,-0.20312 0.0625,-0.79687 l 0,-0.32813 z m 6.14844,0.1875 1.6875,-0.15625 q 0.15625,0.84375 0.60938,1.25 0.46875,0.39063 1.26562,0.39063 0.82813,0 1.25,-0.34375 0.4375,-0.35938 0.4375,-0.84375 0,-0.29688 -0.1875,-0.51563 -0.17187,-0.21875 -0.625,-0.375 -0.29687,-0.10937 -1.375,-0.375 -1.40625,-0.34375 -1.96875,-0.84375 -0.78125,-0.71875 -0.78125,-1.73437 0,-0.65625 0.35938,-1.21875 0.375,-0.57813 1.07812,-0.875 0.70313,-0.29688 1.6875,-0.29688 1.625,0 2.4375,0.71875 0.8125,0.70313 0.85938,1.875 l -1.73438,0.0781 q -0.10937,-0.65625 -0.48437,-0.9375 -0.35938,-0.29688 -1.09375,-0.29688 -0.75,0 -1.1875,0.3125 -0.26563,0.1875 -0.26563,0.53125 0,0.29688 0.25,0.51563 0.32813,0.28125 1.59375,0.57812 1.26563,0.29688 1.875,0.625 0.60938,0.3125 0.95313,0.875 0.34375,0.54688 0.34375,1.35938 0,0.73437 -0.42188,1.39062 -0.40625,0.64063 -1.15625,0.95313 -0.75,0.3125 -1.85937,0.3125 -1.64063,0 -2.51563,-0.75 -0.85937,-0.76563 -1.03125,-2.20313 z m 11.28516,-3.42187 0,1.3125 -1.125,0 0,2.5 q 0,0.76562 0.0312,0.89062 0.0312,0.125 0.14062,0.21875 0.125,0.0781 0.28125,0.0781 0.23438,0 0.65625,-0.17188 l 0.14063,1.28125 q -0.5625,0.25 -1.29688,0.25 -0.4375,0 -0.79687,-0.14062 -0.35938,-0.15625 -0.53125,-0.39063 -0.15625,-0.25 -0.23438,-0.64062 -0.0469,-0.29688 -0.0469,-1.17188 l 0,-2.70312 -0.75,0 0,-1.3125 0.75,0 0,-1.23438 1.65625,-0.96875 0,2.20313 1.125,0 z m 2.71484,6.21875 -1.64062,0 0,-6.21875 1.53125,0 0,0.875 q 0.39062,-0.625 0.70312,-0.8125 0.3125,-0.20313 0.70313,-0.20313 0.5625,0 1.09375,0.3125 l -0.51563,1.42188 q -0.42187,-0.26563 -0.76562,-0.26563 -0.35938,0 -0.59375,0.20313 -0.23438,0.1875 -0.375,0.6875 -0.14063,0.48437 -0.14063,2.07812 l 0,1.92188 z m 6.70117,-1.98438 1.64063,0.28125 q -0.3125,0.90625 -1,1.375 -0.6875,0.46875 -1.70313,0.46875 -1.625,0 -2.40625,-1.0625 -0.625,-0.84375 -0.625,-2.14062 0,-1.54688 0.8125,-2.42188 0.8125,-0.875 2.04688,-0.875 1.39062,0 2.1875,0.92188 0.8125,0.90625 0.76562,2.79687 l -4.125,0 q 0.0312,0.73438 0.40625,1.14063 0.375,0.40625 0.95313,0.40625 0.375,0 0.64062,-0.20313 0.26563,-0.21875 0.40625,-0.6875 z m 0.0937,-1.65625 q -0.0156,-0.71875 -0.375,-1.09375 -0.34375,-0.375 -0.85937,-0.375 -0.53125,0 -0.89063,0.39063 -0.34375,0.40625 -0.34375,1.07812 l 2.46875,0 z m 4.20508,-0.6875 -1.5,-0.26562 q 0.25,-0.90625 0.85938,-1.32813 0.625,-0.4375 1.84375,-0.4375 1.09375,0 1.625,0.26563 0.54687,0.25 0.76562,0.65625 0.21875,0.39062 0.21875,1.46875 l -0.0156,1.92187 q 0,0.82813 0.0781,1.21875 0.0781,0.375 0.29688,0.82813 l -1.625,0 q -0.0625,-0.17188 -0.15625,-0.48438 -0.0469,-0.15625 -0.0625,-0.20312 -0.42188,0.42187 -0.90625,0.625 -0.46875,0.20312 -1.01563,0.20312 -0.96875,0 -1.53125,-0.51562 -0.54687,-0.53125 -0.54687,-1.32813 0,-0.53125 0.25,-0.9375 0.26562,-0.40625 0.71875,-0.625 0.45312,-0.23437 1.3125,-0.39062 1.14062,-0.21875 1.59375,-0.40625 l 0,-0.15625 q 0,-0.48438 -0.23438,-0.6875 -0.23437,-0.20313 -0.89062,-0.20313 -0.4375,0 -0.6875,0.17188 -0.23438,0.17187 -0.39063,0.60937 z m 2.20313,1.34375 q -0.3125,0.0937 -1,0.25 -0.6875,0.14063 -0.90625,0.28125 -0.3125,0.23438 -0.3125,0.57813 0,0.34375 0.25,0.60937 0.26562,0.25 0.65625,0.25 0.45312,0 0.85937,-0.29687 0.29688,-0.21875 0.39063,-0.54688 0.0625,-0.20312 0.0625,-0.79687 l 0,-0.32813 z m 3.11133,-3.23437 1.51562,0 0,0.84375 q 0.82813,-0.98438 1.95313,-0.98438 0.59375,0 1.03125,0.25 0.4375,0.23438 0.71875,0.73438 0.40625,-0.5 0.875,-0.73438 0.48437,-0.25 1.03125,-0.25 0.67187,0 1.14062,0.28125 0.48438,0.26563 0.71875,0.8125 0.17188,0.39063 0.17188,1.28125 l 0,3.98438 -1.64063,0 0,-3.5625 q 0,-0.92188 -0.17187,-1.1875 -0.23438,-0.35938 -0.70313,-0.35938 -0.34375,0 -0.65625,0.21875 -0.29687,0.20313 -0.4375,0.60938 -0.14062,0.40625 -0.14062,1.29687 l 0,2.98438 -1.64063,0 0,-3.40625 q 0,-0.90625 -0.0937,-1.17188 -0.0781,-0.26562 -0.26562,-0.39062 -0.1875,-0.14063 -0.5,-0.14063 -0.375,0 -0.6875,0.21875 -0.29688,0.20313 -0.4375,0.59375 -0.125,0.375 -0.125,1.26563 l 0,3.03125 -1.65625,0 0,-6.21875 z"
       id="path65"
       inkscape:connector-curvature="0"
       style="fill:#000000;fill-rule:nonzero" />
    <path
       d="m 80,96 40,0 0,40 -40,0 z"
       id="path67"
       inkscape:connector-curvature="0"
       style="fill:#000000;fill-opacity:0;fill-rule:nonzero" />
    <path
       d="m 80,96 40,0 0,40 -40,0 z"
       id="path69"
       inkscape:connector-curvature="0"
       style="stroke:#000000;stroke-width:1;stroke-linecap:butt;stroke-linejoin:round" />
    <path
       d="m 92.54004,120.52 0,-8.59375 2.78125,0 q 1.578125,0 2.0625,0.125 0.734375,0.20313 1.234375,0.85938 0.5,0.64062 0.5,1.65625 0,0.79687 -0.296875,1.34375 -0.28125,0.53125 -0.71875,0.84375 -0.4375,0.29687 -0.90625,0.40625 -0.609375,0.125 -1.796875,0.125 l -1.125,0 0,3.23437 -1.734375,0 z m 1.734375,-7.14062 0,2.4375 0.953125,0 q 1.015625,0 1.359375,-0.125 0.359375,-0.14063 0.546875,-0.42188 0.203125,-0.29687 0.203125,-0.67187 0,-0.46875 -0.28125,-0.76563 -0.28125,-0.3125 -0.703125,-0.39062 -0.296875,-0.0625 -1.234375,-0.0625 l -0.84375,0 z m 6.269535,7.14062 0,-8.59375 1.73437,0 0,3.39063 3.40625,0 0,-3.39063 1.73438,0 0,8.59375 -1.73438,0 0,-3.75 -3.40625,0 0,3.75 -1.73437,0 z"
       id="path71"
       inkscape:connector-curvature="0"
       style="fill:#000000;fill-rule:nonzero" />
    <path
       d="m 320,96 40,0 0,40 -40,0 z"
       id="path73"
       inkscape:connector-curvature="0"
       style="fill:#b7b7b7;fill-rule:nonzero" />
    <path
       d="m 320,96 40,0 0,40 -40,0 z"
       id="path75"
       inkscape:connector-curvature="0"
       style="stroke:#000000;stroke-width:1;stroke-linecap:butt;stroke-linejoin:round" />
    <path
       d="m 335.78613,120.52 0,-3.60937 -3.14062,-4.98438 2.03125,0 2.01562,3.40625 1.98438,-3.40625 2,0 -3.15625,4.98438 0,3.60937 -1.73438,0 z m 5.33203,-2.28125 1.59375,-0.1875 q 0.0781,0.60938 0.40625,0.9375 0.34375,0.3125 0.8125,0.3125 0.51563,0 0.85938,-0.39062 0.34375,-0.39063 0.34375,-1.04688 0,-0.60937 -0.34375,-0.96875 -0.32813,-0.375 -0.79688,-0.375 -0.32812,0 -0.76562,0.125 l 0.1875,-1.34375 q 0.67187,0.0156 1.01562,-0.28125 0.35938,-0.3125 0.35938,-0.82812 0,-0.42188 -0.26563,-0.67188 -0.25,-0.26562 -0.6875,-0.26562 -0.42187,0 -0.71875,0.29687 -0.29687,0.28125 -0.35937,0.84375 l -1.51563,-0.25 q 0.15625,-0.78125 0.46875,-1.25 0.32813,-0.46875 0.89063,-0.73437 0.57812,-0.26563 1.28125,-0.26563 1.21875,0 1.95312,0.76563 0.59375,0.64062 0.59375,1.4375 0,1.125 -1.23437,1.79687 0.75,0.17188 1.1875,0.71875 0.4375,0.54688 0.4375,1.32813 0,1.125 -0.82813,1.92187 -0.82812,0.79688 -2.04687,0.79688 -1.17188,0 -1.9375,-0.67188 -0.76563,-0.67187 -0.89063,-1.75 z"
       id="path77"
       inkscape:connector-curvature="0"
       style="fill:#000000;fill-rule:nonzero" />
    <path
       d="m 440,96 80,0"
       id="path79"
       inkscape:connector-curvature="0"
       style="fill:#000000;fill-opacity:0;fill-rule:nonzero" />
    <path
       d="m 440,96 80,0"
       id="path81"
       inkscape:connector-curvature="0"
       style="stroke:#000000;stroke-width:1;stroke-linecap:butt;stroke-linejoin:round" />
    <path
       d="m 460,96 0,0"
       id="path83"
       inkscape:connector-curvature="0"
       style="fill:#000000;fill-opacity:0;fill-rule:nonzero" />
    <path
       d="m 460,96 0,0"
       id="path85"
       inkscape:connector-curvature="0"
       style="stroke:#000000;stroke-width:1;stroke-linecap:butt;stroke-linejoin:round" />
    <path
       d="m 440,136 80,0"
       id="path87"
       inkscape:connector-curvature="0"
       style="fill:#000000;fill-opacity:0;fill-rule:nonzero" />
    <path
       d="m 440,136 80,0"
       id="path89"
       inkscape:connector-curvature="0"
       style="stroke:#000000;stroke-width:1;stroke-linecap:butt;stroke-linejoin:round" />
    <path
       d="m 280,152 40,0 0,40 -40,0 z"
       id="path91"
       inkscape:connector-curvature="0"
       style="fill:#ff0000;fill-rule:nonzero" />
    <path
       d="m 280,152 40,0 0,40 -40,0 z"
       id="path93"
       inkscape:connector-curvature="0"
       style="stroke:#000000;stroke-width:1;stroke-linecap:butt;stroke-linejoin:round" />
    <path
       d="m 299.06055,169.52 -3.0625,-8.59375 1.875,0 2.17187,6.35937 2.10938,-6.35937 1.84375,0 -3.07813,8.59375 -1.85937,0 z"
       id="path95"
       inkscape:connector-curvature="0"
       style="fill:#000000;fill-rule:nonzero" />
    <path
       d="m 297.51562,183.52 -1.64062,0 0,-3.17188 q 0,-1.01562 -0.10938,-1.3125 -0.0937,-0.29687 -0.34375,-0.45312 -0.23437,-0.17188 -0.5625,-0.17188 -0.4375,0 -0.78125,0.23438 -0.32812,0.23437 -0.45312,0.625 -0.125,0.39062 -0.125,1.4375 l 0,2.8125 -1.65625,0 0,-6.21875 1.53125,0 0,0.90625 q 0.8125,-1.04688 2.0625,-1.04688 0.53125,0 0.98437,0.20313 0.45313,0.1875 0.6875,0.5 0.23438,0.29687 0.3125,0.6875 0.0937,0.375 0.0937,1.09375 l 0,3.875 z m 1.48633,-2.29688 0,-1.64062 3.23437,0 0,1.64062 -3.23437,0 z m 3.77734,0.0156 1.59375,-0.1875 q 0.0781,0.60937 0.40625,0.9375 0.34375,0.3125 0.8125,0.3125 0.51563,0 0.85938,-0.39063 0.34375,-0.39062 0.34375,-1.04687 0,-0.60938 -0.34375,-0.96875 -0.32813,-0.375 -0.79688,-0.375 -0.32812,0 -0.76562,0.125 l 0.1875,-1.34375 q 0.67187,0.0156 1.01562,-0.28125 0.35938,-0.3125 0.35938,-0.82813 0,-0.42187 -0.26563,-0.67187 -0.25,-0.26563 -0.6875,-0.26563 -0.42187,0 -0.71875,0.29688 -0.29687,0.28125 -0.35937,0.84375 l -1.51563,-0.25 q 0.15625,-0.78125 0.46875,-1.25 0.32813,-0.46875 0.89063,-0.73438 0.57812,-0.26562 1.28125,-0.26562 1.21875,0 1.95312,0.76562 0.59375,0.64063 0.59375,1.4375 0,1.125 -1.23437,1.79688 0.75,0.17187 1.1875,0.71875 0.4375,0.54687 0.4375,1.32812 0,1.125 -0.82813,1.92188 -0.82812,0.79687 -2.04687,0.79687 -1.17188,0 -1.9375,-0.67187 -0.76563,-0.67188 -0.89063,-1.75 z"
       id="path97"
       inkscape:connector-curvature="0"
       style="fill:#000000;fill-rule:nonzero" />
    <path
       d="m 240,152 40,0 0,40 -40,0 z"
       id="path99"
       inkscape:connector-curvature="0"
       style="fill:#b7b7b7;fill-rule:nonzero" />
    <path
       d="m 240,152 40,0 0,40 -40,0 z"
       id="path101"
       inkscape:connector-curvature="0"
       style="stroke:#000000;stroke-width:1;stroke-linecap:butt;stroke-linejoin:round" />
    <path
       d="m 259.12305,169.52 0,-3.60938 -3.14063,-4.98437 2.03125,0 2.01563,3.40625 1.98437,-3.40625 2,0 -3.15625,4.98437 0,3.60938 -1.73437,0 z"
       id="path103"
       inkscape:connector-curvature="0"
       style="fill:#000000;fill-rule:nonzero" />
    <path
       d="m 257.51562,183.52 -1.64062,0 0,-3.17188 q 0,-1.01562 -0.10938,-1.3125 -0.0937,-0.29687 -0.34375,-0.45312 -0.23437,-0.17188 -0.5625,-0.17188 -0.4375,0 -0.78125,0.23438 -0.32812,0.23437 -0.45312,0.625 -0.125,0.39062 -0.125,1.4375 l 0,2.8125 -1.65625,0 0,-6.21875 1.53125,0 0,0.90625 q 0.8125,-1.04688 2.0625,-1.04688 0.53125,0 0.98437,0.20313 0.45313,0.1875 0.6875,0.5 0.23438,0.29687 0.3125,0.6875 0.0937,0.375 0.0937,1.09375 l 0,3.875 z m 1.48633,-2.29688 0,-1.64062 3.23437,0 0,1.64062 -3.23437,0 z m 3.77734,0.0156 1.59375,-0.1875 q 0.0781,0.60937 0.40625,0.9375 0.34375,0.3125 0.8125,0.3125 0.51563,0 0.85938,-0.39063 0.34375,-0.39062 0.34375,-1.04687 0,-0.60938 -0.34375,-0.96875 -0.32813,-0.375 -0.79688,-0.375 -0.32812,0 -0.76562,0.125 l 0.1875,-1.34375 q 0.67187,0.0156 1.01562,-0.28125 0.35938,-0.3125 0.35938,-0.82813 0,-0.42187 -0.26563,-0.67187 -0.25,-0.26563 -0.6875,-0.26563 -0.42187,0 -0.71875,0.29688 -0.29687,0.28125 -0.35937,0.84375 l -1.51563,-0.25 q 0.15625,-0.78125 0.46875,-1.25 0.32813,-0.46875 0.89063,-0.73438 0.57812,-0.26562 1.28125,-0.26562 1.21875,0 1.95312,0.76562 0.59375,0.64063 0.59375,1.4375 0,1.125 -1.23437,1.79688 0.75,0.17187 1.1875,0.71875 0.4375,0.54687 0.4375,1.32812 0,1.125 -0.82813,1.92188 -0.82812,0.79687 -2.04687,0.79687 -1.17188,0 -1.9375,-0.67187 -0.76563,-0.67188 -0.89063,-1.75 z"
       id="path105"
       inkscape:connector-curvature="0"
       style="fill:#000000;fill-rule:nonzero" />
    <path
       d="m 200,152 40,0 0,40 -40,0 z"
       id="path107"
       inkscape:connector-curvature="0"
       style="fill:#0000ff;fill-rule:nonzero" />
    <path
       d="m 200,152 40,0 0,40 -40,0 z"
       id="path109"
       inkscape:connector-curvature="0"
       style="stroke:#000000;stroke-width:1;stroke-linecap:butt;stroke-linejoin:round" />
    <path
       d="m 216.52637,160.92625 1.73437,0 0,4.65625 q 0,1.10937 0.0625,1.4375 0.10938,0.53125 0.53125,0.84375 0.42188,0.3125 1.15625,0.3125 0.73438,0 1.10938,-0.29688 0.375,-0.29687 0.45312,-0.73437 0.0781,-0.4375 0.0781,-1.46875 l 0,-4.75 1.73437,0 0,4.51562 q 0,1.54688 -0.14062,2.1875 -0.14063,0.64063 -0.53125,1.07813 -0.375,0.4375 -1.01563,0.70312 -0.625,0.25 -1.64062,0.25 -1.23438,0 -1.875,-0.28125 -0.625,-0.28125 -1,-0.73437 -0.35938,-0.45313 -0.48438,-0.95313 -0.17187,-0.73437 -0.17187,-2.1875 l 0,-4.57812 z"
       id="path111"
       inkscape:connector-curvature="0"
       style="fill:#000000;fill-rule:nonzero" />
    <path
       d="m 217.51562,183.52 -1.64062,0 0,-3.17188 q 0,-1.01562 -0.10938,-1.3125 -0.0937,-0.29687 -0.34375,-0.45312 -0.23437,-0.17188 -0.5625,-0.17188 -0.4375,0 -0.78125,0.23438 -0.32812,0.23437 -0.45312,0.625 -0.125,0.39062 -0.125,1.4375 l 0,2.8125 -1.65625,0 0,-6.21875 1.53125,0 0,0.90625 q 0.8125,-1.04688 2.0625,-1.04688 0.53125,0 0.98437,0.20313 0.45313,0.1875 0.6875,0.5 0.23438,0.29687 0.3125,0.6875 0.0937,0.375 0.0937,1.09375 l 0,3.875 z m 1.48633,-2.29688 0,-1.64062 3.23437,0 0,1.64062 -3.23437,0 z m 3.77734,0.0156 1.59375,-0.1875 q 0.0781,0.60937 0.40625,0.9375 0.34375,0.3125 0.8125,0.3125 0.51563,0 0.85938,-0.39063 0.34375,-0.39062 0.34375,-1.04687 0,-0.60938 -0.34375,-0.96875 -0.32813,-0.375 -0.79688,-0.375 -0.32812,0 -0.76562,0.125 l 0.1875,-1.34375 q 0.67187,0.0156 1.01562,-0.28125 0.35938,-0.3125 0.35938,-0.82813 0,-0.42187 -0.26563,-0.67187 -0.25,-0.26563 -0.6875,-0.26563 -0.42187,0 -0.71875,0.29688 -0.29687,0.28125 -0.35937,0.84375 l -1.51563,-0.25 q 0.15625,-0.78125 0.46875,-1.25 0.32813,-0.46875 0.89063,-0.73438 0.57812,-0.26562 1.28125,-0.26562 1.21875,0 1.95312,0.76562 0.59375,0.64063 0.59375,1.4375 0,1.125 -1.23437,1.79688 0.75,0.17187 1.1875,0.71875 0.4375,0.54687 0.4375,1.32812 0,1.125 -0.82813,1.92188 -0.82812,0.79687 -2.04687,0.79687 -1.17188,0 -1.9375,-0.67187 -0.76563,-0.67188 -0.89063,-1.75 z"
       id="path113"
       inkscape:connector-curvature="0"
       style="fill:#000000;fill-rule:nonzero" />
    <path
       d="m 320,152 40,0 0,40 -40,0 z"
       id="path115"
       inkscape:connector-curvature="0"
       style="fill:#b7b7b7;fill-rule:nonzero" />
    <path
       d="m 320,152 40,0 0,40 -40,0 z"
       id="path117"
       inkscape:connector-curvature="0"
       style="stroke:#000000;stroke-width:1;stroke-linecap:butt;stroke-linejoin:round" />
    <path
       d="m 339.12305,169.52 0,-3.60938 -3.14063,-4.98437 2.03125,0 2.01563,3.40625 1.98437,-3.40625 2,0 -3.15625,4.98437 0,3.60938 -1.73437,0 z"
       id="path119"
       inkscape:connector-curvature="0"
       style="fill:#000000;fill-rule:nonzero" />
    <path
       d="m 337.51562,183.52 -1.64062,0 0,-3.17188 q 0,-1.01562 -0.10938,-1.3125 -0.0937,-0.29687 -0.34375,-0.45312 -0.23437,-0.17188 -0.5625,-0.17188 -0.4375,0 -0.78125,0.23438 -0.32812,0.23437 -0.45312,0.625 -0.125,0.39062 -0.125,1.4375 l 0,2.8125 -1.65625,0 0,-6.21875 1.53125,0 0,0.90625 q 0.8125,-1.04688 2.0625,-1.04688 0.53125,0 0.98437,0.20313 0.45313,0.1875 0.6875,0.5 0.23438,0.29687 0.3125,0.6875 0.0937,0.375 0.0937,1.09375 l 0,3.875 z m 1.48633,-2.29688 0,-1.64062 3.23437,0 0,1.64062 -3.23437,0 z m 9.40234,0.76563 0,1.53125 -5.78125,0 q 0.0937,-0.875 0.5625,-1.64063 0.46875,-0.78125 1.85938,-2.0625 1.10937,-1.03125 1.35937,-1.40625 0.34375,-0.51562 0.34375,-1.01562 0,-0.54688 -0.29687,-0.84375 -0.29688,-0.29688 -0.8125,-0.29688 -0.51563,0 -0.82813,0.3125 -0.29687,0.3125 -0.34375,1.03125 l -1.64062,-0.15625 q 0.14062,-1.35937 0.90625,-1.95312 0.78125,-0.59375 1.9375,-0.59375 1.28125,0 2,0.6875 0.73437,0.6875 0.73437,1.70312 0,0.57813 -0.21875,1.10938 -0.20312,0.51562 -0.65625,1.09375 -0.29687,0.375 -1.07812,1.09375 -0.78125,0.71875 -0.98438,0.95312 -0.20312,0.23438 -0.34375,0.45313 l 3.28125,0 z"
       id="path121"
       inkscape:connector-curvature="0"
       style="fill:#000000;fill-rule:nonzero" />
    <path
       d="m 360,152 40,0 0,40 -40,0 z"
       id="path123"
       inkscape:connector-curvature="0"
       style="fill:#0000ff;fill-rule:nonzero" />
    <path
       d="m 360,152 40,0 0,40 -40,0 z"
       id="path125"
       inkscape:connector-curvature="0"
       style="stroke:#000000;stroke-width:1;stroke-linecap:butt;stroke-linejoin:round" />
    <path
       d="m 376.52637,160.92625 1.73437,0 0,4.65625 q 0,1.10937 0.0625,1.4375 0.10938,0.53125 0.53125,0.84375 0.42188,0.3125 1.15625,0.3125 0.73438,0 1.10938,-0.29688 0.375,-0.29687 0.45312,-0.73437 0.0781,-0.4375 0.0781,-1.46875 l 0,-4.75 1.73437,0 0,4.51562 q 0,1.54688 -0.14062,2.1875 -0.14063,0.64063 -0.53125,1.07813 -0.375,0.4375 -1.01563,0.70312 -0.625,0.25 -1.64062,0.25 -1.23438,0 -1.875,-0.28125 -0.625,-0.28125 -1,-0.73437 -0.35938,-0.45313 -0.48438,-0.95313 -0.17187,-0.73437 -0.17187,-2.1875 l 0,-4.57812 z"
       id="path127"
       inkscape:connector-curvature="0"
       style="fill:#000000;fill-rule:nonzero" />
    <path
       d="m 377.51562,183.52 -1.64062,0 0,-3.17188 q 0,-1.01562 -0.10938,-1.3125 -0.0937,-0.29687 -0.34375,-0.45312 -0.23437,-0.17188 -0.5625,-0.17188 -0.4375,0 -0.78125,0.23438 -0.32812,0.23437 -0.45312,0.625 -0.125,0.39062 -0.125,1.4375 l 0,2.8125 -1.65625,0 0,-6.21875 1.53125,0 0,0.90625 q 0.8125,-1.04688 2.0625,-1.04688 0.53125,0 0.98437,0.20313 0.45313,0.1875 0.6875,0.5 0.23438,0.29687 0.3125,0.6875 0.0937,0.375 0.0937,1.09375 l 0,3.875 z m 1.48633,-2.29688 0,-1.64062 3.23437,0 0,1.64062 -3.23437,0 z m 8.04297,2.29688 -1.64063,0 0,-6.20313 q -0.90625,0.84375 -2.125,1.25 l 0,-1.5 q 0.64063,-0.20312 1.39063,-0.79687 0.76562,-0.59375 1.04687,-1.375 l 1.32813,0 0,8.625 z"
       id="path129"
       inkscape:connector-curvature="0"
       style="fill:#000000;fill-rule:nonzero" />
    <path
       d="m 440,152 40,0 0,40 -40,0 z"
       id="path131"
       inkscape:connector-curvature="0"
       style="fill:#ff0000;fill-rule:nonzero" />
    <path
       d="m 440,152 40,0 0,40 -40,0 z"
       id="path133"
       inkscape:connector-curvature="0"
       style="stroke:#000000;stroke-width:1;stroke-linecap:butt;stroke-linejoin:round" />
    <path
       d="m 459.06055,169.52 -3.0625,-8.59375 1.875,0 2.17187,6.35937 2.10938,-6.35937 1.84375,0 -3.07813,8.59375 -1.85937,0 z"
       id="path135"
       inkscape:connector-curvature="0"
       style="fill:#000000;fill-rule:nonzero" />
    <path
       d="m 457.51562,183.52 -1.64062,0 0,-3.17188 q 0,-1.01562 -0.10938,-1.3125 -0.0937,-0.29687 -0.34375,-0.45312 -0.23437,-0.17188 -0.5625,-0.17188 -0.4375,0 -0.78125,0.23438 -0.32812,0.23437 -0.45312,0.625 -0.125,0.39062 -0.125,1.4375 l 0,2.8125 -1.65625,0 0,-6.21875 1.53125,0 0,0.90625 q 0.8125,-1.04688 2.0625,-1.04688 0.53125,0 0.98437,0.20313 0.45313,0.1875 0.6875,0.5 0.23438,0.29687 0.3125,0.6875 0.0937,0.375 0.0937,1.09375 l 0,3.875 z m 1.48633,-2.29688 0,-1.64062 3.23437,0 0,1.64062 -3.23437,0 z m 8.04297,2.29688 -1.64063,0 0,-6.20313 q -0.90625,0.84375 -2.125,1.25 l 0,-1.5 q 0.64063,-0.20312 1.39063,-0.79687 0.76562,-0.59375 1.04687,-1.375 l 1.32813,0 0,8.625 z"
       id="path137"
       inkscape:connector-curvature="0"
       style="fill:#000000;fill-rule:nonzero" />
    <path
       d="m 480,152 40,0 0,40 -40,0 z"
       id="path139"
       inkscape:connector-curvature="0"
       style="fill:#b7b7b7;fill-rule:nonzero" />
    <path
       d="m 480,152 40,0 0,40 -40,0 z"
       id="path141"
       inkscape:connector-curvature="0"
       style="stroke:#000000;stroke-width:1;stroke-linecap:butt;stroke-linejoin:round" />
    <path
       d="m 499.12305,169.52 0,-3.60938 -3.14063,-4.98437 2.03125,0 2.01563,3.40625 1.98437,-3.40625 2,0 -3.15625,4.98437 0,3.60938 -1.73437,0 z"
       id="path143"
       inkscape:connector-curvature="0"
       style="fill:#000000;fill-rule:nonzero" />
    <path
       d="m 502.8506,183.52 -1.64063,0 0,-3.17188 q 0,-1.01562 -0.10937,-1.3125 -0.0937,-0.29687 -0.34375,-0.45312 -0.23438,-0.17188 -0.5625,-0.17188 -0.4375,0 -0.78125,0.23438 -0.32813,0.23437 -0.45313,0.625 -0.125,0.39062 -0.125,1.4375 l 0,2.8125 -1.65625,0 0,-6.21875 1.53125,0 0,0.90625 q 0.8125,-1.04688 2.0625,-1.04688 0.53125,0 0.98438,0.20313 0.45312,0.1875 0.6875,0.5 0.23437,0.29687 0.3125,0.6875 0.0937,0.375 0.0937,1.09375 l 0,3.875 z"
       id="path145"
       inkscape:connector-curvature="0"
       style="fill:#000000;fill-rule:nonzero" />
    <path
       d="m 160,152 40,0 0,40 -40,0 z"
       id="path147"
       inkscape:connector-curvature="0"
       style="fill:#000000;fill-opacity:0;fill-rule:nonzero" />
    <path
       d="m 175.8584,172.52 0,-1.64063 1.65625,0 0,1.64063 -1.65625,0 z m 3.33398,0 0,-1.64063 1.65625,0 0,1.64063 -1.65625,0 z m 3.33399,0 0,-1.64063 1.65625,0 0,1.64063 -1.65625,0 z"
       id="path149"
       inkscape:connector-curvature="0"
       style="fill:#000000;fill-rule:nonzero" />
    <path
       d="m 520,152 40,0 0,40 -40,0 z"
       id="path151"
       inkscape:connector-curvature="0"
       style="fill:#000000;fill-opacity:0;fill-rule:nonzero" />
    <path
       d="m 520,152 40,0 0,40 -40,0 z"
       id="path153"
       inkscape:connector-curvature="0"
       style="stroke:#000000;stroke-width:1;stroke-linecap:butt;stroke-linejoin:round" />
    <path
       d="m 533.208,176.52 0,-8.59375 2.78125,0 q 1.57812,0 2.0625,0.125 0.73437,0.20312 1.23437,0.85937 0.5,0.64063 0.5,1.65625 0,0.79688 -0.29687,1.34375 -0.28125,0.53125 -0.71875,0.84375 -0.4375,0.29688 -0.90625,0.40625 -0.60938,0.125 -1.79688,0.125 l -1.125,0 0,3.23438 -1.73437,0 z m 1.73437,-7.14063 0,2.4375 0.95313,0 q 1.01562,0 1.35937,-0.125 0.35938,-0.14062 0.54688,-0.42187 0.20312,-0.29688 0.20312,-0.67188 0,-0.46875 -0.28125,-0.76562 -0.28125,-0.3125 -0.70312,-0.39063 -0.29688,-0.0625 -1.23438,-0.0625 l -0.84375,0 z m 6.28516,7.14063 0,-8.59375 5.89063,0 0,1.45312 -4.15625,0 0,2.03125 3.57812,0 0,1.45313 -3.57812,0 0,3.65625 -1.73438,0 z"
       id="path155"
       inkscape:connector-curvature="0"
       style="fill:#000000;fill-rule:nonzero" />
    <path
       d="m 400,152 40,0 0,40 -40,0 z"
       id="path157"
       inkscape:connector-curvature="0"
       style="fill:#b7b7b7;fill-rule:nonzero" />
    <path
       d="m 400,152 40,0 0,40 -40,0 z"
       id="path159"
       inkscape:connector-curvature="0"
       style="stroke:#000000;stroke-width:1;stroke-linecap:butt;stroke-linejoin:round" />
    <path
       d="m 419.12305,169.52 0,-3.60938 -3.14063,-4.98437 2.03125,0 2.01563,3.40625 1.98437,-3.40625 2,0 -3.15625,4.98437 0,3.60938 -1.73437,0 z"
       id="path161"
       inkscape:connector-curvature="0"
       style="fill:#000000;fill-rule:nonzero" />
    <path
       d="m 417.51562,183.52 -1.64062,0 0,-3.17188 q 0,-1.01562 -0.10938,-1.3125 -0.0937,-0.29687 -0.34375,-0.45312 -0.23437,-0.17188 -0.5625,-0.17188 -0.4375,0 -0.78125,0.23438 -0.32812,0.23437 -0.45312,0.625 -0.125,0.39062 -0.125,1.4375 l 0,2.8125 -1.65625,0 0,-6.21875 1.53125,0 0,0.90625 q 0.8125,-1.04688 2.0625,-1.04688 0.53125,0 0.98437,0.20313 0.45313,0.1875 0.6875,0.5 0.23438,0.29687 0.3125,0.6875 0.0937,0.375 0.0937,1.09375 l 0,3.875 z m 1.48633,-2.29688 0,-1.64062 3.23437,0 0,1.64062 -3.23437,0 z m 8.04297,2.29688 -1.64063,0 0,-6.20313 q -0.90625,0.84375 -2.125,1.25 l 0,-1.5 q 0.64063,-0.20312 1.39063,-0.79687 0.76562,-0.59375 1.04687,-1.375 l 1.32813,0 0,8.625 z"
       id="path163"
       inkscape:connector-curvature="0"
       style="fill:#000000;fill-rule:nonzero" />
    <path
       d="m 120,152 80,0"
       id="path165"
       inkscape:connector-curvature="0"
       style="fill:#000000;fill-opacity:0;fill-rule:nonzero" />
    <path
       d="m 120,152 80,0"
       id="path167"
       inkscape:connector-curvature="0"
       style="stroke:#000000;stroke-width:1;stroke-linecap:butt;stroke-linejoin:round" />
    <path
       d="m 180,152 0,0"
       id="path169"
       inkscape:connector-curvature="0"
       style="fill:#000000;fill-opacity:0;fill-rule:nonzero" />
    <path
       d="m 180,152 0,0"
       id="path171"
       inkscape:connector-curvature="0"
       style="stroke:#000000;stroke-width:1;stroke-linecap:butt;stroke-linejoin:round" />
    <path
       d="m 120,192 80,0"
       id="path173"
       inkscape:connector-curvature="0"
       style="fill:#000000;fill-opacity:0;fill-rule:nonzero" />
    <path
       d="m 120,192 80,0"
       id="path175"
       inkscape:connector-curvature="0"
       style="stroke:#000000;stroke-width:1;stroke-linecap:butt;stroke-linejoin:round" />
  </g>
</svg>
