<?xml version="1.0" encoding="UTF-8" standalone="no"?>
<svg
   xmlns:dc="http://purl.org/dc/elements/1.1/"
   xmlns:cc="http://creativecommons.org/ns#"
   xmlns:rdf="http://www.w3.org/1999/02/22-rdf-syntax-ns#"
   xmlns:svg="http://www.w3.org/2000/svg"
   xmlns="http://www.w3.org/2000/svg"
   xmlns:sodipodi="http://sodipodi.sourceforge.net/DTD/sodipodi-0.dtd"
   xmlns:inkscape="http://www.inkscape.org/namespaces/inkscape"
   version="1.1"
   viewBox="0 0 480.9375 277.3125"
   stroke-miterlimit="10"
   id="svg2"
   inkscape:version="0.48.4 r9939"
   width="100%"
   height="100%"
   sodipodi:docname="ara-camera-image-sampling.svg"
   style="fill:none;stroke:none">
  <metadata
     id="metadata203">
    <rdf:RDF>
      <cc:Work
         rdf:about="">
        <dc:format>image/svg+xml</dc:format>
        <dc:type
           rdf:resource="http://purl.org/dc/dcmitype/StillImage" />
      </cc:Work>
    </rdf:RDF>
  </metadata>
  <defs
     id="defs201" />
  <sodipodi:namedview
     pagecolor="#ffffff"
     bordercolor="#666666"
     borderopacity="1"
     objecttolerance="10"
     gridtolerance="10"
     guidetolerance="10"
     inkscape:pageopacity="0"
     inkscape:pageshadow="2"
     inkscape:window-width="1920"
     inkscape:window-height="1056"
     id="namedview199"
     showgrid="false"
     fit-margin-top="0"
     fit-margin-left="0"
     fit-margin-right="0"
     fit-margin-bottom="0"
     inkscape:zoom="1.7481481"
     inkscape:cx="274.69778"
     inkscape:cy="132.60522"
     inkscape:window-x="0"
     inkscape:window-y="24"
     inkscape:window-maximized="1"
     inkscape:current-layer="svg2" />
  <clipPath
     id="p.0">
    <path
       d="M 0,0 720,0 720,540 0,540 0,0 z"
       clip-rule="nonzero"
       id="path5"
       inkscape:connector-curvature="0" />
  </clipPath>
  <g
     clip-path="url(#p.0)"
     id="g7"
     transform="translate(-61.84375,-76.71875)">
    <path
       d="m 0,0 720,0 0,540 -720,0 z"
       id="path9"
       inkscape:connector-curvature="0"
       style="fill:#000000;fill-opacity:0;fill-rule:nonzero" />
    <path
       d="m 80,96 48,0 0,48 -48,0 z"
       id="path11"
       inkscape:connector-curvature="0"
       style="fill:#b7b7b7;fill-rule:nonzero" />
    <path
       d="m 80,96 48,0 0,48 -48,0 z"
       id="path13"
       inkscape:connector-curvature="0"
       style="stroke:#000000;stroke-width:1;stroke-linecap:butt;stroke-linejoin:round" />
    <path
       d="m 99.78613,124.52 0,-3.60937 -3.140625,-4.98438 2.03125,0 2.015625,3.40625 1.98438,-3.40625 2,0 -3.15625,4.98438 0,3.60937 -1.73438,0 z m 9.59766,0 -1.64063,0 0,-6.20312 q -0.90625,0.84375 -2.125,1.25 l 0,-1.5 q 0.64063,-0.20313 1.39063,-0.79688 0.76562,-0.59375 1.04687,-1.375 l 1.32813,0 0,8.625 z"
       id="path15"
       inkscape:connector-curvature="0"
       style="fill:#000000;fill-rule:nonzero" />
    <path
       d="m 128,96 48,0 0,48 -48,0 z"
       id="path17"
       inkscape:connector-curvature="0"
       style="fill:#d9d9d9;fill-rule:nonzero" />
    <path
       d="m 128,96 48,0 0,48 -48,0 z"
       id="path19"
       inkscape:connector-curvature="0"
       style="stroke:#000000;stroke-width:1;stroke-linecap:butt;stroke-linejoin:round" />
    <path
       d="m 147.78613,124.52 0,-3.60937 -3.14062,-4.98438 2.03125,0 2.01562,3.40625 1.98438,-3.40625 2,0 -3.15625,4.98438 0,3.60937 -1.73438,0 z m 10.95703,-1.53125 0,1.53125 -5.78125,0 q 0.0937,-0.875 0.5625,-1.64062 0.46875,-0.78125 1.85938,-2.0625 1.10937,-1.03125 1.35937,-1.40625 0.34375,-0.51563 0.34375,-1.01563 0,-0.54687 -0.29687,-0.84375 -0.29688,-0.29687 -0.8125,-0.29687 -0.51563,0 -0.82813,0.3125 -0.29687,0.3125 -0.34375,1.03125 l -1.64062,-0.15625 q 0.14062,-1.35938 0.90625,-1.95313 0.78125,-0.59375 1.9375,-0.59375 1.28125,0 2,0.6875 0.73437,0.6875 0.73437,1.70313 0,0.57812 -0.21875,1.10937 -0.20312,0.51563 -0.65625,1.09375 -0.29687,0.375 -1.07812,1.09375 -0.78125,0.71875 -0.98438,0.95313 -0.20312,0.23437 -0.34375,0.45312 l 3.28125,0 z"
       id="path21"
       inkscape:connector-curvature="0"
       style="fill:#000000;fill-rule:nonzero" />
    <path
       d="m 176,96 48,0 0,48 -48,0 z"
       id="path23"
       inkscape:connector-curvature="0"
       style="fill:#b7b7b7;fill-rule:nonzero" />
    <path
       d="m 176,96 48,0 0,48 -48,0 z"
       id="path25"
       inkscape:connector-curvature="0"
       style="stroke:#000000;stroke-width:1;stroke-linecap:butt;stroke-linejoin:round" />
    <path
       d="m 195.78613,124.52 0,-3.60937 -3.14062,-4.98438 2.03125,0 2.01562,3.40625 1.98438,-3.40625 2,0 -3.15625,4.98438 0,3.60937 -1.73438,0 z m 5.33203,-2.28125 1.59375,-0.1875 q 0.0781,0.60938 0.40625,0.9375 0.34375,0.3125 0.8125,0.3125 0.51563,0 0.85938,-0.39062 0.34375,-0.39063 0.34375,-1.04688 0,-0.60937 -0.34375,-0.96875 -0.32813,-0.375 -0.79688,-0.375 -0.32812,0 -0.76562,0.125 l 0.1875,-1.34375 q 0.67187,0.0156 1.01562,-0.28125 0.35938,-0.3125 0.35938,-0.82812 0,-0.42188 -0.26563,-0.67188 -0.25,-0.26562 -0.6875,-0.26562 -0.42187,0 -0.71875,0.29687 -0.29687,0.28125 -0.35937,0.84375 l -1.51563,-0.25 q 0.15625,-0.78125 0.46875,-1.25 0.32813,-0.46875 0.89063,-0.73437 0.57812,-0.26563 1.28125,-0.26563 1.21875,0 1.95312,0.76563 0.59375,0.64062 0.59375,1.4375 0,1.125 -1.23437,1.79687 0.75,0.17188 1.1875,0.71875 0.4375,0.54688 0.4375,1.32813 0,1.125 -0.82813,1.92187 -0.82812,0.79688 -2.04687,0.79688 -1.17188,0 -1.9375,-0.67188 -0.76563,-0.67187 -0.89063,-1.75 z"
       id="path27"
       inkscape:connector-curvature="0"
       style="fill:#000000;fill-rule:nonzero" />
    <path
       d="m 224,96 48,0 0,48 -48,0 z"
       id="path29"
       inkscape:connector-curvature="0"
       style="fill:#d9d9d9;fill-rule:nonzero" />
    <path
       d="m 224,96 48,0 0,48 -48,0 z"
       id="path31"
       inkscape:connector-curvature="0"
       style="stroke:#000000;stroke-width:1;stroke-linecap:butt;stroke-linejoin:round" />
    <path
       d="m 243.78613,124.52 0,-3.60937 -3.14062,-4.98438 2.03125,0 2.01562,3.40625 1.98438,-3.40625 2,0 -3.15625,4.98438 0,3.60937 -1.73438,0 z m 8.61328,0 0,-1.73437 -3.51562,0 0,-1.4375 3.73437,-5.45313 1.375,0 0,5.45313 1.07813,0 0,1.4375 -1.07813,0 0,1.73437 -1.59375,0 z m 0,-3.17187 0,-2.9375 -1.96875,2.9375 1.96875,0 z"
       id="path33"
       inkscape:connector-curvature="0"
       style="fill:#000000;fill-rule:nonzero" />
    <path
       d="m 80,144 48,0 0,48 -48,0 z"
       id="path35"
       inkscape:connector-curvature="0"
       style="fill:#d9d9d9;fill-rule:nonzero" />
    <path
       d="m 80,144 48,0 0,48 -48,0 z"
       id="path37"
       inkscape:connector-curvature="0"
       style="stroke:#000000;stroke-width:1;stroke-linecap:butt;stroke-linejoin:round" />
    <path
       d="m 99.78613,172.52 0,-3.60938 -3.140625,-4.98437 2.03125,0 2.015625,3.40625 1.98438,-3.40625 2,0 -3.15625,4.98437 0,3.60938 -1.73438,0 z m 5.41016,-2.20313 1.64062,-0.17187 q 0.0781,0.54687 0.42188,0.875 0.34375,0.32812 0.79687,0.32812 0.51563,0 0.875,-0.42187 0.35938,-0.42188 0.35938,-1.26563 0,-0.78125 -0.35938,-1.17187 -0.35937,-0.40625 -0.92187,-0.40625 -0.71875,0 -1.28125,0.625 l -1.32813,-0.1875 0.84375,-4.46875 4.35938,0 0,1.53125 -3.10938,0 -0.26562,1.46875 q 0.5625,-0.28125 1.125,-0.28125 1.09375,0 1.85937,0.79687 0.76563,0.79688 0.76563,2.0625 0,1.0625 -0.60938,1.90625 -0.84375,1.125 -2.32812,1.125 -1.1875,0 -1.9375,-0.625 -0.75,-0.64062 -0.90625,-1.71875 z"
       id="path39"
       inkscape:connector-curvature="0"
       style="fill:#000000;fill-rule:nonzero" />
    <path
       d="m 128,144 48,0 0,48 -48,0 z"
       id="path41"
       inkscape:connector-curvature="0"
       style="fill:#b7b7b7;fill-rule:nonzero" />
    <path
       d="m 128,144 48,0 0,48 -48,0 z"
       id="path43"
       inkscape:connector-curvature="0"
       style="stroke:#000000;stroke-width:1;stroke-linecap:butt;stroke-linejoin:round" />
    <path
       d="m 147.78613,172.52 0,-3.60938 -3.14062,-4.98437 2.03125,0 2.01562,3.40625 1.98438,-3.40625 2,0 -3.15625,4.98437 0,3.60938 -1.73438,0 z m 10.97266,-6.48438 -1.59375,0.17188 q -0.0625,-0.48438 -0.3125,-0.71875 -0.25,-0.23438 -0.64063,-0.23438 -0.51562,0 -0.875,0.46875 -0.35937,0.46875 -0.45312,1.9375 0.60937,-0.71875 1.53125,-0.71875 1.03125,0 1.76562,0.78125 0.73438,0.78125 0.73438,2.03125 0,1.3125 -0.78125,2.10938 -0.76563,0.79687 -1.98438,0.79687 -1.29687,0 -2.14062,-1 -0.82813,-1.01562 -0.82813,-3.3125 0,-2.375 0.85938,-3.40625 0.875,-1.04687 2.28125,-1.04687 0.96875,0 1.60937,0.54687 0.64063,0.54688 0.82813,1.59375 z m -3.73438,3.59375 q 0,0.79688 0.35938,1.23438 0.375,0.4375 0.84375,0.4375 0.46875,0 0.76562,-0.35938 0.3125,-0.35937 0.3125,-1.17187 0,-0.84375 -0.32812,-1.21875 -0.32813,-0.39063 -0.82813,-0.39063 -0.46875,0 -0.79687,0.375 -0.32813,0.35938 -0.32813,1.09375 z"
       id="path45"
       inkscape:connector-curvature="0"
       style="fill:#000000;fill-rule:nonzero" />
    <path
       d="m 176,144 48,0 0,48 -48,0 z"
       id="path47"
       inkscape:connector-curvature="0"
       style="fill:#d9d9d9;fill-rule:nonzero" />
    <path
       d="m 176,144 48,0 0,48 -48,0 z"
       id="path49"
       inkscape:connector-curvature="0"
       style="stroke:#000000;stroke-width:1;stroke-linecap:butt;stroke-linejoin:round" />
    <path
       d="m 195.78613,172.52 0,-3.60938 -3.14062,-4.98437 2.03125,0 2.01562,3.40625 1.98438,-3.40625 2,0 -3.15625,4.98437 0,3.60938 -1.73438,0 z m 5.39453,-6.9375 0,-1.53125 5.625,0 0,1.1875 q -0.70312,0.6875 -1.42187,1.96875 -0.71875,1.28125 -1.09375,2.73437 -0.375,1.4375 -0.375,2.57813 l -1.57813,0 q 0.0312,-1.78125 0.71875,-3.625 0.70313,-1.85938 1.85938,-3.3125 l -3.73438,0 z"
       id="path51"
       inkscape:connector-curvature="0"
       style="fill:#000000;fill-rule:nonzero" />
    <path
       d="m 224,144 48,0 0,48 -48,0 z"
       id="path53"
       inkscape:connector-curvature="0"
       style="fill:#b7b7b7;fill-rule:nonzero" />
    <path
       d="m 224,144 48,0 0,48 -48,0 z"
       id="path55"
       inkscape:connector-curvature="0"
       style="stroke:#000000;stroke-width:1;stroke-linecap:butt;stroke-linejoin:round" />
    <path
       d="m 243.78613,172.52 0,-3.60938 -3.14062,-4.98437 2.03125,0 2.01562,3.40625 1.98438,-3.40625 2,0 -3.15625,4.98437 0,3.60938 -1.73438,0 z m 6.80078,-4.64063 q -0.64062,-0.26562 -0.9375,-0.73437 -0.28125,-0.46875 -0.28125,-1.03125 0,-0.96875 0.67188,-1.59375 0.67187,-0.625 1.90625,-0.625 1.21875,0 1.89062,0.625 0.6875,0.625 0.6875,1.59375 0,0.59375 -0.3125,1.0625 -0.3125,0.46875 -0.875,0.70312 0.71875,0.29688 1.09375,0.84375 0.375,0.54688 0.375,1.26563 0,1.1875 -0.76562,1.9375 -0.75,0.75 -2.01563,0.75 -1.17187,0 -1.95312,-0.625 -0.92188,-0.71875 -0.92188,-1.98438 0,-0.70312 0.34375,-1.28125 0.34375,-0.57812 1.09375,-0.90625 z m 0.34375,-1.65625 q 0,0.5 0.26563,0.78125 0.28125,0.26563 0.75,0.26563 0.46875,0 0.75,-0.28125 0.28125,-0.28125 0.28125,-0.76563 0,-0.46875 -0.28125,-0.73437 -0.28125,-0.28125 -0.73438,-0.28125 -0.46875,0 -0.75,0.28125 -0.28125,0.28125 -0.28125,0.73437 z m -0.15625,3.6875 q 0,0.67188 0.34375,1.0625 0.35938,0.375 0.875,0.375 0.51563,0 0.84375,-0.35937 0.32813,-0.375 0.32813,-1.0625 0,-0.60938 -0.34375,-0.96875 -0.32813,-0.375 -0.84375,-0.375 -0.60938,0 -0.90625,0.42187 -0.29688,0.42188 -0.29688,0.90625 z"
       id="path57"
       inkscape:connector-curvature="0"
       style="fill:#000000;fill-rule:nonzero" />
    <path
       d="m 320,96 48,0 0,48 -48,0 z"
       id="path59"
       inkscape:connector-curvature="0"
       style="fill:#b7b7b7;fill-rule:nonzero" />
    <path
       d="m 320,96 48,0 0,48 -48,0 z"
       id="path61"
       inkscape:connector-curvature="0"
       style="stroke:#000000;stroke-width:1;stroke-linecap:butt;stroke-linejoin:round" />
    <path
       d="m 339.78613,124.52 0,-3.60937 -3.14062,-4.98438 2.03125,0 2.01562,3.40625 1.98438,-3.40625 2,0 -3.15625,4.98438 0,3.60937 -1.73438,0 z m 9.59766,0 -1.64063,0 0,-6.20312 q -0.90625,0.84375 -2.125,1.25 l 0,-1.5 q 0.64063,-0.20313 1.39063,-0.79688 0.76562,-0.59375 1.04687,-1.375 l 1.32813,0 0,8.625 z"
       id="path63"
       inkscape:connector-curvature="0"
       style="fill:#000000;fill-rule:nonzero" />
    <path
       d="m 368,96 48,0 0,48 -48,0 z"
       id="path65"
       inkscape:connector-curvature="0"
       style="fill:#d9d9d9;fill-rule:nonzero" />
    <path
       d="m 368,96 48,0 0,48 -48,0 z"
       id="path67"
       inkscape:connector-curvature="0"
       style="stroke:#000000;stroke-width:1;stroke-linecap:butt;stroke-linejoin:round" />
    <path
       d="m 387.78613,124.52 0,-3.60937 -3.14062,-4.98438 2.03125,0 2.01562,3.40625 1.98438,-3.40625 2,0 -3.15625,4.98438 0,3.60937 -1.73438,0 z m 10.95703,-1.53125 0,1.53125 -5.78125,0 q 0.0937,-0.875 0.5625,-1.64062 0.46875,-0.78125 1.85938,-2.0625 1.10937,-1.03125 1.35937,-1.40625 0.34375,-0.51563 0.34375,-1.01563 0,-0.54687 -0.29687,-0.84375 -0.29688,-0.29687 -0.8125,-0.29687 -0.51563,0 -0.82813,0.3125 -0.29687,0.3125 -0.34375,1.03125 l -1.64062,-0.15625 q 0.14062,-1.35938 0.90625,-1.95313 0.78125,-0.59375 1.9375,-0.59375 1.28125,0 2,0.6875 0.73437,0.6875 0.73437,1.70313 0,0.57812 -0.21875,1.10937 -0.20312,0.51563 -0.65625,1.09375 -0.29687,0.375 -1.07812,1.09375 -0.78125,0.71875 -0.98438,0.95313 -0.20312,0.23437 -0.34375,0.45312 l 3.28125,0 z"
       id="path69"
       inkscape:connector-curvature="0"
       style="fill:#000000;fill-rule:nonzero" />
    <path
       d="m 416,96 48,0 0,48 -48,0 z"
       id="path71"
       inkscape:connector-curvature="0"
       style="fill:#b7b7b7;fill-rule:nonzero" />
    <path
       d="m 416,96 48,0 0,48 -48,0 z"
       id="path73"
       inkscape:connector-curvature="0"
       style="stroke:#000000;stroke-width:1;stroke-linecap:butt;stroke-linejoin:round" />
    <path
       d="m 435.78613,124.52 0,-3.60937 -3.14062,-4.98438 2.03125,0 2.01562,3.40625 1.98438,-3.40625 2,0 -3.15625,4.98438 0,3.60937 -1.73438,0 z m 5.33203,-2.28125 1.59375,-0.1875 q 0.0781,0.60938 0.40625,0.9375 0.34375,0.3125 0.8125,0.3125 0.51563,0 0.85938,-0.39062 0.34375,-0.39063 0.34375,-1.04688 0,-0.60937 -0.34375,-0.96875 -0.32813,-0.375 -0.79688,-0.375 -0.32812,0 -0.76562,0.125 l 0.1875,-1.34375 q 0.67187,0.0156 1.01562,-0.28125 0.35938,-0.3125 0.35938,-0.82812 0,-0.42188 -0.26563,-0.67188 -0.25,-0.26562 -0.6875,-0.26562 -0.42187,0 -0.71875,0.29687 -0.29687,0.28125 -0.35937,0.84375 l -1.51563,-0.25 q 0.15625,-0.78125 0.46875,-1.25 0.32813,-0.46875 0.89063,-0.73437 0.57812,-0.26563 1.28125,-0.26563 1.21875,0 1.95312,0.76563 0.59375,0.64062 0.59375,1.4375 0,1.125 -1.23437,1.79687 0.75,0.17188 1.1875,0.71875 0.4375,0.54688 0.4375,1.32813 0,1.125 -0.82813,1.92187 -0.82812,0.79688 -2.04687,0.79688 -1.17188,0 -1.9375,-0.67188 -0.76563,-0.67187 -0.89063,-1.75 z"
       id="path75"
       inkscape:connector-curvature="0"
       style="fill:#000000;fill-rule:nonzero" />
    <path
       d="m 464,96 48,0 0,48 -48,0 z"
       id="path77"
       inkscape:connector-curvature="0"
       style="fill:#d9d9d9;fill-rule:nonzero" />
    <path
       d="m 464,96 48,0 0,48 -48,0 z"
       id="path79"
       inkscape:connector-curvature="0"
       style="stroke:#000000;stroke-width:1;stroke-linecap:butt;stroke-linejoin:round" />
    <path
       d="m 483.78613,124.52 0,-3.60937 -3.14062,-4.98438 2.03125,0 2.01562,3.40625 1.98438,-3.40625 2,0 -3.15625,4.98438 0,3.60937 -1.73438,0 z m 8.61328,0 0,-1.73437 -3.51562,0 0,-1.4375 3.73437,-5.45313 1.375,0 0,5.45313 1.07813,0 0,1.4375 -1.07813,0 0,1.73437 -1.59375,0 z m 0,-3.17187 0,-2.9375 -1.96875,2.9375 1.96875,0 z"
       id="path81"
       inkscape:connector-curvature="0"
       style="fill:#000000;fill-rule:nonzero" />
    <path
       d="m 320,144 48,0 0,48 -48,0 z"
       id="path83"
       inkscape:connector-curvature="0"
       style="fill:#d9d9d9;fill-rule:nonzero" />
    <path
       d="m 320,144 48,0 0,48 -48,0 z"
       id="path85"
       inkscape:connector-curvature="0"
       style="stroke:#000000;stroke-width:1;stroke-linecap:butt;stroke-linejoin:round" />
    <path
       d="m 339.78613,172.52 0,-3.60938 -3.14062,-4.98437 2.03125,0 2.01562,3.40625 1.98438,-3.40625 2,0 -3.15625,4.98437 0,3.60938 -1.73438,0 z m 5.41016,-2.20313 1.64062,-0.17187 q 0.0781,0.54687 0.42188,0.875 0.34375,0.32812 0.79687,0.32812 0.51563,0 0.875,-0.42187 0.35938,-0.42188 0.35938,-1.26563 0,-0.78125 -0.35938,-1.17187 -0.35937,-0.40625 -0.92187,-0.40625 -0.71875,0 -1.28125,0.625 l -1.32813,-0.1875 0.84375,-4.46875 4.35938,0 0,1.53125 -3.10938,0 -0.26562,1.46875 q 0.5625,-0.28125 1.125,-0.28125 1.09375,0 1.85937,0.79687 0.76563,0.79688 0.76563,2.0625 0,1.0625 -0.60938,1.90625 -0.84375,1.125 -2.32812,1.125 -1.1875,0 -1.9375,-0.625 -0.75,-0.64062 -0.90625,-1.71875 z"
       id="path87"
       inkscape:connector-curvature="0"
       style="fill:#000000;fill-rule:nonzero" />
    <path
       d="m 368,144 48,0 0,48 -48,0 z"
       id="path89"
       inkscape:connector-curvature="0"
       style="fill:#b7b7b7;fill-rule:nonzero" />
    <path
       d="m 368,144 48,0 0,48 -48,0 z"
       id="path91"
       inkscape:connector-curvature="0"
       style="stroke:#000000;stroke-width:1;stroke-linecap:butt;stroke-linejoin:round" />
    <path
       d="m 387.78613,172.52 0,-3.60938 -3.14062,-4.98437 2.03125,0 2.01562,3.40625 1.98438,-3.40625 2,0 -3.15625,4.98437 0,3.60938 -1.73438,0 z m 10.97266,-6.48438 -1.59375,0.17188 q -0.0625,-0.48438 -0.3125,-0.71875 -0.25,-0.23438 -0.64063,-0.23438 -0.51562,0 -0.875,0.46875 -0.35937,0.46875 -0.45312,1.9375 0.60937,-0.71875 1.53125,-0.71875 1.03125,0 1.76562,0.78125 0.73438,0.78125 0.73438,2.03125 0,1.3125 -0.78125,2.10938 -0.76563,0.79687 -1.98438,0.79687 -1.29687,0 -2.14062,-1 -0.82813,-1.01562 -0.82813,-3.3125 0,-2.375 0.85938,-3.40625 0.875,-1.04687 2.28125,-1.04687 0.96875,0 1.60937,0.54687 0.64063,0.54688 0.82813,1.59375 z m -3.73438,3.59375 q 0,0.79688 0.35938,1.23438 0.375,0.4375 0.84375,0.4375 0.46875,0 0.76562,-0.35938 0.3125,-0.35937 0.3125,-1.17187 0,-0.84375 -0.32812,-1.21875 -0.32813,-0.39063 -0.82813,-0.39063 -0.46875,0 -0.79687,0.375 -0.32813,0.35938 -0.32813,1.09375 z"
       id="path93"
       inkscape:connector-curvature="0"
       style="fill:#000000;fill-rule:nonzero" />
    <path
       d="m 416,144 48,0 0,48 -48,0 z"
       id="path95"
       inkscape:connector-curvature="0"
       style="fill:#d9d9d9;fill-rule:nonzero" />
    <path
       d="m 416,144 48,0 0,48 -48,0 z"
       id="path97"
       inkscape:connector-curvature="0"
       style="stroke:#000000;stroke-width:1;stroke-linecap:butt;stroke-linejoin:round" />
    <path
       d="m 435.78613,172.52 0,-3.60938 -3.14062,-4.98437 2.03125,0 2.01562,3.40625 1.98438,-3.40625 2,0 -3.15625,4.98437 0,3.60938 -1.73438,0 z m 5.39453,-6.9375 0,-1.53125 5.625,0 0,1.1875 q -0.70312,0.6875 -1.42187,1.96875 -0.71875,1.28125 -1.09375,2.73437 -0.375,1.4375 -0.375,2.57813 l -1.57813,0 q 0.0312,-1.78125 0.71875,-3.625 0.70313,-1.85938 1.85938,-3.3125 l -3.73438,0 z"
       id="path99"
       inkscape:connector-curvature="0"
       style="fill:#000000;fill-rule:nonzero" />
    <path
       d="m 464,144 48,0 0,48 -48,0 z"
       id="path101"
       inkscape:connector-curvature="0"
       style="fill:#b7b7b7;fill-rule:nonzero" />
    <path
       d="m 464,144 48,0 0,48 -48,0 z"
       id="path103"
       inkscape:connector-curvature="0"
       style="stroke:#000000;stroke-width:1;stroke-linecap:butt;stroke-linejoin:round" />
    <path
       d="m 483.78613,172.52 0,-3.60938 -3.14062,-4.98437 2.03125,0 2.01562,3.40625 1.98438,-3.40625 2,0 -3.15625,4.98437 0,3.60938 -1.73438,0 z m 6.80078,-4.64063 q -0.64062,-0.26562 -0.9375,-0.73437 -0.28125,-0.46875 -0.28125,-1.03125 0,-0.96875 0.67188,-1.59375 0.67187,-0.625 1.90625,-0.625 1.21875,0 1.89062,0.625 0.6875,0.625 0.6875,1.59375 0,0.59375 -0.3125,1.0625 -0.3125,0.46875 -0.875,0.70312 0.71875,0.29688 1.09375,0.84375 0.375,0.54688 0.375,1.26563 0,1.1875 -0.76562,1.9375 -0.75,0.75 -2.01563,0.75 -1.17187,0 -1.95312,-0.625 -0.92188,-0.71875 -0.92188,-1.98438 0,-0.70312 0.34375,-1.28125 0.34375,-0.57812 1.09375,-0.90625 z m 0.34375,-1.65625 q 0,0.5 0.26563,0.78125 0.28125,0.26563 0.75,0.26563 0.46875,0 0.75,-0.28125 0.28125,-0.28125 0.28125,-0.76563 0,-0.46875 -0.28125,-0.73437 -0.28125,-0.28125 -0.73438,-0.28125 -0.46875,0 -0.75,0.28125 -0.28125,0.28125 -0.28125,0.73437 z m -0.15625,3.6875 q 0,0.67188 0.34375,1.0625 0.35938,0.375 0.875,0.375 0.51563,0 0.84375,-0.35937 0.32813,-0.375 0.32813,-1.0625 0,-0.60938 -0.34375,-0.96875 -0.32813,-0.375 -0.84375,-0.375 -0.60938,0 -0.90625,0.42187 -0.29688,0.42188 -0.29688,0.90625 z"
       id="path105"
       inkscape:connector-curvature="0"
       style="fill:#000000;fill-rule:nonzero" />
    <path
       d="m 80,312 192,0 0,32 -192,0 z"
       id="path107"
       inkscape:connector-curvature="0"
       style="fill:#000000;fill-opacity:0;fill-rule:nonzero" />
    <path
       d="m 151.11426,332.52 0,-3.60938 -3.14063,-4.98437 2.03125,0 2.01563,3.40625 1.98437,-3.40625 2,0 -3.15625,4.98437 0,3.60938 -1.73437,0 z m 5.73828,-8.59375 1.73438,0 0,4.65625 q 0,1.10937 0.0625,1.4375 0.10937,0.53125 0.53125,0.84375 0.42187,0.3125 1.15625,0.3125 0.73437,0 1.10937,-0.29688 0.375,-0.29687 0.45313,-0.73437 0.0781,-0.4375 0.0781,-1.46875 l 0,-4.75 1.73438,0 0,4.51562 q 0,1.54688 -0.14063,2.1875 -0.14062,0.64063 -0.53125,1.07813 -0.375,0.4375 -1.01562,0.70312 -0.625,0.25 -1.64063,0.25 -1.23437,0 -1.875,-0.28125 -0.625,-0.28125 -1,-0.73437 -0.35937,-0.45313 -0.48437,-0.95313 -0.17188,-0.73437 -0.17188,-2.1875 l 0,-4.57812 z m 10.86914,8.59375 -3.0625,-8.59375 1.875,0 2.17188,6.35937 2.10937,-6.35937 1.84375,0 -3.07812,8.59375 -1.85938,0 z m 12.00977,0 0,-1.73438 -3.51563,0 0,-1.4375 3.73438,-5.45312 1.375,0 0,5.45312 1.07812,0 0,1.4375 -1.07812,0 0,1.73438 -1.59375,0 z m 0,-3.17188 0,-2.9375 -1.96875,2.9375 1.96875,0 z m 4.11133,-1.40625 0,-1.64062 1.65625,0 0,1.64062 -1.65625,0 z m 0,4.57813 0,-1.64063 1.65625,0 0,1.64063 -1.65625,0 z m 8.90234,-1.53125 0,1.53125 -5.78125,0 q 0.0937,-0.875 0.5625,-1.64063 0.46875,-0.78125 1.85938,-2.0625 1.10937,-1.03125 1.35937,-1.40625 0.34375,-0.51562 0.34375,-1.01562 0,-0.54688 -0.29687,-0.84375 -0.29688,-0.29688 -0.8125,-0.29688 -0.51563,0 -0.82813,0.3125 -0.29687,0.3125 -0.34375,1.03125 l -1.64062,-0.15625 q 0.14062,-1.35937 0.90625,-1.95312 0.78125,-0.59375 1.9375,-0.59375 1.28125,0 2,0.6875 0.73437,0.6875 0.73437,1.70312 0,0.57813 -0.21875,1.10938 -0.20312,0.51562 -0.65625,1.09375 -0.29687,0.375 -1.07812,1.09375 -0.78125,0.71875 -0.98438,0.95312 -0.20312,0.23438 -0.34375,0.45313 l 3.28125,0 z m 1.76758,-3.04688 0,-1.64062 1.65625,0 0,1.64062 -1.65625,0 z m 0,4.57813 0,-1.64063 1.65625,0 0,1.64063 -1.65625,0 z m 8.90234,-1.53125 0,1.53125 -5.78125,0 q 0.0937,-0.875 0.5625,-1.64063 0.46875,-0.78125 1.85938,-2.0625 1.10937,-1.03125 1.35937,-1.40625 0.34375,-0.51562 0.34375,-1.01562 0,-0.54688 -0.29687,-0.84375 -0.29688,-0.29688 -0.8125,-0.29688 -0.51563,0 -0.82813,0.3125 -0.29687,0.3125 -0.34375,1.03125 l -1.64062,-0.15625 q 0.14062,-1.35937 0.90625,-1.95312 0.78125,-0.59375 1.9375,-0.59375 1.28125,0 2,0.6875 0.73437,0.6875 0.73437,1.70312 0,0.57813 -0.21875,1.10938 -0.20312,0.51562 -0.65625,1.09375 -0.29687,0.375 -1.07812,1.09375 -0.78125,0.71875 -0.98438,0.95312 -0.20312,0.23438 -0.34375,0.45313 l 3.28125,0 z"
       id="path109"
       inkscape:connector-curvature="0"
       style="fill:#000000;fill-rule:nonzero" />
    <path
       d="m 320,312 192,0 0,32 -192,0 z"
       id="path111"
       inkscape:connector-curvature="0"
       style="fill:#000000;fill-opacity:0;fill-rule:nonzero" />
    <path
       d="m 391.11426,332.52 0,-3.60938 -3.14063,-4.98437 2.03125,0 2.01563,3.40625 1.98437,-3.40625 2,0 -3.15625,4.98437 0,3.60938 -1.73437,0 z m 5.73828,-8.59375 1.73438,0 0,4.65625 q 0,1.10937 0.0625,1.4375 0.10937,0.53125 0.53125,0.84375 0.42187,0.3125 1.15625,0.3125 0.73437,0 1.10937,-0.29688 0.375,-0.29687 0.45313,-0.73437 0.0781,-0.4375 0.0781,-1.46875 l 0,-4.75 1.73438,0 0,4.51562 q 0,1.54688 -0.14063,2.1875 -0.14062,0.64063 -0.53125,1.07813 -0.375,0.4375 -1.01562,0.70312 -0.625,0.25 -1.64063,0.25 -1.23437,0 -1.875,-0.28125 -0.625,-0.28125 -1,-0.73437 -0.35937,-0.45313 -0.48437,-0.95313 -0.17188,-0.73437 -0.17188,-2.1875 l 0,-4.57812 z m 10.86914,8.59375 -3.0625,-8.59375 1.875,0 2.17188,6.35937 2.10937,-6.35937 1.84375,0 -3.07812,8.59375 -1.85938,0 z m 12.00977,0 0,-1.73438 -3.51563,0 0,-1.4375 3.73438,-5.45312 1.375,0 0,5.45312 1.07812,0 0,1.4375 -1.07812,0 0,1.73438 -1.59375,0 z m 0,-3.17188 0,-2.9375 -1.96875,2.9375 1.96875,0 z m 4.11133,-1.40625 0,-1.64062 1.65625,0 0,1.64062 -1.65625,0 z m 0,4.57813 0,-1.64063 1.65625,0 0,1.64063 -1.65625,0 z m 8.90234,-1.53125 0,1.53125 -5.78125,0 q 0.0937,-0.875 0.5625,-1.64063 0.46875,-0.78125 1.85938,-2.0625 1.10937,-1.03125 1.35937,-1.40625 0.34375,-0.51562 0.34375,-1.01562 0,-0.54688 -0.29687,-0.84375 -0.29688,-0.29688 -0.8125,-0.29688 -0.51563,0 -0.82813,0.3125 -0.29687,0.3125 -0.34375,1.03125 l -1.64062,-0.15625 q 0.14062,-1.35937 0.90625,-1.95312 0.78125,-0.59375 1.9375,-0.59375 1.28125,0 2,0.6875 0.73437,0.6875 0.73437,1.70312 0,0.57813 -0.21875,1.10938 -0.20312,0.51562 -0.65625,1.09375 -0.29687,0.375 -1.07812,1.09375 -0.78125,0.71875 -0.98438,0.95312 -0.20312,0.23438 -0.34375,0.45313 l 3.28125,0 z m 1.76758,-3.04688 0,-1.64062 1.65625,0 0,1.64062 -1.65625,0 z m 0,4.57813 0,-1.64063 1.65625,0 0,1.64063 -1.65625,0 z m 6.12109,-8.625 q 1.25,0 1.95313,0.89062 0.82812,1.04688 0.82812,3.5 0,2.4375 -0.84375,3.5 -0.6875,0.875 -1.9375,0.875 -1.25,0 -2.03125,-0.95312 -0.76562,-0.96875 -0.76562,-3.4375 0,-2.4375 0.84375,-3.5 0.70312,-0.875 1.95312,-0.875 z m 0,1.35937 q -0.29687,0 -0.53125,0.20313 -0.23437,0.1875 -0.375,0.67187 -0.15625,0.64063 -0.15625,2.15625 0,1.51563 0.14063,2.07813 0.15625,0.5625 0.39062,0.75 0.23438,0.1875 0.53125,0.1875 0.29688,0 0.53125,-0.1875 0.23438,-0.1875 0.35938,-0.6875 0.17187,-0.625 0.17187,-2.14063 0,-1.51562 -0.15625,-2.07812 -0.14062,-0.5625 -0.375,-0.75 -0.23437,-0.20313 -0.53125,-0.20313 z"
       id="path113"
       inkscape:connector-curvature="0"
       style="fill:#000000;fill-rule:nonzero" />
    <path
       d="m 80,256 0,-48 96,48 z"
       id="path115"
       inkscape:connector-curvature="0"
       style="fill:#ff0000;fill-rule:nonzero" />
    <path
       d="m 80,256 0,-48 96,48 z"
       id="path117"
       inkscape:connector-curvature="0"
       style="stroke:#000000;stroke-width:1;stroke-linecap:butt;stroke-linejoin:round" />
    <path
       d="m 176,208 0,48 -96,-48 z"
       id="path119"
       inkscape:connector-curvature="0"
       style="fill:#0000ff;fill-rule:nonzero" />
    <path
       d="m 176,208 0,48 -96,-48 z"
       id="path121"
       inkscape:connector-curvature="0"
       style="stroke:#000000;stroke-width:1;stroke-linecap:butt;stroke-linejoin:round" />
    <path
       d="m 80,208 96,0 0,48 -96,0 z"
       id="path123"
       inkscape:connector-curvature="0"
       style="fill:#000000;fill-opacity:0;fill-rule:nonzero" />
    <path
       d="m 129.86719,219.92625 1.73437,0 0,4.65625 q 0,1.10937 0.0625,1.4375 0.10938,0.53125 0.53125,0.84375 0.42188,0.3125 1.15625,0.3125 0.73438,0 1.10938,-0.29688 0.375,-0.29687 0.45312,-0.73437 0.0781,-0.4375 0.0781,-1.46875 l 0,-4.75 1.73437,0 0,4.51562 q 0,1.54688 -0.14062,2.1875 -0.14063,0.64063 -0.53125,1.07813 -0.375,0.4375 -1.01563,0.70312 -0.625,0.25 -1.64062,0.25 -1.23438,0 -1.875,-0.28125 -0.625,-0.28125 -1,-0.73437 -0.35938,-0.45313 -0.48438,-0.95313 -0.17187,-0.73437 -0.17187,-2.1875 l 0,-4.57812 z m 15.85937,8.59375 -1.64062,0 0,-6.20313 q -0.90625,0.84375 -2.125,1.25 l 0,-1.5 q 0.64062,-0.20312 1.39062,-0.79687 0.76563,-0.59375 1.04688,-1.375 l 1.32812,0 0,8.625 z m 2.78321,-1.64063 1.64062,0 0,1.17188 q 0,0.71875 -0.125,1.125 -0.125,0.42187 -0.46875,0.75 -0.34375,0.32812 -0.85937,0.51562 l -0.32813,-0.6875 q 0.5,-0.15625 0.70313,-0.45312 0.21875,-0.28125 0.23437,-0.78125 l -0.79687,0 0,-1.64063 z m 8.58398,0.10938 0,1.53125 -5.78125,0 q 0.0937,-0.875 0.5625,-1.64063 0.46875,-0.78125 1.85938,-2.0625 1.10937,-1.03125 1.35937,-1.40625 0.34375,-0.51562 0.34375,-1.01562 0,-0.54688 -0.29687,-0.84375 -0.29688,-0.29688 -0.8125,-0.29688 -0.51563,0 -0.82813,0.3125 -0.29687,0.3125 -0.34375,1.03125 l -1.64062,-0.15625 q 0.14062,-1.35937 0.90625,-1.95312 0.78125,-0.59375 1.9375,-0.59375 1.28125,0 2,0.6875 0.73437,0.6875 0.73437,1.70312 0,0.57813 -0.21875,1.10938 -0.20312,0.51562 -0.65625,1.09375 -0.29687,0.375 -1.07812,1.09375 -0.78125,0.71875 -0.98438,0.95312 -0.20312,0.23438 -0.34375,0.45313 l 3.28125,0 z"
       id="path125"
       inkscape:connector-curvature="0"
       style="fill:#000000;fill-rule:nonzero" />
    <path
       d="M 92.0625,242.52 89,233.92625 l 1.875,0 2.171875,6.35937 2.109375,-6.35937 1.84375,0 -3.078125,8.59375 -1.859375,0 z m 12.99414,0 -1.64062,0 0,-6.20313 q -0.90625,0.84375 -2.125,1.25 l 0,-1.5 q 0.64062,-0.20312 1.39062,-0.79687 0.76563,-0.59375 1.04688,-1.375 l 1.32812,0 0,8.625 z m 2.7832,-1.64063 1.64063,0 0,1.17188 q 0,0.71875 -0.125,1.125 -0.125,0.42187 -0.46875,0.75 -0.34375,0.32812 -0.85938,0.51562 l -0.32812,-0.6875 q 0.5,-0.15625 0.70312,-0.45312 0.21875,-0.28125 0.23438,-0.78125 l -0.79688,0 0,-1.64063 z m 8.58399,0.10938 0,1.53125 -5.78125,0 q 0.0937,-0.875 0.5625,-1.64063 0.46875,-0.78125 1.85937,-2.0625 1.10938,-1.03125 1.35938,-1.40625 0.34375,-0.51562 0.34375,-1.01562 0,-0.54688 -0.29688,-0.84375 -0.29687,-0.29688 -0.8125,-0.29688 -0.51562,0 -0.82812,0.3125 -0.29688,0.3125 -0.34375,1.03125 l -1.64063,-0.15625 q 0.14063,-1.35937 0.90625,-1.95312 0.78125,-0.59375 1.9375,-0.59375 1.28125,0 2,0.6875 0.73438,0.6875 0.73438,1.70312 0,0.57813 -0.21875,1.10938 -0.20313,0.51562 -0.65625,1.09375 -0.29688,0.375 -1.07813,1.09375 -0.78125,0.71875 -0.98437,0.95312 -0.20313,0.23438 -0.34375,0.45313 l 3.28125,0 z"
       id="path127"
       inkscape:connector-curvature="0"
       style="fill:#000000;fill-rule:nonzero" />
    <path
       d="m 80,304 0,-48 96,48 z"
       id="path129"
       inkscape:connector-curvature="0"
       style="fill:#ff0000;fill-rule:nonzero" />
    <path
       d="m 80,304 0,-48 96,48 z"
       id="path131"
       inkscape:connector-curvature="0"
       style="stroke:#000000;stroke-width:1;stroke-linecap:butt;stroke-linejoin:round" />
    <path
       d="m 176,256 0,48 -96,-48 z"
       id="path133"
       inkscape:connector-curvature="0"
       style="fill:#0000ff;fill-rule:nonzero" />
    <path
       d="m 176,256 0,48 -96,-48 z"
       id="path135"
       inkscape:connector-curvature="0"
       style="stroke:#000000;stroke-width:1;stroke-linecap:butt;stroke-linejoin:round" />
    <path
       d="m 80,256 96,0 0,48 -96,0 z"
       id="path137"
       inkscape:connector-curvature="0"
       style="fill:#000000;fill-opacity:0;fill-rule:nonzero" />
    <path
       d="m 129.86719,267.92624 1.73437,0 0,4.65625 q 0,1.10937 0.0625,1.4375 0.10938,0.53125 0.53125,0.84375 0.42188,0.3125 1.15625,0.3125 0.73438,0 1.10938,-0.29688 0.375,-0.29687 0.45312,-0.73437 0.0781,-0.4375 0.0781,-1.46875 l 0,-4.75 1.73437,0 0,4.51562 q 0,1.54688 -0.14062,2.1875 -0.14063,0.64063 -0.53125,1.07813 -0.375,0.4375 -1.01563,0.70312 -0.625,0.25 -1.64062,0.25 -1.23438,0 -1.875,-0.28125 -0.625,-0.28125 -1,-0.73437 -0.35938,-0.45313 -0.48438,-0.95313 -0.17187,-0.73437 -0.17187,-2.1875 l 0,-4.57812 z m 11.67187,6.39062 1.64063,-0.17187 q 0.0781,0.54687 0.42187,0.875 0.34375,0.32812 0.79688,0.32812 0.51562,0 0.875,-0.42187 0.35937,-0.42188 0.35937,-1.26563 0,-0.78125 -0.35937,-1.17187 -0.35938,-0.40625 -0.92188,-0.40625 -0.71875,0 -1.28125,0.625 l -1.32812,-0.1875 0.84375,-4.46875 4.35937,0 0,1.53125 -3.10937,0 -0.26563,1.46875 q 0.5625,-0.28125 1.125,-0.28125 1.09375,0 1.85938,0.79687 0.76562,0.79688 0.76562,2.0625 0,1.0625 -0.60937,1.90625 -0.84375,1.125 -2.32813,1.125 -1.1875,0 -1.9375,-0.625 -0.75,-0.64062 -0.90625,-1.71875 z m 6.97071,0.5625 1.64062,0 0,1.17188 q 0,0.71875 -0.125,1.125 -0.125,0.42187 -0.46875,0.75 -0.34375,0.32812 -0.85937,0.51562 l -0.32813,-0.6875 q 0.5,-0.15625 0.70313,-0.45312 0.21875,-0.28125 0.23437,-0.78125 l -0.79687,0 0,-1.64063 z m 8.59961,-4.84375 -1.59375,0.17188 q -0.0625,-0.48438 -0.3125,-0.71875 -0.25,-0.23438 -0.64063,-0.23438 -0.51562,0 -0.875,0.46875 -0.35937,0.46875 -0.45312,1.9375 0.60937,-0.71875 1.53125,-0.71875 1.03125,0 1.76562,0.78125 0.73438,0.78125 0.73438,2.03125 0,1.3125 -0.78125,2.10938 -0.76563,0.79687 -1.98438,0.79687 -1.29687,0 -2.14062,-1 -0.82813,-1.01562 -0.82813,-3.3125 0,-2.375 0.85938,-3.40625 0.875,-1.04687 2.28125,-1.04687 0.96875,0 1.60937,0.54687 0.64063,0.54688 0.82813,1.59375 z m -3.73438,3.59375 q 0,0.79688 0.35938,1.23438 0.375,0.4375 0.84375,0.4375 0.46875,0 0.76562,-0.35938 0.3125,-0.35937 0.3125,-1.17187 0,-0.84375 -0.32812,-1.21875 Q 155,272.16061 154.5,272.16061 q -0.46875,0 -0.79687,0.375 -0.32813,0.35938 -0.32813,1.09375 z"
       id="path139"
       inkscape:connector-curvature="0"
       style="fill:#000000;fill-rule:nonzero" />
    <path
       d="M 92.0625,290.52 89,281.92625 l 1.875,0 2.171875,6.35937 2.109375,-6.35937 1.84375,0 -3.078125,8.59375 -1.859375,0 z m 8.80664,-2.20313 1.64063,-0.17187 q 0.0781,0.54687 0.42187,0.875 0.34375,0.32812 0.79688,0.32812 0.51562,0 0.875,-0.42187 0.35937,-0.42188 0.35937,-1.26563 0,-0.78125 -0.35937,-1.17187 -0.35938,-0.40625 -0.92188,-0.40625 -0.71875,0 -1.28125,0.625 l -1.32812,-0.1875 0.84375,-4.46875 4.35937,0 0,1.53125 -3.10937,0 -0.26563,1.46875 q 0.5625,-0.28125 1.125,-0.28125 1.09375,0 1.85938,0.79687 0.76562,0.79688 0.76562,2.0625 0,1.0625 -0.60937,1.90625 -0.84375,1.125 -2.32813,1.125 -1.1875,0 -1.9375,-0.625 -0.75,-0.64062 -0.90625,-1.71875 z m 6.9707,0.5625 1.64063,0 0,1.17188 q 0,0.71875 -0.125,1.125 -0.125,0.42187 -0.46875,0.75 -0.34375,0.32812 -0.85938,0.51562 l -0.32812,-0.6875 q 0.5,-0.15625 0.70312,-0.45312 0.21875,-0.28125 0.23438,-0.78125 l -0.79688,0 0,-1.64063 z m 8.59961,-4.84375 -1.59375,0.17188 q -0.0625,-0.48438 -0.3125,-0.71875 -0.25,-0.23438 -0.64062,-0.23438 -0.51563,0 -0.875,0.46875 -0.35938,0.46875 -0.45313,1.9375 0.60938,-0.71875 1.53125,-0.71875 1.03125,0 1.76563,0.78125 0.73437,0.78125 0.73437,2.03125 0,1.3125 -0.78125,2.10938 -0.76562,0.79687 -1.98437,0.79687 -1.29688,0 -2.14063,-1 -0.82812,-1.01562 -0.82812,-3.3125 0,-2.375 0.85937,-3.40625 0.875,-1.04687 2.28125,-1.04687 0.96875,0 1.60938,0.54687 0.64062,0.54688 0.82812,1.59375 z m -3.73437,3.59375 q 0,0.79688 0.35937,1.23438 0.375,0.4375 0.84375,0.4375 0.46875,0 0.76563,-0.35938 0.3125,-0.35937 0.3125,-1.17187 0,-0.84375 -0.32813,-1.21875 -0.32812,-0.39063 -0.82812,-0.39063 -0.46875,0 -0.79688,0.375 -0.32812,0.35938 -0.32812,1.09375 z"
       id="path141"
       inkscape:connector-curvature="0"
       style="fill:#000000;fill-rule:nonzero" />
    <path
       d="m 176,304 0,-48 96,48 z"
       id="path143"
       inkscape:connector-curvature="0"
       style="fill:#ff0000;fill-rule:nonzero" />
    <path
       d="m 176,304 0,-48 96,48 z"
       id="path145"
       inkscape:connector-curvature="0"
       style="stroke:#000000;stroke-width:1;stroke-linecap:butt;stroke-linejoin:round" />
    <path
       d="m 272,256 0,48 -96,-48 z"
       id="path147"
       inkscape:connector-curvature="0"
       style="fill:#0000ff;fill-rule:nonzero" />
    <path
       d="m 272,256 0,48 -96,-48 z"
       id="path149"
       inkscape:connector-curvature="0"
       style="stroke:#000000;stroke-width:1;stroke-linecap:butt;stroke-linejoin:round" />
    <path
       d="m 176,256 96,0 0,48 -96,0 z"
       id="path151"
       inkscape:connector-curvature="0"
       style="fill:#000000;fill-opacity:0;fill-rule:nonzero" />
    <path
       d="m 225.86719,267.92624 1.73437,0 0,4.65625 q 0,1.10937 0.0625,1.4375 0.10938,0.53125 0.53125,0.84375 0.42188,0.3125 1.15625,0.3125 0.73438,0 1.10938,-0.29688 0.375,-0.29687 0.45312,-0.73437 0.0781,-0.4375 0.0781,-1.46875 l 0,-4.75 1.73437,0 0,4.51562 q 0,1.54688 -0.14062,2.1875 -0.14063,0.64063 -0.53125,1.07813 -0.375,0.4375 -1.01563,0.70312 -0.625,0.25 -1.64062,0.25 -1.23438,0 -1.875,-0.28125 -0.625,-0.28125 -1,-0.73437 -0.35938,-0.45313 -0.48438,-0.95313 -0.17187,-0.73437 -0.17187,-2.1875 l 0,-4.57812 z m 11.65625,1.65625 0,-1.53125 5.625,0 0,1.1875 q -0.70313,0.6875 -1.42188,1.96875 -0.71875,1.28125 -1.09375,2.73437 -0.375,1.4375 -0.375,2.57813 l -1.57812,0 q 0.0312,-1.78125 0.71875,-3.625 0.70312,-1.85938 1.85937,-3.3125 l -3.73437,0 z m 6.98633,5.29687 1.64062,0 0,1.17188 q 0,0.71875 -0.125,1.125 -0.125,0.42187 -0.46875,0.75 -0.34375,0.32812 -0.85937,0.51562 l -0.32813,-0.6875 q 0.5,-0.15625 0.70313,-0.45312 0.21875,-0.28125 0.23437,-0.78125 l -0.79687,0 0,-1.64063 z m 4.42773,-3 q -0.64062,-0.26562 -0.9375,-0.73437 -0.28125,-0.46875 -0.28125,-1.03125 0,-0.96875 0.67188,-1.59375 0.67187,-0.625 1.90625,-0.625 1.21875,0 1.89062,0.625 0.6875,0.625 0.6875,1.59375 0,0.59375 -0.3125,1.0625 -0.3125,0.46875 -0.875,0.70312 0.71875,0.29688 1.09375,0.84375 0.375,0.54688 0.375,1.26563 0,1.1875 -0.76562,1.9375 -0.75,0.75 -2.01563,0.75 -1.17187,0 -1.95312,-0.625 -0.92188,-0.71875 -0.92188,-1.98438 0,-0.70312 0.34375,-1.28125 0.34375,-0.57812 1.09375,-0.90625 z m 0.34375,-1.65625 q 0,0.5 0.26563,0.78125 0.28125,0.26563 0.75,0.26563 0.46875,0 0.75,-0.28125 0.28125,-0.28125 0.28125,-0.76563 0,-0.46875 -0.28125,-0.73437 -0.28125,-0.28125 -0.73438,-0.28125 -0.46875,0 -0.75,0.28125 -0.28125,0.28125 -0.28125,0.73437 z m -0.15625,3.6875 q 0,0.67188 0.34375,1.0625 0.35938,0.375 0.875,0.375 0.51563,0 0.84375,-0.35937 0.32813,-0.375 0.32813,-1.0625 0,-0.60938 -0.34375,-0.96875 -0.32813,-0.375 -0.84375,-0.375 -0.60938,0 -0.90625,0.42187 -0.29688,0.42188 -0.29688,0.90625 z"
       id="path153"
       inkscape:connector-curvature="0"
       style="fill:#000000;fill-rule:nonzero" />
    <path
       d="M 188.0625,290.52 185,281.92625 l 1.875,0 2.17187,6.35937 2.10938,-6.35937 1.84375,0 -3.07813,8.59375 -1.85937,0 z m 8.79102,-6.9375 0,-1.53125 5.625,0 0,1.1875 q -0.70313,0.6875 -1.42188,1.96875 -0.71875,1.28125 -1.09375,2.73437 -0.375,1.4375 -0.375,2.57813 l -1.57812,0 q 0.0312,-1.78125 0.71875,-3.625 0.70312,-1.85938 1.85937,-3.3125 l -3.73437,0 z m 6.98632,5.29687 1.64063,0 0,1.17188 q 0,0.71875 -0.125,1.125 -0.125,0.42187 -0.46875,0.75 -0.34375,0.32812 -0.85938,0.51562 l -0.32812,-0.6875 q 0.5,-0.15625 0.70312,-0.45312 0.21875,-0.28125 0.23438,-0.78125 l -0.79688,0 0,-1.64063 z m 4.42774,-3 q -0.64063,-0.26562 -0.9375,-0.73437 -0.28125,-0.46875 -0.28125,-1.03125 0,-0.96875 0.67187,-1.59375 0.67188,-0.625 1.90625,-0.625 1.21875,0 1.89063,0.625 0.6875,0.625 0.6875,1.59375 0,0.59375 -0.3125,1.0625 -0.3125,0.46875 -0.875,0.70312 0.71875,0.29688 1.09375,0.84375 0.375,0.54688 0.375,1.26563 0,1.1875 -0.76563,1.9375 -0.75,0.75 -2.01562,0.75 -1.17188,0 -1.95313,-0.625 -0.92187,-0.71875 -0.92187,-1.98438 0,-0.70312 0.34375,-1.28125 0.34375,-0.57812 1.09375,-0.90625 z m 0.34375,-1.65625 q 0,0.5 0.26562,0.78125 0.28125,0.26563 0.75,0.26563 0.46875,0 0.75,-0.28125 0.28125,-0.28125 0.28125,-0.76563 0,-0.46875 -0.28125,-0.73437 -0.28125,-0.28125 -0.73437,-0.28125 -0.46875,0 -0.75,0.28125 -0.28125,0.28125 -0.28125,0.73437 z m -0.15625,3.6875 q 0,0.67188 0.34375,1.0625 0.35937,0.375 0.875,0.375 0.51562,0 0.84375,-0.35937 0.32812,-0.375 0.32812,-1.0625 0,-0.60938 -0.34375,-0.96875 -0.32812,-0.375 -0.84375,-0.375 -0.60937,0 -0.90625,0.42187 -0.29687,0.42188 -0.29687,0.90625 z"
       id="path155"
       inkscape:connector-curvature="0"
       style="fill:#000000;fill-rule:nonzero" />
    <path
       d="m 176,256 0,-48 96,48 z"
       id="path157"
       inkscape:connector-curvature="0"
       style="fill:#ff0000;fill-rule:nonzero" />
    <path
       d="m 176,256 0,-48 96,48 z"
       id="path159"
       inkscape:connector-curvature="0"
       style="stroke:#000000;stroke-width:1;stroke-linecap:butt;stroke-linejoin:round" />
    <path
       d="m 272,208 0,48 -96,-48 z"
       id="path161"
       inkscape:connector-curvature="0"
       style="fill:#0000ff;fill-rule:nonzero" />
    <path
       d="m 272,208 0,48 -96,-48 z"
       id="path163"
       inkscape:connector-curvature="0"
       style="stroke:#000000;stroke-width:1;stroke-linecap:butt;stroke-linejoin:round" />
    <path
       d="m 176,208 96,0 0,48 -96,0 z"
       id="path165"
       inkscape:connector-curvature="0"
       style="fill:#000000;fill-opacity:0;fill-rule:nonzero" />
    <path
       d="m 225.86719,219.92625 1.73437,0 0,4.65625 q 0,1.10937 0.0625,1.4375 0.10938,0.53125 0.53125,0.84375 0.42188,0.3125 1.15625,0.3125 0.73438,0 1.10938,-0.29688 0.375,-0.29687 0.45312,-0.73437 0.0781,-0.4375 0.0781,-1.46875 l 0,-4.75 1.73437,0 0,4.51562 q 0,1.54688 -0.14062,2.1875 -0.14063,0.64063 -0.53125,1.07813 -0.375,0.4375 -1.01563,0.70312 -0.625,0.25 -1.64062,0.25 -1.23438,0 -1.875,-0.28125 -0.625,-0.28125 -1,-0.73437 -0.35938,-0.45313 -0.48438,-0.95313 -0.17187,-0.73437 -0.17187,-2.1875 l 0,-4.57812 z m 11.59375,6.3125 1.59375,-0.1875 q 0.0781,0.60937 0.40625,0.9375 0.34375,0.3125 0.8125,0.3125 0.51562,0 0.85937,-0.39063 0.34375,-0.39062 0.34375,-1.04687 0,-0.60938 -0.34375,-0.96875 -0.32812,-0.375 -0.79687,-0.375 -0.32813,0 -0.76563,0.125 l 0.1875,-1.34375 q 0.67188,0.0156 1.01563,-0.28125 0.35937,-0.3125 0.35937,-0.82813 0,-0.42187 -0.26562,-0.67187 -0.25,-0.26563 -0.6875,-0.26563 -0.42188,0 -0.71875,0.29688 -0.29688,0.28125 -0.35938,0.84375 l -1.51562,-0.25 q 0.15625,-0.78125 0.46875,-1.25 0.32812,-0.46875 0.89062,-0.73438 0.57813,-0.26562 1.28125,-0.26562 1.21875,0 1.95313,0.76562 0.59375,0.64063 0.59375,1.4375 0,1.125 -1.23438,1.79688 0.75,0.17187 1.1875,0.71875 0.4375,0.54687 0.4375,1.32812 0,1.125 -0.82812,1.92188 -0.82813,0.79687 -2.04688,0.79687 -1.17187,0 -1.9375,-0.67187 -0.76562,-0.67188 -0.89062,-1.75 z m 7.04883,0.64062 1.64062,0 0,1.17188 q 0,0.71875 -0.125,1.125 -0.125,0.42187 -0.46875,0.75 -0.34375,0.32812 -0.85937,0.51562 l -0.32813,-0.6875 q 0.5,-0.15625 0.70313,-0.45312 0.21875,-0.28125 0.23437,-0.78125 l -0.79687,0 0,-1.64063 z m 6.24023,1.64063 0,-1.73438 -3.51562,0 0,-1.4375 3.73437,-5.45312 1.375,0 0,5.45312 1.07813,0 0,1.4375 -1.07813,0 0,1.73438 -1.59375,0 z m 0,-3.17188 0,-2.9375 -1.96875,2.9375 1.96875,0 z"
       id="path167"
       inkscape:connector-curvature="0"
       style="fill:#000000;fill-rule:nonzero" />
    <path
       d="M 188.0625,242.52 185,233.92625 l 1.875,0 2.17187,6.35937 2.10938,-6.35937 1.84375,0 -3.07813,8.59375 -1.85937,0 z m 8.72852,-2.28125 1.59375,-0.1875 q 0.0781,0.60937 0.40625,0.9375 0.34375,0.3125 0.8125,0.3125 0.51562,0 0.85937,-0.39063 0.34375,-0.39062 0.34375,-1.04687 0,-0.60938 -0.34375,-0.96875 -0.32812,-0.375 -0.79687,-0.375 -0.32813,0 -0.76563,0.125 l 0.1875,-1.34375 q 0.67188,0.0156 1.01563,-0.28125 0.35937,-0.3125 0.35937,-0.82813 0,-0.42187 -0.26562,-0.67187 -0.25,-0.26563 -0.6875,-0.26563 -0.42188,0 -0.71875,0.29688 -0.29688,0.28125 -0.35938,0.84375 l -1.51562,-0.25 q 0.15625,-0.78125 0.46875,-1.25 0.32812,-0.46875 0.89062,-0.73438 0.57813,-0.26562 1.28125,-0.26562 1.21875,0 1.95313,0.76562 0.59375,0.64063 0.59375,1.4375 0,1.125 -1.23438,1.79688 0.75,0.17187 1.1875,0.71875 0.4375,0.54687 0.4375,1.32812 0,1.125 -0.82812,1.92188 -0.82813,0.79687 -2.04688,0.79687 -1.17187,0 -1.9375,-0.67187 -0.76562,-0.67188 -0.89062,-1.75 z m 7.04882,0.64062 1.64063,0 0,1.17188 q 0,0.71875 -0.125,1.125 -0.125,0.42187 -0.46875,0.75 -0.34375,0.32812 -0.85938,0.51562 l -0.32812,-0.6875 q 0.5,-0.15625 0.70312,-0.45312 0.21875,-0.28125 0.23438,-0.78125 l -0.79688,0 0,-1.64063 z m 6.24024,1.64063 0,-1.73438 -3.51563,0 0,-1.4375 3.73438,-5.45312 1.375,0 0,5.45312 1.07812,0 0,1.4375 -1.07812,0 0,1.73438 -1.59375,0 z m 0,-3.17188 0,-2.9375 -1.96875,2.9375 1.96875,0 z"
       id="path169"
       inkscape:connector-curvature="0"
       style="fill:#000000;fill-rule:nonzero" />
    <path
       d="m 320,304 0,-96 96,96 z"
       id="path171"
       inkscape:connector-curvature="0"
       style="fill:#ff0000;fill-rule:nonzero" />
    <path
       d="m 320,304 0,-96 96,96 z"
       id="path173"
       inkscape:connector-curvature="0"
       style="stroke:#000000;stroke-width:1;stroke-linecap:butt;stroke-linejoin:round" />
    <path
       d="m 416,208 0,96 -96,-96 z"
       id="path175"
       inkscape:connector-curvature="0"
       style="fill:#0000ff;fill-rule:nonzero" />
    <path
       d="m 416,208 0,96 -96,-96 z"
       id="path177"
       inkscape:connector-curvature="0"
       style="stroke:#000000;stroke-width:1;stroke-linecap:butt;stroke-linejoin:round" />
    <path
       d="m 320,208 96,0 0,96 -96,0 z"
       id="path179"
       inkscape:connector-curvature="0"
       style="fill:#000000;fill-opacity:0;fill-rule:nonzero" />
    <path
       d="m 356.53125,219.92625 1.73437,0 0,4.65625 q 0,1.10937 0.0625,1.4375 0.10938,0.53125 0.53125,0.84375 0.42188,0.3125 1.15625,0.3125 0.73438,0 1.10938,-0.29688 0.375,-0.29687 0.45312,-0.73437 0.0781,-0.4375 0.0781,-1.46875 l 0,-4.75 1.73437,0 0,4.51562 q 0,1.54688 -0.14062,2.1875 -0.14063,0.64063 -0.53125,1.07813 -0.375,0.4375 -1.01563,0.70312 -0.625,0.25 -1.64062,0.25 -1.23438,0 -1.875,-0.28125 -0.625,-0.28125 -1,-0.73437 -0.35938,-0.45313 -0.48438,-0.95313 -0.17187,-0.73437 -0.17187,-2.1875 l 0,-4.57812 z m 15.85937,8.59375 -1.64062,0 0,-6.20313 q -0.90625,0.84375 -2.125,1.25 l 0,-1.5 q 0.64062,-0.20312 1.39062,-0.79687 0.76563,-0.59375 1.04688,-1.375 l 1.32812,0 0,8.625 z m 2.78321,-1.64063 1.64062,0 0,1.17188 q 0,0.71875 -0.125,1.125 -0.125,0.42187 -0.46875,0.75 -0.34375,0.32812 -0.85937,0.51562 l -0.32813,-0.6875 q 0.5,-0.15625 0.70313,-0.45312 0.21875,-0.28125 0.23437,-0.78125 l -0.79687,0 0,-1.64063 z m 8.58398,0.10938 0,1.53125 -5.78125,0 q 0.0937,-0.875 0.5625,-1.64063 0.46875,-0.78125 1.85938,-2.0625 1.10937,-1.03125 1.35937,-1.40625 0.34375,-0.51562 0.34375,-1.01562 0,-0.54688 -0.29687,-0.84375 -0.29688,-0.29688 -0.8125,-0.29688 -0.51563,0 -0.82813,0.3125 -0.29687,0.3125 -0.34375,1.03125 l -1.64062,-0.15625 q 0.14062,-1.35937 0.90625,-1.95312 0.78125,-0.59375 1.9375,-0.59375 1.28125,0 2,0.6875 0.73437,0.6875 0.73437,1.70312 0,0.57813 -0.21875,1.10938 -0.20312,0.51562 -0.65625,1.09375 -0.29687,0.375 -1.07812,1.09375 -0.78125,0.71875 -0.98438,0.95312 -0.20312,0.23438 -0.34375,0.45313 l 3.28125,0 z m 1.42383,-0.10938 1.64063,0 0,1.17188 q 0,0.71875 -0.125,1.125 -0.125,0.42187 -0.46875,0.75 -0.34375,0.32812 -0.85938,0.51562 l -0.32812,-0.6875 q 0.5,-0.15625 0.70312,-0.45312 0.21875,-0.28125 0.23438,-0.78125 l -0.79688,0 0,-1.64063 z m 3.03711,-0.5625 1.64062,-0.17187 q 0.0781,0.54687 0.42188,0.875 0.34375,0.32812 0.79687,0.32812 0.51563,0 0.875,-0.42187 0.35938,-0.42188 0.35938,-1.26563 0,-0.78125 -0.35938,-1.17187 -0.35937,-0.40625 -0.92187,-0.40625 -0.71875,0 -1.28125,0.625 l -1.32813,-0.1875 0.84375,-4.46875 4.35938,0 0,1.53125 -3.10938,0 -0.26562,1.46875 q 0.5625,-0.28125 1.125,-0.28125 1.09375,0 1.85937,0.79687 0.76563,0.79688 0.76563,2.0625 0,1.0625 -0.60938,1.90625 -0.84375,1.125 -2.32812,1.125 -1.1875,0 -1.9375,-0.625 -0.75,-0.64062 -0.90625,-1.71875 z m 6.9707,0.5625 1.64063,0 0,1.17188 q 0,0.71875 -0.125,1.125 -0.125,0.42187 -0.46875,0.75 -0.34375,0.32812 -0.85938,0.51562 l -0.32812,-0.6875 q 0.5,-0.15625 0.70312,-0.45312 0.21875,-0.28125 0.23438,-0.78125 l -0.79688,0 0,-1.64063 z m 8.59961,-4.84375 -1.59375,0.17188 q -0.0625,-0.48438 -0.3125,-0.71875 -0.25,-0.23438 -0.64062,-0.23438 -0.51563,0 -0.875,0.46875 -0.35938,0.46875 -0.45313,1.9375 0.60938,-0.71875 1.53125,-0.71875 1.03125,0 1.76563,0.78125 0.73437,0.78125 0.73437,2.03125 0,1.3125 -0.78125,2.10938 -0.76562,0.79687 -1.98437,0.79687 -1.29688,0 -2.14063,-1 -0.82812,-1.01562 -0.82812,-3.3125 0,-2.375 0.85937,-3.40625 0.875,-1.04687 2.28125,-1.04687 0.96875,0 1.60938,0.54687 0.64062,0.54688 0.82812,1.59375 z m -3.73437,3.59375 q 0,0.79688 0.35937,1.23438 0.375,0.4375 0.84375,0.4375 0.46875,0 0.76563,-0.35938 0.3125,-0.35937 0.3125,-1.17187 0,-0.84375 -0.32813,-1.21875 -0.32812,-0.39063 -0.82812,-0.39063 -0.46875,0 -0.79688,0.375 -0.32812,0.35938 -0.32812,1.09375 z"
       id="path181"
       inkscape:connector-curvature="0"
       style="fill:#000000;fill-rule:nonzero" />
    <path
       d="M 332.0625,284.52 329,275.92625 l 1.875,0 2.17187,6.35937 2.10938,-6.35937 1.84375,0 -3.07813,8.59375 -1.85937,0 z m 12.99414,0 -1.64062,0 0,-6.20313 q -0.90625,0.84375 -2.125,1.25 l 0,-1.5 q 0.64062,-0.20312 1.39062,-0.79687 0.76563,-0.59375 1.04688,-1.375 l 1.32812,0 0,8.625 z m 2.7832,-1.64063 1.64063,0 0,1.17188 q 0,0.71875 -0.125,1.125 -0.125,0.42187 -0.46875,0.75 -0.34375,0.32812 -0.85938,0.51562 l -0.32812,-0.6875 q 0.5,-0.15625 0.70312,-0.45312 0.21875,-0.28125 0.23438,-0.78125 l -0.79688,0 0,-1.64063 z m 8.58399,0.10938 0,1.53125 -5.78125,0 q 0.0937,-0.875 0.5625,-1.64063 0.46875,-0.78125 1.85937,-2.0625 1.10938,-1.03125 1.35938,-1.40625 0.34375,-0.51562 0.34375,-1.01562 0,-0.54688 -0.29688,-0.84375 -0.29687,-0.29688 -0.8125,-0.29688 -0.51562,0 -0.82812,0.3125 -0.29688,0.3125 -0.34375,1.03125 l -1.64063,-0.15625 q 0.14063,-1.35937 0.90625,-1.95312 0.78125,-0.59375 1.9375,-0.59375 1.28125,0 2,0.6875 0.73438,0.6875 0.73438,1.70312 0,0.57813 -0.21875,1.10938 -0.20313,0.51562 -0.65625,1.09375 -0.29688,0.375 -1.07813,1.09375 -0.78125,0.71875 -0.98437,0.95312 -0.20313,0.23438 -0.34375,0.45313 l 3.28125,0 z m 1.42383,-0.10938 1.64062,0 0,1.17188 q 0,0.71875 -0.125,1.125 -0.125,0.42187 -0.46875,0.75 -0.34375,0.32812 -0.85937,0.51562 l -0.32813,-0.6875 q 0.5,-0.15625 0.70313,-0.45312 0.21875,-0.28125 0.23437,-0.78125 l -0.79687,0 0,-1.64063 z m 3.03711,-0.5625 1.64062,-0.17187 q 0.0781,0.54687 0.42188,0.875 0.34375,0.32812 0.79687,0.32812 0.51563,0 0.875,-0.42187 0.35938,-0.42188 0.35938,-1.26563 0,-0.78125 -0.35938,-1.17187 -0.35937,-0.40625 -0.92187,-0.40625 -0.71875,0 -1.28125,0.625 l -1.32813,-0.1875 0.84375,-4.46875 4.35938,0 0,1.53125 -3.10938,0 -0.26562,1.46875 q 0.5625,-0.28125 1.125,-0.28125 1.09375,0 1.85937,0.79687 0.76563,0.79688 0.76563,2.0625 0,1.0625 -0.60938,1.90625 -0.84375,1.125 -2.32812,1.125 -1.1875,0 -1.9375,-0.625 -0.75,-0.64062 -0.90625,-1.71875 z m 6.9707,0.5625 1.64062,0 0,1.17188 q 0,0.71875 -0.125,1.125 -0.125,0.42187 -0.46875,0.75 -0.34375,0.32812 -0.85937,0.51562 l -0.32813,-0.6875 q 0.5,-0.15625 0.70313,-0.45312 0.21875,-0.28125 0.23437,-0.78125 l -0.79687,0 0,-1.64063 z m 8.59961,-4.84375 -1.59375,0.17188 q -0.0625,-0.48438 -0.3125,-0.71875 -0.25,-0.23438 -0.64063,-0.23438 -0.51562,0 -0.875,0.46875 -0.35937,0.46875 -0.45312,1.9375 0.60937,-0.71875 1.53125,-0.71875 1.03125,0 1.76562,0.78125 0.73438,0.78125 0.73438,2.03125 0,1.3125 -0.78125,2.10938 -0.76563,0.79687 -1.98438,0.79687 -1.29687,0 -2.14062,-1 -0.82813,-1.01562 -0.82813,-3.3125 0,-2.375 0.85938,-3.40625 0.875,-1.04687 2.28125,-1.04687 0.96875,0 1.60937,0.54687 0.64063,0.54688 0.82813,1.59375 z m -3.73438,3.59375 q 0,0.79688 0.35938,1.23438 0.375,0.4375 0.84375,0.4375 0.46875,0 0.76562,-0.35938 0.3125,-0.35937 0.3125,-1.17187 0,-0.84375 -0.32812,-1.21875 -0.32813,-0.39063 -0.82813,-0.39063 -0.46875,0 -0.79687,0.375 -0.32813,0.35938 -0.32813,1.09375 z"
       id="path183"
       inkscape:connector-curvature="0"
       style="fill:#000000;fill-rule:nonzero" />
    <path
       d="m 416,304 0,-96 96,96 z"
       id="path185"
       inkscape:connector-curvature="0"
       style="fill:#ff0000;fill-rule:nonzero" />
    <path
       d="m 416,304 0,-96 96,96 z"
       id="path187"
       inkscape:connector-curvature="0"
       style="stroke:#000000;stroke-width:1;stroke-linecap:butt;stroke-linejoin:round" />
    <path
       d="m 512,208 0,96 -96,-96 z"
       id="path189"
       inkscape:connector-curvature="0"
       style="fill:#0000ff;fill-rule:nonzero" />
    <path
       d="m 512,208 0,96 -96,-96 z"
       id="path191"
       inkscape:connector-curvature="0"
       style="stroke:#000000;stroke-width:1;stroke-linecap:butt;stroke-linejoin:round" />
    <path
       d="m 416,208 96,0 0,96 -96,0 z"
       id="path193"
       inkscape:connector-curvature="0"
       style="fill:#000000;fill-opacity:0;fill-rule:nonzero" />
    <path
       d="m 452.53125,219.92625 1.73437,0 0,4.65625 q 0,1.10937 0.0625,1.4375 0.10938,0.53125 0.53125,0.84375 0.42188,0.3125 1.15625,0.3125 0.73438,0 1.10938,-0.29688 0.375,-0.29687 0.45312,-0.73437 0.0781,-0.4375 0.0781,-1.46875 l 0,-4.75 1.73437,0 0,4.51562 q 0,1.54688 -0.14062,2.1875 -0.14063,0.64063 -0.53125,1.07813 -0.375,0.4375 -1.01563,0.70312 -0.625,0.25 -1.64062,0.25 -1.23438,0 -1.875,-0.28125 -0.625,-0.28125 -1,-0.73437 -0.35938,-0.45313 -0.48438,-0.95313 -0.17187,-0.73437 -0.17187,-2.1875 l 0,-4.57812 z m 11.59375,6.3125 1.59375,-0.1875 q 0.0781,0.60937 0.40625,0.9375 0.34375,0.3125 0.8125,0.3125 0.51562,0 0.85937,-0.39063 0.34375,-0.39062 0.34375,-1.04687 0,-0.60938 -0.34375,-0.96875 -0.32812,-0.375 -0.79687,-0.375 -0.32813,0 -0.76563,0.125 l 0.1875,-1.34375 q 0.67188,0.0156 1.01563,-0.28125 0.35937,-0.3125 0.35937,-0.82813 0,-0.42187 -0.26562,-0.67187 -0.25,-0.26563 -0.6875,-0.26563 -0.42188,0 -0.71875,0.29688 -0.29688,0.28125 -0.35938,0.84375 l -1.51562,-0.25 q 0.15625,-0.78125 0.46875,-1.25 0.32812,-0.46875 0.89062,-0.73438 0.57813,-0.26562 1.28125,-0.26562 1.21875,0 1.95313,0.76562 0.59375,0.64063 0.59375,1.4375 0,1.125 -1.23438,1.79688 0.75,0.17187 1.1875,0.71875 0.4375,0.54687 0.4375,1.32812 0,1.125 -0.82812,1.92188 -0.82813,0.79687 -2.04688,0.79687 -1.17187,0 -1.9375,-0.67187 -0.76562,-0.67188 -0.89062,-1.75 z m 7.04883,0.64062 1.64062,0 0,1.17188 q 0,0.71875 -0.125,1.125 -0.125,0.42187 -0.46875,0.75 -0.34375,0.32812 -0.85937,0.51562 l -0.32813,-0.6875 q 0.5,-0.15625 0.70313,-0.45312 0.21875,-0.28125 0.23437,-0.78125 l -0.79687,0 0,-1.64063 z m 6.24023,1.64063 0,-1.73438 -3.51562,0 0,-1.4375 3.73437,-5.45312 1.375,0 0,5.45312 1.07813,0 0,1.4375 -1.07813,0 0,1.73438 -1.59375,0 z m 0,-3.17188 0,-2.9375 -1.96875,2.9375 1.96875,0 z m 3.76758,1.53125 1.64063,0 0,1.17188 q 0,0.71875 -0.125,1.125 -0.125,0.42187 -0.46875,0.75 -0.34375,0.32812 -0.85938,0.51562 l -0.32812,-0.6875 q 0.5,-0.15625 0.70312,-0.45312 0.21875,-0.28125 0.23438,-0.78125 l -0.79688,0 0,-1.64063 z m 3.02148,-5.29687 0,-1.53125 5.625,0 0,1.1875 q -0.70312,0.6875 -1.42187,1.96875 -0.71875,1.28125 -1.09375,2.73437 -0.375,1.4375 -0.375,2.57813 l -1.57813,0 q 0.0312,-1.78125 0.71875,-3.625 0.70313,-1.85938 1.85938,-3.3125 l -3.73438,0 z m 6.98633,5.29687 1.64063,0 0,1.17188 q 0,0.71875 -0.125,1.125 -0.125,0.42187 -0.46875,0.75 -0.34375,0.32812 -0.85938,0.51562 l -0.32812,-0.6875 q 0.5,-0.15625 0.70312,-0.45312 0.21875,-0.28125 0.23438,-0.78125 l -0.79688,0 0,-1.64063 z m 4.42774,-3 q -0.64063,-0.26562 -0.9375,-0.73437 -0.28125,-0.46875 -0.28125,-1.03125 0,-0.96875 0.67187,-1.59375 0.67188,-0.625 1.90625,-0.625 1.21875,0 1.89063,0.625 0.6875,0.625 0.6875,1.59375 0,0.59375 -0.3125,1.0625 -0.3125,0.46875 -0.875,0.70312 0.71875,0.29688 1.09375,0.84375 0.375,0.54688 0.375,1.26563 0,1.1875 -0.76563,1.9375 -0.75,0.75 -2.01562,0.75 -1.17188,0 -1.95313,-0.625 -0.92187,-0.71875 -0.92187,-1.98438 0,-0.70312 0.34375,-1.28125 0.34375,-0.57812 1.09375,-0.90625 z m 0.34375,-1.65625 q 0,0.5 0.26562,0.78125 0.28125,0.26563 0.75,0.26563 0.46875,0 0.75,-0.28125 0.28125,-0.28125 0.28125,-0.76563 0,-0.46875 -0.28125,-0.73437 -0.28125,-0.28125 -0.73437,-0.28125 -0.46875,0 -0.75,0.28125 -0.28125,0.28125 -0.28125,0.73437 z m -0.15625,3.6875 q 0,0.67188 0.34375,1.0625 0.35937,0.375 0.875,0.375 0.51562,0 0.84375,-0.35937 0.32812,-0.375 0.32812,-1.0625 0,-0.60938 -0.34375,-0.96875 -0.32812,-0.375 -0.84375,-0.375 -0.60937,0 -0.90625,0.42187 -0.29687,0.42188 -0.29687,0.90625 z"
       id="path195"
       inkscape:connector-curvature="0"
       style="fill:#000000;fill-rule:nonzero" />
    <path
       d="M 428.0625,284.52 425,275.92625 l 1.875,0 2.17187,6.35937 2.10938,-6.35937 1.84375,0 -3.07813,8.59375 -1.85937,0 z m 8.72852,-2.28125 1.59375,-0.1875 q 0.0781,0.60937 0.40625,0.9375 0.34375,0.3125 0.8125,0.3125 0.51562,0 0.85937,-0.39063 0.34375,-0.39062 0.34375,-1.04687 0,-0.60938 -0.34375,-0.96875 -0.32812,-0.375 -0.79687,-0.375 -0.32813,0 -0.76563,0.125 l 0.1875,-1.34375 q 0.67188,0.0156 1.01563,-0.28125 0.35937,-0.3125 0.35937,-0.82813 0,-0.42187 -0.26562,-0.67187 -0.25,-0.26563 -0.6875,-0.26563 -0.42188,0 -0.71875,0.29688 -0.29688,0.28125 -0.35938,0.84375 l -1.51562,-0.25 q 0.15625,-0.78125 0.46875,-1.25 0.32812,-0.46875 0.89062,-0.73438 0.57813,-0.26562 1.28125,-0.26562 1.21875,0 1.95313,0.76562 0.59375,0.64063 0.59375,1.4375 0,1.125 -1.23438,1.79688 0.75,0.17187 1.1875,0.71875 0.4375,0.54687 0.4375,1.32812 0,1.125 -0.82812,1.92188 -0.82813,0.79687 -2.04688,0.79687 -1.17187,0 -1.9375,-0.67187 -0.76562,-0.67188 -0.89062,-1.75 z m 7.04882,0.64062 1.64063,0 0,1.17188 q 0,0.71875 -0.125,1.125 -0.125,0.42187 -0.46875,0.75 -0.34375,0.32812 -0.85938,0.51562 l -0.32812,-0.6875 q 0.5,-0.15625 0.70312,-0.45312 0.21875,-0.28125 0.23438,-0.78125 l -0.79688,0 0,-1.64063 z m 6.24024,1.64063 0,-1.73438 -3.51563,0 0,-1.4375 3.73438,-5.45312 1.375,0 0,5.45312 1.07812,0 0,1.4375 -1.07812,0 0,1.73438 -1.59375,0 z m 0,-3.17188 0,-2.9375 -1.96875,2.9375 1.96875,0 z m 3.76758,1.53125 1.64062,0 0,1.17188 q 0,0.71875 -0.125,1.125 -0.125,0.42187 -0.46875,0.75 -0.34375,0.32812 -0.85937,0.51562 l -0.32813,-0.6875 q 0.5,-0.15625 0.70313,-0.45312 0.21875,-0.28125 0.23437,-0.78125 l -0.79687,0 0,-1.64063 z m 3.02148,-5.29687 0,-1.53125 5.625,0 0,1.1875 q -0.70312,0.6875 -1.42187,1.96875 -0.71875,1.28125 -1.09375,2.73437 -0.375,1.4375 -0.375,2.57813 l -1.57813,0 q 0.0312,-1.78125 0.71875,-3.625 0.70313,-1.85938 1.85938,-3.3125 l -3.73438,0 z m 6.98633,5.29687 1.64062,0 0,1.17188 q 0,0.71875 -0.125,1.125 -0.125,0.42187 -0.46875,0.75 -0.34375,0.32812 -0.85937,0.51562 l -0.32813,-0.6875 q 0.5,-0.15625 0.70313,-0.45312 0.21875,-0.28125 0.23437,-0.78125 l -0.79687,0 0,-1.64063 z m 4.42773,-3 q -0.64062,-0.26562 -0.9375,-0.73437 -0.28125,-0.46875 -0.28125,-1.03125 0,-0.96875 0.67188,-1.59375 0.67187,-0.625 1.90625,-0.625 1.21875,0 1.89062,0.625 0.6875,0.625 0.6875,1.59375 0,0.59375 -0.3125,1.0625 -0.3125,0.46875 -0.875,0.70312 0.71875,0.29688 1.09375,0.84375 0.375,0.54688 0.375,1.26563 0,1.1875 -0.76562,1.9375 -0.75,0.75 -2.01563,0.75 -1.17187,0 -1.95312,-0.625 -0.92188,-0.71875 -0.92188,-1.98438 0,-0.70312 0.34375,-1.28125 0.34375,-0.57812 1.09375,-0.90625 z m 0.34375,-1.65625 q 0,0.5 0.26563,0.78125 0.28125,0.26563 0.75,0.26563 0.46875,0 0.75,-0.28125 0.28125,-0.28125 0.28125,-0.76563 0,-0.46875 -0.28125,-0.73437 -0.28125,-0.28125 -0.73438,-0.28125 -0.46875,0 -0.75,0.28125 -0.28125,0.28125 -0.28125,0.73437 z m -0.15625,3.6875 q 0,0.67188 0.34375,1.0625 0.35938,0.375 0.875,0.375 0.51563,0 0.84375,-0.35937 0.32813,-0.375 0.32813,-1.0625 0,-0.60938 -0.34375,-0.96875 -0.32813,-0.375 -0.84375,-0.375 -0.60938,0 -0.90625,0.42187 -0.29688,0.42188 -0.29688,0.90625 z"
       id="path197"
       inkscape:connector-curvature="0"
       style="fill:#000000;fill-rule:nonzero" />
  </g>
</svg>
